G04 #@! TF.GenerationSoftware,KiCad,Pcbnew,5.1.5-52549c5~86~ubuntu19.04.1*
G04 #@! TF.CreationDate,2020-05-05T22:36:46+02:00*
G04 #@! TF.ProjectId,NotSoTinyDimmer,4e6f7453-6f54-4696-9e79-44696d6d6572,1.3.3*
G04 #@! TF.SameCoordinates,Original*
G04 #@! TF.FileFunction,Legend,Bot*
G04 #@! TF.FilePolarity,Positive*
%FSLAX46Y46*%
G04 Gerber Fmt 4.6, Leading zero omitted, Abs format (unit mm)*
G04 Created by KiCad (PCBNEW 5.1.5-52549c5~86~ubuntu19.04.1) date 2020-05-05 22:36:46*
%MOMM*%
%LPD*%
G04 APERTURE LIST*
%ADD10C,0.120000*%
%ADD11C,0.150000*%
G04 APERTURE END LIST*
D10*
X147668000Y-80209500D02*
X148498000Y-80209500D01*
X150118000Y-80209500D02*
X150648000Y-80209500D01*
X153018000Y-80209500D02*
X154198000Y-80209500D01*
X144458000Y-80209500D02*
X144458000Y-75489500D01*
X154198000Y-71679500D02*
X154198000Y-68619500D01*
X154208000Y-80209500D02*
X154208000Y-75489500D01*
X144458000Y-71679500D02*
X144458000Y-68619500D01*
X144458000Y-80209500D02*
X145948000Y-80209500D01*
X144458000Y-68619500D02*
X154198000Y-68619500D01*
X147078000Y-95007800D02*
X151578000Y-95007800D01*
X145828000Y-99007800D02*
X145828000Y-97507800D01*
X151578000Y-101507800D02*
X147078000Y-101507800D01*
X152828000Y-97507800D02*
X152828000Y-99007800D01*
D11*
X157059238Y-70302380D02*
X157392571Y-69826190D01*
X157630666Y-70302380D02*
X157630666Y-69302380D01*
X157249714Y-69302380D01*
X157154476Y-69350000D01*
X157106857Y-69397619D01*
X157059238Y-69492857D01*
X157059238Y-69635714D01*
X157106857Y-69730952D01*
X157154476Y-69778571D01*
X157249714Y-69826190D01*
X157630666Y-69826190D01*
X156773523Y-69302380D02*
X156440190Y-70302380D01*
X156106857Y-69302380D01*
X155249714Y-70302380D02*
X155821142Y-70302380D01*
X155535428Y-70302380D02*
X155535428Y-69302380D01*
X155630666Y-69445238D01*
X155725904Y-69540476D01*
X155821142Y-69588095D01*
X150089904Y-102912561D02*
X149947047Y-102960180D01*
X149708952Y-102960180D01*
X149613714Y-102912561D01*
X149566095Y-102864942D01*
X149518476Y-102769704D01*
X149518476Y-102674466D01*
X149566095Y-102579228D01*
X149613714Y-102531609D01*
X149708952Y-102483990D01*
X149899428Y-102436371D01*
X149994666Y-102388752D01*
X150042285Y-102341133D01*
X150089904Y-102245895D01*
X150089904Y-102150657D01*
X150042285Y-102055419D01*
X149994666Y-102007800D01*
X149899428Y-101960180D01*
X149661333Y-101960180D01*
X149518476Y-102007800D01*
X148566095Y-102960180D02*
X149137523Y-102960180D01*
X148851809Y-102960180D02*
X148851809Y-101960180D01*
X148947047Y-102103038D01*
X149042285Y-102198276D01*
X149137523Y-102245895D01*
M02*
