M48
; DRILL file {KiCad 5.1.5-52549c5~86~ubuntu19.04.1} date Út 5. května 2020, 22:36:43 CEST
; FORMAT={-:-/ absolute / inch / decimal}
; #@! TF.CreationDate,2020-05-05T22:36:43+02:00
; #@! TF.GenerationSoftware,Kicad,Pcbnew,5.1.5-52549c5~86~ubuntu19.04.1
; #@! TF.FileFunction,Plated,1,2,PTH
FMAT,2
INCH
T1C0.0276
T2C0.0315
T3C0.0394
T4C0.0433
%
G90
G05
T1
X6.33Y-3.7082
X6.33Y-3.9082
X6.21Y-3.7082
X6.21Y-3.9082
T2
X5.555Y-3.6405
X5.555Y-3.8373
X5.4027Y-3.6405
X5.4027Y-3.8373
X6.272Y-4.144
X6.272Y-4.2227
T3
X5.744Y-3.31
X5.744Y-3.61
X5.844Y-3.31
X5.844Y-3.61
X5.944Y-3.31
X5.944Y-3.61
X6.044Y-3.31
X6.044Y-3.61
X5.7806Y-3.1925
X5.8791Y-3.1925
X5.9775Y-3.1925
X5.3594Y-3.2305
X5.3594Y-3.3305
X5.3594Y-3.4305
X5.4594Y-3.2305
X5.4594Y-3.3305
X5.4594Y-3.4305
T4
X5.779Y-4.4515
X5.879Y-4.4515
X5.979Y-4.4515
X5.7511Y-3.7798
X5.7511Y-3.957
X6.007Y-3.7798
X6.007Y-3.957
T3
G00X5.4395Y-4.0421
M15
G01X5.5182Y-4.0421
M16
G05
G00X5.4395Y-4.2783
M15
G01X5.5182Y-4.2783
M16
G05
G00X5.6639Y-4.1996
M15
G01X5.6639Y-4.1209
M16
G05
T4
G00X5.6901Y-2.8834
M15
G01X5.6901Y-2.911
M16
G05
G00X6.068Y-2.8834
M15
G01X6.068Y-2.911
M16
G05
T0
M30
