G04 #@! TF.GenerationSoftware,KiCad,Pcbnew,5.1.5-52549c5~86~ubuntu19.04.1*
G04 #@! TF.CreationDate,2020-05-05T22:36:46+02:00*
G04 #@! TF.ProjectId,NotSoTinyDimmer,4e6f7453-6f54-4696-9e79-44696d6d6572,1.3.3*
G04 #@! TF.SameCoordinates,Original*
G04 #@! TF.FileFunction,Copper,L2,Bot*
G04 #@! TF.FilePolarity,Positive*
%FSLAX46Y46*%
G04 Gerber Fmt 4.6, Leading zero omitted, Abs format (unit mm)*
G04 Created by KiCad (PCBNEW 5.1.5-52549c5~86~ubuntu19.04.1) date 2020-05-05 22:36:46*
%MOMM*%
%LPD*%
G04 APERTURE LIST*
%ADD10O,2.720000X3.240000*%
%ADD11C,1.800000*%
%ADD12R,1.800000X1.800000*%
%ADD13R,1.600000X1.600000*%
%ADD14C,1.600000*%
%ADD15C,0.100000*%
%ADD16R,3.500000X3.500000*%
%ADD17O,1.400000X1.400000*%
%ADD18C,1.400000*%
%ADD19C,2.100000*%
%ADD20R,2.100000X2.100000*%
%ADD21R,1.700000X1.700000*%
%ADD22O,1.700000X1.700000*%
%ADD23C,2.000000*%
%ADD24C,0.250000*%
%ADD25C,0.254000*%
G04 APERTURE END LIST*
D10*
X154128000Y-73589500D03*
X144528000Y-73589500D03*
D11*
X146828000Y-81089500D03*
X149328000Y-81089500D03*
D12*
X151828000Y-81089500D03*
D13*
X159308800Y-105257600D03*
D14*
X159308800Y-107257600D03*
X141098000Y-92468500D03*
X141098000Y-97468500D03*
X137228000Y-92468500D03*
X137228000Y-97468500D03*
G04 #@! TA.AperFunction,ComponentPad*
D15*
G36*
X144823765Y-103924213D02*
G01*
X144908704Y-103936813D01*
X144991999Y-103957677D01*
X145072848Y-103986605D01*
X145150472Y-104023319D01*
X145224124Y-104067464D01*
X145293094Y-104118616D01*
X145356718Y-104176282D01*
X145414384Y-104239906D01*
X145465536Y-104308876D01*
X145509681Y-104382528D01*
X145546395Y-104460152D01*
X145575323Y-104541001D01*
X145596187Y-104624296D01*
X145608787Y-104709235D01*
X145613000Y-104795000D01*
X145613000Y-106545000D01*
X145608787Y-106630765D01*
X145596187Y-106715704D01*
X145575323Y-106798999D01*
X145546395Y-106879848D01*
X145509681Y-106957472D01*
X145465536Y-107031124D01*
X145414384Y-107100094D01*
X145356718Y-107163718D01*
X145293094Y-107221384D01*
X145224124Y-107272536D01*
X145150472Y-107316681D01*
X145072848Y-107353395D01*
X144991999Y-107382323D01*
X144908704Y-107403187D01*
X144823765Y-107415787D01*
X144738000Y-107420000D01*
X142988000Y-107420000D01*
X142902235Y-107415787D01*
X142817296Y-107403187D01*
X142734001Y-107382323D01*
X142653152Y-107353395D01*
X142575528Y-107316681D01*
X142501876Y-107272536D01*
X142432906Y-107221384D01*
X142369282Y-107163718D01*
X142311616Y-107100094D01*
X142260464Y-107031124D01*
X142216319Y-106957472D01*
X142179605Y-106879848D01*
X142150677Y-106798999D01*
X142129813Y-106715704D01*
X142117213Y-106630765D01*
X142113000Y-106545000D01*
X142113000Y-104795000D01*
X142117213Y-104709235D01*
X142129813Y-104624296D01*
X142150677Y-104541001D01*
X142179605Y-104460152D01*
X142216319Y-104382528D01*
X142260464Y-104308876D01*
X142311616Y-104239906D01*
X142369282Y-104176282D01*
X142432906Y-104118616D01*
X142501876Y-104067464D01*
X142575528Y-104023319D01*
X142653152Y-103986605D01*
X142734001Y-103957677D01*
X142817296Y-103936813D01*
X142902235Y-103924213D01*
X142988000Y-103920000D01*
X144738000Y-103920000D01*
X144823765Y-103924213D01*
G37*
G04 #@! TD.AperFunction*
G04 #@! TA.AperFunction,ComponentPad*
G36*
X140236513Y-107173611D02*
G01*
X140309318Y-107184411D01*
X140380714Y-107202295D01*
X140450013Y-107227090D01*
X140516548Y-107258559D01*
X140579678Y-107296398D01*
X140638795Y-107340242D01*
X140693330Y-107389670D01*
X140742758Y-107444205D01*
X140786602Y-107503322D01*
X140824441Y-107566452D01*
X140855910Y-107632987D01*
X140880705Y-107702286D01*
X140898589Y-107773682D01*
X140909389Y-107846487D01*
X140913000Y-107920000D01*
X140913000Y-109420000D01*
X140909389Y-109493513D01*
X140898589Y-109566318D01*
X140880705Y-109637714D01*
X140855910Y-109707013D01*
X140824441Y-109773548D01*
X140786602Y-109836678D01*
X140742758Y-109895795D01*
X140693330Y-109950330D01*
X140638795Y-109999758D01*
X140579678Y-110043602D01*
X140516548Y-110081441D01*
X140450013Y-110112910D01*
X140380714Y-110137705D01*
X140309318Y-110155589D01*
X140236513Y-110166389D01*
X140163000Y-110170000D01*
X138163000Y-110170000D01*
X138089487Y-110166389D01*
X138016682Y-110155589D01*
X137945286Y-110137705D01*
X137875987Y-110112910D01*
X137809452Y-110081441D01*
X137746322Y-110043602D01*
X137687205Y-109999758D01*
X137632670Y-109950330D01*
X137583242Y-109895795D01*
X137539398Y-109836678D01*
X137501559Y-109773548D01*
X137470090Y-109707013D01*
X137445295Y-109637714D01*
X137427411Y-109566318D01*
X137416611Y-109493513D01*
X137413000Y-109420000D01*
X137413000Y-107920000D01*
X137416611Y-107846487D01*
X137427411Y-107773682D01*
X137445295Y-107702286D01*
X137470090Y-107632987D01*
X137501559Y-107566452D01*
X137539398Y-107503322D01*
X137583242Y-107444205D01*
X137632670Y-107389670D01*
X137687205Y-107340242D01*
X137746322Y-107296398D01*
X137809452Y-107258559D01*
X137875987Y-107227090D01*
X137945286Y-107202295D01*
X138016682Y-107184411D01*
X138089487Y-107173611D01*
X138163000Y-107170000D01*
X140163000Y-107170000D01*
X140236513Y-107173611D01*
G37*
G04 #@! TD.AperFunction*
D16*
X139163000Y-102670000D03*
D17*
X160782000Y-94188500D03*
D18*
X160782000Y-99268500D03*
D17*
X157734000Y-94188500D03*
D18*
X157734000Y-99268500D03*
D13*
X145897600Y-91694000D03*
D14*
X148437600Y-91694000D03*
X150977600Y-91694000D03*
X153517600Y-91694000D03*
X153517600Y-84074000D03*
X150977600Y-84074000D03*
X148437600Y-84074000D03*
X145897600Y-84074000D03*
D19*
X151866500Y-113068100D03*
X149326500Y-113068100D03*
D20*
X146786500Y-113068100D03*
D21*
X136128000Y-82054700D03*
D22*
X138668000Y-82054700D03*
X136128000Y-84594700D03*
X138668000Y-84594700D03*
X136128000Y-87134700D03*
X138668000Y-87134700D03*
D23*
X146078000Y-96007800D03*
X146078000Y-100507800D03*
X152578000Y-96007800D03*
X152578000Y-100507800D03*
D24*
X143878300Y-82054700D02*
X145897600Y-84074000D01*
X138668000Y-82054700D02*
X143878300Y-82054700D01*
X160358800Y-105257600D02*
X159308800Y-105257600D01*
X160782000Y-104834400D02*
X160358800Y-105257600D01*
X160782000Y-99268500D02*
X160782000Y-104834400D01*
X141098000Y-88873600D02*
X145897600Y-84074000D01*
X141098000Y-92468500D02*
X141098000Y-88873600D01*
X146828000Y-83143600D02*
X146828000Y-81089500D01*
X145897600Y-84074000D02*
X146828000Y-83143600D01*
X156494700Y-100507800D02*
X152578000Y-100507800D01*
X157734000Y-99268500D02*
X156494700Y-100507800D01*
X149326500Y-113068100D02*
X153123800Y-109270800D01*
X153123800Y-109270800D02*
X160985200Y-109270800D01*
X160985200Y-109270800D02*
X163017200Y-107238800D01*
X163017200Y-93573600D02*
X153517600Y-84074000D01*
X163017200Y-107238800D02*
X163017200Y-93573600D01*
X152102601Y-82948999D02*
X153144001Y-82948999D01*
X150977600Y-84074000D02*
X152102601Y-82948999D01*
X153144001Y-82948999D02*
X153822400Y-82270600D01*
X153822400Y-82270600D02*
X153822400Y-79971900D01*
X153822400Y-79971900D02*
X152501600Y-78651100D01*
X136128000Y-80954700D02*
X136128000Y-82054700D01*
X138431600Y-78651100D02*
X136128000Y-80954700D01*
X152501600Y-78651100D02*
X138431600Y-78651100D01*
X160782000Y-95178449D02*
X160202449Y-95758000D01*
X160782000Y-94188500D02*
X160782000Y-95178449D01*
X160202449Y-95758000D02*
X155956000Y-95758000D01*
X155956000Y-95758000D02*
X153924000Y-93726000D01*
X145897600Y-92744000D02*
X145897600Y-91694000D01*
X146879600Y-93726000D02*
X145897600Y-92744000D01*
X153924000Y-93726000D02*
X146879600Y-93726000D01*
X149694900Y-90411300D02*
X150977600Y-91694000D01*
X149694900Y-82729192D02*
X149694900Y-90411300D01*
X149328000Y-82362292D02*
X149328000Y-81089500D01*
X149694900Y-82729192D02*
X149328000Y-82362292D01*
D25*
G36*
X144498912Y-83750114D02*
G01*
X144462600Y-83932665D01*
X144462600Y-84215335D01*
X144498912Y-84397885D01*
X140586998Y-88309801D01*
X140558000Y-88333599D01*
X140534202Y-88362597D01*
X140534201Y-88362598D01*
X140463026Y-88449324D01*
X140392454Y-88581354D01*
X140348998Y-88724615D01*
X140334324Y-88873600D01*
X140338001Y-88910932D01*
X140338000Y-91250456D01*
X140183241Y-91353863D01*
X139983363Y-91553741D01*
X139826320Y-91788773D01*
X139718147Y-92049926D01*
X139663000Y-92327165D01*
X139663000Y-92609835D01*
X139718147Y-92887074D01*
X139826320Y-93148227D01*
X139983363Y-93383259D01*
X140183241Y-93583137D01*
X140418273Y-93740180D01*
X140679426Y-93848353D01*
X140956665Y-93903500D01*
X141239335Y-93903500D01*
X141516574Y-93848353D01*
X141777727Y-93740180D01*
X142012759Y-93583137D01*
X142212637Y-93383259D01*
X142369680Y-93148227D01*
X142477853Y-92887074D01*
X142533000Y-92609835D01*
X142533000Y-92327165D01*
X142477853Y-92049926D01*
X142369680Y-91788773D01*
X142212637Y-91553741D01*
X142012759Y-91353863D01*
X141858000Y-91250457D01*
X141858000Y-89188401D01*
X145573715Y-85472688D01*
X145756265Y-85509000D01*
X146038935Y-85509000D01*
X146316174Y-85453853D01*
X146577327Y-85345680D01*
X146812359Y-85188637D01*
X147012237Y-84988759D01*
X147167600Y-84756241D01*
X147322963Y-84988759D01*
X147522841Y-85188637D01*
X147757873Y-85345680D01*
X148019026Y-85453853D01*
X148296265Y-85509000D01*
X148578935Y-85509000D01*
X148856174Y-85453853D01*
X148934900Y-85421244D01*
X148934901Y-90346757D01*
X148856174Y-90314147D01*
X148578935Y-90259000D01*
X148296265Y-90259000D01*
X148019026Y-90314147D01*
X147757873Y-90422320D01*
X147522841Y-90579363D01*
X147324243Y-90777961D01*
X147323412Y-90769518D01*
X147287102Y-90649820D01*
X147228137Y-90539506D01*
X147148785Y-90442815D01*
X147052094Y-90363463D01*
X146941780Y-90304498D01*
X146822082Y-90268188D01*
X146697600Y-90255928D01*
X145097600Y-90255928D01*
X144973118Y-90268188D01*
X144853420Y-90304498D01*
X144743106Y-90363463D01*
X144646415Y-90442815D01*
X144567063Y-90539506D01*
X144508098Y-90649820D01*
X144471788Y-90769518D01*
X144459528Y-90894000D01*
X144459528Y-92494000D01*
X144471788Y-92618482D01*
X144508098Y-92738180D01*
X144567063Y-92848494D01*
X144646415Y-92945185D01*
X144743106Y-93024537D01*
X144853420Y-93083502D01*
X144973118Y-93119812D01*
X145097600Y-93132072D01*
X145243274Y-93132072D01*
X145262626Y-93168276D01*
X145300969Y-93214997D01*
X145357599Y-93284001D01*
X145386602Y-93307804D01*
X146315800Y-94237002D01*
X146339599Y-94266001D01*
X146455324Y-94360974D01*
X146587353Y-94431546D01*
X146730614Y-94475003D01*
X146842267Y-94486000D01*
X146842275Y-94486000D01*
X146879600Y-94489676D01*
X146916925Y-94486000D01*
X151975870Y-94486000D01*
X151891912Y-94515005D01*
X151717956Y-94607986D01*
X151622192Y-94872387D01*
X152578000Y-95828195D01*
X153533808Y-94872387D01*
X153438044Y-94607986D01*
X153187288Y-94486000D01*
X153609199Y-94486000D01*
X155392201Y-96269003D01*
X155415999Y-96298001D01*
X155444997Y-96321799D01*
X155531723Y-96392974D01*
X155663753Y-96463546D01*
X155807014Y-96507003D01*
X155918667Y-96518000D01*
X155918677Y-96518000D01*
X155956000Y-96521676D01*
X155993323Y-96518000D01*
X160165127Y-96518000D01*
X160202449Y-96521676D01*
X160239771Y-96518000D01*
X160239782Y-96518000D01*
X160351435Y-96507003D01*
X160494696Y-96463546D01*
X160626725Y-96392974D01*
X160742450Y-96298001D01*
X160766252Y-96268998D01*
X161293002Y-95742249D01*
X161322001Y-95718450D01*
X161348332Y-95686366D01*
X161416974Y-95602726D01*
X161487546Y-95470696D01*
X161497655Y-95437371D01*
X161531003Y-95327435D01*
X161534568Y-95291240D01*
X161633013Y-95225462D01*
X161818962Y-95039513D01*
X161965061Y-94820859D01*
X162065696Y-94577905D01*
X162117000Y-94319986D01*
X162117000Y-94057014D01*
X162065696Y-93799095D01*
X161993432Y-93624634D01*
X162257201Y-93888403D01*
X162257200Y-106923998D01*
X160670399Y-108510800D01*
X160019390Y-108510800D01*
X160050314Y-108494271D01*
X160121897Y-108250302D01*
X159308800Y-107437205D01*
X158495703Y-108250302D01*
X158567286Y-108494271D01*
X158602218Y-108510800D01*
X153161122Y-108510800D01*
X153123799Y-108507124D01*
X153086476Y-108510800D01*
X153086467Y-108510800D01*
X152974814Y-108521797D01*
X152831553Y-108565254D01*
X152699524Y-108635826D01*
X152583799Y-108730799D01*
X152560001Y-108759797D01*
X149856144Y-111463655D01*
X149817996Y-111447854D01*
X149492458Y-111383100D01*
X149160542Y-111383100D01*
X148835004Y-111447854D01*
X148528353Y-111574872D01*
X148374542Y-111677646D01*
X148367037Y-111663606D01*
X148287685Y-111566915D01*
X148190994Y-111487563D01*
X148080680Y-111428598D01*
X147960982Y-111392288D01*
X147836500Y-111380028D01*
X145736500Y-111380028D01*
X145612018Y-111392288D01*
X145492320Y-111428598D01*
X145382006Y-111487563D01*
X145285315Y-111566915D01*
X145205963Y-111663606D01*
X145146998Y-111773920D01*
X145110688Y-111893618D01*
X145098428Y-112018100D01*
X145098428Y-114118100D01*
X145110688Y-114242582D01*
X145146998Y-114362280D01*
X145205963Y-114472594D01*
X145285315Y-114569285D01*
X145382006Y-114648637D01*
X145492320Y-114707602D01*
X145612018Y-114743912D01*
X145736500Y-114756172D01*
X147836500Y-114756172D01*
X147960982Y-114743912D01*
X148080680Y-114707602D01*
X148190994Y-114648637D01*
X148287685Y-114569285D01*
X148367037Y-114472594D01*
X148374542Y-114458554D01*
X148528353Y-114561328D01*
X148835004Y-114688346D01*
X149160542Y-114753100D01*
X149492458Y-114753100D01*
X149817996Y-114688346D01*
X150124647Y-114561328D01*
X150400625Y-114376925D01*
X150538384Y-114239166D01*
X150875039Y-114239166D01*
X150976839Y-114508679D01*
X151274977Y-114654563D01*
X151595846Y-114739480D01*
X151927117Y-114760166D01*
X152256057Y-114715828D01*
X152570027Y-114608169D01*
X152756161Y-114508679D01*
X152857961Y-114239166D01*
X151866500Y-113247705D01*
X150875039Y-114239166D01*
X150538384Y-114239166D01*
X150635325Y-114142225D01*
X150691542Y-114058091D01*
X150695434Y-114059561D01*
X151686895Y-113068100D01*
X152046105Y-113068100D01*
X153037566Y-114059561D01*
X153307079Y-113957761D01*
X153452963Y-113659623D01*
X153537880Y-113338754D01*
X153558566Y-113007483D01*
X153514228Y-112678543D01*
X153479178Y-112576323D01*
X158112497Y-112576323D01*
X158112497Y-113003677D01*
X158195870Y-113422821D01*
X158359412Y-113817645D01*
X158596837Y-114172977D01*
X158899023Y-114475163D01*
X159254355Y-114712588D01*
X159649179Y-114876130D01*
X160068323Y-114959503D01*
X160495677Y-114959503D01*
X160914821Y-114876130D01*
X161309645Y-114712588D01*
X161664977Y-114475163D01*
X161967163Y-114172977D01*
X162204588Y-113817645D01*
X162368130Y-113422821D01*
X162451503Y-113003677D01*
X162451503Y-112576323D01*
X162368130Y-112157179D01*
X162204588Y-111762355D01*
X161967163Y-111407023D01*
X161664977Y-111104837D01*
X161309645Y-110867412D01*
X160914821Y-110703870D01*
X160495677Y-110620497D01*
X160068323Y-110620497D01*
X159649179Y-110703870D01*
X159254355Y-110867412D01*
X158899023Y-111104837D01*
X158596837Y-111407023D01*
X158359412Y-111762355D01*
X158195870Y-112157179D01*
X158112497Y-112576323D01*
X153479178Y-112576323D01*
X153406569Y-112364573D01*
X153307079Y-112178439D01*
X153037566Y-112076639D01*
X152046105Y-113068100D01*
X151686895Y-113068100D01*
X151672753Y-113053958D01*
X151852358Y-112874353D01*
X151866500Y-112888495D01*
X152857961Y-111897034D01*
X152756161Y-111627521D01*
X152458023Y-111481637D01*
X152137154Y-111396720D01*
X152076471Y-111392931D01*
X153438602Y-110030800D01*
X160947878Y-110030800D01*
X160985200Y-110034476D01*
X161022522Y-110030800D01*
X161022533Y-110030800D01*
X161134186Y-110019803D01*
X161277447Y-109976346D01*
X161409476Y-109905774D01*
X161525201Y-109810801D01*
X161549004Y-109781797D01*
X163528204Y-107802598D01*
X163557201Y-107778801D01*
X163586086Y-107743604D01*
X163652174Y-107663077D01*
X163668001Y-107633467D01*
X163668001Y-116010000D01*
X134988000Y-116010000D01*
X134988000Y-110170000D01*
X136774928Y-110170000D01*
X136787188Y-110294482D01*
X136823498Y-110414180D01*
X136882463Y-110524494D01*
X136961815Y-110621185D01*
X137058506Y-110700537D01*
X137168820Y-110759502D01*
X137288518Y-110795812D01*
X137413000Y-110808072D01*
X138877250Y-110805000D01*
X139036000Y-110646250D01*
X139036000Y-108797000D01*
X139290000Y-108797000D01*
X139290000Y-110646250D01*
X139448750Y-110805000D01*
X140913000Y-110808072D01*
X141037482Y-110795812D01*
X141157180Y-110759502D01*
X141267494Y-110700537D01*
X141364185Y-110621185D01*
X141443537Y-110524494D01*
X141502502Y-110414180D01*
X141538812Y-110294482D01*
X141551072Y-110170000D01*
X141548000Y-108955750D01*
X141389250Y-108797000D01*
X139290000Y-108797000D01*
X139036000Y-108797000D01*
X136936750Y-108797000D01*
X136778000Y-108955750D01*
X136774928Y-110170000D01*
X134988000Y-110170000D01*
X134988000Y-107170000D01*
X136774928Y-107170000D01*
X136778000Y-108384250D01*
X136936750Y-108543000D01*
X139036000Y-108543000D01*
X139036000Y-106693750D01*
X139290000Y-106693750D01*
X139290000Y-108543000D01*
X141389250Y-108543000D01*
X141548000Y-108384250D01*
X141551072Y-107170000D01*
X141538812Y-107045518D01*
X141502502Y-106925820D01*
X141443537Y-106815506D01*
X141364185Y-106718815D01*
X141267494Y-106639463D01*
X141157180Y-106580498D01*
X141037482Y-106544188D01*
X140913000Y-106531928D01*
X139448750Y-106535000D01*
X139290000Y-106693750D01*
X139036000Y-106693750D01*
X138877250Y-106535000D01*
X137413000Y-106531928D01*
X137288518Y-106544188D01*
X137168820Y-106580498D01*
X137058506Y-106639463D01*
X136961815Y-106718815D01*
X136882463Y-106815506D01*
X136823498Y-106925820D01*
X136787188Y-107045518D01*
X136774928Y-107170000D01*
X134988000Y-107170000D01*
X134988000Y-100920000D01*
X136774928Y-100920000D01*
X136774928Y-104420000D01*
X136787188Y-104544482D01*
X136823498Y-104664180D01*
X136882463Y-104774494D01*
X136961815Y-104871185D01*
X137058506Y-104950537D01*
X137168820Y-105009502D01*
X137288518Y-105045812D01*
X137413000Y-105058072D01*
X140913000Y-105058072D01*
X141037482Y-105045812D01*
X141157180Y-105009502D01*
X141267494Y-104950537D01*
X141364185Y-104871185D01*
X141443537Y-104774494D01*
X141484494Y-104697869D01*
X141474928Y-104795000D01*
X141474928Y-106545000D01*
X141504001Y-106840186D01*
X141590104Y-107124028D01*
X141729927Y-107385618D01*
X141918097Y-107614903D01*
X142147382Y-107803073D01*
X142408972Y-107942896D01*
X142692814Y-108028999D01*
X142988000Y-108058072D01*
X144738000Y-108058072D01*
X145033186Y-108028999D01*
X145317028Y-107942896D01*
X145578618Y-107803073D01*
X145807903Y-107614903D01*
X145996073Y-107385618D01*
X146135896Y-107124028D01*
X146221999Y-106840186D01*
X146251072Y-106545000D01*
X146251072Y-105196323D01*
X147158497Y-105196323D01*
X147158497Y-105623677D01*
X147241870Y-106042821D01*
X147405412Y-106437645D01*
X147642837Y-106792977D01*
X147945023Y-107095163D01*
X148300355Y-107332588D01*
X148695179Y-107496130D01*
X149114323Y-107579503D01*
X149541677Y-107579503D01*
X149960821Y-107496130D01*
X150355645Y-107332588D01*
X150362343Y-107328112D01*
X157868583Y-107328112D01*
X157910013Y-107607730D01*
X158005197Y-107873892D01*
X158072129Y-107999114D01*
X158316098Y-108070697D01*
X159129195Y-107257600D01*
X159115053Y-107243458D01*
X159294658Y-107063853D01*
X159308800Y-107077995D01*
X159322943Y-107063853D01*
X159502548Y-107243458D01*
X159488405Y-107257600D01*
X160301502Y-108070697D01*
X160545471Y-107999114D01*
X160666371Y-107743604D01*
X160735100Y-107469416D01*
X160749017Y-107187088D01*
X160707587Y-106907470D01*
X160612403Y-106641308D01*
X160547184Y-106519291D01*
X160559985Y-106508785D01*
X160639337Y-106412094D01*
X160698302Y-106301780D01*
X160734612Y-106182082D01*
X160746872Y-106057600D01*
X160746872Y-105911926D01*
X160783076Y-105892574D01*
X160898801Y-105797601D01*
X160922604Y-105768597D01*
X161292997Y-105398204D01*
X161322001Y-105374401D01*
X161416974Y-105258676D01*
X161487546Y-105126647D01*
X161531003Y-104983386D01*
X161542000Y-104871733D01*
X161542000Y-104871724D01*
X161545676Y-104834401D01*
X161542000Y-104797078D01*
X161542000Y-100366275D01*
X161633013Y-100305462D01*
X161818962Y-100119513D01*
X161965061Y-99900859D01*
X162065696Y-99657905D01*
X162117000Y-99399986D01*
X162117000Y-99137014D01*
X162065696Y-98879095D01*
X161965061Y-98636141D01*
X161818962Y-98417487D01*
X161633013Y-98231538D01*
X161414359Y-98085439D01*
X161171405Y-97984804D01*
X160913486Y-97933500D01*
X160650514Y-97933500D01*
X160392595Y-97984804D01*
X160149641Y-98085439D01*
X159930987Y-98231538D01*
X159745038Y-98417487D01*
X159598939Y-98636141D01*
X159498304Y-98879095D01*
X159447000Y-99137014D01*
X159447000Y-99399986D01*
X159498304Y-99657905D01*
X159598939Y-99900859D01*
X159745038Y-100119513D01*
X159930987Y-100305462D01*
X160022000Y-100366275D01*
X160022001Y-103819528D01*
X158508800Y-103819528D01*
X158384318Y-103831788D01*
X158264620Y-103868098D01*
X158154306Y-103927063D01*
X158057615Y-104006415D01*
X157978263Y-104103106D01*
X157919298Y-104213420D01*
X157882988Y-104333118D01*
X157870728Y-104457600D01*
X157870728Y-106057600D01*
X157882988Y-106182082D01*
X157919298Y-106301780D01*
X157978263Y-106412094D01*
X158057615Y-106508785D01*
X158070558Y-106519407D01*
X157951229Y-106771596D01*
X157882500Y-107045784D01*
X157868583Y-107328112D01*
X150362343Y-107328112D01*
X150710977Y-107095163D01*
X151013163Y-106792977D01*
X151250588Y-106437645D01*
X151414130Y-106042821D01*
X151497503Y-105623677D01*
X151497503Y-105196323D01*
X151414130Y-104777179D01*
X151250588Y-104382355D01*
X151013163Y-104027023D01*
X150710977Y-103724837D01*
X150355645Y-103487412D01*
X149960821Y-103323870D01*
X149541677Y-103240497D01*
X149114323Y-103240497D01*
X148695179Y-103323870D01*
X148300355Y-103487412D01*
X147945023Y-103724837D01*
X147642837Y-104027023D01*
X147405412Y-104382355D01*
X147241870Y-104777179D01*
X147158497Y-105196323D01*
X146251072Y-105196323D01*
X146251072Y-104795000D01*
X146221999Y-104499814D01*
X146135896Y-104215972D01*
X145996073Y-103954382D01*
X145807903Y-103725097D01*
X145578618Y-103536927D01*
X145317028Y-103397104D01*
X145033186Y-103311001D01*
X144738000Y-103281928D01*
X142988000Y-103281928D01*
X142692814Y-103311001D01*
X142408972Y-103397104D01*
X142147382Y-103536927D01*
X141918097Y-103725097D01*
X141729927Y-103954382D01*
X141590104Y-104215972D01*
X141551072Y-104344643D01*
X141551072Y-100920000D01*
X141538812Y-100795518D01*
X141502502Y-100675820D01*
X141443537Y-100565506D01*
X141364185Y-100468815D01*
X141267494Y-100389463D01*
X141187617Y-100346767D01*
X144443000Y-100346767D01*
X144443000Y-100668833D01*
X144505832Y-100984712D01*
X144629082Y-101282263D01*
X144808013Y-101550052D01*
X145035748Y-101777787D01*
X145303537Y-101956718D01*
X145601088Y-102079968D01*
X145916967Y-102142800D01*
X146239033Y-102142800D01*
X146554912Y-102079968D01*
X146852463Y-101956718D01*
X147120252Y-101777787D01*
X147347987Y-101550052D01*
X147526918Y-101282263D01*
X147650168Y-100984712D01*
X147713000Y-100668833D01*
X147713000Y-100346767D01*
X150943000Y-100346767D01*
X150943000Y-100668833D01*
X151005832Y-100984712D01*
X151129082Y-101282263D01*
X151308013Y-101550052D01*
X151535748Y-101777787D01*
X151803537Y-101956718D01*
X152101088Y-102079968D01*
X152416967Y-102142800D01*
X152739033Y-102142800D01*
X153054912Y-102079968D01*
X153352463Y-101956718D01*
X153620252Y-101777787D01*
X153847987Y-101550052D01*
X154026918Y-101282263D01*
X154032909Y-101267800D01*
X156457378Y-101267800D01*
X156494700Y-101271476D01*
X156532022Y-101267800D01*
X156532033Y-101267800D01*
X156643686Y-101256803D01*
X156786947Y-101213346D01*
X156918976Y-101142774D01*
X157034701Y-101047801D01*
X157058504Y-101018797D01*
X157495156Y-100582145D01*
X157602514Y-100603500D01*
X157865486Y-100603500D01*
X158123405Y-100552196D01*
X158366359Y-100451561D01*
X158585013Y-100305462D01*
X158770962Y-100119513D01*
X158917061Y-99900859D01*
X159017696Y-99657905D01*
X159069000Y-99399986D01*
X159069000Y-99137014D01*
X159017696Y-98879095D01*
X158917061Y-98636141D01*
X158770962Y-98417487D01*
X158585013Y-98231538D01*
X158366359Y-98085439D01*
X158123405Y-97984804D01*
X157865486Y-97933500D01*
X157602514Y-97933500D01*
X157344595Y-97984804D01*
X157101641Y-98085439D01*
X156882987Y-98231538D01*
X156697038Y-98417487D01*
X156550939Y-98636141D01*
X156450304Y-98879095D01*
X156399000Y-99137014D01*
X156399000Y-99399986D01*
X156420355Y-99507344D01*
X156179899Y-99747800D01*
X154032909Y-99747800D01*
X154026918Y-99733337D01*
X153847987Y-99465548D01*
X153620252Y-99237813D01*
X153352463Y-99058882D01*
X153054912Y-98935632D01*
X152739033Y-98872800D01*
X152416967Y-98872800D01*
X152101088Y-98935632D01*
X151803537Y-99058882D01*
X151535748Y-99237813D01*
X151308013Y-99465548D01*
X151129082Y-99733337D01*
X151005832Y-100030888D01*
X150943000Y-100346767D01*
X147713000Y-100346767D01*
X147650168Y-100030888D01*
X147526918Y-99733337D01*
X147347987Y-99465548D01*
X147120252Y-99237813D01*
X146852463Y-99058882D01*
X146554912Y-98935632D01*
X146239033Y-98872800D01*
X145916967Y-98872800D01*
X145601088Y-98935632D01*
X145303537Y-99058882D01*
X145035748Y-99237813D01*
X144808013Y-99465548D01*
X144629082Y-99733337D01*
X144505832Y-100030888D01*
X144443000Y-100346767D01*
X141187617Y-100346767D01*
X141157180Y-100330498D01*
X141037482Y-100294188D01*
X140913000Y-100281928D01*
X137413000Y-100281928D01*
X137288518Y-100294188D01*
X137168820Y-100330498D01*
X137058506Y-100389463D01*
X136961815Y-100468815D01*
X136882463Y-100565506D01*
X136823498Y-100675820D01*
X136787188Y-100795518D01*
X136774928Y-100920000D01*
X134988000Y-100920000D01*
X134988000Y-98461202D01*
X136414903Y-98461202D01*
X136486486Y-98705171D01*
X136741996Y-98826071D01*
X137016184Y-98894800D01*
X137298512Y-98908717D01*
X137578130Y-98867287D01*
X137844292Y-98772103D01*
X137969514Y-98705171D01*
X138041097Y-98461202D01*
X140284903Y-98461202D01*
X140356486Y-98705171D01*
X140611996Y-98826071D01*
X140886184Y-98894800D01*
X141168512Y-98908717D01*
X141448130Y-98867287D01*
X141714292Y-98772103D01*
X141839514Y-98705171D01*
X141911097Y-98461202D01*
X141098000Y-97648105D01*
X140284903Y-98461202D01*
X138041097Y-98461202D01*
X137228000Y-97648105D01*
X136414903Y-98461202D01*
X134988000Y-98461202D01*
X134988000Y-97539012D01*
X135787783Y-97539012D01*
X135829213Y-97818630D01*
X135924397Y-98084792D01*
X135991329Y-98210014D01*
X136235298Y-98281597D01*
X137048395Y-97468500D01*
X137407605Y-97468500D01*
X138220702Y-98281597D01*
X138464671Y-98210014D01*
X138585571Y-97954504D01*
X138654300Y-97680316D01*
X138661265Y-97539012D01*
X139657783Y-97539012D01*
X139699213Y-97818630D01*
X139794397Y-98084792D01*
X139861329Y-98210014D01*
X140105298Y-98281597D01*
X140918395Y-97468500D01*
X141277605Y-97468500D01*
X142090702Y-98281597D01*
X142334671Y-98210014D01*
X142455571Y-97954504D01*
X142524300Y-97680316D01*
X142538217Y-97397988D01*
X142500468Y-97143213D01*
X145122192Y-97143213D01*
X145217956Y-97407614D01*
X145507571Y-97548504D01*
X145819108Y-97630184D01*
X146140595Y-97649518D01*
X146459675Y-97605761D01*
X146764088Y-97500595D01*
X146938044Y-97407614D01*
X147033808Y-97143213D01*
X151622192Y-97143213D01*
X151717956Y-97407614D01*
X152007571Y-97548504D01*
X152319108Y-97630184D01*
X152640595Y-97649518D01*
X152959675Y-97605761D01*
X153264088Y-97500595D01*
X153438044Y-97407614D01*
X153533808Y-97143213D01*
X152578000Y-96187405D01*
X151622192Y-97143213D01*
X147033808Y-97143213D01*
X146078000Y-96187405D01*
X145122192Y-97143213D01*
X142500468Y-97143213D01*
X142496787Y-97118370D01*
X142401603Y-96852208D01*
X142334671Y-96726986D01*
X142090702Y-96655403D01*
X141277605Y-97468500D01*
X140918395Y-97468500D01*
X140105298Y-96655403D01*
X139861329Y-96726986D01*
X139740429Y-96982496D01*
X139671700Y-97256684D01*
X139657783Y-97539012D01*
X138661265Y-97539012D01*
X138668217Y-97397988D01*
X138626787Y-97118370D01*
X138531603Y-96852208D01*
X138464671Y-96726986D01*
X138220702Y-96655403D01*
X137407605Y-97468500D01*
X137048395Y-97468500D01*
X136235298Y-96655403D01*
X135991329Y-96726986D01*
X135870429Y-96982496D01*
X135801700Y-97256684D01*
X135787783Y-97539012D01*
X134988000Y-97539012D01*
X134988000Y-96475798D01*
X136414903Y-96475798D01*
X137228000Y-97288895D01*
X138041097Y-96475798D01*
X140284903Y-96475798D01*
X141098000Y-97288895D01*
X141911097Y-96475798D01*
X141839514Y-96231829D01*
X141584004Y-96110929D01*
X141422298Y-96070395D01*
X144436282Y-96070395D01*
X144480039Y-96389475D01*
X144585205Y-96693888D01*
X144678186Y-96867844D01*
X144942587Y-96963608D01*
X145898395Y-96007800D01*
X146257605Y-96007800D01*
X147213413Y-96963608D01*
X147477814Y-96867844D01*
X147618704Y-96578229D01*
X147700384Y-96266692D01*
X147712189Y-96070395D01*
X150936282Y-96070395D01*
X150980039Y-96389475D01*
X151085205Y-96693888D01*
X151178186Y-96867844D01*
X151442587Y-96963608D01*
X152398395Y-96007800D01*
X152757605Y-96007800D01*
X153713413Y-96963608D01*
X153977814Y-96867844D01*
X154118704Y-96578229D01*
X154200384Y-96266692D01*
X154219718Y-95945205D01*
X154175961Y-95626125D01*
X154070795Y-95321712D01*
X153977814Y-95147756D01*
X153713413Y-95051992D01*
X152757605Y-96007800D01*
X152398395Y-96007800D01*
X151442587Y-95051992D01*
X151178186Y-95147756D01*
X151037296Y-95437371D01*
X150955616Y-95748908D01*
X150936282Y-96070395D01*
X147712189Y-96070395D01*
X147719718Y-95945205D01*
X147675961Y-95626125D01*
X147570795Y-95321712D01*
X147477814Y-95147756D01*
X147213413Y-95051992D01*
X146257605Y-96007800D01*
X145898395Y-96007800D01*
X144942587Y-95051992D01*
X144678186Y-95147756D01*
X144537296Y-95437371D01*
X144455616Y-95748908D01*
X144436282Y-96070395D01*
X141422298Y-96070395D01*
X141309816Y-96042200D01*
X141027488Y-96028283D01*
X140747870Y-96069713D01*
X140481708Y-96164897D01*
X140356486Y-96231829D01*
X140284903Y-96475798D01*
X138041097Y-96475798D01*
X137969514Y-96231829D01*
X137714004Y-96110929D01*
X137439816Y-96042200D01*
X137157488Y-96028283D01*
X136877870Y-96069713D01*
X136611708Y-96164897D01*
X136486486Y-96231829D01*
X136414903Y-96475798D01*
X134988000Y-96475798D01*
X134988000Y-94872387D01*
X145122192Y-94872387D01*
X146078000Y-95828195D01*
X147033808Y-94872387D01*
X146938044Y-94607986D01*
X146648429Y-94467096D01*
X146336892Y-94385416D01*
X146015405Y-94366082D01*
X145696325Y-94409839D01*
X145391912Y-94515005D01*
X145217956Y-94607986D01*
X145122192Y-94872387D01*
X134988000Y-94872387D01*
X134988000Y-92327165D01*
X135793000Y-92327165D01*
X135793000Y-92609835D01*
X135848147Y-92887074D01*
X135956320Y-93148227D01*
X136113363Y-93383259D01*
X136313241Y-93583137D01*
X136548273Y-93740180D01*
X136809426Y-93848353D01*
X137086665Y-93903500D01*
X137369335Y-93903500D01*
X137646574Y-93848353D01*
X137907727Y-93740180D01*
X138142759Y-93583137D01*
X138342637Y-93383259D01*
X138499680Y-93148227D01*
X138607853Y-92887074D01*
X138663000Y-92609835D01*
X138663000Y-92327165D01*
X138607853Y-92049926D01*
X138499680Y-91788773D01*
X138342637Y-91553741D01*
X138142759Y-91353863D01*
X137907727Y-91196820D01*
X137646574Y-91088647D01*
X137369335Y-91033500D01*
X137086665Y-91033500D01*
X136809426Y-91088647D01*
X136548273Y-91196820D01*
X136313241Y-91353863D01*
X136113363Y-91553741D01*
X135956320Y-91788773D01*
X135848147Y-92049926D01*
X135793000Y-92327165D01*
X134988000Y-92327165D01*
X134988000Y-88094807D01*
X135181368Y-88288175D01*
X135424589Y-88450690D01*
X135694842Y-88562632D01*
X135981740Y-88619700D01*
X136274260Y-88619700D01*
X136561158Y-88562632D01*
X136831411Y-88450690D01*
X137074632Y-88288175D01*
X137281475Y-88081332D01*
X137399100Y-87905294D01*
X137570412Y-88134969D01*
X137786645Y-88329878D01*
X138036748Y-88478857D01*
X138311109Y-88576181D01*
X138541000Y-88455514D01*
X138541000Y-87261700D01*
X138795000Y-87261700D01*
X138795000Y-88455514D01*
X139024891Y-88576181D01*
X139299252Y-88478857D01*
X139549355Y-88329878D01*
X139765588Y-88134969D01*
X139939641Y-87901620D01*
X140064825Y-87638799D01*
X140109476Y-87491590D01*
X139988155Y-87261700D01*
X138795000Y-87261700D01*
X138541000Y-87261700D01*
X138521000Y-87261700D01*
X138521000Y-87007700D01*
X138541000Y-87007700D01*
X138541000Y-86987700D01*
X138795000Y-86987700D01*
X138795000Y-87007700D01*
X139988155Y-87007700D01*
X140109476Y-86777810D01*
X140064825Y-86630601D01*
X139939641Y-86367780D01*
X139765588Y-86134431D01*
X139549355Y-85939522D01*
X139432466Y-85869895D01*
X139614632Y-85748175D01*
X139821475Y-85541332D01*
X139983990Y-85298111D01*
X140095932Y-85027858D01*
X140153000Y-84740960D01*
X140153000Y-84448440D01*
X140095932Y-84161542D01*
X139983990Y-83891289D01*
X139821475Y-83648068D01*
X139614632Y-83441225D01*
X139440240Y-83324700D01*
X139614632Y-83208175D01*
X139821475Y-83001332D01*
X139946178Y-82814700D01*
X143563499Y-82814700D01*
X144498912Y-83750114D01*
G37*
X144498912Y-83750114D02*
X144462600Y-83932665D01*
X144462600Y-84215335D01*
X144498912Y-84397885D01*
X140586998Y-88309801D01*
X140558000Y-88333599D01*
X140534202Y-88362597D01*
X140534201Y-88362598D01*
X140463026Y-88449324D01*
X140392454Y-88581354D01*
X140348998Y-88724615D01*
X140334324Y-88873600D01*
X140338001Y-88910932D01*
X140338000Y-91250456D01*
X140183241Y-91353863D01*
X139983363Y-91553741D01*
X139826320Y-91788773D01*
X139718147Y-92049926D01*
X139663000Y-92327165D01*
X139663000Y-92609835D01*
X139718147Y-92887074D01*
X139826320Y-93148227D01*
X139983363Y-93383259D01*
X140183241Y-93583137D01*
X140418273Y-93740180D01*
X140679426Y-93848353D01*
X140956665Y-93903500D01*
X141239335Y-93903500D01*
X141516574Y-93848353D01*
X141777727Y-93740180D01*
X142012759Y-93583137D01*
X142212637Y-93383259D01*
X142369680Y-93148227D01*
X142477853Y-92887074D01*
X142533000Y-92609835D01*
X142533000Y-92327165D01*
X142477853Y-92049926D01*
X142369680Y-91788773D01*
X142212637Y-91553741D01*
X142012759Y-91353863D01*
X141858000Y-91250457D01*
X141858000Y-89188401D01*
X145573715Y-85472688D01*
X145756265Y-85509000D01*
X146038935Y-85509000D01*
X146316174Y-85453853D01*
X146577327Y-85345680D01*
X146812359Y-85188637D01*
X147012237Y-84988759D01*
X147167600Y-84756241D01*
X147322963Y-84988759D01*
X147522841Y-85188637D01*
X147757873Y-85345680D01*
X148019026Y-85453853D01*
X148296265Y-85509000D01*
X148578935Y-85509000D01*
X148856174Y-85453853D01*
X148934900Y-85421244D01*
X148934901Y-90346757D01*
X148856174Y-90314147D01*
X148578935Y-90259000D01*
X148296265Y-90259000D01*
X148019026Y-90314147D01*
X147757873Y-90422320D01*
X147522841Y-90579363D01*
X147324243Y-90777961D01*
X147323412Y-90769518D01*
X147287102Y-90649820D01*
X147228137Y-90539506D01*
X147148785Y-90442815D01*
X147052094Y-90363463D01*
X146941780Y-90304498D01*
X146822082Y-90268188D01*
X146697600Y-90255928D01*
X145097600Y-90255928D01*
X144973118Y-90268188D01*
X144853420Y-90304498D01*
X144743106Y-90363463D01*
X144646415Y-90442815D01*
X144567063Y-90539506D01*
X144508098Y-90649820D01*
X144471788Y-90769518D01*
X144459528Y-90894000D01*
X144459528Y-92494000D01*
X144471788Y-92618482D01*
X144508098Y-92738180D01*
X144567063Y-92848494D01*
X144646415Y-92945185D01*
X144743106Y-93024537D01*
X144853420Y-93083502D01*
X144973118Y-93119812D01*
X145097600Y-93132072D01*
X145243274Y-93132072D01*
X145262626Y-93168276D01*
X145300969Y-93214997D01*
X145357599Y-93284001D01*
X145386602Y-93307804D01*
X146315800Y-94237002D01*
X146339599Y-94266001D01*
X146455324Y-94360974D01*
X146587353Y-94431546D01*
X146730614Y-94475003D01*
X146842267Y-94486000D01*
X146842275Y-94486000D01*
X146879600Y-94489676D01*
X146916925Y-94486000D01*
X151975870Y-94486000D01*
X151891912Y-94515005D01*
X151717956Y-94607986D01*
X151622192Y-94872387D01*
X152578000Y-95828195D01*
X153533808Y-94872387D01*
X153438044Y-94607986D01*
X153187288Y-94486000D01*
X153609199Y-94486000D01*
X155392201Y-96269003D01*
X155415999Y-96298001D01*
X155444997Y-96321799D01*
X155531723Y-96392974D01*
X155663753Y-96463546D01*
X155807014Y-96507003D01*
X155918667Y-96518000D01*
X155918677Y-96518000D01*
X155956000Y-96521676D01*
X155993323Y-96518000D01*
X160165127Y-96518000D01*
X160202449Y-96521676D01*
X160239771Y-96518000D01*
X160239782Y-96518000D01*
X160351435Y-96507003D01*
X160494696Y-96463546D01*
X160626725Y-96392974D01*
X160742450Y-96298001D01*
X160766252Y-96268998D01*
X161293002Y-95742249D01*
X161322001Y-95718450D01*
X161348332Y-95686366D01*
X161416974Y-95602726D01*
X161487546Y-95470696D01*
X161497655Y-95437371D01*
X161531003Y-95327435D01*
X161534568Y-95291240D01*
X161633013Y-95225462D01*
X161818962Y-95039513D01*
X161965061Y-94820859D01*
X162065696Y-94577905D01*
X162117000Y-94319986D01*
X162117000Y-94057014D01*
X162065696Y-93799095D01*
X161993432Y-93624634D01*
X162257201Y-93888403D01*
X162257200Y-106923998D01*
X160670399Y-108510800D01*
X160019390Y-108510800D01*
X160050314Y-108494271D01*
X160121897Y-108250302D01*
X159308800Y-107437205D01*
X158495703Y-108250302D01*
X158567286Y-108494271D01*
X158602218Y-108510800D01*
X153161122Y-108510800D01*
X153123799Y-108507124D01*
X153086476Y-108510800D01*
X153086467Y-108510800D01*
X152974814Y-108521797D01*
X152831553Y-108565254D01*
X152699524Y-108635826D01*
X152583799Y-108730799D01*
X152560001Y-108759797D01*
X149856144Y-111463655D01*
X149817996Y-111447854D01*
X149492458Y-111383100D01*
X149160542Y-111383100D01*
X148835004Y-111447854D01*
X148528353Y-111574872D01*
X148374542Y-111677646D01*
X148367037Y-111663606D01*
X148287685Y-111566915D01*
X148190994Y-111487563D01*
X148080680Y-111428598D01*
X147960982Y-111392288D01*
X147836500Y-111380028D01*
X145736500Y-111380028D01*
X145612018Y-111392288D01*
X145492320Y-111428598D01*
X145382006Y-111487563D01*
X145285315Y-111566915D01*
X145205963Y-111663606D01*
X145146998Y-111773920D01*
X145110688Y-111893618D01*
X145098428Y-112018100D01*
X145098428Y-114118100D01*
X145110688Y-114242582D01*
X145146998Y-114362280D01*
X145205963Y-114472594D01*
X145285315Y-114569285D01*
X145382006Y-114648637D01*
X145492320Y-114707602D01*
X145612018Y-114743912D01*
X145736500Y-114756172D01*
X147836500Y-114756172D01*
X147960982Y-114743912D01*
X148080680Y-114707602D01*
X148190994Y-114648637D01*
X148287685Y-114569285D01*
X148367037Y-114472594D01*
X148374542Y-114458554D01*
X148528353Y-114561328D01*
X148835004Y-114688346D01*
X149160542Y-114753100D01*
X149492458Y-114753100D01*
X149817996Y-114688346D01*
X150124647Y-114561328D01*
X150400625Y-114376925D01*
X150538384Y-114239166D01*
X150875039Y-114239166D01*
X150976839Y-114508679D01*
X151274977Y-114654563D01*
X151595846Y-114739480D01*
X151927117Y-114760166D01*
X152256057Y-114715828D01*
X152570027Y-114608169D01*
X152756161Y-114508679D01*
X152857961Y-114239166D01*
X151866500Y-113247705D01*
X150875039Y-114239166D01*
X150538384Y-114239166D01*
X150635325Y-114142225D01*
X150691542Y-114058091D01*
X150695434Y-114059561D01*
X151686895Y-113068100D01*
X152046105Y-113068100D01*
X153037566Y-114059561D01*
X153307079Y-113957761D01*
X153452963Y-113659623D01*
X153537880Y-113338754D01*
X153558566Y-113007483D01*
X153514228Y-112678543D01*
X153479178Y-112576323D01*
X158112497Y-112576323D01*
X158112497Y-113003677D01*
X158195870Y-113422821D01*
X158359412Y-113817645D01*
X158596837Y-114172977D01*
X158899023Y-114475163D01*
X159254355Y-114712588D01*
X159649179Y-114876130D01*
X160068323Y-114959503D01*
X160495677Y-114959503D01*
X160914821Y-114876130D01*
X161309645Y-114712588D01*
X161664977Y-114475163D01*
X161967163Y-114172977D01*
X162204588Y-113817645D01*
X162368130Y-113422821D01*
X162451503Y-113003677D01*
X162451503Y-112576323D01*
X162368130Y-112157179D01*
X162204588Y-111762355D01*
X161967163Y-111407023D01*
X161664977Y-111104837D01*
X161309645Y-110867412D01*
X160914821Y-110703870D01*
X160495677Y-110620497D01*
X160068323Y-110620497D01*
X159649179Y-110703870D01*
X159254355Y-110867412D01*
X158899023Y-111104837D01*
X158596837Y-111407023D01*
X158359412Y-111762355D01*
X158195870Y-112157179D01*
X158112497Y-112576323D01*
X153479178Y-112576323D01*
X153406569Y-112364573D01*
X153307079Y-112178439D01*
X153037566Y-112076639D01*
X152046105Y-113068100D01*
X151686895Y-113068100D01*
X151672753Y-113053958D01*
X151852358Y-112874353D01*
X151866500Y-112888495D01*
X152857961Y-111897034D01*
X152756161Y-111627521D01*
X152458023Y-111481637D01*
X152137154Y-111396720D01*
X152076471Y-111392931D01*
X153438602Y-110030800D01*
X160947878Y-110030800D01*
X160985200Y-110034476D01*
X161022522Y-110030800D01*
X161022533Y-110030800D01*
X161134186Y-110019803D01*
X161277447Y-109976346D01*
X161409476Y-109905774D01*
X161525201Y-109810801D01*
X161549004Y-109781797D01*
X163528204Y-107802598D01*
X163557201Y-107778801D01*
X163586086Y-107743604D01*
X163652174Y-107663077D01*
X163668001Y-107633467D01*
X163668001Y-116010000D01*
X134988000Y-116010000D01*
X134988000Y-110170000D01*
X136774928Y-110170000D01*
X136787188Y-110294482D01*
X136823498Y-110414180D01*
X136882463Y-110524494D01*
X136961815Y-110621185D01*
X137058506Y-110700537D01*
X137168820Y-110759502D01*
X137288518Y-110795812D01*
X137413000Y-110808072D01*
X138877250Y-110805000D01*
X139036000Y-110646250D01*
X139036000Y-108797000D01*
X139290000Y-108797000D01*
X139290000Y-110646250D01*
X139448750Y-110805000D01*
X140913000Y-110808072D01*
X141037482Y-110795812D01*
X141157180Y-110759502D01*
X141267494Y-110700537D01*
X141364185Y-110621185D01*
X141443537Y-110524494D01*
X141502502Y-110414180D01*
X141538812Y-110294482D01*
X141551072Y-110170000D01*
X141548000Y-108955750D01*
X141389250Y-108797000D01*
X139290000Y-108797000D01*
X139036000Y-108797000D01*
X136936750Y-108797000D01*
X136778000Y-108955750D01*
X136774928Y-110170000D01*
X134988000Y-110170000D01*
X134988000Y-107170000D01*
X136774928Y-107170000D01*
X136778000Y-108384250D01*
X136936750Y-108543000D01*
X139036000Y-108543000D01*
X139036000Y-106693750D01*
X139290000Y-106693750D01*
X139290000Y-108543000D01*
X141389250Y-108543000D01*
X141548000Y-108384250D01*
X141551072Y-107170000D01*
X141538812Y-107045518D01*
X141502502Y-106925820D01*
X141443537Y-106815506D01*
X141364185Y-106718815D01*
X141267494Y-106639463D01*
X141157180Y-106580498D01*
X141037482Y-106544188D01*
X140913000Y-106531928D01*
X139448750Y-106535000D01*
X139290000Y-106693750D01*
X139036000Y-106693750D01*
X138877250Y-106535000D01*
X137413000Y-106531928D01*
X137288518Y-106544188D01*
X137168820Y-106580498D01*
X137058506Y-106639463D01*
X136961815Y-106718815D01*
X136882463Y-106815506D01*
X136823498Y-106925820D01*
X136787188Y-107045518D01*
X136774928Y-107170000D01*
X134988000Y-107170000D01*
X134988000Y-100920000D01*
X136774928Y-100920000D01*
X136774928Y-104420000D01*
X136787188Y-104544482D01*
X136823498Y-104664180D01*
X136882463Y-104774494D01*
X136961815Y-104871185D01*
X137058506Y-104950537D01*
X137168820Y-105009502D01*
X137288518Y-105045812D01*
X137413000Y-105058072D01*
X140913000Y-105058072D01*
X141037482Y-105045812D01*
X141157180Y-105009502D01*
X141267494Y-104950537D01*
X141364185Y-104871185D01*
X141443537Y-104774494D01*
X141484494Y-104697869D01*
X141474928Y-104795000D01*
X141474928Y-106545000D01*
X141504001Y-106840186D01*
X141590104Y-107124028D01*
X141729927Y-107385618D01*
X141918097Y-107614903D01*
X142147382Y-107803073D01*
X142408972Y-107942896D01*
X142692814Y-108028999D01*
X142988000Y-108058072D01*
X144738000Y-108058072D01*
X145033186Y-108028999D01*
X145317028Y-107942896D01*
X145578618Y-107803073D01*
X145807903Y-107614903D01*
X145996073Y-107385618D01*
X146135896Y-107124028D01*
X146221999Y-106840186D01*
X146251072Y-106545000D01*
X146251072Y-105196323D01*
X147158497Y-105196323D01*
X147158497Y-105623677D01*
X147241870Y-106042821D01*
X147405412Y-106437645D01*
X147642837Y-106792977D01*
X147945023Y-107095163D01*
X148300355Y-107332588D01*
X148695179Y-107496130D01*
X149114323Y-107579503D01*
X149541677Y-107579503D01*
X149960821Y-107496130D01*
X150355645Y-107332588D01*
X150362343Y-107328112D01*
X157868583Y-107328112D01*
X157910013Y-107607730D01*
X158005197Y-107873892D01*
X158072129Y-107999114D01*
X158316098Y-108070697D01*
X159129195Y-107257600D01*
X159115053Y-107243458D01*
X159294658Y-107063853D01*
X159308800Y-107077995D01*
X159322943Y-107063853D01*
X159502548Y-107243458D01*
X159488405Y-107257600D01*
X160301502Y-108070697D01*
X160545471Y-107999114D01*
X160666371Y-107743604D01*
X160735100Y-107469416D01*
X160749017Y-107187088D01*
X160707587Y-106907470D01*
X160612403Y-106641308D01*
X160547184Y-106519291D01*
X160559985Y-106508785D01*
X160639337Y-106412094D01*
X160698302Y-106301780D01*
X160734612Y-106182082D01*
X160746872Y-106057600D01*
X160746872Y-105911926D01*
X160783076Y-105892574D01*
X160898801Y-105797601D01*
X160922604Y-105768597D01*
X161292997Y-105398204D01*
X161322001Y-105374401D01*
X161416974Y-105258676D01*
X161487546Y-105126647D01*
X161531003Y-104983386D01*
X161542000Y-104871733D01*
X161542000Y-104871724D01*
X161545676Y-104834401D01*
X161542000Y-104797078D01*
X161542000Y-100366275D01*
X161633013Y-100305462D01*
X161818962Y-100119513D01*
X161965061Y-99900859D01*
X162065696Y-99657905D01*
X162117000Y-99399986D01*
X162117000Y-99137014D01*
X162065696Y-98879095D01*
X161965061Y-98636141D01*
X161818962Y-98417487D01*
X161633013Y-98231538D01*
X161414359Y-98085439D01*
X161171405Y-97984804D01*
X160913486Y-97933500D01*
X160650514Y-97933500D01*
X160392595Y-97984804D01*
X160149641Y-98085439D01*
X159930987Y-98231538D01*
X159745038Y-98417487D01*
X159598939Y-98636141D01*
X159498304Y-98879095D01*
X159447000Y-99137014D01*
X159447000Y-99399986D01*
X159498304Y-99657905D01*
X159598939Y-99900859D01*
X159745038Y-100119513D01*
X159930987Y-100305462D01*
X160022000Y-100366275D01*
X160022001Y-103819528D01*
X158508800Y-103819528D01*
X158384318Y-103831788D01*
X158264620Y-103868098D01*
X158154306Y-103927063D01*
X158057615Y-104006415D01*
X157978263Y-104103106D01*
X157919298Y-104213420D01*
X157882988Y-104333118D01*
X157870728Y-104457600D01*
X157870728Y-106057600D01*
X157882988Y-106182082D01*
X157919298Y-106301780D01*
X157978263Y-106412094D01*
X158057615Y-106508785D01*
X158070558Y-106519407D01*
X157951229Y-106771596D01*
X157882500Y-107045784D01*
X157868583Y-107328112D01*
X150362343Y-107328112D01*
X150710977Y-107095163D01*
X151013163Y-106792977D01*
X151250588Y-106437645D01*
X151414130Y-106042821D01*
X151497503Y-105623677D01*
X151497503Y-105196323D01*
X151414130Y-104777179D01*
X151250588Y-104382355D01*
X151013163Y-104027023D01*
X150710977Y-103724837D01*
X150355645Y-103487412D01*
X149960821Y-103323870D01*
X149541677Y-103240497D01*
X149114323Y-103240497D01*
X148695179Y-103323870D01*
X148300355Y-103487412D01*
X147945023Y-103724837D01*
X147642837Y-104027023D01*
X147405412Y-104382355D01*
X147241870Y-104777179D01*
X147158497Y-105196323D01*
X146251072Y-105196323D01*
X146251072Y-104795000D01*
X146221999Y-104499814D01*
X146135896Y-104215972D01*
X145996073Y-103954382D01*
X145807903Y-103725097D01*
X145578618Y-103536927D01*
X145317028Y-103397104D01*
X145033186Y-103311001D01*
X144738000Y-103281928D01*
X142988000Y-103281928D01*
X142692814Y-103311001D01*
X142408972Y-103397104D01*
X142147382Y-103536927D01*
X141918097Y-103725097D01*
X141729927Y-103954382D01*
X141590104Y-104215972D01*
X141551072Y-104344643D01*
X141551072Y-100920000D01*
X141538812Y-100795518D01*
X141502502Y-100675820D01*
X141443537Y-100565506D01*
X141364185Y-100468815D01*
X141267494Y-100389463D01*
X141187617Y-100346767D01*
X144443000Y-100346767D01*
X144443000Y-100668833D01*
X144505832Y-100984712D01*
X144629082Y-101282263D01*
X144808013Y-101550052D01*
X145035748Y-101777787D01*
X145303537Y-101956718D01*
X145601088Y-102079968D01*
X145916967Y-102142800D01*
X146239033Y-102142800D01*
X146554912Y-102079968D01*
X146852463Y-101956718D01*
X147120252Y-101777787D01*
X147347987Y-101550052D01*
X147526918Y-101282263D01*
X147650168Y-100984712D01*
X147713000Y-100668833D01*
X147713000Y-100346767D01*
X150943000Y-100346767D01*
X150943000Y-100668833D01*
X151005832Y-100984712D01*
X151129082Y-101282263D01*
X151308013Y-101550052D01*
X151535748Y-101777787D01*
X151803537Y-101956718D01*
X152101088Y-102079968D01*
X152416967Y-102142800D01*
X152739033Y-102142800D01*
X153054912Y-102079968D01*
X153352463Y-101956718D01*
X153620252Y-101777787D01*
X153847987Y-101550052D01*
X154026918Y-101282263D01*
X154032909Y-101267800D01*
X156457378Y-101267800D01*
X156494700Y-101271476D01*
X156532022Y-101267800D01*
X156532033Y-101267800D01*
X156643686Y-101256803D01*
X156786947Y-101213346D01*
X156918976Y-101142774D01*
X157034701Y-101047801D01*
X157058504Y-101018797D01*
X157495156Y-100582145D01*
X157602514Y-100603500D01*
X157865486Y-100603500D01*
X158123405Y-100552196D01*
X158366359Y-100451561D01*
X158585013Y-100305462D01*
X158770962Y-100119513D01*
X158917061Y-99900859D01*
X159017696Y-99657905D01*
X159069000Y-99399986D01*
X159069000Y-99137014D01*
X159017696Y-98879095D01*
X158917061Y-98636141D01*
X158770962Y-98417487D01*
X158585013Y-98231538D01*
X158366359Y-98085439D01*
X158123405Y-97984804D01*
X157865486Y-97933500D01*
X157602514Y-97933500D01*
X157344595Y-97984804D01*
X157101641Y-98085439D01*
X156882987Y-98231538D01*
X156697038Y-98417487D01*
X156550939Y-98636141D01*
X156450304Y-98879095D01*
X156399000Y-99137014D01*
X156399000Y-99399986D01*
X156420355Y-99507344D01*
X156179899Y-99747800D01*
X154032909Y-99747800D01*
X154026918Y-99733337D01*
X153847987Y-99465548D01*
X153620252Y-99237813D01*
X153352463Y-99058882D01*
X153054912Y-98935632D01*
X152739033Y-98872800D01*
X152416967Y-98872800D01*
X152101088Y-98935632D01*
X151803537Y-99058882D01*
X151535748Y-99237813D01*
X151308013Y-99465548D01*
X151129082Y-99733337D01*
X151005832Y-100030888D01*
X150943000Y-100346767D01*
X147713000Y-100346767D01*
X147650168Y-100030888D01*
X147526918Y-99733337D01*
X147347987Y-99465548D01*
X147120252Y-99237813D01*
X146852463Y-99058882D01*
X146554912Y-98935632D01*
X146239033Y-98872800D01*
X145916967Y-98872800D01*
X145601088Y-98935632D01*
X145303537Y-99058882D01*
X145035748Y-99237813D01*
X144808013Y-99465548D01*
X144629082Y-99733337D01*
X144505832Y-100030888D01*
X144443000Y-100346767D01*
X141187617Y-100346767D01*
X141157180Y-100330498D01*
X141037482Y-100294188D01*
X140913000Y-100281928D01*
X137413000Y-100281928D01*
X137288518Y-100294188D01*
X137168820Y-100330498D01*
X137058506Y-100389463D01*
X136961815Y-100468815D01*
X136882463Y-100565506D01*
X136823498Y-100675820D01*
X136787188Y-100795518D01*
X136774928Y-100920000D01*
X134988000Y-100920000D01*
X134988000Y-98461202D01*
X136414903Y-98461202D01*
X136486486Y-98705171D01*
X136741996Y-98826071D01*
X137016184Y-98894800D01*
X137298512Y-98908717D01*
X137578130Y-98867287D01*
X137844292Y-98772103D01*
X137969514Y-98705171D01*
X138041097Y-98461202D01*
X140284903Y-98461202D01*
X140356486Y-98705171D01*
X140611996Y-98826071D01*
X140886184Y-98894800D01*
X141168512Y-98908717D01*
X141448130Y-98867287D01*
X141714292Y-98772103D01*
X141839514Y-98705171D01*
X141911097Y-98461202D01*
X141098000Y-97648105D01*
X140284903Y-98461202D01*
X138041097Y-98461202D01*
X137228000Y-97648105D01*
X136414903Y-98461202D01*
X134988000Y-98461202D01*
X134988000Y-97539012D01*
X135787783Y-97539012D01*
X135829213Y-97818630D01*
X135924397Y-98084792D01*
X135991329Y-98210014D01*
X136235298Y-98281597D01*
X137048395Y-97468500D01*
X137407605Y-97468500D01*
X138220702Y-98281597D01*
X138464671Y-98210014D01*
X138585571Y-97954504D01*
X138654300Y-97680316D01*
X138661265Y-97539012D01*
X139657783Y-97539012D01*
X139699213Y-97818630D01*
X139794397Y-98084792D01*
X139861329Y-98210014D01*
X140105298Y-98281597D01*
X140918395Y-97468500D01*
X141277605Y-97468500D01*
X142090702Y-98281597D01*
X142334671Y-98210014D01*
X142455571Y-97954504D01*
X142524300Y-97680316D01*
X142538217Y-97397988D01*
X142500468Y-97143213D01*
X145122192Y-97143213D01*
X145217956Y-97407614D01*
X145507571Y-97548504D01*
X145819108Y-97630184D01*
X146140595Y-97649518D01*
X146459675Y-97605761D01*
X146764088Y-97500595D01*
X146938044Y-97407614D01*
X147033808Y-97143213D01*
X151622192Y-97143213D01*
X151717956Y-97407614D01*
X152007571Y-97548504D01*
X152319108Y-97630184D01*
X152640595Y-97649518D01*
X152959675Y-97605761D01*
X153264088Y-97500595D01*
X153438044Y-97407614D01*
X153533808Y-97143213D01*
X152578000Y-96187405D01*
X151622192Y-97143213D01*
X147033808Y-97143213D01*
X146078000Y-96187405D01*
X145122192Y-97143213D01*
X142500468Y-97143213D01*
X142496787Y-97118370D01*
X142401603Y-96852208D01*
X142334671Y-96726986D01*
X142090702Y-96655403D01*
X141277605Y-97468500D01*
X140918395Y-97468500D01*
X140105298Y-96655403D01*
X139861329Y-96726986D01*
X139740429Y-96982496D01*
X139671700Y-97256684D01*
X139657783Y-97539012D01*
X138661265Y-97539012D01*
X138668217Y-97397988D01*
X138626787Y-97118370D01*
X138531603Y-96852208D01*
X138464671Y-96726986D01*
X138220702Y-96655403D01*
X137407605Y-97468500D01*
X137048395Y-97468500D01*
X136235298Y-96655403D01*
X135991329Y-96726986D01*
X135870429Y-96982496D01*
X135801700Y-97256684D01*
X135787783Y-97539012D01*
X134988000Y-97539012D01*
X134988000Y-96475798D01*
X136414903Y-96475798D01*
X137228000Y-97288895D01*
X138041097Y-96475798D01*
X140284903Y-96475798D01*
X141098000Y-97288895D01*
X141911097Y-96475798D01*
X141839514Y-96231829D01*
X141584004Y-96110929D01*
X141422298Y-96070395D01*
X144436282Y-96070395D01*
X144480039Y-96389475D01*
X144585205Y-96693888D01*
X144678186Y-96867844D01*
X144942587Y-96963608D01*
X145898395Y-96007800D01*
X146257605Y-96007800D01*
X147213413Y-96963608D01*
X147477814Y-96867844D01*
X147618704Y-96578229D01*
X147700384Y-96266692D01*
X147712189Y-96070395D01*
X150936282Y-96070395D01*
X150980039Y-96389475D01*
X151085205Y-96693888D01*
X151178186Y-96867844D01*
X151442587Y-96963608D01*
X152398395Y-96007800D01*
X152757605Y-96007800D01*
X153713413Y-96963608D01*
X153977814Y-96867844D01*
X154118704Y-96578229D01*
X154200384Y-96266692D01*
X154219718Y-95945205D01*
X154175961Y-95626125D01*
X154070795Y-95321712D01*
X153977814Y-95147756D01*
X153713413Y-95051992D01*
X152757605Y-96007800D01*
X152398395Y-96007800D01*
X151442587Y-95051992D01*
X151178186Y-95147756D01*
X151037296Y-95437371D01*
X150955616Y-95748908D01*
X150936282Y-96070395D01*
X147712189Y-96070395D01*
X147719718Y-95945205D01*
X147675961Y-95626125D01*
X147570795Y-95321712D01*
X147477814Y-95147756D01*
X147213413Y-95051992D01*
X146257605Y-96007800D01*
X145898395Y-96007800D01*
X144942587Y-95051992D01*
X144678186Y-95147756D01*
X144537296Y-95437371D01*
X144455616Y-95748908D01*
X144436282Y-96070395D01*
X141422298Y-96070395D01*
X141309816Y-96042200D01*
X141027488Y-96028283D01*
X140747870Y-96069713D01*
X140481708Y-96164897D01*
X140356486Y-96231829D01*
X140284903Y-96475798D01*
X138041097Y-96475798D01*
X137969514Y-96231829D01*
X137714004Y-96110929D01*
X137439816Y-96042200D01*
X137157488Y-96028283D01*
X136877870Y-96069713D01*
X136611708Y-96164897D01*
X136486486Y-96231829D01*
X136414903Y-96475798D01*
X134988000Y-96475798D01*
X134988000Y-94872387D01*
X145122192Y-94872387D01*
X146078000Y-95828195D01*
X147033808Y-94872387D01*
X146938044Y-94607986D01*
X146648429Y-94467096D01*
X146336892Y-94385416D01*
X146015405Y-94366082D01*
X145696325Y-94409839D01*
X145391912Y-94515005D01*
X145217956Y-94607986D01*
X145122192Y-94872387D01*
X134988000Y-94872387D01*
X134988000Y-92327165D01*
X135793000Y-92327165D01*
X135793000Y-92609835D01*
X135848147Y-92887074D01*
X135956320Y-93148227D01*
X136113363Y-93383259D01*
X136313241Y-93583137D01*
X136548273Y-93740180D01*
X136809426Y-93848353D01*
X137086665Y-93903500D01*
X137369335Y-93903500D01*
X137646574Y-93848353D01*
X137907727Y-93740180D01*
X138142759Y-93583137D01*
X138342637Y-93383259D01*
X138499680Y-93148227D01*
X138607853Y-92887074D01*
X138663000Y-92609835D01*
X138663000Y-92327165D01*
X138607853Y-92049926D01*
X138499680Y-91788773D01*
X138342637Y-91553741D01*
X138142759Y-91353863D01*
X137907727Y-91196820D01*
X137646574Y-91088647D01*
X137369335Y-91033500D01*
X137086665Y-91033500D01*
X136809426Y-91088647D01*
X136548273Y-91196820D01*
X136313241Y-91353863D01*
X136113363Y-91553741D01*
X135956320Y-91788773D01*
X135848147Y-92049926D01*
X135793000Y-92327165D01*
X134988000Y-92327165D01*
X134988000Y-88094807D01*
X135181368Y-88288175D01*
X135424589Y-88450690D01*
X135694842Y-88562632D01*
X135981740Y-88619700D01*
X136274260Y-88619700D01*
X136561158Y-88562632D01*
X136831411Y-88450690D01*
X137074632Y-88288175D01*
X137281475Y-88081332D01*
X137399100Y-87905294D01*
X137570412Y-88134969D01*
X137786645Y-88329878D01*
X138036748Y-88478857D01*
X138311109Y-88576181D01*
X138541000Y-88455514D01*
X138541000Y-87261700D01*
X138795000Y-87261700D01*
X138795000Y-88455514D01*
X139024891Y-88576181D01*
X139299252Y-88478857D01*
X139549355Y-88329878D01*
X139765588Y-88134969D01*
X139939641Y-87901620D01*
X140064825Y-87638799D01*
X140109476Y-87491590D01*
X139988155Y-87261700D01*
X138795000Y-87261700D01*
X138541000Y-87261700D01*
X138521000Y-87261700D01*
X138521000Y-87007700D01*
X138541000Y-87007700D01*
X138541000Y-86987700D01*
X138795000Y-86987700D01*
X138795000Y-87007700D01*
X139988155Y-87007700D01*
X140109476Y-86777810D01*
X140064825Y-86630601D01*
X139939641Y-86367780D01*
X139765588Y-86134431D01*
X139549355Y-85939522D01*
X139432466Y-85869895D01*
X139614632Y-85748175D01*
X139821475Y-85541332D01*
X139983990Y-85298111D01*
X140095932Y-85027858D01*
X140153000Y-84740960D01*
X140153000Y-84448440D01*
X140095932Y-84161542D01*
X139983990Y-83891289D01*
X139821475Y-83648068D01*
X139614632Y-83441225D01*
X139440240Y-83324700D01*
X139614632Y-83208175D01*
X139821475Y-83001332D01*
X139946178Y-82814700D01*
X143563499Y-82814700D01*
X144498912Y-83750114D01*
G36*
X152402963Y-84988759D02*
G01*
X152602841Y-85188637D01*
X152837873Y-85345680D01*
X153099026Y-85453853D01*
X153376265Y-85509000D01*
X153658935Y-85509000D01*
X153841487Y-85472688D01*
X161345867Y-92977068D01*
X161171405Y-92904804D01*
X160913486Y-92853500D01*
X160650514Y-92853500D01*
X160392595Y-92904804D01*
X160149641Y-93005439D01*
X159930987Y-93151538D01*
X159745038Y-93337487D01*
X159598939Y-93556141D01*
X159498304Y-93799095D01*
X159447000Y-94057014D01*
X159447000Y-94319986D01*
X159498304Y-94577905D01*
X159598939Y-94820859D01*
X159717300Y-94998000D01*
X158798700Y-94998000D01*
X158917061Y-94820859D01*
X159017696Y-94577905D01*
X159069000Y-94319986D01*
X159069000Y-94057014D01*
X159017696Y-93799095D01*
X158917061Y-93556141D01*
X158770962Y-93337487D01*
X158585013Y-93151538D01*
X158366359Y-93005439D01*
X158123405Y-92904804D01*
X157865486Y-92853500D01*
X157602514Y-92853500D01*
X157344595Y-92904804D01*
X157101641Y-93005439D01*
X156882987Y-93151538D01*
X156697038Y-93337487D01*
X156550939Y-93556141D01*
X156450304Y-93799095D01*
X156399000Y-94057014D01*
X156399000Y-94319986D01*
X156450304Y-94577905D01*
X156550939Y-94820859D01*
X156669300Y-94998000D01*
X156270802Y-94998000D01*
X154487804Y-93215003D01*
X154464001Y-93185999D01*
X154348276Y-93091026D01*
X154216247Y-93020454D01*
X154136435Y-92996244D01*
X154259114Y-92930671D01*
X154330697Y-92686702D01*
X153517600Y-91873605D01*
X152704503Y-92686702D01*
X152776086Y-92930671D01*
X152850750Y-92966000D01*
X151656554Y-92966000D01*
X151657327Y-92965680D01*
X151892359Y-92808637D01*
X152092237Y-92608759D01*
X152248515Y-92374872D01*
X152280929Y-92435514D01*
X152524898Y-92507097D01*
X153337995Y-91694000D01*
X153697205Y-91694000D01*
X154510302Y-92507097D01*
X154754271Y-92435514D01*
X154875171Y-92180004D01*
X154943900Y-91905816D01*
X154957817Y-91623488D01*
X154916387Y-91343870D01*
X154821203Y-91077708D01*
X154754271Y-90952486D01*
X154510302Y-90880903D01*
X153697205Y-91694000D01*
X153337995Y-91694000D01*
X152524898Y-90880903D01*
X152280929Y-90952486D01*
X152250406Y-91016992D01*
X152249280Y-91014273D01*
X152092237Y-90779241D01*
X152014294Y-90701298D01*
X152704503Y-90701298D01*
X153517600Y-91514395D01*
X154330697Y-90701298D01*
X154259114Y-90457329D01*
X154003604Y-90336429D01*
X153729416Y-90267700D01*
X153447088Y-90253783D01*
X153167470Y-90295213D01*
X152901308Y-90390397D01*
X152776086Y-90457329D01*
X152704503Y-90701298D01*
X152014294Y-90701298D01*
X151892359Y-90579363D01*
X151657327Y-90422320D01*
X151396174Y-90314147D01*
X151118935Y-90259000D01*
X150836265Y-90259000D01*
X150653714Y-90295312D01*
X150454900Y-90096499D01*
X150454900Y-85410723D01*
X150559026Y-85453853D01*
X150836265Y-85509000D01*
X151118935Y-85509000D01*
X151396174Y-85453853D01*
X151657327Y-85345680D01*
X151892359Y-85188637D01*
X152092237Y-84988759D01*
X152247600Y-84756241D01*
X152402963Y-84988759D01*
G37*
X152402963Y-84988759D02*
X152602841Y-85188637D01*
X152837873Y-85345680D01*
X153099026Y-85453853D01*
X153376265Y-85509000D01*
X153658935Y-85509000D01*
X153841487Y-85472688D01*
X161345867Y-92977068D01*
X161171405Y-92904804D01*
X160913486Y-92853500D01*
X160650514Y-92853500D01*
X160392595Y-92904804D01*
X160149641Y-93005439D01*
X159930987Y-93151538D01*
X159745038Y-93337487D01*
X159598939Y-93556141D01*
X159498304Y-93799095D01*
X159447000Y-94057014D01*
X159447000Y-94319986D01*
X159498304Y-94577905D01*
X159598939Y-94820859D01*
X159717300Y-94998000D01*
X158798700Y-94998000D01*
X158917061Y-94820859D01*
X159017696Y-94577905D01*
X159069000Y-94319986D01*
X159069000Y-94057014D01*
X159017696Y-93799095D01*
X158917061Y-93556141D01*
X158770962Y-93337487D01*
X158585013Y-93151538D01*
X158366359Y-93005439D01*
X158123405Y-92904804D01*
X157865486Y-92853500D01*
X157602514Y-92853500D01*
X157344595Y-92904804D01*
X157101641Y-93005439D01*
X156882987Y-93151538D01*
X156697038Y-93337487D01*
X156550939Y-93556141D01*
X156450304Y-93799095D01*
X156399000Y-94057014D01*
X156399000Y-94319986D01*
X156450304Y-94577905D01*
X156550939Y-94820859D01*
X156669300Y-94998000D01*
X156270802Y-94998000D01*
X154487804Y-93215003D01*
X154464001Y-93185999D01*
X154348276Y-93091026D01*
X154216247Y-93020454D01*
X154136435Y-92996244D01*
X154259114Y-92930671D01*
X154330697Y-92686702D01*
X153517600Y-91873605D01*
X152704503Y-92686702D01*
X152776086Y-92930671D01*
X152850750Y-92966000D01*
X151656554Y-92966000D01*
X151657327Y-92965680D01*
X151892359Y-92808637D01*
X152092237Y-92608759D01*
X152248515Y-92374872D01*
X152280929Y-92435514D01*
X152524898Y-92507097D01*
X153337995Y-91694000D01*
X153697205Y-91694000D01*
X154510302Y-92507097D01*
X154754271Y-92435514D01*
X154875171Y-92180004D01*
X154943900Y-91905816D01*
X154957817Y-91623488D01*
X154916387Y-91343870D01*
X154821203Y-91077708D01*
X154754271Y-90952486D01*
X154510302Y-90880903D01*
X153697205Y-91694000D01*
X153337995Y-91694000D01*
X152524898Y-90880903D01*
X152280929Y-90952486D01*
X152250406Y-91016992D01*
X152249280Y-91014273D01*
X152092237Y-90779241D01*
X152014294Y-90701298D01*
X152704503Y-90701298D01*
X153517600Y-91514395D01*
X154330697Y-90701298D01*
X154259114Y-90457329D01*
X154003604Y-90336429D01*
X153729416Y-90267700D01*
X153447088Y-90253783D01*
X153167470Y-90295213D01*
X152901308Y-90390397D01*
X152776086Y-90457329D01*
X152704503Y-90701298D01*
X152014294Y-90701298D01*
X151892359Y-90579363D01*
X151657327Y-90422320D01*
X151396174Y-90314147D01*
X151118935Y-90259000D01*
X150836265Y-90259000D01*
X150653714Y-90295312D01*
X150454900Y-90096499D01*
X150454900Y-85410723D01*
X150559026Y-85453853D01*
X150836265Y-85509000D01*
X151118935Y-85509000D01*
X151396174Y-85453853D01*
X151657327Y-85345680D01*
X151892359Y-85188637D01*
X152092237Y-84988759D01*
X152247600Y-84756241D01*
X152402963Y-84988759D01*
G36*
X163668001Y-93178932D02*
G01*
X163652174Y-93149323D01*
X163580999Y-93062597D01*
X163557201Y-93033599D01*
X163528203Y-93009801D01*
X154916288Y-84397887D01*
X154952600Y-84215335D01*
X154952600Y-83932665D01*
X154897453Y-83655426D01*
X154789280Y-83394273D01*
X154632237Y-83159241D01*
X154432359Y-82959363D01*
X154298129Y-82869673D01*
X154333404Y-82834398D01*
X154362401Y-82810601D01*
X154403726Y-82760246D01*
X154457374Y-82694877D01*
X154527946Y-82562847D01*
X154527946Y-82562846D01*
X154571403Y-82419586D01*
X154582400Y-82307933D01*
X154582400Y-82307924D01*
X154586076Y-82270601D01*
X154582400Y-82233278D01*
X154582400Y-80009222D01*
X154586076Y-79971899D01*
X154582400Y-79934576D01*
X154582400Y-79934567D01*
X154571403Y-79822914D01*
X154527946Y-79679653D01*
X154457374Y-79547624D01*
X154362401Y-79431899D01*
X154333403Y-79408101D01*
X153065404Y-78140103D01*
X153041601Y-78111099D01*
X152925876Y-78016126D01*
X152793847Y-77945554D01*
X152650586Y-77902097D01*
X152538933Y-77891100D01*
X152538922Y-77891100D01*
X152501600Y-77887424D01*
X152464278Y-77891100D01*
X138468922Y-77891100D01*
X138431599Y-77887424D01*
X138394276Y-77891100D01*
X138394267Y-77891100D01*
X138282614Y-77902097D01*
X138139353Y-77945554D01*
X138007324Y-78016126D01*
X137891599Y-78111099D01*
X137867801Y-78140097D01*
X135617003Y-80390896D01*
X135587999Y-80414699D01*
X135532871Y-80481874D01*
X135493026Y-80530424D01*
X135473674Y-80566628D01*
X135278000Y-80566628D01*
X135153518Y-80578888D01*
X135033820Y-80615198D01*
X134988000Y-80639690D01*
X134988000Y-71620323D01*
X136260497Y-71620323D01*
X136260497Y-72047677D01*
X136343870Y-72466821D01*
X136507412Y-72861645D01*
X136744837Y-73216977D01*
X137047023Y-73519163D01*
X137402355Y-73756588D01*
X137797179Y-73920130D01*
X138216323Y-74003503D01*
X138643677Y-74003503D01*
X139062821Y-73920130D01*
X139457645Y-73756588D01*
X139517640Y-73716500D01*
X142533000Y-73716500D01*
X142533000Y-73976500D01*
X142596110Y-74363265D01*
X142733461Y-74730286D01*
X142939775Y-75063459D01*
X143207124Y-75349980D01*
X143525233Y-75578839D01*
X143881878Y-75741240D01*
X144091110Y-75796075D01*
X144401000Y-75681353D01*
X144401000Y-73716500D01*
X144655000Y-73716500D01*
X144655000Y-75681353D01*
X144964890Y-75796075D01*
X145174122Y-75741240D01*
X145530767Y-75578839D01*
X145848876Y-75349980D01*
X146116225Y-75063459D01*
X146322539Y-74730286D01*
X146459890Y-74363265D01*
X146523000Y-73976500D01*
X146523000Y-73716500D01*
X152133000Y-73716500D01*
X152133000Y-73976500D01*
X152196110Y-74363265D01*
X152333461Y-74730286D01*
X152539775Y-75063459D01*
X152807124Y-75349980D01*
X153125233Y-75578839D01*
X153481878Y-75741240D01*
X153691110Y-75796075D01*
X154001000Y-75681353D01*
X154001000Y-73716500D01*
X154255000Y-73716500D01*
X154255000Y-75681353D01*
X154564890Y-75796075D01*
X154774122Y-75741240D01*
X155130767Y-75578839D01*
X155448876Y-75349980D01*
X155716225Y-75063459D01*
X155922539Y-74730286D01*
X156059890Y-74363265D01*
X156123000Y-73976500D01*
X156123000Y-73716500D01*
X154255000Y-73716500D01*
X154001000Y-73716500D01*
X152133000Y-73716500D01*
X146523000Y-73716500D01*
X144655000Y-73716500D01*
X144401000Y-73716500D01*
X142533000Y-73716500D01*
X139517640Y-73716500D01*
X139812977Y-73519163D01*
X140115163Y-73216977D01*
X140124836Y-73202500D01*
X142533000Y-73202500D01*
X142533000Y-73462500D01*
X144401000Y-73462500D01*
X144401000Y-71497647D01*
X144655000Y-71497647D01*
X144655000Y-73462500D01*
X146523000Y-73462500D01*
X146523000Y-73202500D01*
X152133000Y-73202500D01*
X152133000Y-73462500D01*
X154001000Y-73462500D01*
X154001000Y-71497647D01*
X154255000Y-71497647D01*
X154255000Y-73462500D01*
X156123000Y-73462500D01*
X156123000Y-73202500D01*
X156059890Y-72815735D01*
X155922539Y-72448714D01*
X155716225Y-72115541D01*
X155448876Y-71829020D01*
X155225511Y-71668323D01*
X158112497Y-71668323D01*
X158112497Y-72095677D01*
X158195870Y-72514821D01*
X158359412Y-72909645D01*
X158596837Y-73264977D01*
X158899023Y-73567163D01*
X159254355Y-73804588D01*
X159649179Y-73968130D01*
X160068323Y-74051503D01*
X160495677Y-74051503D01*
X160914821Y-73968130D01*
X161309645Y-73804588D01*
X161664977Y-73567163D01*
X161967163Y-73264977D01*
X162204588Y-72909645D01*
X162368130Y-72514821D01*
X162451503Y-72095677D01*
X162451503Y-71668323D01*
X162368130Y-71249179D01*
X162204588Y-70854355D01*
X161967163Y-70499023D01*
X161664977Y-70196837D01*
X161309645Y-69959412D01*
X160914821Y-69795870D01*
X160495677Y-69712497D01*
X160068323Y-69712497D01*
X159649179Y-69795870D01*
X159254355Y-69959412D01*
X158899023Y-70196837D01*
X158596837Y-70499023D01*
X158359412Y-70854355D01*
X158195870Y-71249179D01*
X158112497Y-71668323D01*
X155225511Y-71668323D01*
X155130767Y-71600161D01*
X154774122Y-71437760D01*
X154564890Y-71382925D01*
X154255000Y-71497647D01*
X154001000Y-71497647D01*
X153691110Y-71382925D01*
X153481878Y-71437760D01*
X153125233Y-71600161D01*
X152807124Y-71829020D01*
X152539775Y-72115541D01*
X152333461Y-72448714D01*
X152196110Y-72815735D01*
X152133000Y-73202500D01*
X146523000Y-73202500D01*
X146459890Y-72815735D01*
X146322539Y-72448714D01*
X146116225Y-72115541D01*
X145848876Y-71829020D01*
X145530767Y-71600161D01*
X145174122Y-71437760D01*
X144964890Y-71382925D01*
X144655000Y-71497647D01*
X144401000Y-71497647D01*
X144091110Y-71382925D01*
X143881878Y-71437760D01*
X143525233Y-71600161D01*
X143207124Y-71829020D01*
X142939775Y-72115541D01*
X142733461Y-72448714D01*
X142596110Y-72815735D01*
X142533000Y-73202500D01*
X140124836Y-73202500D01*
X140352588Y-72861645D01*
X140516130Y-72466821D01*
X140599503Y-72047677D01*
X140599503Y-71620323D01*
X140516130Y-71201179D01*
X140352588Y-70806355D01*
X140115163Y-70451023D01*
X139812977Y-70148837D01*
X139457645Y-69911412D01*
X139062821Y-69747870D01*
X138643677Y-69664497D01*
X138216323Y-69664497D01*
X137797179Y-69747870D01*
X137402355Y-69911412D01*
X137047023Y-70148837D01*
X136744837Y-70451023D01*
X136507412Y-70806355D01*
X136343870Y-71201179D01*
X136260497Y-71620323D01*
X134988000Y-71620323D01*
X134988000Y-68643100D01*
X163668000Y-68643100D01*
X163668001Y-93178932D01*
G37*
X163668001Y-93178932D02*
X163652174Y-93149323D01*
X163580999Y-93062597D01*
X163557201Y-93033599D01*
X163528203Y-93009801D01*
X154916288Y-84397887D01*
X154952600Y-84215335D01*
X154952600Y-83932665D01*
X154897453Y-83655426D01*
X154789280Y-83394273D01*
X154632237Y-83159241D01*
X154432359Y-82959363D01*
X154298129Y-82869673D01*
X154333404Y-82834398D01*
X154362401Y-82810601D01*
X154403726Y-82760246D01*
X154457374Y-82694877D01*
X154527946Y-82562847D01*
X154527946Y-82562846D01*
X154571403Y-82419586D01*
X154582400Y-82307933D01*
X154582400Y-82307924D01*
X154586076Y-82270601D01*
X154582400Y-82233278D01*
X154582400Y-80009222D01*
X154586076Y-79971899D01*
X154582400Y-79934576D01*
X154582400Y-79934567D01*
X154571403Y-79822914D01*
X154527946Y-79679653D01*
X154457374Y-79547624D01*
X154362401Y-79431899D01*
X154333403Y-79408101D01*
X153065404Y-78140103D01*
X153041601Y-78111099D01*
X152925876Y-78016126D01*
X152793847Y-77945554D01*
X152650586Y-77902097D01*
X152538933Y-77891100D01*
X152538922Y-77891100D01*
X152501600Y-77887424D01*
X152464278Y-77891100D01*
X138468922Y-77891100D01*
X138431599Y-77887424D01*
X138394276Y-77891100D01*
X138394267Y-77891100D01*
X138282614Y-77902097D01*
X138139353Y-77945554D01*
X138007324Y-78016126D01*
X137891599Y-78111099D01*
X137867801Y-78140097D01*
X135617003Y-80390896D01*
X135587999Y-80414699D01*
X135532871Y-80481874D01*
X135493026Y-80530424D01*
X135473674Y-80566628D01*
X135278000Y-80566628D01*
X135153518Y-80578888D01*
X135033820Y-80615198D01*
X134988000Y-80639690D01*
X134988000Y-71620323D01*
X136260497Y-71620323D01*
X136260497Y-72047677D01*
X136343870Y-72466821D01*
X136507412Y-72861645D01*
X136744837Y-73216977D01*
X137047023Y-73519163D01*
X137402355Y-73756588D01*
X137797179Y-73920130D01*
X138216323Y-74003503D01*
X138643677Y-74003503D01*
X139062821Y-73920130D01*
X139457645Y-73756588D01*
X139517640Y-73716500D01*
X142533000Y-73716500D01*
X142533000Y-73976500D01*
X142596110Y-74363265D01*
X142733461Y-74730286D01*
X142939775Y-75063459D01*
X143207124Y-75349980D01*
X143525233Y-75578839D01*
X143881878Y-75741240D01*
X144091110Y-75796075D01*
X144401000Y-75681353D01*
X144401000Y-73716500D01*
X144655000Y-73716500D01*
X144655000Y-75681353D01*
X144964890Y-75796075D01*
X145174122Y-75741240D01*
X145530767Y-75578839D01*
X145848876Y-75349980D01*
X146116225Y-75063459D01*
X146322539Y-74730286D01*
X146459890Y-74363265D01*
X146523000Y-73976500D01*
X146523000Y-73716500D01*
X152133000Y-73716500D01*
X152133000Y-73976500D01*
X152196110Y-74363265D01*
X152333461Y-74730286D01*
X152539775Y-75063459D01*
X152807124Y-75349980D01*
X153125233Y-75578839D01*
X153481878Y-75741240D01*
X153691110Y-75796075D01*
X154001000Y-75681353D01*
X154001000Y-73716500D01*
X154255000Y-73716500D01*
X154255000Y-75681353D01*
X154564890Y-75796075D01*
X154774122Y-75741240D01*
X155130767Y-75578839D01*
X155448876Y-75349980D01*
X155716225Y-75063459D01*
X155922539Y-74730286D01*
X156059890Y-74363265D01*
X156123000Y-73976500D01*
X156123000Y-73716500D01*
X154255000Y-73716500D01*
X154001000Y-73716500D01*
X152133000Y-73716500D01*
X146523000Y-73716500D01*
X144655000Y-73716500D01*
X144401000Y-73716500D01*
X142533000Y-73716500D01*
X139517640Y-73716500D01*
X139812977Y-73519163D01*
X140115163Y-73216977D01*
X140124836Y-73202500D01*
X142533000Y-73202500D01*
X142533000Y-73462500D01*
X144401000Y-73462500D01*
X144401000Y-71497647D01*
X144655000Y-71497647D01*
X144655000Y-73462500D01*
X146523000Y-73462500D01*
X146523000Y-73202500D01*
X152133000Y-73202500D01*
X152133000Y-73462500D01*
X154001000Y-73462500D01*
X154001000Y-71497647D01*
X154255000Y-71497647D01*
X154255000Y-73462500D01*
X156123000Y-73462500D01*
X156123000Y-73202500D01*
X156059890Y-72815735D01*
X155922539Y-72448714D01*
X155716225Y-72115541D01*
X155448876Y-71829020D01*
X155225511Y-71668323D01*
X158112497Y-71668323D01*
X158112497Y-72095677D01*
X158195870Y-72514821D01*
X158359412Y-72909645D01*
X158596837Y-73264977D01*
X158899023Y-73567163D01*
X159254355Y-73804588D01*
X159649179Y-73968130D01*
X160068323Y-74051503D01*
X160495677Y-74051503D01*
X160914821Y-73968130D01*
X161309645Y-73804588D01*
X161664977Y-73567163D01*
X161967163Y-73264977D01*
X162204588Y-72909645D01*
X162368130Y-72514821D01*
X162451503Y-72095677D01*
X162451503Y-71668323D01*
X162368130Y-71249179D01*
X162204588Y-70854355D01*
X161967163Y-70499023D01*
X161664977Y-70196837D01*
X161309645Y-69959412D01*
X160914821Y-69795870D01*
X160495677Y-69712497D01*
X160068323Y-69712497D01*
X159649179Y-69795870D01*
X159254355Y-69959412D01*
X158899023Y-70196837D01*
X158596837Y-70499023D01*
X158359412Y-70854355D01*
X158195870Y-71249179D01*
X158112497Y-71668323D01*
X155225511Y-71668323D01*
X155130767Y-71600161D01*
X154774122Y-71437760D01*
X154564890Y-71382925D01*
X154255000Y-71497647D01*
X154001000Y-71497647D01*
X153691110Y-71382925D01*
X153481878Y-71437760D01*
X153125233Y-71600161D01*
X152807124Y-71829020D01*
X152539775Y-72115541D01*
X152333461Y-72448714D01*
X152196110Y-72815735D01*
X152133000Y-73202500D01*
X146523000Y-73202500D01*
X146459890Y-72815735D01*
X146322539Y-72448714D01*
X146116225Y-72115541D01*
X145848876Y-71829020D01*
X145530767Y-71600161D01*
X145174122Y-71437760D01*
X144964890Y-71382925D01*
X144655000Y-71497647D01*
X144401000Y-71497647D01*
X144091110Y-71382925D01*
X143881878Y-71437760D01*
X143525233Y-71600161D01*
X143207124Y-71829020D01*
X142939775Y-72115541D01*
X142733461Y-72448714D01*
X142596110Y-72815735D01*
X142533000Y-73202500D01*
X140124836Y-73202500D01*
X140352588Y-72861645D01*
X140516130Y-72466821D01*
X140599503Y-72047677D01*
X140599503Y-71620323D01*
X140516130Y-71201179D01*
X140352588Y-70806355D01*
X140115163Y-70451023D01*
X139812977Y-70148837D01*
X139457645Y-69911412D01*
X139062821Y-69747870D01*
X138643677Y-69664497D01*
X138216323Y-69664497D01*
X137797179Y-69747870D01*
X137402355Y-69911412D01*
X137047023Y-70148837D01*
X136744837Y-70451023D01*
X136507412Y-70806355D01*
X136343870Y-71201179D01*
X136260497Y-71620323D01*
X134988000Y-71620323D01*
X134988000Y-68643100D01*
X163668000Y-68643100D01*
X163668001Y-93178932D01*
G36*
X152329122Y-79553423D02*
G01*
X152113750Y-79554500D01*
X151955000Y-79713250D01*
X151955000Y-80962500D01*
X151975000Y-80962500D01*
X151975000Y-81216500D01*
X151955000Y-81216500D01*
X151955000Y-81236500D01*
X151701000Y-81236500D01*
X151701000Y-81216500D01*
X151681000Y-81216500D01*
X151681000Y-80962500D01*
X151701000Y-80962500D01*
X151701000Y-79713250D01*
X151542250Y-79554500D01*
X150928000Y-79551428D01*
X150803518Y-79563688D01*
X150683820Y-79599998D01*
X150573506Y-79658963D01*
X150476815Y-79738315D01*
X150397463Y-79835006D01*
X150344120Y-79934803D01*
X150306505Y-79897188D01*
X150055095Y-79729201D01*
X149775743Y-79613489D01*
X149479184Y-79554500D01*
X149176816Y-79554500D01*
X148880257Y-79613489D01*
X148600905Y-79729201D01*
X148349495Y-79897188D01*
X148135688Y-80110995D01*
X148078000Y-80197331D01*
X148020312Y-80110995D01*
X147806505Y-79897188D01*
X147555095Y-79729201D01*
X147275743Y-79613489D01*
X146979184Y-79554500D01*
X146676816Y-79554500D01*
X146380257Y-79613489D01*
X146100905Y-79729201D01*
X145849495Y-79897188D01*
X145635688Y-80110995D01*
X145467701Y-80362405D01*
X145351989Y-80641757D01*
X145293000Y-80938316D01*
X145293000Y-81240684D01*
X145351989Y-81537243D01*
X145467701Y-81816595D01*
X145635688Y-82068005D01*
X145849495Y-82281812D01*
X146068000Y-82427813D01*
X146068000Y-82644782D01*
X146038935Y-82639000D01*
X145756265Y-82639000D01*
X145573714Y-82675312D01*
X144442104Y-81543702D01*
X144418301Y-81514699D01*
X144302576Y-81419726D01*
X144170547Y-81349154D01*
X144027286Y-81305697D01*
X143915633Y-81294700D01*
X143915622Y-81294700D01*
X143878300Y-81291024D01*
X143840978Y-81294700D01*
X139946178Y-81294700D01*
X139821475Y-81108068D01*
X139614632Y-80901225D01*
X139371411Y-80738710D01*
X139101158Y-80626768D01*
X138814260Y-80569700D01*
X138521740Y-80569700D01*
X138234842Y-80626768D01*
X137964589Y-80738710D01*
X137721368Y-80901225D01*
X137589513Y-81033080D01*
X137567502Y-80960520D01*
X137508537Y-80850206D01*
X137429185Y-80753515D01*
X137415345Y-80742157D01*
X138746402Y-79411100D01*
X152186799Y-79411100D01*
X152329122Y-79553423D01*
G37*
X152329122Y-79553423D02*
X152113750Y-79554500D01*
X151955000Y-79713250D01*
X151955000Y-80962500D01*
X151975000Y-80962500D01*
X151975000Y-81216500D01*
X151955000Y-81216500D01*
X151955000Y-81236500D01*
X151701000Y-81236500D01*
X151701000Y-81216500D01*
X151681000Y-81216500D01*
X151681000Y-80962500D01*
X151701000Y-80962500D01*
X151701000Y-79713250D01*
X151542250Y-79554500D01*
X150928000Y-79551428D01*
X150803518Y-79563688D01*
X150683820Y-79599998D01*
X150573506Y-79658963D01*
X150476815Y-79738315D01*
X150397463Y-79835006D01*
X150344120Y-79934803D01*
X150306505Y-79897188D01*
X150055095Y-79729201D01*
X149775743Y-79613489D01*
X149479184Y-79554500D01*
X149176816Y-79554500D01*
X148880257Y-79613489D01*
X148600905Y-79729201D01*
X148349495Y-79897188D01*
X148135688Y-80110995D01*
X148078000Y-80197331D01*
X148020312Y-80110995D01*
X147806505Y-79897188D01*
X147555095Y-79729201D01*
X147275743Y-79613489D01*
X146979184Y-79554500D01*
X146676816Y-79554500D01*
X146380257Y-79613489D01*
X146100905Y-79729201D01*
X145849495Y-79897188D01*
X145635688Y-80110995D01*
X145467701Y-80362405D01*
X145351989Y-80641757D01*
X145293000Y-80938316D01*
X145293000Y-81240684D01*
X145351989Y-81537243D01*
X145467701Y-81816595D01*
X145635688Y-82068005D01*
X145849495Y-82281812D01*
X146068000Y-82427813D01*
X146068000Y-82644782D01*
X146038935Y-82639000D01*
X145756265Y-82639000D01*
X145573714Y-82675312D01*
X144442104Y-81543702D01*
X144418301Y-81514699D01*
X144302576Y-81419726D01*
X144170547Y-81349154D01*
X144027286Y-81305697D01*
X143915633Y-81294700D01*
X143915622Y-81294700D01*
X143878300Y-81291024D01*
X143840978Y-81294700D01*
X139946178Y-81294700D01*
X139821475Y-81108068D01*
X139614632Y-80901225D01*
X139371411Y-80738710D01*
X139101158Y-80626768D01*
X138814260Y-80569700D01*
X138521740Y-80569700D01*
X138234842Y-80626768D01*
X137964589Y-80738710D01*
X137721368Y-80901225D01*
X137589513Y-81033080D01*
X137567502Y-80960520D01*
X137508537Y-80850206D01*
X137429185Y-80753515D01*
X137415345Y-80742157D01*
X138746402Y-79411100D01*
X152186799Y-79411100D01*
X152329122Y-79553423D01*
M02*
