G04 #@! TF.GenerationSoftware,KiCad,Pcbnew,5.1.5-52549c5~86~ubuntu19.04.1*
G04 #@! TF.CreationDate,2020-05-05T22:36:46+02:00*
G04 #@! TF.ProjectId,NotSoTinyDimmer,4e6f7453-6f54-4696-9e79-44696d6d6572,1.3.3*
G04 #@! TF.SameCoordinates,Original*
G04 #@! TF.FileFunction,Soldermask,Bot*
G04 #@! TF.FilePolarity,Negative*
%FSLAX46Y46*%
G04 Gerber Fmt 4.6, Leading zero omitted, Abs format (unit mm)*
G04 Created by KiCad (PCBNEW 5.1.5-52549c5~86~ubuntu19.04.1) date 2020-05-05 22:36:46*
%MOMM*%
%LPD*%
G04 APERTURE LIST*
%ADD10C,0.100000*%
G04 APERTURE END LIST*
D10*
G36*
X147887500Y-114169100D02*
G01*
X145685500Y-114169100D01*
X145685500Y-111967100D01*
X147887500Y-111967100D01*
X147887500Y-114169100D01*
G37*
G36*
X149541295Y-111988256D02*
G01*
X149647650Y-112009411D01*
X149848020Y-112092407D01*
X150028344Y-112212895D01*
X150181705Y-112366256D01*
X150302193Y-112546580D01*
X150385189Y-112746951D01*
X150427500Y-112959660D01*
X150427500Y-113176540D01*
X150385189Y-113389249D01*
X150302193Y-113589620D01*
X150181705Y-113769944D01*
X150028344Y-113923305D01*
X149848020Y-114043793D01*
X149747834Y-114085291D01*
X149647650Y-114126789D01*
X149541295Y-114147944D01*
X149434940Y-114169100D01*
X149218060Y-114169100D01*
X149111705Y-114147944D01*
X149005350Y-114126789D01*
X148905166Y-114085291D01*
X148804980Y-114043793D01*
X148624656Y-113923305D01*
X148471295Y-113769944D01*
X148350807Y-113589620D01*
X148267811Y-113389249D01*
X148225500Y-113176540D01*
X148225500Y-112959660D01*
X148267811Y-112746951D01*
X148350807Y-112546580D01*
X148471295Y-112366256D01*
X148624656Y-112212895D01*
X148804980Y-112092407D01*
X149005350Y-112009411D01*
X149111705Y-111988256D01*
X149218060Y-111967100D01*
X149434940Y-111967100D01*
X149541295Y-111988256D01*
G37*
G36*
X152081295Y-111988256D02*
G01*
X152187650Y-112009411D01*
X152388020Y-112092407D01*
X152568344Y-112212895D01*
X152721705Y-112366256D01*
X152842193Y-112546580D01*
X152925189Y-112746951D01*
X152967500Y-112959660D01*
X152967500Y-113176540D01*
X152925189Y-113389249D01*
X152842193Y-113589620D01*
X152721705Y-113769944D01*
X152568344Y-113923305D01*
X152388020Y-114043793D01*
X152287834Y-114085291D01*
X152187650Y-114126789D01*
X152081295Y-114147944D01*
X151974940Y-114169100D01*
X151758060Y-114169100D01*
X151651705Y-114147944D01*
X151545350Y-114126789D01*
X151445166Y-114085291D01*
X151344980Y-114043793D01*
X151164656Y-113923305D01*
X151011295Y-113769944D01*
X150890807Y-113589620D01*
X150807811Y-113389249D01*
X150765500Y-113176540D01*
X150765500Y-112959660D01*
X150807811Y-112746951D01*
X150890807Y-112546580D01*
X151011295Y-112366256D01*
X151164656Y-112212895D01*
X151344980Y-112092407D01*
X151545350Y-112009411D01*
X151651705Y-111988256D01*
X151758060Y-111967100D01*
X151974940Y-111967100D01*
X152081295Y-111988256D01*
G37*
G36*
X140389979Y-107133293D02*
G01*
X140523625Y-107173834D01*
X140646784Y-107239664D01*
X140754740Y-107328260D01*
X140843336Y-107436216D01*
X140909166Y-107559375D01*
X140949707Y-107693021D01*
X140964000Y-107838140D01*
X140964000Y-109501860D01*
X140949707Y-109646979D01*
X140909166Y-109780625D01*
X140843336Y-109903784D01*
X140754740Y-110011740D01*
X140646784Y-110100336D01*
X140523625Y-110166166D01*
X140389979Y-110206707D01*
X140244860Y-110221000D01*
X138081140Y-110221000D01*
X137936021Y-110206707D01*
X137802375Y-110166166D01*
X137679216Y-110100336D01*
X137571260Y-110011740D01*
X137482664Y-109903784D01*
X137416834Y-109780625D01*
X137376293Y-109646979D01*
X137362000Y-109501860D01*
X137362000Y-107838140D01*
X137376293Y-107693021D01*
X137416834Y-107559375D01*
X137482664Y-107436216D01*
X137571260Y-107328260D01*
X137679216Y-107239664D01*
X137802375Y-107173834D01*
X137936021Y-107133293D01*
X138081140Y-107119000D01*
X140244860Y-107119000D01*
X140389979Y-107133293D01*
G37*
G36*
X159557028Y-106439303D02*
G01*
X159711900Y-106503453D01*
X159851281Y-106596585D01*
X159969815Y-106715119D01*
X160062947Y-106854500D01*
X160127097Y-107009372D01*
X160159800Y-107173784D01*
X160159800Y-107341416D01*
X160127097Y-107505828D01*
X160062947Y-107660700D01*
X159969815Y-107800081D01*
X159851281Y-107918615D01*
X159711900Y-108011747D01*
X159557028Y-108075897D01*
X159392616Y-108108600D01*
X159224984Y-108108600D01*
X159060572Y-108075897D01*
X158905700Y-108011747D01*
X158766319Y-107918615D01*
X158647785Y-107800081D01*
X158554653Y-107660700D01*
X158490503Y-107505828D01*
X158457800Y-107341416D01*
X158457800Y-107173784D01*
X158490503Y-107009372D01*
X158554653Y-106854500D01*
X158647785Y-106715119D01*
X158766319Y-106596585D01*
X158905700Y-106503453D01*
X159060572Y-106439303D01*
X159224984Y-106406600D01*
X159392616Y-106406600D01*
X159557028Y-106439303D01*
G37*
G36*
X144989366Y-103885695D02*
G01*
X145146460Y-103933349D01*
X145291231Y-104010731D01*
X145418128Y-104114872D01*
X145522269Y-104241769D01*
X145599651Y-104386540D01*
X145647305Y-104543634D01*
X145664000Y-104713140D01*
X145664000Y-106626860D01*
X145647305Y-106796366D01*
X145599651Y-106953460D01*
X145522269Y-107098231D01*
X145418128Y-107225128D01*
X145291231Y-107329269D01*
X145146460Y-107406651D01*
X144989366Y-107454305D01*
X144819860Y-107471000D01*
X142906140Y-107471000D01*
X142736634Y-107454305D01*
X142579540Y-107406651D01*
X142434769Y-107329269D01*
X142307872Y-107225128D01*
X142203731Y-107098231D01*
X142126349Y-106953460D01*
X142078695Y-106796366D01*
X142062000Y-106626860D01*
X142062000Y-104713140D01*
X142078695Y-104543634D01*
X142126349Y-104386540D01*
X142203731Y-104241769D01*
X142307872Y-104114872D01*
X142434769Y-104010731D01*
X142579540Y-103933349D01*
X142736634Y-103885695D01*
X142906140Y-103869000D01*
X144819860Y-103869000D01*
X144989366Y-103885695D01*
G37*
G36*
X160159800Y-106108600D02*
G01*
X158457800Y-106108600D01*
X158457800Y-104406600D01*
X160159800Y-104406600D01*
X160159800Y-106108600D01*
G37*
G36*
X140964000Y-104471000D02*
G01*
X137362000Y-104471000D01*
X137362000Y-100869000D01*
X140964000Y-100869000D01*
X140964000Y-104471000D01*
G37*
G36*
X146384564Y-99497189D02*
G01*
X146575833Y-99576415D01*
X146575835Y-99576416D01*
X146747973Y-99691435D01*
X146894365Y-99837827D01*
X147009385Y-100009967D01*
X147088611Y-100201236D01*
X147129000Y-100404284D01*
X147129000Y-100611316D01*
X147088611Y-100814364D01*
X147065980Y-100869000D01*
X147009384Y-101005635D01*
X146894365Y-101177773D01*
X146747973Y-101324165D01*
X146575835Y-101439184D01*
X146575834Y-101439185D01*
X146575833Y-101439185D01*
X146384564Y-101518411D01*
X146181516Y-101558800D01*
X145974484Y-101558800D01*
X145771436Y-101518411D01*
X145580167Y-101439185D01*
X145580166Y-101439185D01*
X145580165Y-101439184D01*
X145408027Y-101324165D01*
X145261635Y-101177773D01*
X145146616Y-101005635D01*
X145090020Y-100869000D01*
X145067389Y-100814364D01*
X145027000Y-100611316D01*
X145027000Y-100404284D01*
X145067389Y-100201236D01*
X145146615Y-100009967D01*
X145261635Y-99837827D01*
X145408027Y-99691435D01*
X145580165Y-99576416D01*
X145580167Y-99576415D01*
X145771436Y-99497189D01*
X145974484Y-99456800D01*
X146181516Y-99456800D01*
X146384564Y-99497189D01*
G37*
G36*
X152884564Y-99497189D02*
G01*
X153075833Y-99576415D01*
X153075835Y-99576416D01*
X153247973Y-99691435D01*
X153394365Y-99837827D01*
X153509385Y-100009967D01*
X153588611Y-100201236D01*
X153629000Y-100404284D01*
X153629000Y-100611316D01*
X153588611Y-100814364D01*
X153565980Y-100869000D01*
X153509384Y-101005635D01*
X153394365Y-101177773D01*
X153247973Y-101324165D01*
X153075835Y-101439184D01*
X153075834Y-101439185D01*
X153075833Y-101439185D01*
X152884564Y-101518411D01*
X152681516Y-101558800D01*
X152474484Y-101558800D01*
X152271436Y-101518411D01*
X152080167Y-101439185D01*
X152080166Y-101439185D01*
X152080165Y-101439184D01*
X151908027Y-101324165D01*
X151761635Y-101177773D01*
X151646616Y-101005635D01*
X151590020Y-100869000D01*
X151567389Y-100814364D01*
X151527000Y-100611316D01*
X151527000Y-100404284D01*
X151567389Y-100201236D01*
X151646615Y-100009967D01*
X151761635Y-99837827D01*
X151908027Y-99691435D01*
X152080165Y-99576416D01*
X152080167Y-99576415D01*
X152271436Y-99497189D01*
X152474484Y-99456800D01*
X152681516Y-99456800D01*
X152884564Y-99497189D01*
G37*
G36*
X161001059Y-98546360D02*
G01*
X161137732Y-98602972D01*
X161260735Y-98685160D01*
X161365340Y-98789765D01*
X161447528Y-98912768D01*
X161504140Y-99049441D01*
X161533000Y-99194533D01*
X161533000Y-99342467D01*
X161504140Y-99487559D01*
X161447528Y-99624232D01*
X161365340Y-99747235D01*
X161260735Y-99851840D01*
X161137732Y-99934028D01*
X161137731Y-99934029D01*
X161137730Y-99934029D01*
X161001059Y-99990640D01*
X160855968Y-100019500D01*
X160708032Y-100019500D01*
X160562941Y-99990640D01*
X160426270Y-99934029D01*
X160426269Y-99934029D01*
X160426268Y-99934028D01*
X160303265Y-99851840D01*
X160198660Y-99747235D01*
X160116472Y-99624232D01*
X160059860Y-99487559D01*
X160031000Y-99342467D01*
X160031000Y-99194533D01*
X160059860Y-99049441D01*
X160116472Y-98912768D01*
X160198660Y-98789765D01*
X160303265Y-98685160D01*
X160426268Y-98602972D01*
X160562941Y-98546360D01*
X160708032Y-98517500D01*
X160855968Y-98517500D01*
X161001059Y-98546360D01*
G37*
G36*
X157953059Y-98546360D02*
G01*
X158089732Y-98602972D01*
X158212735Y-98685160D01*
X158317340Y-98789765D01*
X158399528Y-98912768D01*
X158456140Y-99049441D01*
X158485000Y-99194533D01*
X158485000Y-99342467D01*
X158456140Y-99487559D01*
X158399528Y-99624232D01*
X158317340Y-99747235D01*
X158212735Y-99851840D01*
X158089732Y-99934028D01*
X158089731Y-99934029D01*
X158089730Y-99934029D01*
X157953059Y-99990640D01*
X157807968Y-100019500D01*
X157660032Y-100019500D01*
X157514941Y-99990640D01*
X157378270Y-99934029D01*
X157378269Y-99934029D01*
X157378268Y-99934028D01*
X157255265Y-99851840D01*
X157150660Y-99747235D01*
X157068472Y-99624232D01*
X157011860Y-99487559D01*
X156983000Y-99342467D01*
X156983000Y-99194533D01*
X157011860Y-99049441D01*
X157068472Y-98912768D01*
X157150660Y-98789765D01*
X157255265Y-98685160D01*
X157378268Y-98602972D01*
X157514941Y-98546360D01*
X157660032Y-98517500D01*
X157807968Y-98517500D01*
X157953059Y-98546360D01*
G37*
G36*
X141346228Y-96650203D02*
G01*
X141501100Y-96714353D01*
X141640481Y-96807485D01*
X141759015Y-96926019D01*
X141852147Y-97065400D01*
X141916297Y-97220272D01*
X141949000Y-97384684D01*
X141949000Y-97552316D01*
X141916297Y-97716728D01*
X141852147Y-97871600D01*
X141759015Y-98010981D01*
X141640481Y-98129515D01*
X141501100Y-98222647D01*
X141346228Y-98286797D01*
X141181816Y-98319500D01*
X141014184Y-98319500D01*
X140849772Y-98286797D01*
X140694900Y-98222647D01*
X140555519Y-98129515D01*
X140436985Y-98010981D01*
X140343853Y-97871600D01*
X140279703Y-97716728D01*
X140247000Y-97552316D01*
X140247000Y-97384684D01*
X140279703Y-97220272D01*
X140343853Y-97065400D01*
X140436985Y-96926019D01*
X140555519Y-96807485D01*
X140694900Y-96714353D01*
X140849772Y-96650203D01*
X141014184Y-96617500D01*
X141181816Y-96617500D01*
X141346228Y-96650203D01*
G37*
G36*
X137476228Y-96650203D02*
G01*
X137631100Y-96714353D01*
X137770481Y-96807485D01*
X137889015Y-96926019D01*
X137982147Y-97065400D01*
X138046297Y-97220272D01*
X138079000Y-97384684D01*
X138079000Y-97552316D01*
X138046297Y-97716728D01*
X137982147Y-97871600D01*
X137889015Y-98010981D01*
X137770481Y-98129515D01*
X137631100Y-98222647D01*
X137476228Y-98286797D01*
X137311816Y-98319500D01*
X137144184Y-98319500D01*
X136979772Y-98286797D01*
X136824900Y-98222647D01*
X136685519Y-98129515D01*
X136566985Y-98010981D01*
X136473853Y-97871600D01*
X136409703Y-97716728D01*
X136377000Y-97552316D01*
X136377000Y-97384684D01*
X136409703Y-97220272D01*
X136473853Y-97065400D01*
X136566985Y-96926019D01*
X136685519Y-96807485D01*
X136824900Y-96714353D01*
X136979772Y-96650203D01*
X137144184Y-96617500D01*
X137311816Y-96617500D01*
X137476228Y-96650203D01*
G37*
G36*
X146384564Y-94997189D02*
G01*
X146575833Y-95076415D01*
X146575835Y-95076416D01*
X146747973Y-95191435D01*
X146894365Y-95337827D01*
X147009385Y-95509967D01*
X147088611Y-95701236D01*
X147129000Y-95904284D01*
X147129000Y-96111316D01*
X147088611Y-96314364D01*
X147009385Y-96505633D01*
X147009384Y-96505635D01*
X146894365Y-96677773D01*
X146747973Y-96824165D01*
X146575835Y-96939184D01*
X146575834Y-96939185D01*
X146575833Y-96939185D01*
X146384564Y-97018411D01*
X146181516Y-97058800D01*
X145974484Y-97058800D01*
X145771436Y-97018411D01*
X145580167Y-96939185D01*
X145580166Y-96939185D01*
X145580165Y-96939184D01*
X145408027Y-96824165D01*
X145261635Y-96677773D01*
X145146616Y-96505635D01*
X145146615Y-96505633D01*
X145067389Y-96314364D01*
X145027000Y-96111316D01*
X145027000Y-95904284D01*
X145067389Y-95701236D01*
X145146615Y-95509967D01*
X145261635Y-95337827D01*
X145408027Y-95191435D01*
X145580165Y-95076416D01*
X145580167Y-95076415D01*
X145771436Y-94997189D01*
X145974484Y-94956800D01*
X146181516Y-94956800D01*
X146384564Y-94997189D01*
G37*
G36*
X152884564Y-94997189D02*
G01*
X153075833Y-95076415D01*
X153075835Y-95076416D01*
X153247973Y-95191435D01*
X153394365Y-95337827D01*
X153509385Y-95509967D01*
X153588611Y-95701236D01*
X153629000Y-95904284D01*
X153629000Y-96111316D01*
X153588611Y-96314364D01*
X153509385Y-96505633D01*
X153509384Y-96505635D01*
X153394365Y-96677773D01*
X153247973Y-96824165D01*
X153075835Y-96939184D01*
X153075834Y-96939185D01*
X153075833Y-96939185D01*
X152884564Y-97018411D01*
X152681516Y-97058800D01*
X152474484Y-97058800D01*
X152271436Y-97018411D01*
X152080167Y-96939185D01*
X152080166Y-96939185D01*
X152080165Y-96939184D01*
X151908027Y-96824165D01*
X151761635Y-96677773D01*
X151646616Y-96505635D01*
X151646615Y-96505633D01*
X151567389Y-96314364D01*
X151527000Y-96111316D01*
X151527000Y-95904284D01*
X151567389Y-95701236D01*
X151646615Y-95509967D01*
X151761635Y-95337827D01*
X151908027Y-95191435D01*
X152080165Y-95076416D01*
X152080167Y-95076415D01*
X152271436Y-94997189D01*
X152474484Y-94956800D01*
X152681516Y-94956800D01*
X152884564Y-94997189D01*
G37*
G36*
X157953059Y-93466360D02*
G01*
X158089732Y-93522972D01*
X158212735Y-93605160D01*
X158317340Y-93709765D01*
X158399528Y-93832768D01*
X158456140Y-93969441D01*
X158485000Y-94114533D01*
X158485000Y-94262467D01*
X158456140Y-94407559D01*
X158399528Y-94544232D01*
X158317340Y-94667235D01*
X158212735Y-94771840D01*
X158089732Y-94854028D01*
X158089731Y-94854029D01*
X158089730Y-94854029D01*
X157953059Y-94910640D01*
X157807968Y-94939500D01*
X157660032Y-94939500D01*
X157514941Y-94910640D01*
X157378270Y-94854029D01*
X157378269Y-94854029D01*
X157378268Y-94854028D01*
X157255265Y-94771840D01*
X157150660Y-94667235D01*
X157068472Y-94544232D01*
X157011860Y-94407559D01*
X156983000Y-94262467D01*
X156983000Y-94114533D01*
X157011860Y-93969441D01*
X157068472Y-93832768D01*
X157150660Y-93709765D01*
X157255265Y-93605160D01*
X157378268Y-93522972D01*
X157514941Y-93466360D01*
X157660032Y-93437500D01*
X157807968Y-93437500D01*
X157953059Y-93466360D01*
G37*
G36*
X161001059Y-93466360D02*
G01*
X161137732Y-93522972D01*
X161260735Y-93605160D01*
X161365340Y-93709765D01*
X161447528Y-93832768D01*
X161504140Y-93969441D01*
X161533000Y-94114533D01*
X161533000Y-94262467D01*
X161504140Y-94407559D01*
X161447528Y-94544232D01*
X161365340Y-94667235D01*
X161260735Y-94771840D01*
X161137732Y-94854028D01*
X161137731Y-94854029D01*
X161137730Y-94854029D01*
X161001059Y-94910640D01*
X160855968Y-94939500D01*
X160708032Y-94939500D01*
X160562941Y-94910640D01*
X160426270Y-94854029D01*
X160426269Y-94854029D01*
X160426268Y-94854028D01*
X160303265Y-94771840D01*
X160198660Y-94667235D01*
X160116472Y-94544232D01*
X160059860Y-94407559D01*
X160031000Y-94262467D01*
X160031000Y-94114533D01*
X160059860Y-93969441D01*
X160116472Y-93832768D01*
X160198660Y-93709765D01*
X160303265Y-93605160D01*
X160426268Y-93522972D01*
X160562941Y-93466360D01*
X160708032Y-93437500D01*
X160855968Y-93437500D01*
X161001059Y-93466360D01*
G37*
G36*
X141346228Y-91650203D02*
G01*
X141501100Y-91714353D01*
X141640481Y-91807485D01*
X141759015Y-91926019D01*
X141852147Y-92065400D01*
X141916297Y-92220272D01*
X141949000Y-92384684D01*
X141949000Y-92552316D01*
X141916297Y-92716728D01*
X141852147Y-92871600D01*
X141759015Y-93010981D01*
X141640481Y-93129515D01*
X141501100Y-93222647D01*
X141346228Y-93286797D01*
X141181816Y-93319500D01*
X141014184Y-93319500D01*
X140849772Y-93286797D01*
X140694900Y-93222647D01*
X140555519Y-93129515D01*
X140436985Y-93010981D01*
X140343853Y-92871600D01*
X140279703Y-92716728D01*
X140247000Y-92552316D01*
X140247000Y-92384684D01*
X140279703Y-92220272D01*
X140343853Y-92065400D01*
X140436985Y-91926019D01*
X140555519Y-91807485D01*
X140694900Y-91714353D01*
X140849772Y-91650203D01*
X141014184Y-91617500D01*
X141181816Y-91617500D01*
X141346228Y-91650203D01*
G37*
G36*
X137476228Y-91650203D02*
G01*
X137631100Y-91714353D01*
X137770481Y-91807485D01*
X137889015Y-91926019D01*
X137982147Y-92065400D01*
X138046297Y-92220272D01*
X138079000Y-92384684D01*
X138079000Y-92552316D01*
X138046297Y-92716728D01*
X137982147Y-92871600D01*
X137889015Y-93010981D01*
X137770481Y-93129515D01*
X137631100Y-93222647D01*
X137476228Y-93286797D01*
X137311816Y-93319500D01*
X137144184Y-93319500D01*
X136979772Y-93286797D01*
X136824900Y-93222647D01*
X136685519Y-93129515D01*
X136566985Y-93010981D01*
X136473853Y-92871600D01*
X136409703Y-92716728D01*
X136377000Y-92552316D01*
X136377000Y-92384684D01*
X136409703Y-92220272D01*
X136473853Y-92065400D01*
X136566985Y-91926019D01*
X136685519Y-91807485D01*
X136824900Y-91714353D01*
X136979772Y-91650203D01*
X137144184Y-91617500D01*
X137311816Y-91617500D01*
X137476228Y-91650203D01*
G37*
G36*
X148685828Y-90875703D02*
G01*
X148840700Y-90939853D01*
X148980081Y-91032985D01*
X149098615Y-91151519D01*
X149191747Y-91290900D01*
X149255897Y-91445772D01*
X149288600Y-91610184D01*
X149288600Y-91777816D01*
X149255897Y-91942228D01*
X149191747Y-92097100D01*
X149098615Y-92236481D01*
X148980081Y-92355015D01*
X148840700Y-92448147D01*
X148685828Y-92512297D01*
X148521416Y-92545000D01*
X148353784Y-92545000D01*
X148189372Y-92512297D01*
X148034500Y-92448147D01*
X147895119Y-92355015D01*
X147776585Y-92236481D01*
X147683453Y-92097100D01*
X147619303Y-91942228D01*
X147586600Y-91777816D01*
X147586600Y-91610184D01*
X147619303Y-91445772D01*
X147683453Y-91290900D01*
X147776585Y-91151519D01*
X147895119Y-91032985D01*
X148034500Y-90939853D01*
X148189372Y-90875703D01*
X148353784Y-90843000D01*
X148521416Y-90843000D01*
X148685828Y-90875703D01*
G37*
G36*
X153765828Y-90875703D02*
G01*
X153920700Y-90939853D01*
X154060081Y-91032985D01*
X154178615Y-91151519D01*
X154271747Y-91290900D01*
X154335897Y-91445772D01*
X154368600Y-91610184D01*
X154368600Y-91777816D01*
X154335897Y-91942228D01*
X154271747Y-92097100D01*
X154178615Y-92236481D01*
X154060081Y-92355015D01*
X153920700Y-92448147D01*
X153765828Y-92512297D01*
X153601416Y-92545000D01*
X153433784Y-92545000D01*
X153269372Y-92512297D01*
X153114500Y-92448147D01*
X152975119Y-92355015D01*
X152856585Y-92236481D01*
X152763453Y-92097100D01*
X152699303Y-91942228D01*
X152666600Y-91777816D01*
X152666600Y-91610184D01*
X152699303Y-91445772D01*
X152763453Y-91290900D01*
X152856585Y-91151519D01*
X152975119Y-91032985D01*
X153114500Y-90939853D01*
X153269372Y-90875703D01*
X153433784Y-90843000D01*
X153601416Y-90843000D01*
X153765828Y-90875703D01*
G37*
G36*
X151225828Y-90875703D02*
G01*
X151380700Y-90939853D01*
X151520081Y-91032985D01*
X151638615Y-91151519D01*
X151731747Y-91290900D01*
X151795897Y-91445772D01*
X151828600Y-91610184D01*
X151828600Y-91777816D01*
X151795897Y-91942228D01*
X151731747Y-92097100D01*
X151638615Y-92236481D01*
X151520081Y-92355015D01*
X151380700Y-92448147D01*
X151225828Y-92512297D01*
X151061416Y-92545000D01*
X150893784Y-92545000D01*
X150729372Y-92512297D01*
X150574500Y-92448147D01*
X150435119Y-92355015D01*
X150316585Y-92236481D01*
X150223453Y-92097100D01*
X150159303Y-91942228D01*
X150126600Y-91777816D01*
X150126600Y-91610184D01*
X150159303Y-91445772D01*
X150223453Y-91290900D01*
X150316585Y-91151519D01*
X150435119Y-91032985D01*
X150574500Y-90939853D01*
X150729372Y-90875703D01*
X150893784Y-90843000D01*
X151061416Y-90843000D01*
X151225828Y-90875703D01*
G37*
G36*
X146748600Y-92545000D02*
G01*
X145046600Y-92545000D01*
X145046600Y-90843000D01*
X146748600Y-90843000D01*
X146748600Y-92545000D01*
G37*
G36*
X138781512Y-86238627D02*
G01*
X138930812Y-86268324D01*
X139094784Y-86336244D01*
X139242354Y-86434847D01*
X139367853Y-86560346D01*
X139466456Y-86707916D01*
X139534376Y-86871888D01*
X139569000Y-87045959D01*
X139569000Y-87223441D01*
X139534376Y-87397512D01*
X139466456Y-87561484D01*
X139367853Y-87709054D01*
X139242354Y-87834553D01*
X139094784Y-87933156D01*
X138930812Y-88001076D01*
X138781512Y-88030773D01*
X138756742Y-88035700D01*
X138579258Y-88035700D01*
X138554488Y-88030773D01*
X138405188Y-88001076D01*
X138241216Y-87933156D01*
X138093646Y-87834553D01*
X137968147Y-87709054D01*
X137869544Y-87561484D01*
X137801624Y-87397512D01*
X137767000Y-87223441D01*
X137767000Y-87045959D01*
X137801624Y-86871888D01*
X137869544Y-86707916D01*
X137968147Y-86560346D01*
X138093646Y-86434847D01*
X138241216Y-86336244D01*
X138405188Y-86268324D01*
X138554488Y-86238627D01*
X138579258Y-86233700D01*
X138756742Y-86233700D01*
X138781512Y-86238627D01*
G37*
G36*
X136241512Y-86238627D02*
G01*
X136390812Y-86268324D01*
X136554784Y-86336244D01*
X136702354Y-86434847D01*
X136827853Y-86560346D01*
X136926456Y-86707916D01*
X136994376Y-86871888D01*
X137029000Y-87045959D01*
X137029000Y-87223441D01*
X136994376Y-87397512D01*
X136926456Y-87561484D01*
X136827853Y-87709054D01*
X136702354Y-87834553D01*
X136554784Y-87933156D01*
X136390812Y-88001076D01*
X136241512Y-88030773D01*
X136216742Y-88035700D01*
X136039258Y-88035700D01*
X136014488Y-88030773D01*
X135865188Y-88001076D01*
X135701216Y-87933156D01*
X135553646Y-87834553D01*
X135428147Y-87709054D01*
X135329544Y-87561484D01*
X135261624Y-87397512D01*
X135227000Y-87223441D01*
X135227000Y-87045959D01*
X135261624Y-86871888D01*
X135329544Y-86707916D01*
X135428147Y-86560346D01*
X135553646Y-86434847D01*
X135701216Y-86336244D01*
X135865188Y-86268324D01*
X136014488Y-86238627D01*
X136039258Y-86233700D01*
X136216742Y-86233700D01*
X136241512Y-86238627D01*
G37*
G36*
X136241512Y-83698627D02*
G01*
X136390812Y-83728324D01*
X136554784Y-83796244D01*
X136702354Y-83894847D01*
X136827853Y-84020346D01*
X136926456Y-84167916D01*
X136994376Y-84331888D01*
X137029000Y-84505959D01*
X137029000Y-84683441D01*
X136994376Y-84857512D01*
X136926456Y-85021484D01*
X136827853Y-85169054D01*
X136702354Y-85294553D01*
X136554784Y-85393156D01*
X136390812Y-85461076D01*
X136241512Y-85490773D01*
X136216742Y-85495700D01*
X136039258Y-85495700D01*
X136014488Y-85490773D01*
X135865188Y-85461076D01*
X135701216Y-85393156D01*
X135553646Y-85294553D01*
X135428147Y-85169054D01*
X135329544Y-85021484D01*
X135261624Y-84857512D01*
X135227000Y-84683441D01*
X135227000Y-84505959D01*
X135261624Y-84331888D01*
X135329544Y-84167916D01*
X135428147Y-84020346D01*
X135553646Y-83894847D01*
X135701216Y-83796244D01*
X135865188Y-83728324D01*
X136014488Y-83698627D01*
X136039258Y-83693700D01*
X136216742Y-83693700D01*
X136241512Y-83698627D01*
G37*
G36*
X138781512Y-83698627D02*
G01*
X138930812Y-83728324D01*
X139094784Y-83796244D01*
X139242354Y-83894847D01*
X139367853Y-84020346D01*
X139466456Y-84167916D01*
X139534376Y-84331888D01*
X139569000Y-84505959D01*
X139569000Y-84683441D01*
X139534376Y-84857512D01*
X139466456Y-85021484D01*
X139367853Y-85169054D01*
X139242354Y-85294553D01*
X139094784Y-85393156D01*
X138930812Y-85461076D01*
X138781512Y-85490773D01*
X138756742Y-85495700D01*
X138579258Y-85495700D01*
X138554488Y-85490773D01*
X138405188Y-85461076D01*
X138241216Y-85393156D01*
X138093646Y-85294553D01*
X137968147Y-85169054D01*
X137869544Y-85021484D01*
X137801624Y-84857512D01*
X137767000Y-84683441D01*
X137767000Y-84505959D01*
X137801624Y-84331888D01*
X137869544Y-84167916D01*
X137968147Y-84020346D01*
X138093646Y-83894847D01*
X138241216Y-83796244D01*
X138405188Y-83728324D01*
X138554488Y-83698627D01*
X138579258Y-83693700D01*
X138756742Y-83693700D01*
X138781512Y-83698627D01*
G37*
G36*
X148685828Y-83255703D02*
G01*
X148840700Y-83319853D01*
X148980081Y-83412985D01*
X149098615Y-83531519D01*
X149191747Y-83670900D01*
X149255897Y-83825772D01*
X149288600Y-83990184D01*
X149288600Y-84157816D01*
X149255897Y-84322228D01*
X149191747Y-84477100D01*
X149098615Y-84616481D01*
X148980081Y-84735015D01*
X148840700Y-84828147D01*
X148685828Y-84892297D01*
X148521416Y-84925000D01*
X148353784Y-84925000D01*
X148189372Y-84892297D01*
X148034500Y-84828147D01*
X147895119Y-84735015D01*
X147776585Y-84616481D01*
X147683453Y-84477100D01*
X147619303Y-84322228D01*
X147586600Y-84157816D01*
X147586600Y-83990184D01*
X147619303Y-83825772D01*
X147683453Y-83670900D01*
X147776585Y-83531519D01*
X147895119Y-83412985D01*
X148034500Y-83319853D01*
X148189372Y-83255703D01*
X148353784Y-83223000D01*
X148521416Y-83223000D01*
X148685828Y-83255703D01*
G37*
G36*
X153765828Y-83255703D02*
G01*
X153920700Y-83319853D01*
X154060081Y-83412985D01*
X154178615Y-83531519D01*
X154271747Y-83670900D01*
X154335897Y-83825772D01*
X154368600Y-83990184D01*
X154368600Y-84157816D01*
X154335897Y-84322228D01*
X154271747Y-84477100D01*
X154178615Y-84616481D01*
X154060081Y-84735015D01*
X153920700Y-84828147D01*
X153765828Y-84892297D01*
X153601416Y-84925000D01*
X153433784Y-84925000D01*
X153269372Y-84892297D01*
X153114500Y-84828147D01*
X152975119Y-84735015D01*
X152856585Y-84616481D01*
X152763453Y-84477100D01*
X152699303Y-84322228D01*
X152666600Y-84157816D01*
X152666600Y-83990184D01*
X152699303Y-83825772D01*
X152763453Y-83670900D01*
X152856585Y-83531519D01*
X152975119Y-83412985D01*
X153114500Y-83319853D01*
X153269372Y-83255703D01*
X153433784Y-83223000D01*
X153601416Y-83223000D01*
X153765828Y-83255703D01*
G37*
G36*
X151225828Y-83255703D02*
G01*
X151380700Y-83319853D01*
X151520081Y-83412985D01*
X151638615Y-83531519D01*
X151731747Y-83670900D01*
X151795897Y-83825772D01*
X151828600Y-83990184D01*
X151828600Y-84157816D01*
X151795897Y-84322228D01*
X151731747Y-84477100D01*
X151638615Y-84616481D01*
X151520081Y-84735015D01*
X151380700Y-84828147D01*
X151225828Y-84892297D01*
X151061416Y-84925000D01*
X150893784Y-84925000D01*
X150729372Y-84892297D01*
X150574500Y-84828147D01*
X150435119Y-84735015D01*
X150316585Y-84616481D01*
X150223453Y-84477100D01*
X150159303Y-84322228D01*
X150126600Y-84157816D01*
X150126600Y-83990184D01*
X150159303Y-83825772D01*
X150223453Y-83670900D01*
X150316585Y-83531519D01*
X150435119Y-83412985D01*
X150574500Y-83319853D01*
X150729372Y-83255703D01*
X150893784Y-83223000D01*
X151061416Y-83223000D01*
X151225828Y-83255703D01*
G37*
G36*
X146145828Y-83255703D02*
G01*
X146300700Y-83319853D01*
X146440081Y-83412985D01*
X146558615Y-83531519D01*
X146651747Y-83670900D01*
X146715897Y-83825772D01*
X146748600Y-83990184D01*
X146748600Y-84157816D01*
X146715897Y-84322228D01*
X146651747Y-84477100D01*
X146558615Y-84616481D01*
X146440081Y-84735015D01*
X146300700Y-84828147D01*
X146145828Y-84892297D01*
X145981416Y-84925000D01*
X145813784Y-84925000D01*
X145649372Y-84892297D01*
X145494500Y-84828147D01*
X145355119Y-84735015D01*
X145236585Y-84616481D01*
X145143453Y-84477100D01*
X145079303Y-84322228D01*
X145046600Y-84157816D01*
X145046600Y-83990184D01*
X145079303Y-83825772D01*
X145143453Y-83670900D01*
X145236585Y-83531519D01*
X145355119Y-83412985D01*
X145494500Y-83319853D01*
X145649372Y-83255703D01*
X145813784Y-83223000D01*
X145981416Y-83223000D01*
X146145828Y-83255703D01*
G37*
G36*
X138781512Y-81158627D02*
G01*
X138930812Y-81188324D01*
X139094784Y-81256244D01*
X139242354Y-81354847D01*
X139367853Y-81480346D01*
X139466456Y-81627916D01*
X139534376Y-81791888D01*
X139569000Y-81965959D01*
X139569000Y-82143441D01*
X139534376Y-82317512D01*
X139466456Y-82481484D01*
X139367853Y-82629054D01*
X139242354Y-82754553D01*
X139094784Y-82853156D01*
X138930812Y-82921076D01*
X138781512Y-82950773D01*
X138756742Y-82955700D01*
X138579258Y-82955700D01*
X138554488Y-82950773D01*
X138405188Y-82921076D01*
X138241216Y-82853156D01*
X138093646Y-82754553D01*
X137968147Y-82629054D01*
X137869544Y-82481484D01*
X137801624Y-82317512D01*
X137767000Y-82143441D01*
X137767000Y-81965959D01*
X137801624Y-81791888D01*
X137869544Y-81627916D01*
X137968147Y-81480346D01*
X138093646Y-81354847D01*
X138241216Y-81256244D01*
X138405188Y-81188324D01*
X138554488Y-81158627D01*
X138579258Y-81153700D01*
X138756742Y-81153700D01*
X138781512Y-81158627D01*
G37*
G36*
X137029000Y-82955700D02*
G01*
X135227000Y-82955700D01*
X135227000Y-81153700D01*
X137029000Y-81153700D01*
X137029000Y-82955700D01*
G37*
G36*
X147105395Y-80175046D02*
G01*
X147278466Y-80246734D01*
X147278467Y-80246735D01*
X147434227Y-80350810D01*
X147566690Y-80483273D01*
X147566691Y-80483275D01*
X147670766Y-80639034D01*
X147742454Y-80812105D01*
X147779000Y-80995833D01*
X147779000Y-81183167D01*
X147742454Y-81366895D01*
X147670766Y-81539966D01*
X147670765Y-81539967D01*
X147566690Y-81695727D01*
X147434227Y-81828190D01*
X147355818Y-81880581D01*
X147278466Y-81932266D01*
X147105395Y-82003954D01*
X146921667Y-82040500D01*
X146734333Y-82040500D01*
X146550605Y-82003954D01*
X146377534Y-81932266D01*
X146300182Y-81880581D01*
X146221773Y-81828190D01*
X146089310Y-81695727D01*
X145985235Y-81539967D01*
X145985234Y-81539966D01*
X145913546Y-81366895D01*
X145877000Y-81183167D01*
X145877000Y-80995833D01*
X145913546Y-80812105D01*
X145985234Y-80639034D01*
X146089309Y-80483275D01*
X146089310Y-80483273D01*
X146221773Y-80350810D01*
X146377533Y-80246735D01*
X146377534Y-80246734D01*
X146550605Y-80175046D01*
X146734333Y-80138500D01*
X146921667Y-80138500D01*
X147105395Y-80175046D01*
G37*
G36*
X149605395Y-80175046D02*
G01*
X149778466Y-80246734D01*
X149778467Y-80246735D01*
X149934227Y-80350810D01*
X150066690Y-80483273D01*
X150066691Y-80483275D01*
X150170766Y-80639034D01*
X150242454Y-80812105D01*
X150279000Y-80995833D01*
X150279000Y-81183167D01*
X150242454Y-81366895D01*
X150170766Y-81539966D01*
X150170765Y-81539967D01*
X150066690Y-81695727D01*
X149934227Y-81828190D01*
X149855818Y-81880581D01*
X149778466Y-81932266D01*
X149605395Y-82003954D01*
X149421667Y-82040500D01*
X149234333Y-82040500D01*
X149050605Y-82003954D01*
X148877534Y-81932266D01*
X148800182Y-81880581D01*
X148721773Y-81828190D01*
X148589310Y-81695727D01*
X148485235Y-81539967D01*
X148485234Y-81539966D01*
X148413546Y-81366895D01*
X148377000Y-81183167D01*
X148377000Y-80995833D01*
X148413546Y-80812105D01*
X148485234Y-80639034D01*
X148589309Y-80483275D01*
X148589310Y-80483273D01*
X148721773Y-80350810D01*
X148877533Y-80246735D01*
X148877534Y-80246734D01*
X149050605Y-80175046D01*
X149234333Y-80138500D01*
X149421667Y-80138500D01*
X149605395Y-80175046D01*
G37*
G36*
X152779000Y-82040500D02*
G01*
X150877000Y-82040500D01*
X150877000Y-80138500D01*
X152779000Y-80138500D01*
X152779000Y-82040500D01*
G37*
G36*
X154404603Y-71938916D02*
G01*
X154670578Y-72019599D01*
X154670580Y-72019600D01*
X154915700Y-72150619D01*
X155130556Y-72326944D01*
X155306881Y-72541799D01*
X155437900Y-72786919D01*
X155437901Y-72786921D01*
X155518584Y-73052896D01*
X155539000Y-73260184D01*
X155539000Y-73918815D01*
X155518584Y-74126103D01*
X155437901Y-74392079D01*
X155437900Y-74392082D01*
X155306881Y-74637201D01*
X155130556Y-74852056D01*
X154915701Y-75028381D01*
X154670581Y-75159400D01*
X154670579Y-75159401D01*
X154404604Y-75240084D01*
X154128000Y-75267327D01*
X153851397Y-75240084D01*
X153585422Y-75159401D01*
X153585420Y-75159400D01*
X153340300Y-75028381D01*
X153125444Y-74852056D01*
X152949119Y-74637201D01*
X152818100Y-74392081D01*
X152818099Y-74392079D01*
X152737416Y-74126104D01*
X152717000Y-73918816D01*
X152717000Y-73260185D01*
X152737416Y-73052897D01*
X152818099Y-72786922D01*
X152949120Y-72541799D01*
X152949121Y-72541798D01*
X153125444Y-72326944D01*
X153340299Y-72150619D01*
X153585419Y-72019600D01*
X153585421Y-72019599D01*
X153851396Y-71938916D01*
X154128000Y-71911673D01*
X154404603Y-71938916D01*
G37*
G36*
X144804603Y-71938916D02*
G01*
X145070578Y-72019599D01*
X145070580Y-72019600D01*
X145315700Y-72150619D01*
X145530556Y-72326944D01*
X145706881Y-72541799D01*
X145837900Y-72786919D01*
X145837901Y-72786921D01*
X145918584Y-73052896D01*
X145939000Y-73260184D01*
X145939000Y-73918815D01*
X145918584Y-74126103D01*
X145837901Y-74392079D01*
X145837900Y-74392082D01*
X145706881Y-74637201D01*
X145530556Y-74852056D01*
X145315701Y-75028381D01*
X145070581Y-75159400D01*
X145070579Y-75159401D01*
X144804604Y-75240084D01*
X144528000Y-75267327D01*
X144251397Y-75240084D01*
X143985422Y-75159401D01*
X143985420Y-75159400D01*
X143740300Y-75028381D01*
X143525444Y-74852056D01*
X143349119Y-74637201D01*
X143218100Y-74392081D01*
X143218099Y-74392079D01*
X143137416Y-74126104D01*
X143117000Y-73918816D01*
X143117000Y-73260185D01*
X143137416Y-73052897D01*
X143218099Y-72786922D01*
X143349120Y-72541799D01*
X143349121Y-72541798D01*
X143525444Y-72326944D01*
X143740299Y-72150619D01*
X143985419Y-72019600D01*
X143985421Y-72019599D01*
X144251396Y-71938916D01*
X144528000Y-71911673D01*
X144804603Y-71938916D01*
G37*
M02*
