G04 #@! TF.GenerationSoftware,KiCad,Pcbnew,5.1.5-52549c5~86~ubuntu19.04.1*
G04 #@! TF.CreationDate,2020-05-05T22:36:46+02:00*
G04 #@! TF.ProjectId,NotSoTinyDimmer,4e6f7453-6f54-4696-9e79-44696d6d6572,1.3.3*
G04 #@! TF.SameCoordinates,Original*
G04 #@! TF.FileFunction,Copper,L1,Top*
G04 #@! TF.FilePolarity,Positive*
%FSLAX46Y46*%
G04 Gerber Fmt 4.6, Leading zero omitted, Abs format (unit mm)*
G04 Created by KiCad (PCBNEW 5.1.5-52549c5~86~ubuntu19.04.1) date 2020-05-05 22:36:46*
%MOMM*%
%LPD*%
G04 APERTURE LIST*
%ADD10O,2.720000X3.240000*%
%ADD11C,1.800000*%
%ADD12R,1.800000X1.800000*%
%ADD13R,1.600000X1.600000*%
%ADD14C,1.600000*%
%ADD15C,0.100000*%
%ADD16R,3.500000X3.500000*%
%ADD17O,1.400000X1.400000*%
%ADD18C,1.400000*%
%ADD19C,2.100000*%
%ADD20R,2.100000X2.100000*%
%ADD21R,1.700000X1.700000*%
%ADD22O,1.700000X1.700000*%
%ADD23C,2.000000*%
%ADD24C,0.250000*%
%ADD25C,0.254000*%
G04 APERTURE END LIST*
D10*
X154128000Y-73589500D03*
X144528000Y-73589500D03*
D11*
X146828000Y-81089500D03*
X149328000Y-81089500D03*
D12*
X151828000Y-81089500D03*
D13*
X159308800Y-105257600D03*
D14*
X159308800Y-107257600D03*
X141098000Y-92468500D03*
X141098000Y-97468500D03*
X137228000Y-92468500D03*
X137228000Y-97468500D03*
G04 #@! TA.AperFunction,ComponentPad*
D15*
G36*
X144823765Y-103924213D02*
G01*
X144908704Y-103936813D01*
X144991999Y-103957677D01*
X145072848Y-103986605D01*
X145150472Y-104023319D01*
X145224124Y-104067464D01*
X145293094Y-104118616D01*
X145356718Y-104176282D01*
X145414384Y-104239906D01*
X145465536Y-104308876D01*
X145509681Y-104382528D01*
X145546395Y-104460152D01*
X145575323Y-104541001D01*
X145596187Y-104624296D01*
X145608787Y-104709235D01*
X145613000Y-104795000D01*
X145613000Y-106545000D01*
X145608787Y-106630765D01*
X145596187Y-106715704D01*
X145575323Y-106798999D01*
X145546395Y-106879848D01*
X145509681Y-106957472D01*
X145465536Y-107031124D01*
X145414384Y-107100094D01*
X145356718Y-107163718D01*
X145293094Y-107221384D01*
X145224124Y-107272536D01*
X145150472Y-107316681D01*
X145072848Y-107353395D01*
X144991999Y-107382323D01*
X144908704Y-107403187D01*
X144823765Y-107415787D01*
X144738000Y-107420000D01*
X142988000Y-107420000D01*
X142902235Y-107415787D01*
X142817296Y-107403187D01*
X142734001Y-107382323D01*
X142653152Y-107353395D01*
X142575528Y-107316681D01*
X142501876Y-107272536D01*
X142432906Y-107221384D01*
X142369282Y-107163718D01*
X142311616Y-107100094D01*
X142260464Y-107031124D01*
X142216319Y-106957472D01*
X142179605Y-106879848D01*
X142150677Y-106798999D01*
X142129813Y-106715704D01*
X142117213Y-106630765D01*
X142113000Y-106545000D01*
X142113000Y-104795000D01*
X142117213Y-104709235D01*
X142129813Y-104624296D01*
X142150677Y-104541001D01*
X142179605Y-104460152D01*
X142216319Y-104382528D01*
X142260464Y-104308876D01*
X142311616Y-104239906D01*
X142369282Y-104176282D01*
X142432906Y-104118616D01*
X142501876Y-104067464D01*
X142575528Y-104023319D01*
X142653152Y-103986605D01*
X142734001Y-103957677D01*
X142817296Y-103936813D01*
X142902235Y-103924213D01*
X142988000Y-103920000D01*
X144738000Y-103920000D01*
X144823765Y-103924213D01*
G37*
G04 #@! TD.AperFunction*
G04 #@! TA.AperFunction,ComponentPad*
G36*
X140236513Y-107173611D02*
G01*
X140309318Y-107184411D01*
X140380714Y-107202295D01*
X140450013Y-107227090D01*
X140516548Y-107258559D01*
X140579678Y-107296398D01*
X140638795Y-107340242D01*
X140693330Y-107389670D01*
X140742758Y-107444205D01*
X140786602Y-107503322D01*
X140824441Y-107566452D01*
X140855910Y-107632987D01*
X140880705Y-107702286D01*
X140898589Y-107773682D01*
X140909389Y-107846487D01*
X140913000Y-107920000D01*
X140913000Y-109420000D01*
X140909389Y-109493513D01*
X140898589Y-109566318D01*
X140880705Y-109637714D01*
X140855910Y-109707013D01*
X140824441Y-109773548D01*
X140786602Y-109836678D01*
X140742758Y-109895795D01*
X140693330Y-109950330D01*
X140638795Y-109999758D01*
X140579678Y-110043602D01*
X140516548Y-110081441D01*
X140450013Y-110112910D01*
X140380714Y-110137705D01*
X140309318Y-110155589D01*
X140236513Y-110166389D01*
X140163000Y-110170000D01*
X138163000Y-110170000D01*
X138089487Y-110166389D01*
X138016682Y-110155589D01*
X137945286Y-110137705D01*
X137875987Y-110112910D01*
X137809452Y-110081441D01*
X137746322Y-110043602D01*
X137687205Y-109999758D01*
X137632670Y-109950330D01*
X137583242Y-109895795D01*
X137539398Y-109836678D01*
X137501559Y-109773548D01*
X137470090Y-109707013D01*
X137445295Y-109637714D01*
X137427411Y-109566318D01*
X137416611Y-109493513D01*
X137413000Y-109420000D01*
X137413000Y-107920000D01*
X137416611Y-107846487D01*
X137427411Y-107773682D01*
X137445295Y-107702286D01*
X137470090Y-107632987D01*
X137501559Y-107566452D01*
X137539398Y-107503322D01*
X137583242Y-107444205D01*
X137632670Y-107389670D01*
X137687205Y-107340242D01*
X137746322Y-107296398D01*
X137809452Y-107258559D01*
X137875987Y-107227090D01*
X137945286Y-107202295D01*
X138016682Y-107184411D01*
X138089487Y-107173611D01*
X138163000Y-107170000D01*
X140163000Y-107170000D01*
X140236513Y-107173611D01*
G37*
G04 #@! TD.AperFunction*
D16*
X139163000Y-102670000D03*
D17*
X160782000Y-94188500D03*
D18*
X160782000Y-99268500D03*
D17*
X157734000Y-94188500D03*
D18*
X157734000Y-99268500D03*
D13*
X145897600Y-91694000D03*
D14*
X148437600Y-91694000D03*
X150977600Y-91694000D03*
X153517600Y-91694000D03*
X153517600Y-84074000D03*
X150977600Y-84074000D03*
X148437600Y-84074000D03*
X145897600Y-84074000D03*
D19*
X151866500Y-113068100D03*
X149326500Y-113068100D03*
D20*
X146786500Y-113068100D03*
D21*
X136128000Y-82054700D03*
D22*
X138668000Y-82054700D03*
X136128000Y-84594700D03*
X138668000Y-84594700D03*
X136128000Y-87134700D03*
X138668000Y-87134700D03*
D23*
X146078000Y-96007800D03*
X146078000Y-100507800D03*
X152578000Y-96007800D03*
X152578000Y-100507800D03*
D24*
X156057600Y-105257600D02*
X153301700Y-102501700D01*
X159308800Y-105257600D02*
X156057600Y-105257600D01*
X139242800Y-102501700D02*
X139242800Y-104501700D01*
X153301700Y-102501700D02*
X139242800Y-102501700D01*
X146786500Y-112045400D02*
X146786500Y-113068100D01*
X139242800Y-104501700D02*
X146786500Y-112045400D01*
X137163000Y-102670000D02*
X135204200Y-100711200D01*
X139163000Y-102670000D02*
X137163000Y-102670000D01*
X135204200Y-100711200D02*
X135204200Y-91135200D01*
X135204200Y-91135200D02*
X136677400Y-89662000D01*
X141098000Y-92468500D02*
X141098000Y-90221800D01*
X140538200Y-89662000D02*
X136677400Y-89662000D01*
X141098000Y-90221800D02*
X140538200Y-89662000D01*
X151163787Y-100507800D02*
X146078000Y-100507800D01*
X152578000Y-100507800D02*
X151163787Y-100507800D01*
X138038700Y-92468500D02*
X137228000Y-92468500D01*
X146078000Y-100507800D02*
X138038700Y-92468500D01*
X139870081Y-84594700D02*
X141686181Y-82778600D01*
X138668000Y-84594700D02*
X139870081Y-84594700D01*
X152222200Y-82778600D02*
X153517600Y-84074000D01*
X141686181Y-82778600D02*
X152222200Y-82778600D01*
X157734000Y-94188500D02*
X157734000Y-92202000D01*
X157734000Y-92202000D02*
X154432000Y-88900000D01*
X154432000Y-88900000D02*
X153263600Y-88900000D01*
X153263600Y-88900000D02*
X148437600Y-84074000D01*
X136977999Y-85444699D02*
X136128000Y-84594700D01*
X137303001Y-85769701D02*
X136977999Y-85444699D01*
X148437600Y-84455000D02*
X144373600Y-88519000D01*
X148437600Y-84074000D02*
X148437600Y-84455000D01*
X144373600Y-88519000D02*
X138099800Y-88519000D01*
X138099800Y-88519000D02*
X137303001Y-87722201D01*
X137303001Y-87722201D02*
X137303001Y-85769701D01*
X136128000Y-87134700D02*
X136128000Y-88503000D01*
X136128000Y-88503000D02*
X136702800Y-89077800D01*
X145897600Y-90644000D02*
X145897600Y-91694000D01*
X144331400Y-89077800D02*
X145897600Y-90644000D01*
X136702800Y-89077800D02*
X144331400Y-89077800D01*
D25*
G36*
X163668001Y-116010000D02*
G01*
X134988000Y-116010000D01*
X134988000Y-110170000D01*
X136774928Y-110170000D01*
X136787188Y-110294482D01*
X136823498Y-110414180D01*
X136882463Y-110524494D01*
X136961815Y-110621185D01*
X137058506Y-110700537D01*
X137168820Y-110759502D01*
X137288518Y-110795812D01*
X137413000Y-110808072D01*
X138877250Y-110805000D01*
X139036000Y-110646250D01*
X139036000Y-108797000D01*
X139290000Y-108797000D01*
X139290000Y-110646250D01*
X139448750Y-110805000D01*
X140913000Y-110808072D01*
X141037482Y-110795812D01*
X141157180Y-110759502D01*
X141267494Y-110700537D01*
X141364185Y-110621185D01*
X141443537Y-110524494D01*
X141502502Y-110414180D01*
X141538812Y-110294482D01*
X141551072Y-110170000D01*
X141548000Y-108955750D01*
X141389250Y-108797000D01*
X139290000Y-108797000D01*
X139036000Y-108797000D01*
X136936750Y-108797000D01*
X136778000Y-108955750D01*
X136774928Y-110170000D01*
X134988000Y-110170000D01*
X134988000Y-107170000D01*
X136774928Y-107170000D01*
X136778000Y-108384250D01*
X136936750Y-108543000D01*
X139036000Y-108543000D01*
X139036000Y-106693750D01*
X138877250Y-106535000D01*
X137413000Y-106531928D01*
X137288518Y-106544188D01*
X137168820Y-106580498D01*
X137058506Y-106639463D01*
X136961815Y-106718815D01*
X136882463Y-106815506D01*
X136823498Y-106925820D01*
X136787188Y-107045518D01*
X136774928Y-107170000D01*
X134988000Y-107170000D01*
X134988000Y-101569801D01*
X136599201Y-103181003D01*
X136622999Y-103210001D01*
X136651997Y-103233799D01*
X136738724Y-103304974D01*
X136774928Y-103324326D01*
X136774928Y-104420000D01*
X136787188Y-104544482D01*
X136823498Y-104664180D01*
X136882463Y-104774494D01*
X136961815Y-104871185D01*
X137058506Y-104950537D01*
X137168820Y-105009502D01*
X137288518Y-105045812D01*
X137413000Y-105058072D01*
X138722748Y-105058072D01*
X138731798Y-105065499D01*
X140199723Y-106533424D01*
X139448750Y-106535000D01*
X139290000Y-106693750D01*
X139290000Y-108543000D01*
X141389250Y-108543000D01*
X141548000Y-108384250D01*
X141549268Y-107882970D01*
X145261830Y-111595532D01*
X145205963Y-111663606D01*
X145146998Y-111773920D01*
X145110688Y-111893618D01*
X145098428Y-112018100D01*
X145098428Y-114118100D01*
X145110688Y-114242582D01*
X145146998Y-114362280D01*
X145205963Y-114472594D01*
X145285315Y-114569285D01*
X145382006Y-114648637D01*
X145492320Y-114707602D01*
X145612018Y-114743912D01*
X145736500Y-114756172D01*
X147836500Y-114756172D01*
X147960982Y-114743912D01*
X148080680Y-114707602D01*
X148190994Y-114648637D01*
X148287685Y-114569285D01*
X148367037Y-114472594D01*
X148374542Y-114458554D01*
X148528353Y-114561328D01*
X148835004Y-114688346D01*
X149160542Y-114753100D01*
X149492458Y-114753100D01*
X149817996Y-114688346D01*
X150124647Y-114561328D01*
X150400625Y-114376925D01*
X150538384Y-114239166D01*
X150875039Y-114239166D01*
X150976839Y-114508679D01*
X151274977Y-114654563D01*
X151595846Y-114739480D01*
X151927117Y-114760166D01*
X152256057Y-114715828D01*
X152570027Y-114608169D01*
X152756161Y-114508679D01*
X152857961Y-114239166D01*
X151866500Y-113247705D01*
X150875039Y-114239166D01*
X150538384Y-114239166D01*
X150635325Y-114142225D01*
X150691542Y-114058091D01*
X150695434Y-114059561D01*
X151686895Y-113068100D01*
X152046105Y-113068100D01*
X153037566Y-114059561D01*
X153307079Y-113957761D01*
X153452963Y-113659623D01*
X153537880Y-113338754D01*
X153558566Y-113007483D01*
X153514228Y-112678543D01*
X153479178Y-112576323D01*
X158112497Y-112576323D01*
X158112497Y-113003677D01*
X158195870Y-113422821D01*
X158359412Y-113817645D01*
X158596837Y-114172977D01*
X158899023Y-114475163D01*
X159254355Y-114712588D01*
X159649179Y-114876130D01*
X160068323Y-114959503D01*
X160495677Y-114959503D01*
X160914821Y-114876130D01*
X161309645Y-114712588D01*
X161664977Y-114475163D01*
X161967163Y-114172977D01*
X162204588Y-113817645D01*
X162368130Y-113422821D01*
X162451503Y-113003677D01*
X162451503Y-112576323D01*
X162368130Y-112157179D01*
X162204588Y-111762355D01*
X161967163Y-111407023D01*
X161664977Y-111104837D01*
X161309645Y-110867412D01*
X160914821Y-110703870D01*
X160495677Y-110620497D01*
X160068323Y-110620497D01*
X159649179Y-110703870D01*
X159254355Y-110867412D01*
X158899023Y-111104837D01*
X158596837Y-111407023D01*
X158359412Y-111762355D01*
X158195870Y-112157179D01*
X158112497Y-112576323D01*
X153479178Y-112576323D01*
X153406569Y-112364573D01*
X153307079Y-112178439D01*
X153037566Y-112076639D01*
X152046105Y-113068100D01*
X151686895Y-113068100D01*
X150695434Y-112076639D01*
X150691542Y-112078109D01*
X150635325Y-111993975D01*
X150538384Y-111897034D01*
X150875039Y-111897034D01*
X151866500Y-112888495D01*
X152857961Y-111897034D01*
X152756161Y-111627521D01*
X152458023Y-111481637D01*
X152137154Y-111396720D01*
X151805883Y-111376034D01*
X151476943Y-111420372D01*
X151162973Y-111528031D01*
X150976839Y-111627521D01*
X150875039Y-111897034D01*
X150538384Y-111897034D01*
X150400625Y-111759275D01*
X150124647Y-111574872D01*
X149817996Y-111447854D01*
X149492458Y-111383100D01*
X149160542Y-111383100D01*
X148835004Y-111447854D01*
X148528353Y-111574872D01*
X148374542Y-111677646D01*
X148367037Y-111663606D01*
X148287685Y-111566915D01*
X148190994Y-111487563D01*
X148080680Y-111428598D01*
X147960982Y-111392288D01*
X147836500Y-111380028D01*
X147195930Y-111380028D01*
X144066204Y-108250302D01*
X158495703Y-108250302D01*
X158567286Y-108494271D01*
X158822796Y-108615171D01*
X159096984Y-108683900D01*
X159379312Y-108697817D01*
X159658930Y-108656387D01*
X159925092Y-108561203D01*
X160050314Y-108494271D01*
X160121897Y-108250302D01*
X159308800Y-107437205D01*
X158495703Y-108250302D01*
X144066204Y-108250302D01*
X143873974Y-108058072D01*
X144738000Y-108058072D01*
X145033186Y-108028999D01*
X145317028Y-107942896D01*
X145578618Y-107803073D01*
X145807903Y-107614903D01*
X145996073Y-107385618D01*
X146135896Y-107124028D01*
X146221999Y-106840186D01*
X146251072Y-106545000D01*
X146251072Y-104795000D01*
X146221999Y-104499814D01*
X146135896Y-104215972D01*
X145996073Y-103954382D01*
X145807903Y-103725097D01*
X145578618Y-103536927D01*
X145317028Y-103397104D01*
X145033186Y-103311001D01*
X144738000Y-103281928D01*
X142988000Y-103281928D01*
X142692814Y-103311001D01*
X142408972Y-103397104D01*
X142147382Y-103536927D01*
X141918097Y-103725097D01*
X141729927Y-103954382D01*
X141590104Y-104215972D01*
X141551072Y-104344643D01*
X141551072Y-103261700D01*
X149007728Y-103261700D01*
X148695179Y-103323870D01*
X148300355Y-103487412D01*
X147945023Y-103724837D01*
X147642837Y-104027023D01*
X147405412Y-104382355D01*
X147241870Y-104777179D01*
X147158497Y-105196323D01*
X147158497Y-105623677D01*
X147241870Y-106042821D01*
X147405412Y-106437645D01*
X147642837Y-106792977D01*
X147945023Y-107095163D01*
X148300355Y-107332588D01*
X148695179Y-107496130D01*
X149114323Y-107579503D01*
X149541677Y-107579503D01*
X149960821Y-107496130D01*
X150355645Y-107332588D01*
X150710977Y-107095163D01*
X151013163Y-106792977D01*
X151250588Y-106437645D01*
X151414130Y-106042821D01*
X151497503Y-105623677D01*
X151497503Y-105196323D01*
X151414130Y-104777179D01*
X151250588Y-104382355D01*
X151013163Y-104027023D01*
X150710977Y-103724837D01*
X150355645Y-103487412D01*
X149960821Y-103323870D01*
X149648272Y-103261700D01*
X152986899Y-103261700D01*
X155493801Y-105768603D01*
X155517599Y-105797601D01*
X155546597Y-105821399D01*
X155633323Y-105892574D01*
X155727457Y-105942890D01*
X155765353Y-105963146D01*
X155908614Y-106006603D01*
X156020267Y-106017600D01*
X156020276Y-106017600D01*
X156057599Y-106021276D01*
X156094922Y-106017600D01*
X157870728Y-106017600D01*
X157870728Y-106057600D01*
X157882988Y-106182082D01*
X157919298Y-106301780D01*
X157978263Y-106412094D01*
X158057615Y-106508785D01*
X158070558Y-106519407D01*
X157951229Y-106771596D01*
X157882500Y-107045784D01*
X157868583Y-107328112D01*
X157910013Y-107607730D01*
X158005197Y-107873892D01*
X158072129Y-107999114D01*
X158316098Y-108070697D01*
X159129195Y-107257600D01*
X159115053Y-107243458D01*
X159294658Y-107063853D01*
X159308800Y-107077995D01*
X159322943Y-107063853D01*
X159502548Y-107243458D01*
X159488405Y-107257600D01*
X160301502Y-108070697D01*
X160545471Y-107999114D01*
X160666371Y-107743604D01*
X160735100Y-107469416D01*
X160749017Y-107187088D01*
X160707587Y-106907470D01*
X160612403Y-106641308D01*
X160547184Y-106519291D01*
X160559985Y-106508785D01*
X160639337Y-106412094D01*
X160698302Y-106301780D01*
X160734612Y-106182082D01*
X160746872Y-106057600D01*
X160746872Y-104457600D01*
X160734612Y-104333118D01*
X160698302Y-104213420D01*
X160639337Y-104103106D01*
X160559985Y-104006415D01*
X160463294Y-103927063D01*
X160352980Y-103868098D01*
X160233282Y-103831788D01*
X160108800Y-103819528D01*
X158508800Y-103819528D01*
X158384318Y-103831788D01*
X158264620Y-103868098D01*
X158154306Y-103927063D01*
X158057615Y-104006415D01*
X157978263Y-104103106D01*
X157919298Y-104213420D01*
X157882988Y-104333118D01*
X157870728Y-104457600D01*
X157870728Y-104497600D01*
X156372402Y-104497600D01*
X153865504Y-101990703D01*
X153841701Y-101961699D01*
X153725976Y-101866726D01*
X153593947Y-101796154D01*
X153593133Y-101795907D01*
X153620252Y-101777787D01*
X153847987Y-101550052D01*
X154026918Y-101282263D01*
X154150168Y-100984712D01*
X154213000Y-100668833D01*
X154213000Y-100346767D01*
X154150168Y-100030888D01*
X154026918Y-99733337D01*
X153847987Y-99465548D01*
X153620252Y-99237813D01*
X153469396Y-99137014D01*
X156399000Y-99137014D01*
X156399000Y-99399986D01*
X156450304Y-99657905D01*
X156550939Y-99900859D01*
X156697038Y-100119513D01*
X156882987Y-100305462D01*
X157101641Y-100451561D01*
X157344595Y-100552196D01*
X157602514Y-100603500D01*
X157865486Y-100603500D01*
X158123405Y-100552196D01*
X158366359Y-100451561D01*
X158585013Y-100305462D01*
X158770962Y-100119513D01*
X158917061Y-99900859D01*
X159017696Y-99657905D01*
X159069000Y-99399986D01*
X159069000Y-99137014D01*
X159447000Y-99137014D01*
X159447000Y-99399986D01*
X159498304Y-99657905D01*
X159598939Y-99900859D01*
X159745038Y-100119513D01*
X159930987Y-100305462D01*
X160149641Y-100451561D01*
X160392595Y-100552196D01*
X160650514Y-100603500D01*
X160913486Y-100603500D01*
X161171405Y-100552196D01*
X161414359Y-100451561D01*
X161633013Y-100305462D01*
X161818962Y-100119513D01*
X161965061Y-99900859D01*
X162065696Y-99657905D01*
X162117000Y-99399986D01*
X162117000Y-99137014D01*
X162065696Y-98879095D01*
X161965061Y-98636141D01*
X161818962Y-98417487D01*
X161633013Y-98231538D01*
X161414359Y-98085439D01*
X161171405Y-97984804D01*
X160913486Y-97933500D01*
X160650514Y-97933500D01*
X160392595Y-97984804D01*
X160149641Y-98085439D01*
X159930987Y-98231538D01*
X159745038Y-98417487D01*
X159598939Y-98636141D01*
X159498304Y-98879095D01*
X159447000Y-99137014D01*
X159069000Y-99137014D01*
X159017696Y-98879095D01*
X158917061Y-98636141D01*
X158770962Y-98417487D01*
X158585013Y-98231538D01*
X158366359Y-98085439D01*
X158123405Y-97984804D01*
X157865486Y-97933500D01*
X157602514Y-97933500D01*
X157344595Y-97984804D01*
X157101641Y-98085439D01*
X156882987Y-98231538D01*
X156697038Y-98417487D01*
X156550939Y-98636141D01*
X156450304Y-98879095D01*
X156399000Y-99137014D01*
X153469396Y-99137014D01*
X153352463Y-99058882D01*
X153054912Y-98935632D01*
X152739033Y-98872800D01*
X152416967Y-98872800D01*
X152101088Y-98935632D01*
X151803537Y-99058882D01*
X151535748Y-99237813D01*
X151308013Y-99465548D01*
X151129082Y-99733337D01*
X151123091Y-99747800D01*
X147532909Y-99747800D01*
X147526918Y-99733337D01*
X147347987Y-99465548D01*
X147120252Y-99237813D01*
X146852463Y-99058882D01*
X146554912Y-98935632D01*
X146239033Y-98872800D01*
X145916967Y-98872800D01*
X145601088Y-98935632D01*
X145586625Y-98941623D01*
X143788215Y-97143213D01*
X145122192Y-97143213D01*
X145217956Y-97407614D01*
X145507571Y-97548504D01*
X145819108Y-97630184D01*
X146140595Y-97649518D01*
X146459675Y-97605761D01*
X146764088Y-97500595D01*
X146938044Y-97407614D01*
X147033808Y-97143213D01*
X151622192Y-97143213D01*
X151717956Y-97407614D01*
X152007571Y-97548504D01*
X152319108Y-97630184D01*
X152640595Y-97649518D01*
X152959675Y-97605761D01*
X153264088Y-97500595D01*
X153438044Y-97407614D01*
X153533808Y-97143213D01*
X152578000Y-96187405D01*
X151622192Y-97143213D01*
X147033808Y-97143213D01*
X146078000Y-96187405D01*
X145122192Y-97143213D01*
X143788215Y-97143213D01*
X142715397Y-96070395D01*
X144436282Y-96070395D01*
X144480039Y-96389475D01*
X144585205Y-96693888D01*
X144678186Y-96867844D01*
X144942587Y-96963608D01*
X145898395Y-96007800D01*
X146257605Y-96007800D01*
X147213413Y-96963608D01*
X147477814Y-96867844D01*
X147618704Y-96578229D01*
X147700384Y-96266692D01*
X147712189Y-96070395D01*
X150936282Y-96070395D01*
X150980039Y-96389475D01*
X151085205Y-96693888D01*
X151178186Y-96867844D01*
X151442587Y-96963608D01*
X152398395Y-96007800D01*
X152757605Y-96007800D01*
X153713413Y-96963608D01*
X153977814Y-96867844D01*
X154118704Y-96578229D01*
X154200384Y-96266692D01*
X154219718Y-95945205D01*
X154175961Y-95626125D01*
X154070795Y-95321712D01*
X153977814Y-95147756D01*
X153713413Y-95051992D01*
X152757605Y-96007800D01*
X152398395Y-96007800D01*
X151442587Y-95051992D01*
X151178186Y-95147756D01*
X151037296Y-95437371D01*
X150955616Y-95748908D01*
X150936282Y-96070395D01*
X147712189Y-96070395D01*
X147719718Y-95945205D01*
X147675961Y-95626125D01*
X147570795Y-95321712D01*
X147477814Y-95147756D01*
X147213413Y-95051992D01*
X146257605Y-96007800D01*
X145898395Y-96007800D01*
X144942587Y-95051992D01*
X144678186Y-95147756D01*
X144537296Y-95437371D01*
X144455616Y-95748908D01*
X144436282Y-96070395D01*
X142715397Y-96070395D01*
X141517389Y-94872387D01*
X145122192Y-94872387D01*
X146078000Y-95828195D01*
X147033808Y-94872387D01*
X151622192Y-94872387D01*
X152578000Y-95828195D01*
X153533808Y-94872387D01*
X153438044Y-94607986D01*
X153148429Y-94467096D01*
X152836892Y-94385416D01*
X152515405Y-94366082D01*
X152196325Y-94409839D01*
X151891912Y-94515005D01*
X151717956Y-94607986D01*
X151622192Y-94872387D01*
X147033808Y-94872387D01*
X146938044Y-94607986D01*
X146648429Y-94467096D01*
X146336892Y-94385416D01*
X146015405Y-94366082D01*
X145696325Y-94409839D01*
X145391912Y-94515005D01*
X145217956Y-94607986D01*
X145122192Y-94872387D01*
X141517389Y-94872387D01*
X140318546Y-93673545D01*
X140418273Y-93740180D01*
X140679426Y-93848353D01*
X140956665Y-93903500D01*
X141239335Y-93903500D01*
X141516574Y-93848353D01*
X141777727Y-93740180D01*
X142012759Y-93583137D01*
X142212637Y-93383259D01*
X142369680Y-93148227D01*
X142477853Y-92887074D01*
X142533000Y-92609835D01*
X142533000Y-92327165D01*
X142477853Y-92049926D01*
X142369680Y-91788773D01*
X142212637Y-91553741D01*
X142012759Y-91353863D01*
X141858000Y-91250457D01*
X141858000Y-90259125D01*
X141861676Y-90221800D01*
X141858000Y-90184475D01*
X141858000Y-90184467D01*
X141847003Y-90072814D01*
X141803546Y-89929553D01*
X141754502Y-89837800D01*
X144016599Y-89837800D01*
X144635236Y-90456437D01*
X144567063Y-90539506D01*
X144508098Y-90649820D01*
X144471788Y-90769518D01*
X144459528Y-90894000D01*
X144459528Y-92494000D01*
X144471788Y-92618482D01*
X144508098Y-92738180D01*
X144567063Y-92848494D01*
X144646415Y-92945185D01*
X144743106Y-93024537D01*
X144853420Y-93083502D01*
X144973118Y-93119812D01*
X145097600Y-93132072D01*
X146697600Y-93132072D01*
X146822082Y-93119812D01*
X146941780Y-93083502D01*
X147052094Y-93024537D01*
X147148785Y-92945185D01*
X147228137Y-92848494D01*
X147287102Y-92738180D01*
X147323412Y-92618482D01*
X147324243Y-92610039D01*
X147522841Y-92808637D01*
X147757873Y-92965680D01*
X148019026Y-93073853D01*
X148296265Y-93129000D01*
X148578935Y-93129000D01*
X148856174Y-93073853D01*
X149117327Y-92965680D01*
X149352359Y-92808637D01*
X149552237Y-92608759D01*
X149707600Y-92376241D01*
X149862963Y-92608759D01*
X150062841Y-92808637D01*
X150297873Y-92965680D01*
X150559026Y-93073853D01*
X150836265Y-93129000D01*
X151118935Y-93129000D01*
X151396174Y-93073853D01*
X151657327Y-92965680D01*
X151892359Y-92808637D01*
X152014294Y-92686702D01*
X152704503Y-92686702D01*
X152776086Y-92930671D01*
X153031596Y-93051571D01*
X153305784Y-93120300D01*
X153588112Y-93134217D01*
X153867730Y-93092787D01*
X154133892Y-92997603D01*
X154259114Y-92930671D01*
X154330697Y-92686702D01*
X153517600Y-91873605D01*
X152704503Y-92686702D01*
X152014294Y-92686702D01*
X152092237Y-92608759D01*
X152248515Y-92374872D01*
X152280929Y-92435514D01*
X152524898Y-92507097D01*
X153337995Y-91694000D01*
X153697205Y-91694000D01*
X154510302Y-92507097D01*
X154754271Y-92435514D01*
X154875171Y-92180004D01*
X154943900Y-91905816D01*
X154957817Y-91623488D01*
X154916387Y-91343870D01*
X154821203Y-91077708D01*
X154754271Y-90952486D01*
X154510302Y-90880903D01*
X153697205Y-91694000D01*
X153337995Y-91694000D01*
X152524898Y-90880903D01*
X152280929Y-90952486D01*
X152250406Y-91016992D01*
X152249280Y-91014273D01*
X152092237Y-90779241D01*
X152014294Y-90701298D01*
X152704503Y-90701298D01*
X153517600Y-91514395D01*
X154330697Y-90701298D01*
X154259114Y-90457329D01*
X154003604Y-90336429D01*
X153729416Y-90267700D01*
X153447088Y-90253783D01*
X153167470Y-90295213D01*
X152901308Y-90390397D01*
X152776086Y-90457329D01*
X152704503Y-90701298D01*
X152014294Y-90701298D01*
X151892359Y-90579363D01*
X151657327Y-90422320D01*
X151396174Y-90314147D01*
X151118935Y-90259000D01*
X150836265Y-90259000D01*
X150559026Y-90314147D01*
X150297873Y-90422320D01*
X150062841Y-90579363D01*
X149862963Y-90779241D01*
X149707600Y-91011759D01*
X149552237Y-90779241D01*
X149352359Y-90579363D01*
X149117327Y-90422320D01*
X148856174Y-90314147D01*
X148578935Y-90259000D01*
X148296265Y-90259000D01*
X148019026Y-90314147D01*
X147757873Y-90422320D01*
X147522841Y-90579363D01*
X147324243Y-90777961D01*
X147323412Y-90769518D01*
X147287102Y-90649820D01*
X147228137Y-90539506D01*
X147148785Y-90442815D01*
X147052094Y-90363463D01*
X146941780Y-90304498D01*
X146822082Y-90268188D01*
X146697600Y-90255928D01*
X146551926Y-90255928D01*
X146532574Y-90219724D01*
X146437601Y-90103999D01*
X146408604Y-90080202D01*
X145147901Y-88819500D01*
X148458402Y-85509000D01*
X148578935Y-85509000D01*
X148761487Y-85472688D01*
X152699800Y-89411002D01*
X152723599Y-89440001D01*
X152839324Y-89534974D01*
X152971353Y-89605546D01*
X153114614Y-89649003D01*
X153226267Y-89660000D01*
X153226275Y-89660000D01*
X153263600Y-89663676D01*
X153300925Y-89660000D01*
X154117199Y-89660000D01*
X156974001Y-92516803D01*
X156974001Y-93090725D01*
X156882987Y-93151538D01*
X156697038Y-93337487D01*
X156550939Y-93556141D01*
X156450304Y-93799095D01*
X156399000Y-94057014D01*
X156399000Y-94319986D01*
X156450304Y-94577905D01*
X156550939Y-94820859D01*
X156697038Y-95039513D01*
X156882987Y-95225462D01*
X157101641Y-95371561D01*
X157344595Y-95472196D01*
X157602514Y-95523500D01*
X157865486Y-95523500D01*
X158123405Y-95472196D01*
X158366359Y-95371561D01*
X158585013Y-95225462D01*
X158770962Y-95039513D01*
X158917061Y-94820859D01*
X159017696Y-94577905D01*
X159069000Y-94319986D01*
X159069000Y-94057014D01*
X159447000Y-94057014D01*
X159447000Y-94319986D01*
X159498304Y-94577905D01*
X159598939Y-94820859D01*
X159745038Y-95039513D01*
X159930987Y-95225462D01*
X160149641Y-95371561D01*
X160392595Y-95472196D01*
X160650514Y-95523500D01*
X160913486Y-95523500D01*
X161171405Y-95472196D01*
X161414359Y-95371561D01*
X161633013Y-95225462D01*
X161818962Y-95039513D01*
X161965061Y-94820859D01*
X162065696Y-94577905D01*
X162117000Y-94319986D01*
X162117000Y-94057014D01*
X162065696Y-93799095D01*
X161965061Y-93556141D01*
X161818962Y-93337487D01*
X161633013Y-93151538D01*
X161414359Y-93005439D01*
X161171405Y-92904804D01*
X160913486Y-92853500D01*
X160650514Y-92853500D01*
X160392595Y-92904804D01*
X160149641Y-93005439D01*
X159930987Y-93151538D01*
X159745038Y-93337487D01*
X159598939Y-93556141D01*
X159498304Y-93799095D01*
X159447000Y-94057014D01*
X159069000Y-94057014D01*
X159017696Y-93799095D01*
X158917061Y-93556141D01*
X158770962Y-93337487D01*
X158585013Y-93151538D01*
X158494000Y-93090725D01*
X158494000Y-92239322D01*
X158497676Y-92201999D01*
X158494000Y-92164676D01*
X158494000Y-92164667D01*
X158483003Y-92053014D01*
X158439546Y-91909753D01*
X158368974Y-91777724D01*
X158274001Y-91661999D01*
X158245003Y-91638201D01*
X154995804Y-88389003D01*
X154972001Y-88359999D01*
X154856276Y-88265026D01*
X154724247Y-88194454D01*
X154580986Y-88150997D01*
X154469333Y-88140000D01*
X154469322Y-88140000D01*
X154432000Y-88136324D01*
X154394678Y-88140000D01*
X153578402Y-88140000D01*
X150947401Y-85509000D01*
X151118935Y-85509000D01*
X151396174Y-85453853D01*
X151657327Y-85345680D01*
X151892359Y-85188637D01*
X152092237Y-84988759D01*
X152247600Y-84756241D01*
X152402963Y-84988759D01*
X152602841Y-85188637D01*
X152837873Y-85345680D01*
X153099026Y-85453853D01*
X153376265Y-85509000D01*
X153658935Y-85509000D01*
X153936174Y-85453853D01*
X154197327Y-85345680D01*
X154432359Y-85188637D01*
X154632237Y-84988759D01*
X154789280Y-84753727D01*
X154897453Y-84492574D01*
X154952600Y-84215335D01*
X154952600Y-83932665D01*
X154897453Y-83655426D01*
X154789280Y-83394273D01*
X154632237Y-83159241D01*
X154432359Y-82959363D01*
X154197327Y-82802320D01*
X153936174Y-82694147D01*
X153658935Y-82639000D01*
X153376265Y-82639000D01*
X153193714Y-82675312D01*
X153053784Y-82535383D01*
X153082494Y-82520037D01*
X153179185Y-82440685D01*
X153258537Y-82343994D01*
X153317502Y-82233680D01*
X153353812Y-82113982D01*
X153366072Y-81989500D01*
X153363000Y-81375250D01*
X153204250Y-81216500D01*
X151955000Y-81216500D01*
X151955000Y-81236500D01*
X151701000Y-81236500D01*
X151701000Y-81216500D01*
X151681000Y-81216500D01*
X151681000Y-80962500D01*
X151701000Y-80962500D01*
X151701000Y-79713250D01*
X151955000Y-79713250D01*
X151955000Y-80962500D01*
X153204250Y-80962500D01*
X153363000Y-80803750D01*
X153366072Y-80189500D01*
X153353812Y-80065018D01*
X153317502Y-79945320D01*
X153258537Y-79835006D01*
X153179185Y-79738315D01*
X153082494Y-79658963D01*
X152972180Y-79599998D01*
X152852482Y-79563688D01*
X152728000Y-79551428D01*
X152113750Y-79554500D01*
X151955000Y-79713250D01*
X151701000Y-79713250D01*
X151542250Y-79554500D01*
X150928000Y-79551428D01*
X150803518Y-79563688D01*
X150683820Y-79599998D01*
X150573506Y-79658963D01*
X150476815Y-79738315D01*
X150397463Y-79835006D01*
X150344120Y-79934803D01*
X150306505Y-79897188D01*
X150055095Y-79729201D01*
X149775743Y-79613489D01*
X149479184Y-79554500D01*
X149176816Y-79554500D01*
X148880257Y-79613489D01*
X148600905Y-79729201D01*
X148349495Y-79897188D01*
X148135688Y-80110995D01*
X148078000Y-80197331D01*
X148020312Y-80110995D01*
X147806505Y-79897188D01*
X147555095Y-79729201D01*
X147275743Y-79613489D01*
X146979184Y-79554500D01*
X146676816Y-79554500D01*
X146380257Y-79613489D01*
X146100905Y-79729201D01*
X145849495Y-79897188D01*
X145635688Y-80110995D01*
X145467701Y-80362405D01*
X145351989Y-80641757D01*
X145293000Y-80938316D01*
X145293000Y-81240684D01*
X145351989Y-81537243D01*
X145467701Y-81816595D01*
X145602677Y-82018600D01*
X141723503Y-82018600D01*
X141686180Y-82014924D01*
X141648857Y-82018600D01*
X141648848Y-82018600D01*
X141537195Y-82029597D01*
X141393934Y-82073054D01*
X141261905Y-82143626D01*
X141146180Y-82238599D01*
X141122382Y-82267597D01*
X139781693Y-83608286D01*
X139614632Y-83441225D01*
X139440240Y-83324700D01*
X139614632Y-83208175D01*
X139821475Y-83001332D01*
X139983990Y-82758111D01*
X140095932Y-82487858D01*
X140153000Y-82200960D01*
X140153000Y-81908440D01*
X140095932Y-81621542D01*
X139983990Y-81351289D01*
X139821475Y-81108068D01*
X139614632Y-80901225D01*
X139371411Y-80738710D01*
X139101158Y-80626768D01*
X138814260Y-80569700D01*
X138521740Y-80569700D01*
X138234842Y-80626768D01*
X137964589Y-80738710D01*
X137721368Y-80901225D01*
X137589513Y-81033080D01*
X137567502Y-80960520D01*
X137508537Y-80850206D01*
X137429185Y-80753515D01*
X137332494Y-80674163D01*
X137222180Y-80615198D01*
X137102482Y-80578888D01*
X136978000Y-80566628D01*
X135278000Y-80566628D01*
X135153518Y-80578888D01*
X135033820Y-80615198D01*
X134988000Y-80639690D01*
X134988000Y-71620323D01*
X136260497Y-71620323D01*
X136260497Y-72047677D01*
X136343870Y-72466821D01*
X136507412Y-72861645D01*
X136744837Y-73216977D01*
X137047023Y-73519163D01*
X137402355Y-73756588D01*
X137797179Y-73920130D01*
X138216323Y-74003503D01*
X138643677Y-74003503D01*
X139062821Y-73920130D01*
X139457645Y-73756588D01*
X139517640Y-73716500D01*
X142533000Y-73716500D01*
X142533000Y-73976500D01*
X142596110Y-74363265D01*
X142733461Y-74730286D01*
X142939775Y-75063459D01*
X143207124Y-75349980D01*
X143525233Y-75578839D01*
X143881878Y-75741240D01*
X144091110Y-75796075D01*
X144401000Y-75681353D01*
X144401000Y-73716500D01*
X144655000Y-73716500D01*
X144655000Y-75681353D01*
X144964890Y-75796075D01*
X145174122Y-75741240D01*
X145530767Y-75578839D01*
X145848876Y-75349980D01*
X146116225Y-75063459D01*
X146322539Y-74730286D01*
X146459890Y-74363265D01*
X146523000Y-73976500D01*
X146523000Y-73716500D01*
X152133000Y-73716500D01*
X152133000Y-73976500D01*
X152196110Y-74363265D01*
X152333461Y-74730286D01*
X152539775Y-75063459D01*
X152807124Y-75349980D01*
X153125233Y-75578839D01*
X153481878Y-75741240D01*
X153691110Y-75796075D01*
X154001000Y-75681353D01*
X154001000Y-73716500D01*
X154255000Y-73716500D01*
X154255000Y-75681353D01*
X154564890Y-75796075D01*
X154774122Y-75741240D01*
X155130767Y-75578839D01*
X155448876Y-75349980D01*
X155716225Y-75063459D01*
X155922539Y-74730286D01*
X156059890Y-74363265D01*
X156123000Y-73976500D01*
X156123000Y-73716500D01*
X154255000Y-73716500D01*
X154001000Y-73716500D01*
X152133000Y-73716500D01*
X146523000Y-73716500D01*
X144655000Y-73716500D01*
X144401000Y-73716500D01*
X142533000Y-73716500D01*
X139517640Y-73716500D01*
X139812977Y-73519163D01*
X140115163Y-73216977D01*
X140124836Y-73202500D01*
X142533000Y-73202500D01*
X142533000Y-73462500D01*
X144401000Y-73462500D01*
X144401000Y-71497647D01*
X144655000Y-71497647D01*
X144655000Y-73462500D01*
X146523000Y-73462500D01*
X146523000Y-73202500D01*
X152133000Y-73202500D01*
X152133000Y-73462500D01*
X154001000Y-73462500D01*
X154001000Y-71497647D01*
X154255000Y-71497647D01*
X154255000Y-73462500D01*
X156123000Y-73462500D01*
X156123000Y-73202500D01*
X156059890Y-72815735D01*
X155922539Y-72448714D01*
X155716225Y-72115541D01*
X155448876Y-71829020D01*
X155225511Y-71668323D01*
X158112497Y-71668323D01*
X158112497Y-72095677D01*
X158195870Y-72514821D01*
X158359412Y-72909645D01*
X158596837Y-73264977D01*
X158899023Y-73567163D01*
X159254355Y-73804588D01*
X159649179Y-73968130D01*
X160068323Y-74051503D01*
X160495677Y-74051503D01*
X160914821Y-73968130D01*
X161309645Y-73804588D01*
X161664977Y-73567163D01*
X161967163Y-73264977D01*
X162204588Y-72909645D01*
X162368130Y-72514821D01*
X162451503Y-72095677D01*
X162451503Y-71668323D01*
X162368130Y-71249179D01*
X162204588Y-70854355D01*
X161967163Y-70499023D01*
X161664977Y-70196837D01*
X161309645Y-69959412D01*
X160914821Y-69795870D01*
X160495677Y-69712497D01*
X160068323Y-69712497D01*
X159649179Y-69795870D01*
X159254355Y-69959412D01*
X158899023Y-70196837D01*
X158596837Y-70499023D01*
X158359412Y-70854355D01*
X158195870Y-71249179D01*
X158112497Y-71668323D01*
X155225511Y-71668323D01*
X155130767Y-71600161D01*
X154774122Y-71437760D01*
X154564890Y-71382925D01*
X154255000Y-71497647D01*
X154001000Y-71497647D01*
X153691110Y-71382925D01*
X153481878Y-71437760D01*
X153125233Y-71600161D01*
X152807124Y-71829020D01*
X152539775Y-72115541D01*
X152333461Y-72448714D01*
X152196110Y-72815735D01*
X152133000Y-73202500D01*
X146523000Y-73202500D01*
X146459890Y-72815735D01*
X146322539Y-72448714D01*
X146116225Y-72115541D01*
X145848876Y-71829020D01*
X145530767Y-71600161D01*
X145174122Y-71437760D01*
X144964890Y-71382925D01*
X144655000Y-71497647D01*
X144401000Y-71497647D01*
X144091110Y-71382925D01*
X143881878Y-71437760D01*
X143525233Y-71600161D01*
X143207124Y-71829020D01*
X142939775Y-72115541D01*
X142733461Y-72448714D01*
X142596110Y-72815735D01*
X142533000Y-73202500D01*
X140124836Y-73202500D01*
X140352588Y-72861645D01*
X140516130Y-72466821D01*
X140599503Y-72047677D01*
X140599503Y-71620323D01*
X140516130Y-71201179D01*
X140352588Y-70806355D01*
X140115163Y-70451023D01*
X139812977Y-70148837D01*
X139457645Y-69911412D01*
X139062821Y-69747870D01*
X138643677Y-69664497D01*
X138216323Y-69664497D01*
X137797179Y-69747870D01*
X137402355Y-69911412D01*
X137047023Y-70148837D01*
X136744837Y-70451023D01*
X136507412Y-70806355D01*
X136343870Y-71201179D01*
X136260497Y-71620323D01*
X134988000Y-71620323D01*
X134988000Y-68643100D01*
X163668000Y-68643100D01*
X163668001Y-116010000D01*
G37*
X163668001Y-116010000D02*
X134988000Y-116010000D01*
X134988000Y-110170000D01*
X136774928Y-110170000D01*
X136787188Y-110294482D01*
X136823498Y-110414180D01*
X136882463Y-110524494D01*
X136961815Y-110621185D01*
X137058506Y-110700537D01*
X137168820Y-110759502D01*
X137288518Y-110795812D01*
X137413000Y-110808072D01*
X138877250Y-110805000D01*
X139036000Y-110646250D01*
X139036000Y-108797000D01*
X139290000Y-108797000D01*
X139290000Y-110646250D01*
X139448750Y-110805000D01*
X140913000Y-110808072D01*
X141037482Y-110795812D01*
X141157180Y-110759502D01*
X141267494Y-110700537D01*
X141364185Y-110621185D01*
X141443537Y-110524494D01*
X141502502Y-110414180D01*
X141538812Y-110294482D01*
X141551072Y-110170000D01*
X141548000Y-108955750D01*
X141389250Y-108797000D01*
X139290000Y-108797000D01*
X139036000Y-108797000D01*
X136936750Y-108797000D01*
X136778000Y-108955750D01*
X136774928Y-110170000D01*
X134988000Y-110170000D01*
X134988000Y-107170000D01*
X136774928Y-107170000D01*
X136778000Y-108384250D01*
X136936750Y-108543000D01*
X139036000Y-108543000D01*
X139036000Y-106693750D01*
X138877250Y-106535000D01*
X137413000Y-106531928D01*
X137288518Y-106544188D01*
X137168820Y-106580498D01*
X137058506Y-106639463D01*
X136961815Y-106718815D01*
X136882463Y-106815506D01*
X136823498Y-106925820D01*
X136787188Y-107045518D01*
X136774928Y-107170000D01*
X134988000Y-107170000D01*
X134988000Y-101569801D01*
X136599201Y-103181003D01*
X136622999Y-103210001D01*
X136651997Y-103233799D01*
X136738724Y-103304974D01*
X136774928Y-103324326D01*
X136774928Y-104420000D01*
X136787188Y-104544482D01*
X136823498Y-104664180D01*
X136882463Y-104774494D01*
X136961815Y-104871185D01*
X137058506Y-104950537D01*
X137168820Y-105009502D01*
X137288518Y-105045812D01*
X137413000Y-105058072D01*
X138722748Y-105058072D01*
X138731798Y-105065499D01*
X140199723Y-106533424D01*
X139448750Y-106535000D01*
X139290000Y-106693750D01*
X139290000Y-108543000D01*
X141389250Y-108543000D01*
X141548000Y-108384250D01*
X141549268Y-107882970D01*
X145261830Y-111595532D01*
X145205963Y-111663606D01*
X145146998Y-111773920D01*
X145110688Y-111893618D01*
X145098428Y-112018100D01*
X145098428Y-114118100D01*
X145110688Y-114242582D01*
X145146998Y-114362280D01*
X145205963Y-114472594D01*
X145285315Y-114569285D01*
X145382006Y-114648637D01*
X145492320Y-114707602D01*
X145612018Y-114743912D01*
X145736500Y-114756172D01*
X147836500Y-114756172D01*
X147960982Y-114743912D01*
X148080680Y-114707602D01*
X148190994Y-114648637D01*
X148287685Y-114569285D01*
X148367037Y-114472594D01*
X148374542Y-114458554D01*
X148528353Y-114561328D01*
X148835004Y-114688346D01*
X149160542Y-114753100D01*
X149492458Y-114753100D01*
X149817996Y-114688346D01*
X150124647Y-114561328D01*
X150400625Y-114376925D01*
X150538384Y-114239166D01*
X150875039Y-114239166D01*
X150976839Y-114508679D01*
X151274977Y-114654563D01*
X151595846Y-114739480D01*
X151927117Y-114760166D01*
X152256057Y-114715828D01*
X152570027Y-114608169D01*
X152756161Y-114508679D01*
X152857961Y-114239166D01*
X151866500Y-113247705D01*
X150875039Y-114239166D01*
X150538384Y-114239166D01*
X150635325Y-114142225D01*
X150691542Y-114058091D01*
X150695434Y-114059561D01*
X151686895Y-113068100D01*
X152046105Y-113068100D01*
X153037566Y-114059561D01*
X153307079Y-113957761D01*
X153452963Y-113659623D01*
X153537880Y-113338754D01*
X153558566Y-113007483D01*
X153514228Y-112678543D01*
X153479178Y-112576323D01*
X158112497Y-112576323D01*
X158112497Y-113003677D01*
X158195870Y-113422821D01*
X158359412Y-113817645D01*
X158596837Y-114172977D01*
X158899023Y-114475163D01*
X159254355Y-114712588D01*
X159649179Y-114876130D01*
X160068323Y-114959503D01*
X160495677Y-114959503D01*
X160914821Y-114876130D01*
X161309645Y-114712588D01*
X161664977Y-114475163D01*
X161967163Y-114172977D01*
X162204588Y-113817645D01*
X162368130Y-113422821D01*
X162451503Y-113003677D01*
X162451503Y-112576323D01*
X162368130Y-112157179D01*
X162204588Y-111762355D01*
X161967163Y-111407023D01*
X161664977Y-111104837D01*
X161309645Y-110867412D01*
X160914821Y-110703870D01*
X160495677Y-110620497D01*
X160068323Y-110620497D01*
X159649179Y-110703870D01*
X159254355Y-110867412D01*
X158899023Y-111104837D01*
X158596837Y-111407023D01*
X158359412Y-111762355D01*
X158195870Y-112157179D01*
X158112497Y-112576323D01*
X153479178Y-112576323D01*
X153406569Y-112364573D01*
X153307079Y-112178439D01*
X153037566Y-112076639D01*
X152046105Y-113068100D01*
X151686895Y-113068100D01*
X150695434Y-112076639D01*
X150691542Y-112078109D01*
X150635325Y-111993975D01*
X150538384Y-111897034D01*
X150875039Y-111897034D01*
X151866500Y-112888495D01*
X152857961Y-111897034D01*
X152756161Y-111627521D01*
X152458023Y-111481637D01*
X152137154Y-111396720D01*
X151805883Y-111376034D01*
X151476943Y-111420372D01*
X151162973Y-111528031D01*
X150976839Y-111627521D01*
X150875039Y-111897034D01*
X150538384Y-111897034D01*
X150400625Y-111759275D01*
X150124647Y-111574872D01*
X149817996Y-111447854D01*
X149492458Y-111383100D01*
X149160542Y-111383100D01*
X148835004Y-111447854D01*
X148528353Y-111574872D01*
X148374542Y-111677646D01*
X148367037Y-111663606D01*
X148287685Y-111566915D01*
X148190994Y-111487563D01*
X148080680Y-111428598D01*
X147960982Y-111392288D01*
X147836500Y-111380028D01*
X147195930Y-111380028D01*
X144066204Y-108250302D01*
X158495703Y-108250302D01*
X158567286Y-108494271D01*
X158822796Y-108615171D01*
X159096984Y-108683900D01*
X159379312Y-108697817D01*
X159658930Y-108656387D01*
X159925092Y-108561203D01*
X160050314Y-108494271D01*
X160121897Y-108250302D01*
X159308800Y-107437205D01*
X158495703Y-108250302D01*
X144066204Y-108250302D01*
X143873974Y-108058072D01*
X144738000Y-108058072D01*
X145033186Y-108028999D01*
X145317028Y-107942896D01*
X145578618Y-107803073D01*
X145807903Y-107614903D01*
X145996073Y-107385618D01*
X146135896Y-107124028D01*
X146221999Y-106840186D01*
X146251072Y-106545000D01*
X146251072Y-104795000D01*
X146221999Y-104499814D01*
X146135896Y-104215972D01*
X145996073Y-103954382D01*
X145807903Y-103725097D01*
X145578618Y-103536927D01*
X145317028Y-103397104D01*
X145033186Y-103311001D01*
X144738000Y-103281928D01*
X142988000Y-103281928D01*
X142692814Y-103311001D01*
X142408972Y-103397104D01*
X142147382Y-103536927D01*
X141918097Y-103725097D01*
X141729927Y-103954382D01*
X141590104Y-104215972D01*
X141551072Y-104344643D01*
X141551072Y-103261700D01*
X149007728Y-103261700D01*
X148695179Y-103323870D01*
X148300355Y-103487412D01*
X147945023Y-103724837D01*
X147642837Y-104027023D01*
X147405412Y-104382355D01*
X147241870Y-104777179D01*
X147158497Y-105196323D01*
X147158497Y-105623677D01*
X147241870Y-106042821D01*
X147405412Y-106437645D01*
X147642837Y-106792977D01*
X147945023Y-107095163D01*
X148300355Y-107332588D01*
X148695179Y-107496130D01*
X149114323Y-107579503D01*
X149541677Y-107579503D01*
X149960821Y-107496130D01*
X150355645Y-107332588D01*
X150710977Y-107095163D01*
X151013163Y-106792977D01*
X151250588Y-106437645D01*
X151414130Y-106042821D01*
X151497503Y-105623677D01*
X151497503Y-105196323D01*
X151414130Y-104777179D01*
X151250588Y-104382355D01*
X151013163Y-104027023D01*
X150710977Y-103724837D01*
X150355645Y-103487412D01*
X149960821Y-103323870D01*
X149648272Y-103261700D01*
X152986899Y-103261700D01*
X155493801Y-105768603D01*
X155517599Y-105797601D01*
X155546597Y-105821399D01*
X155633323Y-105892574D01*
X155727457Y-105942890D01*
X155765353Y-105963146D01*
X155908614Y-106006603D01*
X156020267Y-106017600D01*
X156020276Y-106017600D01*
X156057599Y-106021276D01*
X156094922Y-106017600D01*
X157870728Y-106017600D01*
X157870728Y-106057600D01*
X157882988Y-106182082D01*
X157919298Y-106301780D01*
X157978263Y-106412094D01*
X158057615Y-106508785D01*
X158070558Y-106519407D01*
X157951229Y-106771596D01*
X157882500Y-107045784D01*
X157868583Y-107328112D01*
X157910013Y-107607730D01*
X158005197Y-107873892D01*
X158072129Y-107999114D01*
X158316098Y-108070697D01*
X159129195Y-107257600D01*
X159115053Y-107243458D01*
X159294658Y-107063853D01*
X159308800Y-107077995D01*
X159322943Y-107063853D01*
X159502548Y-107243458D01*
X159488405Y-107257600D01*
X160301502Y-108070697D01*
X160545471Y-107999114D01*
X160666371Y-107743604D01*
X160735100Y-107469416D01*
X160749017Y-107187088D01*
X160707587Y-106907470D01*
X160612403Y-106641308D01*
X160547184Y-106519291D01*
X160559985Y-106508785D01*
X160639337Y-106412094D01*
X160698302Y-106301780D01*
X160734612Y-106182082D01*
X160746872Y-106057600D01*
X160746872Y-104457600D01*
X160734612Y-104333118D01*
X160698302Y-104213420D01*
X160639337Y-104103106D01*
X160559985Y-104006415D01*
X160463294Y-103927063D01*
X160352980Y-103868098D01*
X160233282Y-103831788D01*
X160108800Y-103819528D01*
X158508800Y-103819528D01*
X158384318Y-103831788D01*
X158264620Y-103868098D01*
X158154306Y-103927063D01*
X158057615Y-104006415D01*
X157978263Y-104103106D01*
X157919298Y-104213420D01*
X157882988Y-104333118D01*
X157870728Y-104457600D01*
X157870728Y-104497600D01*
X156372402Y-104497600D01*
X153865504Y-101990703D01*
X153841701Y-101961699D01*
X153725976Y-101866726D01*
X153593947Y-101796154D01*
X153593133Y-101795907D01*
X153620252Y-101777787D01*
X153847987Y-101550052D01*
X154026918Y-101282263D01*
X154150168Y-100984712D01*
X154213000Y-100668833D01*
X154213000Y-100346767D01*
X154150168Y-100030888D01*
X154026918Y-99733337D01*
X153847987Y-99465548D01*
X153620252Y-99237813D01*
X153469396Y-99137014D01*
X156399000Y-99137014D01*
X156399000Y-99399986D01*
X156450304Y-99657905D01*
X156550939Y-99900859D01*
X156697038Y-100119513D01*
X156882987Y-100305462D01*
X157101641Y-100451561D01*
X157344595Y-100552196D01*
X157602514Y-100603500D01*
X157865486Y-100603500D01*
X158123405Y-100552196D01*
X158366359Y-100451561D01*
X158585013Y-100305462D01*
X158770962Y-100119513D01*
X158917061Y-99900859D01*
X159017696Y-99657905D01*
X159069000Y-99399986D01*
X159069000Y-99137014D01*
X159447000Y-99137014D01*
X159447000Y-99399986D01*
X159498304Y-99657905D01*
X159598939Y-99900859D01*
X159745038Y-100119513D01*
X159930987Y-100305462D01*
X160149641Y-100451561D01*
X160392595Y-100552196D01*
X160650514Y-100603500D01*
X160913486Y-100603500D01*
X161171405Y-100552196D01*
X161414359Y-100451561D01*
X161633013Y-100305462D01*
X161818962Y-100119513D01*
X161965061Y-99900859D01*
X162065696Y-99657905D01*
X162117000Y-99399986D01*
X162117000Y-99137014D01*
X162065696Y-98879095D01*
X161965061Y-98636141D01*
X161818962Y-98417487D01*
X161633013Y-98231538D01*
X161414359Y-98085439D01*
X161171405Y-97984804D01*
X160913486Y-97933500D01*
X160650514Y-97933500D01*
X160392595Y-97984804D01*
X160149641Y-98085439D01*
X159930987Y-98231538D01*
X159745038Y-98417487D01*
X159598939Y-98636141D01*
X159498304Y-98879095D01*
X159447000Y-99137014D01*
X159069000Y-99137014D01*
X159017696Y-98879095D01*
X158917061Y-98636141D01*
X158770962Y-98417487D01*
X158585013Y-98231538D01*
X158366359Y-98085439D01*
X158123405Y-97984804D01*
X157865486Y-97933500D01*
X157602514Y-97933500D01*
X157344595Y-97984804D01*
X157101641Y-98085439D01*
X156882987Y-98231538D01*
X156697038Y-98417487D01*
X156550939Y-98636141D01*
X156450304Y-98879095D01*
X156399000Y-99137014D01*
X153469396Y-99137014D01*
X153352463Y-99058882D01*
X153054912Y-98935632D01*
X152739033Y-98872800D01*
X152416967Y-98872800D01*
X152101088Y-98935632D01*
X151803537Y-99058882D01*
X151535748Y-99237813D01*
X151308013Y-99465548D01*
X151129082Y-99733337D01*
X151123091Y-99747800D01*
X147532909Y-99747800D01*
X147526918Y-99733337D01*
X147347987Y-99465548D01*
X147120252Y-99237813D01*
X146852463Y-99058882D01*
X146554912Y-98935632D01*
X146239033Y-98872800D01*
X145916967Y-98872800D01*
X145601088Y-98935632D01*
X145586625Y-98941623D01*
X143788215Y-97143213D01*
X145122192Y-97143213D01*
X145217956Y-97407614D01*
X145507571Y-97548504D01*
X145819108Y-97630184D01*
X146140595Y-97649518D01*
X146459675Y-97605761D01*
X146764088Y-97500595D01*
X146938044Y-97407614D01*
X147033808Y-97143213D01*
X151622192Y-97143213D01*
X151717956Y-97407614D01*
X152007571Y-97548504D01*
X152319108Y-97630184D01*
X152640595Y-97649518D01*
X152959675Y-97605761D01*
X153264088Y-97500595D01*
X153438044Y-97407614D01*
X153533808Y-97143213D01*
X152578000Y-96187405D01*
X151622192Y-97143213D01*
X147033808Y-97143213D01*
X146078000Y-96187405D01*
X145122192Y-97143213D01*
X143788215Y-97143213D01*
X142715397Y-96070395D01*
X144436282Y-96070395D01*
X144480039Y-96389475D01*
X144585205Y-96693888D01*
X144678186Y-96867844D01*
X144942587Y-96963608D01*
X145898395Y-96007800D01*
X146257605Y-96007800D01*
X147213413Y-96963608D01*
X147477814Y-96867844D01*
X147618704Y-96578229D01*
X147700384Y-96266692D01*
X147712189Y-96070395D01*
X150936282Y-96070395D01*
X150980039Y-96389475D01*
X151085205Y-96693888D01*
X151178186Y-96867844D01*
X151442587Y-96963608D01*
X152398395Y-96007800D01*
X152757605Y-96007800D01*
X153713413Y-96963608D01*
X153977814Y-96867844D01*
X154118704Y-96578229D01*
X154200384Y-96266692D01*
X154219718Y-95945205D01*
X154175961Y-95626125D01*
X154070795Y-95321712D01*
X153977814Y-95147756D01*
X153713413Y-95051992D01*
X152757605Y-96007800D01*
X152398395Y-96007800D01*
X151442587Y-95051992D01*
X151178186Y-95147756D01*
X151037296Y-95437371D01*
X150955616Y-95748908D01*
X150936282Y-96070395D01*
X147712189Y-96070395D01*
X147719718Y-95945205D01*
X147675961Y-95626125D01*
X147570795Y-95321712D01*
X147477814Y-95147756D01*
X147213413Y-95051992D01*
X146257605Y-96007800D01*
X145898395Y-96007800D01*
X144942587Y-95051992D01*
X144678186Y-95147756D01*
X144537296Y-95437371D01*
X144455616Y-95748908D01*
X144436282Y-96070395D01*
X142715397Y-96070395D01*
X141517389Y-94872387D01*
X145122192Y-94872387D01*
X146078000Y-95828195D01*
X147033808Y-94872387D01*
X151622192Y-94872387D01*
X152578000Y-95828195D01*
X153533808Y-94872387D01*
X153438044Y-94607986D01*
X153148429Y-94467096D01*
X152836892Y-94385416D01*
X152515405Y-94366082D01*
X152196325Y-94409839D01*
X151891912Y-94515005D01*
X151717956Y-94607986D01*
X151622192Y-94872387D01*
X147033808Y-94872387D01*
X146938044Y-94607986D01*
X146648429Y-94467096D01*
X146336892Y-94385416D01*
X146015405Y-94366082D01*
X145696325Y-94409839D01*
X145391912Y-94515005D01*
X145217956Y-94607986D01*
X145122192Y-94872387D01*
X141517389Y-94872387D01*
X140318546Y-93673545D01*
X140418273Y-93740180D01*
X140679426Y-93848353D01*
X140956665Y-93903500D01*
X141239335Y-93903500D01*
X141516574Y-93848353D01*
X141777727Y-93740180D01*
X142012759Y-93583137D01*
X142212637Y-93383259D01*
X142369680Y-93148227D01*
X142477853Y-92887074D01*
X142533000Y-92609835D01*
X142533000Y-92327165D01*
X142477853Y-92049926D01*
X142369680Y-91788773D01*
X142212637Y-91553741D01*
X142012759Y-91353863D01*
X141858000Y-91250457D01*
X141858000Y-90259125D01*
X141861676Y-90221800D01*
X141858000Y-90184475D01*
X141858000Y-90184467D01*
X141847003Y-90072814D01*
X141803546Y-89929553D01*
X141754502Y-89837800D01*
X144016599Y-89837800D01*
X144635236Y-90456437D01*
X144567063Y-90539506D01*
X144508098Y-90649820D01*
X144471788Y-90769518D01*
X144459528Y-90894000D01*
X144459528Y-92494000D01*
X144471788Y-92618482D01*
X144508098Y-92738180D01*
X144567063Y-92848494D01*
X144646415Y-92945185D01*
X144743106Y-93024537D01*
X144853420Y-93083502D01*
X144973118Y-93119812D01*
X145097600Y-93132072D01*
X146697600Y-93132072D01*
X146822082Y-93119812D01*
X146941780Y-93083502D01*
X147052094Y-93024537D01*
X147148785Y-92945185D01*
X147228137Y-92848494D01*
X147287102Y-92738180D01*
X147323412Y-92618482D01*
X147324243Y-92610039D01*
X147522841Y-92808637D01*
X147757873Y-92965680D01*
X148019026Y-93073853D01*
X148296265Y-93129000D01*
X148578935Y-93129000D01*
X148856174Y-93073853D01*
X149117327Y-92965680D01*
X149352359Y-92808637D01*
X149552237Y-92608759D01*
X149707600Y-92376241D01*
X149862963Y-92608759D01*
X150062841Y-92808637D01*
X150297873Y-92965680D01*
X150559026Y-93073853D01*
X150836265Y-93129000D01*
X151118935Y-93129000D01*
X151396174Y-93073853D01*
X151657327Y-92965680D01*
X151892359Y-92808637D01*
X152014294Y-92686702D01*
X152704503Y-92686702D01*
X152776086Y-92930671D01*
X153031596Y-93051571D01*
X153305784Y-93120300D01*
X153588112Y-93134217D01*
X153867730Y-93092787D01*
X154133892Y-92997603D01*
X154259114Y-92930671D01*
X154330697Y-92686702D01*
X153517600Y-91873605D01*
X152704503Y-92686702D01*
X152014294Y-92686702D01*
X152092237Y-92608759D01*
X152248515Y-92374872D01*
X152280929Y-92435514D01*
X152524898Y-92507097D01*
X153337995Y-91694000D01*
X153697205Y-91694000D01*
X154510302Y-92507097D01*
X154754271Y-92435514D01*
X154875171Y-92180004D01*
X154943900Y-91905816D01*
X154957817Y-91623488D01*
X154916387Y-91343870D01*
X154821203Y-91077708D01*
X154754271Y-90952486D01*
X154510302Y-90880903D01*
X153697205Y-91694000D01*
X153337995Y-91694000D01*
X152524898Y-90880903D01*
X152280929Y-90952486D01*
X152250406Y-91016992D01*
X152249280Y-91014273D01*
X152092237Y-90779241D01*
X152014294Y-90701298D01*
X152704503Y-90701298D01*
X153517600Y-91514395D01*
X154330697Y-90701298D01*
X154259114Y-90457329D01*
X154003604Y-90336429D01*
X153729416Y-90267700D01*
X153447088Y-90253783D01*
X153167470Y-90295213D01*
X152901308Y-90390397D01*
X152776086Y-90457329D01*
X152704503Y-90701298D01*
X152014294Y-90701298D01*
X151892359Y-90579363D01*
X151657327Y-90422320D01*
X151396174Y-90314147D01*
X151118935Y-90259000D01*
X150836265Y-90259000D01*
X150559026Y-90314147D01*
X150297873Y-90422320D01*
X150062841Y-90579363D01*
X149862963Y-90779241D01*
X149707600Y-91011759D01*
X149552237Y-90779241D01*
X149352359Y-90579363D01*
X149117327Y-90422320D01*
X148856174Y-90314147D01*
X148578935Y-90259000D01*
X148296265Y-90259000D01*
X148019026Y-90314147D01*
X147757873Y-90422320D01*
X147522841Y-90579363D01*
X147324243Y-90777961D01*
X147323412Y-90769518D01*
X147287102Y-90649820D01*
X147228137Y-90539506D01*
X147148785Y-90442815D01*
X147052094Y-90363463D01*
X146941780Y-90304498D01*
X146822082Y-90268188D01*
X146697600Y-90255928D01*
X146551926Y-90255928D01*
X146532574Y-90219724D01*
X146437601Y-90103999D01*
X146408604Y-90080202D01*
X145147901Y-88819500D01*
X148458402Y-85509000D01*
X148578935Y-85509000D01*
X148761487Y-85472688D01*
X152699800Y-89411002D01*
X152723599Y-89440001D01*
X152839324Y-89534974D01*
X152971353Y-89605546D01*
X153114614Y-89649003D01*
X153226267Y-89660000D01*
X153226275Y-89660000D01*
X153263600Y-89663676D01*
X153300925Y-89660000D01*
X154117199Y-89660000D01*
X156974001Y-92516803D01*
X156974001Y-93090725D01*
X156882987Y-93151538D01*
X156697038Y-93337487D01*
X156550939Y-93556141D01*
X156450304Y-93799095D01*
X156399000Y-94057014D01*
X156399000Y-94319986D01*
X156450304Y-94577905D01*
X156550939Y-94820859D01*
X156697038Y-95039513D01*
X156882987Y-95225462D01*
X157101641Y-95371561D01*
X157344595Y-95472196D01*
X157602514Y-95523500D01*
X157865486Y-95523500D01*
X158123405Y-95472196D01*
X158366359Y-95371561D01*
X158585013Y-95225462D01*
X158770962Y-95039513D01*
X158917061Y-94820859D01*
X159017696Y-94577905D01*
X159069000Y-94319986D01*
X159069000Y-94057014D01*
X159447000Y-94057014D01*
X159447000Y-94319986D01*
X159498304Y-94577905D01*
X159598939Y-94820859D01*
X159745038Y-95039513D01*
X159930987Y-95225462D01*
X160149641Y-95371561D01*
X160392595Y-95472196D01*
X160650514Y-95523500D01*
X160913486Y-95523500D01*
X161171405Y-95472196D01*
X161414359Y-95371561D01*
X161633013Y-95225462D01*
X161818962Y-95039513D01*
X161965061Y-94820859D01*
X162065696Y-94577905D01*
X162117000Y-94319986D01*
X162117000Y-94057014D01*
X162065696Y-93799095D01*
X161965061Y-93556141D01*
X161818962Y-93337487D01*
X161633013Y-93151538D01*
X161414359Y-93005439D01*
X161171405Y-92904804D01*
X160913486Y-92853500D01*
X160650514Y-92853500D01*
X160392595Y-92904804D01*
X160149641Y-93005439D01*
X159930987Y-93151538D01*
X159745038Y-93337487D01*
X159598939Y-93556141D01*
X159498304Y-93799095D01*
X159447000Y-94057014D01*
X159069000Y-94057014D01*
X159017696Y-93799095D01*
X158917061Y-93556141D01*
X158770962Y-93337487D01*
X158585013Y-93151538D01*
X158494000Y-93090725D01*
X158494000Y-92239322D01*
X158497676Y-92201999D01*
X158494000Y-92164676D01*
X158494000Y-92164667D01*
X158483003Y-92053014D01*
X158439546Y-91909753D01*
X158368974Y-91777724D01*
X158274001Y-91661999D01*
X158245003Y-91638201D01*
X154995804Y-88389003D01*
X154972001Y-88359999D01*
X154856276Y-88265026D01*
X154724247Y-88194454D01*
X154580986Y-88150997D01*
X154469333Y-88140000D01*
X154469322Y-88140000D01*
X154432000Y-88136324D01*
X154394678Y-88140000D01*
X153578402Y-88140000D01*
X150947401Y-85509000D01*
X151118935Y-85509000D01*
X151396174Y-85453853D01*
X151657327Y-85345680D01*
X151892359Y-85188637D01*
X152092237Y-84988759D01*
X152247600Y-84756241D01*
X152402963Y-84988759D01*
X152602841Y-85188637D01*
X152837873Y-85345680D01*
X153099026Y-85453853D01*
X153376265Y-85509000D01*
X153658935Y-85509000D01*
X153936174Y-85453853D01*
X154197327Y-85345680D01*
X154432359Y-85188637D01*
X154632237Y-84988759D01*
X154789280Y-84753727D01*
X154897453Y-84492574D01*
X154952600Y-84215335D01*
X154952600Y-83932665D01*
X154897453Y-83655426D01*
X154789280Y-83394273D01*
X154632237Y-83159241D01*
X154432359Y-82959363D01*
X154197327Y-82802320D01*
X153936174Y-82694147D01*
X153658935Y-82639000D01*
X153376265Y-82639000D01*
X153193714Y-82675312D01*
X153053784Y-82535383D01*
X153082494Y-82520037D01*
X153179185Y-82440685D01*
X153258537Y-82343994D01*
X153317502Y-82233680D01*
X153353812Y-82113982D01*
X153366072Y-81989500D01*
X153363000Y-81375250D01*
X153204250Y-81216500D01*
X151955000Y-81216500D01*
X151955000Y-81236500D01*
X151701000Y-81236500D01*
X151701000Y-81216500D01*
X151681000Y-81216500D01*
X151681000Y-80962500D01*
X151701000Y-80962500D01*
X151701000Y-79713250D01*
X151955000Y-79713250D01*
X151955000Y-80962500D01*
X153204250Y-80962500D01*
X153363000Y-80803750D01*
X153366072Y-80189500D01*
X153353812Y-80065018D01*
X153317502Y-79945320D01*
X153258537Y-79835006D01*
X153179185Y-79738315D01*
X153082494Y-79658963D01*
X152972180Y-79599998D01*
X152852482Y-79563688D01*
X152728000Y-79551428D01*
X152113750Y-79554500D01*
X151955000Y-79713250D01*
X151701000Y-79713250D01*
X151542250Y-79554500D01*
X150928000Y-79551428D01*
X150803518Y-79563688D01*
X150683820Y-79599998D01*
X150573506Y-79658963D01*
X150476815Y-79738315D01*
X150397463Y-79835006D01*
X150344120Y-79934803D01*
X150306505Y-79897188D01*
X150055095Y-79729201D01*
X149775743Y-79613489D01*
X149479184Y-79554500D01*
X149176816Y-79554500D01*
X148880257Y-79613489D01*
X148600905Y-79729201D01*
X148349495Y-79897188D01*
X148135688Y-80110995D01*
X148078000Y-80197331D01*
X148020312Y-80110995D01*
X147806505Y-79897188D01*
X147555095Y-79729201D01*
X147275743Y-79613489D01*
X146979184Y-79554500D01*
X146676816Y-79554500D01*
X146380257Y-79613489D01*
X146100905Y-79729201D01*
X145849495Y-79897188D01*
X145635688Y-80110995D01*
X145467701Y-80362405D01*
X145351989Y-80641757D01*
X145293000Y-80938316D01*
X145293000Y-81240684D01*
X145351989Y-81537243D01*
X145467701Y-81816595D01*
X145602677Y-82018600D01*
X141723503Y-82018600D01*
X141686180Y-82014924D01*
X141648857Y-82018600D01*
X141648848Y-82018600D01*
X141537195Y-82029597D01*
X141393934Y-82073054D01*
X141261905Y-82143626D01*
X141146180Y-82238599D01*
X141122382Y-82267597D01*
X139781693Y-83608286D01*
X139614632Y-83441225D01*
X139440240Y-83324700D01*
X139614632Y-83208175D01*
X139821475Y-83001332D01*
X139983990Y-82758111D01*
X140095932Y-82487858D01*
X140153000Y-82200960D01*
X140153000Y-81908440D01*
X140095932Y-81621542D01*
X139983990Y-81351289D01*
X139821475Y-81108068D01*
X139614632Y-80901225D01*
X139371411Y-80738710D01*
X139101158Y-80626768D01*
X138814260Y-80569700D01*
X138521740Y-80569700D01*
X138234842Y-80626768D01*
X137964589Y-80738710D01*
X137721368Y-80901225D01*
X137589513Y-81033080D01*
X137567502Y-80960520D01*
X137508537Y-80850206D01*
X137429185Y-80753515D01*
X137332494Y-80674163D01*
X137222180Y-80615198D01*
X137102482Y-80578888D01*
X136978000Y-80566628D01*
X135278000Y-80566628D01*
X135153518Y-80578888D01*
X135033820Y-80615198D01*
X134988000Y-80639690D01*
X134988000Y-71620323D01*
X136260497Y-71620323D01*
X136260497Y-72047677D01*
X136343870Y-72466821D01*
X136507412Y-72861645D01*
X136744837Y-73216977D01*
X137047023Y-73519163D01*
X137402355Y-73756588D01*
X137797179Y-73920130D01*
X138216323Y-74003503D01*
X138643677Y-74003503D01*
X139062821Y-73920130D01*
X139457645Y-73756588D01*
X139517640Y-73716500D01*
X142533000Y-73716500D01*
X142533000Y-73976500D01*
X142596110Y-74363265D01*
X142733461Y-74730286D01*
X142939775Y-75063459D01*
X143207124Y-75349980D01*
X143525233Y-75578839D01*
X143881878Y-75741240D01*
X144091110Y-75796075D01*
X144401000Y-75681353D01*
X144401000Y-73716500D01*
X144655000Y-73716500D01*
X144655000Y-75681353D01*
X144964890Y-75796075D01*
X145174122Y-75741240D01*
X145530767Y-75578839D01*
X145848876Y-75349980D01*
X146116225Y-75063459D01*
X146322539Y-74730286D01*
X146459890Y-74363265D01*
X146523000Y-73976500D01*
X146523000Y-73716500D01*
X152133000Y-73716500D01*
X152133000Y-73976500D01*
X152196110Y-74363265D01*
X152333461Y-74730286D01*
X152539775Y-75063459D01*
X152807124Y-75349980D01*
X153125233Y-75578839D01*
X153481878Y-75741240D01*
X153691110Y-75796075D01*
X154001000Y-75681353D01*
X154001000Y-73716500D01*
X154255000Y-73716500D01*
X154255000Y-75681353D01*
X154564890Y-75796075D01*
X154774122Y-75741240D01*
X155130767Y-75578839D01*
X155448876Y-75349980D01*
X155716225Y-75063459D01*
X155922539Y-74730286D01*
X156059890Y-74363265D01*
X156123000Y-73976500D01*
X156123000Y-73716500D01*
X154255000Y-73716500D01*
X154001000Y-73716500D01*
X152133000Y-73716500D01*
X146523000Y-73716500D01*
X144655000Y-73716500D01*
X144401000Y-73716500D01*
X142533000Y-73716500D01*
X139517640Y-73716500D01*
X139812977Y-73519163D01*
X140115163Y-73216977D01*
X140124836Y-73202500D01*
X142533000Y-73202500D01*
X142533000Y-73462500D01*
X144401000Y-73462500D01*
X144401000Y-71497647D01*
X144655000Y-71497647D01*
X144655000Y-73462500D01*
X146523000Y-73462500D01*
X146523000Y-73202500D01*
X152133000Y-73202500D01*
X152133000Y-73462500D01*
X154001000Y-73462500D01*
X154001000Y-71497647D01*
X154255000Y-71497647D01*
X154255000Y-73462500D01*
X156123000Y-73462500D01*
X156123000Y-73202500D01*
X156059890Y-72815735D01*
X155922539Y-72448714D01*
X155716225Y-72115541D01*
X155448876Y-71829020D01*
X155225511Y-71668323D01*
X158112497Y-71668323D01*
X158112497Y-72095677D01*
X158195870Y-72514821D01*
X158359412Y-72909645D01*
X158596837Y-73264977D01*
X158899023Y-73567163D01*
X159254355Y-73804588D01*
X159649179Y-73968130D01*
X160068323Y-74051503D01*
X160495677Y-74051503D01*
X160914821Y-73968130D01*
X161309645Y-73804588D01*
X161664977Y-73567163D01*
X161967163Y-73264977D01*
X162204588Y-72909645D01*
X162368130Y-72514821D01*
X162451503Y-72095677D01*
X162451503Y-71668323D01*
X162368130Y-71249179D01*
X162204588Y-70854355D01*
X161967163Y-70499023D01*
X161664977Y-70196837D01*
X161309645Y-69959412D01*
X160914821Y-69795870D01*
X160495677Y-69712497D01*
X160068323Y-69712497D01*
X159649179Y-69795870D01*
X159254355Y-69959412D01*
X158899023Y-70196837D01*
X158596837Y-70499023D01*
X158359412Y-70854355D01*
X158195870Y-71249179D01*
X158112497Y-71668323D01*
X155225511Y-71668323D01*
X155130767Y-71600161D01*
X154774122Y-71437760D01*
X154564890Y-71382925D01*
X154255000Y-71497647D01*
X154001000Y-71497647D01*
X153691110Y-71382925D01*
X153481878Y-71437760D01*
X153125233Y-71600161D01*
X152807124Y-71829020D01*
X152539775Y-72115541D01*
X152333461Y-72448714D01*
X152196110Y-72815735D01*
X152133000Y-73202500D01*
X146523000Y-73202500D01*
X146459890Y-72815735D01*
X146322539Y-72448714D01*
X146116225Y-72115541D01*
X145848876Y-71829020D01*
X145530767Y-71600161D01*
X145174122Y-71437760D01*
X144964890Y-71382925D01*
X144655000Y-71497647D01*
X144401000Y-71497647D01*
X144091110Y-71382925D01*
X143881878Y-71437760D01*
X143525233Y-71600161D01*
X143207124Y-71829020D01*
X142939775Y-72115541D01*
X142733461Y-72448714D01*
X142596110Y-72815735D01*
X142533000Y-73202500D01*
X140124836Y-73202500D01*
X140352588Y-72861645D01*
X140516130Y-72466821D01*
X140599503Y-72047677D01*
X140599503Y-71620323D01*
X140516130Y-71201179D01*
X140352588Y-70806355D01*
X140115163Y-70451023D01*
X139812977Y-70148837D01*
X139457645Y-69911412D01*
X139062821Y-69747870D01*
X138643677Y-69664497D01*
X138216323Y-69664497D01*
X137797179Y-69747870D01*
X137402355Y-69911412D01*
X137047023Y-70148837D01*
X136744837Y-70451023D01*
X136507412Y-70806355D01*
X136343870Y-71201179D01*
X136260497Y-71620323D01*
X134988000Y-71620323D01*
X134988000Y-68643100D01*
X163668000Y-68643100D01*
X163668001Y-116010000D01*
G36*
X136113363Y-93383259D02*
G01*
X136313241Y-93583137D01*
X136548273Y-93740180D01*
X136809426Y-93848353D01*
X137086665Y-93903500D01*
X137369335Y-93903500D01*
X137646574Y-93848353D01*
X137907727Y-93740180D01*
X138104260Y-93608861D01*
X140613253Y-96117854D01*
X140481708Y-96164897D01*
X140356486Y-96231829D01*
X140284903Y-96475798D01*
X141098000Y-97288895D01*
X141112143Y-97274753D01*
X141291748Y-97454358D01*
X141277605Y-97468500D01*
X142090702Y-98281597D01*
X142334671Y-98210014D01*
X142453750Y-97958352D01*
X144511823Y-100016425D01*
X144505832Y-100030888D01*
X144443000Y-100346767D01*
X144443000Y-100668833D01*
X144505832Y-100984712D01*
X144629082Y-101282263D01*
X144808013Y-101550052D01*
X144999661Y-101741700D01*
X141551072Y-101741700D01*
X141551072Y-100920000D01*
X141538812Y-100795518D01*
X141502502Y-100675820D01*
X141443537Y-100565506D01*
X141364185Y-100468815D01*
X141267494Y-100389463D01*
X141157180Y-100330498D01*
X141037482Y-100294188D01*
X140913000Y-100281928D01*
X137413000Y-100281928D01*
X137288518Y-100294188D01*
X137168820Y-100330498D01*
X137058506Y-100389463D01*
X136961815Y-100468815D01*
X136882463Y-100565506D01*
X136823498Y-100675820D01*
X136787188Y-100795518D01*
X136774928Y-100920000D01*
X136774928Y-101207126D01*
X135964200Y-100396399D01*
X135964200Y-98461202D01*
X136414903Y-98461202D01*
X136486486Y-98705171D01*
X136741996Y-98826071D01*
X137016184Y-98894800D01*
X137298512Y-98908717D01*
X137578130Y-98867287D01*
X137844292Y-98772103D01*
X137969514Y-98705171D01*
X138041097Y-98461202D01*
X140284903Y-98461202D01*
X140356486Y-98705171D01*
X140611996Y-98826071D01*
X140886184Y-98894800D01*
X141168512Y-98908717D01*
X141448130Y-98867287D01*
X141714292Y-98772103D01*
X141839514Y-98705171D01*
X141911097Y-98461202D01*
X141098000Y-97648105D01*
X140284903Y-98461202D01*
X138041097Y-98461202D01*
X137228000Y-97648105D01*
X136414903Y-98461202D01*
X135964200Y-98461202D01*
X135964200Y-98159259D01*
X135991329Y-98210014D01*
X136235298Y-98281597D01*
X137048395Y-97468500D01*
X137407605Y-97468500D01*
X138220702Y-98281597D01*
X138464671Y-98210014D01*
X138585571Y-97954504D01*
X138654300Y-97680316D01*
X138661265Y-97539012D01*
X139657783Y-97539012D01*
X139699213Y-97818630D01*
X139794397Y-98084792D01*
X139861329Y-98210014D01*
X140105298Y-98281597D01*
X140918395Y-97468500D01*
X140105298Y-96655403D01*
X139861329Y-96726986D01*
X139740429Y-96982496D01*
X139671700Y-97256684D01*
X139657783Y-97539012D01*
X138661265Y-97539012D01*
X138668217Y-97397988D01*
X138626787Y-97118370D01*
X138531603Y-96852208D01*
X138464671Y-96726986D01*
X138220702Y-96655403D01*
X137407605Y-97468500D01*
X137048395Y-97468500D01*
X136235298Y-96655403D01*
X135991329Y-96726986D01*
X135964200Y-96784320D01*
X135964200Y-96475798D01*
X136414903Y-96475798D01*
X137228000Y-97288895D01*
X138041097Y-96475798D01*
X137969514Y-96231829D01*
X137714004Y-96110929D01*
X137439816Y-96042200D01*
X137157488Y-96028283D01*
X136877870Y-96069713D01*
X136611708Y-96164897D01*
X136486486Y-96231829D01*
X136414903Y-96475798D01*
X135964200Y-96475798D01*
X135964200Y-93160020D01*
X136113363Y-93383259D01*
G37*
X136113363Y-93383259D02*
X136313241Y-93583137D01*
X136548273Y-93740180D01*
X136809426Y-93848353D01*
X137086665Y-93903500D01*
X137369335Y-93903500D01*
X137646574Y-93848353D01*
X137907727Y-93740180D01*
X138104260Y-93608861D01*
X140613253Y-96117854D01*
X140481708Y-96164897D01*
X140356486Y-96231829D01*
X140284903Y-96475798D01*
X141098000Y-97288895D01*
X141112143Y-97274753D01*
X141291748Y-97454358D01*
X141277605Y-97468500D01*
X142090702Y-98281597D01*
X142334671Y-98210014D01*
X142453750Y-97958352D01*
X144511823Y-100016425D01*
X144505832Y-100030888D01*
X144443000Y-100346767D01*
X144443000Y-100668833D01*
X144505832Y-100984712D01*
X144629082Y-101282263D01*
X144808013Y-101550052D01*
X144999661Y-101741700D01*
X141551072Y-101741700D01*
X141551072Y-100920000D01*
X141538812Y-100795518D01*
X141502502Y-100675820D01*
X141443537Y-100565506D01*
X141364185Y-100468815D01*
X141267494Y-100389463D01*
X141157180Y-100330498D01*
X141037482Y-100294188D01*
X140913000Y-100281928D01*
X137413000Y-100281928D01*
X137288518Y-100294188D01*
X137168820Y-100330498D01*
X137058506Y-100389463D01*
X136961815Y-100468815D01*
X136882463Y-100565506D01*
X136823498Y-100675820D01*
X136787188Y-100795518D01*
X136774928Y-100920000D01*
X136774928Y-101207126D01*
X135964200Y-100396399D01*
X135964200Y-98461202D01*
X136414903Y-98461202D01*
X136486486Y-98705171D01*
X136741996Y-98826071D01*
X137016184Y-98894800D01*
X137298512Y-98908717D01*
X137578130Y-98867287D01*
X137844292Y-98772103D01*
X137969514Y-98705171D01*
X138041097Y-98461202D01*
X140284903Y-98461202D01*
X140356486Y-98705171D01*
X140611996Y-98826071D01*
X140886184Y-98894800D01*
X141168512Y-98908717D01*
X141448130Y-98867287D01*
X141714292Y-98772103D01*
X141839514Y-98705171D01*
X141911097Y-98461202D01*
X141098000Y-97648105D01*
X140284903Y-98461202D01*
X138041097Y-98461202D01*
X137228000Y-97648105D01*
X136414903Y-98461202D01*
X135964200Y-98461202D01*
X135964200Y-98159259D01*
X135991329Y-98210014D01*
X136235298Y-98281597D01*
X137048395Y-97468500D01*
X137407605Y-97468500D01*
X138220702Y-98281597D01*
X138464671Y-98210014D01*
X138585571Y-97954504D01*
X138654300Y-97680316D01*
X138661265Y-97539012D01*
X139657783Y-97539012D01*
X139699213Y-97818630D01*
X139794397Y-98084792D01*
X139861329Y-98210014D01*
X140105298Y-98281597D01*
X140918395Y-97468500D01*
X140105298Y-96655403D01*
X139861329Y-96726986D01*
X139740429Y-96982496D01*
X139671700Y-97256684D01*
X139657783Y-97539012D01*
X138661265Y-97539012D01*
X138668217Y-97397988D01*
X138626787Y-97118370D01*
X138531603Y-96852208D01*
X138464671Y-96726986D01*
X138220702Y-96655403D01*
X137407605Y-97468500D01*
X137048395Y-97468500D01*
X136235298Y-96655403D01*
X135991329Y-96726986D01*
X135964200Y-96784320D01*
X135964200Y-96475798D01*
X136414903Y-96475798D01*
X137228000Y-97288895D01*
X138041097Y-96475798D01*
X137969514Y-96231829D01*
X137714004Y-96110929D01*
X137439816Y-96042200D01*
X137157488Y-96028283D01*
X136877870Y-96069713D01*
X136611708Y-96164897D01*
X136486486Y-96231829D01*
X136414903Y-96475798D01*
X135964200Y-96475798D01*
X135964200Y-93160020D01*
X136113363Y-93383259D01*
G36*
X144517747Y-83655426D02*
G01*
X144462600Y-83932665D01*
X144462600Y-84215335D01*
X144517747Y-84492574D01*
X144625920Y-84753727D01*
X144782963Y-84988759D01*
X144982841Y-85188637D01*
X145217873Y-85345680D01*
X145479026Y-85453853D01*
X145756265Y-85509000D01*
X146038935Y-85509000D01*
X146316174Y-85453853D01*
X146397725Y-85420074D01*
X144058799Y-87759000D01*
X140007572Y-87759000D01*
X140064825Y-87638799D01*
X140109476Y-87491590D01*
X139988155Y-87261700D01*
X138795000Y-87261700D01*
X138795000Y-87281700D01*
X138541000Y-87281700D01*
X138541000Y-87261700D01*
X138521000Y-87261700D01*
X138521000Y-87007700D01*
X138541000Y-87007700D01*
X138541000Y-86987700D01*
X138795000Y-86987700D01*
X138795000Y-87007700D01*
X139988155Y-87007700D01*
X140109476Y-86777810D01*
X140064825Y-86630601D01*
X139939641Y-86367780D01*
X139765588Y-86134431D01*
X139549355Y-85939522D01*
X139432466Y-85869895D01*
X139614632Y-85748175D01*
X139821475Y-85541332D01*
X139948909Y-85350613D01*
X140019067Y-85343703D01*
X140162328Y-85300246D01*
X140294357Y-85229674D01*
X140410082Y-85134701D01*
X140433885Y-85105697D01*
X142000983Y-83538600D01*
X144566138Y-83538600D01*
X144517747Y-83655426D01*
G37*
X144517747Y-83655426D02*
X144462600Y-83932665D01*
X144462600Y-84215335D01*
X144517747Y-84492574D01*
X144625920Y-84753727D01*
X144782963Y-84988759D01*
X144982841Y-85188637D01*
X145217873Y-85345680D01*
X145479026Y-85453853D01*
X145756265Y-85509000D01*
X146038935Y-85509000D01*
X146316174Y-85453853D01*
X146397725Y-85420074D01*
X144058799Y-87759000D01*
X140007572Y-87759000D01*
X140064825Y-87638799D01*
X140109476Y-87491590D01*
X139988155Y-87261700D01*
X138795000Y-87261700D01*
X138795000Y-87281700D01*
X138541000Y-87281700D01*
X138541000Y-87261700D01*
X138521000Y-87261700D01*
X138521000Y-87007700D01*
X138541000Y-87007700D01*
X138541000Y-86987700D01*
X138795000Y-86987700D01*
X138795000Y-87007700D01*
X139988155Y-87007700D01*
X140109476Y-86777810D01*
X140064825Y-86630601D01*
X139939641Y-86367780D01*
X139765588Y-86134431D01*
X139549355Y-85939522D01*
X139432466Y-85869895D01*
X139614632Y-85748175D01*
X139821475Y-85541332D01*
X139948909Y-85350613D01*
X140019067Y-85343703D01*
X140162328Y-85300246D01*
X140294357Y-85229674D01*
X140410082Y-85134701D01*
X140433885Y-85105697D01*
X142000983Y-83538600D01*
X144566138Y-83538600D01*
X144517747Y-83655426D01*
M02*
