G04 #@! TF.GenerationSoftware,KiCad,Pcbnew,5.1.5-52549c5~86~ubuntu19.04.1*
G04 #@! TF.CreationDate,2020-05-05T22:35:55+02:00*
G04 #@! TF.ProjectId,NotSoTinyDimmer,4e6f7453-6f54-4696-9e79-44696d6d6572,1.3.3*
G04 #@! TF.SameCoordinates,Original*
G04 #@! TF.FileFunction,Copper,L1,Top*
G04 #@! TF.FilePolarity,Positive*
%FSLAX46Y46*%
G04 Gerber Fmt 4.6, Leading zero omitted, Abs format (unit mm)*
G04 Created by KiCad (PCBNEW 5.1.5-52549c5~86~ubuntu19.04.1) date 2020-05-05 22:35:55*
%MOMM*%
%LPD*%
G04 APERTURE LIST*
%ADD10C,2.100000*%
%ADD11R,2.100000X2.100000*%
%ADD12O,1.400000X1.400000*%
%ADD13C,1.400000*%
%ADD14C,2.000000*%
%ADD15R,2.000000X2.000000*%
%ADD16C,1.600000*%
%ADD17R,1.600000X1.600000*%
%ADD18R,1.800000X1.800000*%
%ADD19C,1.800000*%
%ADD20O,2.720000X3.240000*%
%ADD21O,1.700000X1.700000*%
%ADD22R,1.700000X1.700000*%
%ADD23C,0.250000*%
%ADD24C,0.254000*%
G04 APERTURE END LIST*
D10*
X145313400Y-112920000D03*
D11*
X142773400Y-112920000D03*
D10*
X138995000Y-112920000D03*
D11*
X136455000Y-112920000D03*
D12*
X156768800Y-80924400D03*
D13*
X161848800Y-80924400D03*
D12*
X160782000Y-83362800D03*
D13*
X160782000Y-88442800D03*
D12*
X157734000Y-83464400D03*
D13*
X157734000Y-88544400D03*
D14*
X160172400Y-105003600D03*
X160172400Y-102463600D03*
D15*
X160172400Y-99923600D03*
X148132800Y-105410000D03*
D14*
X150672800Y-105410000D03*
X153212800Y-105410000D03*
D15*
X137312400Y-105410000D03*
D14*
X139852400Y-105410000D03*
X142392400Y-105410000D03*
D11*
X149123400Y-112920000D03*
D10*
X151663400Y-112920000D03*
X154203400Y-112920000D03*
X156743400Y-112920000D03*
D16*
X141274800Y-97468500D03*
X141274800Y-92468500D03*
X137403000Y-97468500D03*
X137403000Y-92468500D03*
D17*
X161290000Y-110845600D03*
D16*
X161290000Y-112845600D03*
D12*
X160782000Y-90632500D03*
D13*
X160782000Y-95712500D03*
D12*
X157734000Y-90632500D03*
D13*
X157734000Y-95712500D03*
D18*
X151828000Y-81089500D03*
D19*
X149328000Y-81089500D03*
X146828000Y-81089500D03*
D20*
X144528000Y-73589500D03*
X154128000Y-73589500D03*
D17*
X145897600Y-91694000D03*
D16*
X148437600Y-91694000D03*
X150977600Y-91694000D03*
X153517600Y-91694000D03*
X153517600Y-84074000D03*
X150977600Y-84074000D03*
X148437600Y-84074000D03*
X145897600Y-84074000D03*
D21*
X138668000Y-87134700D03*
X136128000Y-87134700D03*
X138668000Y-84594700D03*
X136128000Y-84594700D03*
X138668000Y-82054700D03*
D22*
X136128000Y-82054700D03*
D14*
X146078000Y-96007800D03*
X146078000Y-100507800D03*
X152578000Y-96007800D03*
X152578000Y-100507800D03*
D23*
X152978000Y-81089500D02*
X155479900Y-78587600D01*
X151828000Y-81089500D02*
X152978000Y-81089500D01*
X161798000Y-78587600D02*
X163830000Y-80619600D01*
X155479900Y-78587600D02*
X161798000Y-78587600D01*
X163830000Y-92664500D02*
X160782000Y-95712500D01*
X163830000Y-80619600D02*
X163830000Y-92664500D01*
X135255000Y-94616500D02*
X137403000Y-92468500D01*
X163068000Y-97998500D02*
X160782000Y-95712500D01*
X162340000Y-110845600D02*
X161290000Y-110845600D01*
X163068000Y-110117600D02*
X162340000Y-110845600D01*
X163068000Y-97998500D02*
X163068000Y-110117600D01*
X162340000Y-110845600D02*
X163093400Y-111599000D01*
X163093400Y-111599000D02*
X163093400Y-113715800D01*
X163093400Y-113715800D02*
X161747200Y-115062000D01*
X137297000Y-115062000D02*
X136455000Y-114220000D01*
X136455000Y-114220000D02*
X136455000Y-112920000D01*
X161747200Y-115062000D02*
X137297000Y-115062000D01*
X135255000Y-110420000D02*
X135255000Y-94616500D01*
X136455000Y-111620000D02*
X135255000Y-110420000D01*
X136455000Y-112920000D02*
X136455000Y-111620000D01*
X151163787Y-100507800D02*
X146078000Y-100507800D01*
X152578000Y-100507800D02*
X151163787Y-100507800D01*
X146078000Y-100507800D02*
X143916400Y-98346200D01*
X143916400Y-95110100D02*
X141274800Y-92468500D01*
X143916400Y-98346200D02*
X143916400Y-95110100D01*
X152938700Y-100507800D02*
X152578000Y-100507800D01*
X157734000Y-95712500D02*
X152938700Y-100507800D01*
X153517600Y-84074000D02*
X152133300Y-82689700D01*
X140573000Y-82689700D02*
X138668000Y-84594700D01*
X152133300Y-82689700D02*
X140573000Y-82689700D01*
X154127200Y-83464400D02*
X153517600Y-84074000D01*
X157734000Y-83464400D02*
X154127200Y-83464400D01*
X160782000Y-83362800D02*
X158292800Y-85852000D01*
X152755600Y-85852000D02*
X150977600Y-84074000D01*
X158292800Y-85852000D02*
X152755600Y-85852000D01*
X157734000Y-90632500D02*
X154940000Y-93426500D01*
X154940000Y-93426500D02*
X150678100Y-93426500D01*
X150678100Y-93426500D02*
X149656800Y-92405200D01*
X149656800Y-85293200D02*
X148437600Y-84074000D01*
X149656800Y-92405200D02*
X149656800Y-85293200D01*
X136977999Y-86284701D02*
X136128000Y-87134700D01*
X137303001Y-85959699D02*
X136977999Y-86284701D01*
X141213299Y-85959699D02*
X137303001Y-85959699D01*
X145897600Y-90644000D02*
X141213299Y-85959699D01*
X145897600Y-91694000D02*
X145897600Y-90644000D01*
X160782000Y-90632500D02*
X157180500Y-94234000D01*
X145897600Y-92744000D02*
X145897600Y-91694000D01*
X147387600Y-94234000D02*
X145897600Y-92744000D01*
X157180500Y-94234000D02*
X147387600Y-94234000D01*
X156768800Y-80924400D02*
X160172400Y-80924400D01*
X160172400Y-80924400D02*
X162306000Y-83058000D01*
X162306000Y-83058000D02*
X162306000Y-83820000D01*
X162306000Y-83820000D02*
X159258000Y-86868000D01*
X155803600Y-86868000D02*
X150977600Y-91694000D01*
X159258000Y-86868000D02*
X155803600Y-86868000D01*
X148864000Y-103428800D02*
X148132800Y-104160000D01*
X152704800Y-103428800D02*
X148864000Y-103428800D01*
X148132800Y-104160000D02*
X148132800Y-105410000D01*
X162458400Y-90119200D02*
X162458400Y-91186000D01*
X160782000Y-88442800D02*
X162458400Y-90119200D01*
X162458400Y-91186000D02*
X158847399Y-94797001D01*
X158847399Y-94797001D02*
X158847399Y-97286201D01*
X158847399Y-97286201D02*
X152704800Y-103428800D01*
X161848800Y-80924400D02*
X163169600Y-82245200D01*
X160046810Y-94742000D02*
X163169600Y-91619210D01*
X163169600Y-91619210D02*
X163169600Y-82245200D01*
X160046810Y-94742000D02*
X159613600Y-95175210D01*
X159613600Y-98114800D02*
X160172400Y-98673600D01*
X160172400Y-98673600D02*
X160172400Y-99923600D01*
X159613600Y-95175210D02*
X159613600Y-98114800D01*
X142773400Y-111620000D02*
X143395400Y-110998000D01*
X142773400Y-112920000D02*
X142773400Y-111620000D01*
X148501400Y-110998000D02*
X149123400Y-111620000D01*
X149123400Y-111620000D02*
X149123400Y-112920000D01*
X143395400Y-110998000D02*
X148501400Y-110998000D01*
X156743400Y-105892600D02*
X160172400Y-102463600D01*
X156743400Y-112920000D02*
X156743400Y-105892600D01*
X154203400Y-108940600D02*
X150672800Y-105410000D01*
X154203400Y-112920000D02*
X154203400Y-108940600D01*
X139852400Y-105410000D02*
X144653000Y-110210600D01*
X151663400Y-111435076D02*
X151663400Y-112920000D01*
X150438924Y-110210600D02*
X151663400Y-111435076D01*
X144653000Y-110210600D02*
X150438924Y-110210600D01*
D24*
G36*
X147435328Y-111870000D02*
G01*
X147435328Y-113970000D01*
X147447588Y-114094482D01*
X147483898Y-114214180D01*
X147530840Y-114302000D01*
X146225187Y-114302000D01*
X146304861Y-114091066D01*
X145313400Y-113099605D01*
X145299258Y-113113748D01*
X145119653Y-112934143D01*
X145133795Y-112920000D01*
X145119653Y-112905858D01*
X145299258Y-112726253D01*
X145313400Y-112740395D01*
X145327543Y-112726253D01*
X145507148Y-112905858D01*
X145493005Y-112920000D01*
X146484466Y-113911461D01*
X146753979Y-113809661D01*
X146899863Y-113511523D01*
X146984780Y-113190654D01*
X147005466Y-112859383D01*
X146961128Y-112530443D01*
X146853469Y-112216473D01*
X146753979Y-112030339D01*
X146484468Y-111928540D01*
X146600009Y-111812999D01*
X146545010Y-111758000D01*
X147446359Y-111758000D01*
X147435328Y-111870000D01*
G37*
X147435328Y-111870000D02*
X147435328Y-113970000D01*
X147447588Y-114094482D01*
X147483898Y-114214180D01*
X147530840Y-114302000D01*
X146225187Y-114302000D01*
X146304861Y-114091066D01*
X145313400Y-113099605D01*
X145299258Y-113113748D01*
X145119653Y-112934143D01*
X145133795Y-112920000D01*
X145119653Y-112905858D01*
X145299258Y-112726253D01*
X145313400Y-112740395D01*
X145327543Y-112726253D01*
X145507148Y-112905858D01*
X145493005Y-112920000D01*
X146484466Y-113911461D01*
X146753979Y-113809661D01*
X146899863Y-113511523D01*
X146984780Y-113190654D01*
X147005466Y-112859383D01*
X146961128Y-112530443D01*
X146853469Y-112216473D01*
X146753979Y-112030339D01*
X146484468Y-111928540D01*
X146600009Y-111812999D01*
X146545010Y-111758000D01*
X147446359Y-111758000D01*
X147435328Y-111870000D01*
G36*
X157671823Y-109685963D02*
G01*
X158027155Y-109923388D01*
X158421979Y-110086930D01*
X158841123Y-110170303D01*
X159268477Y-110170303D01*
X159687621Y-110086930D01*
X159854672Y-110017735D01*
X159851928Y-110045600D01*
X159851928Y-111645600D01*
X159864188Y-111770082D01*
X159900498Y-111889780D01*
X159959463Y-112000094D01*
X160038815Y-112096785D01*
X160051758Y-112107407D01*
X159932429Y-112359596D01*
X159863700Y-112633784D01*
X159849783Y-112916112D01*
X159891213Y-113195730D01*
X159986397Y-113461892D01*
X160053329Y-113587114D01*
X160297298Y-113658697D01*
X161110395Y-112845600D01*
X161096253Y-112831458D01*
X161275858Y-112651853D01*
X161290000Y-112665995D01*
X161304143Y-112651853D01*
X161483748Y-112831458D01*
X161469605Y-112845600D01*
X161483748Y-112859743D01*
X161304143Y-113039348D01*
X161290000Y-113025205D01*
X160476903Y-113838302D01*
X160548486Y-114082271D01*
X160803996Y-114203171D01*
X161078184Y-114271900D01*
X161360512Y-114285817D01*
X161463901Y-114270498D01*
X161432399Y-114302000D01*
X157708011Y-114302000D01*
X157817525Y-114228825D01*
X158052225Y-113994125D01*
X158236628Y-113718147D01*
X158363646Y-113411496D01*
X158428400Y-113085958D01*
X158428400Y-112754042D01*
X158363646Y-112428504D01*
X158236628Y-112121853D01*
X158052225Y-111845875D01*
X157817525Y-111611175D01*
X157541547Y-111426772D01*
X157503400Y-111410971D01*
X157503400Y-109517540D01*
X157671823Y-109685963D01*
G37*
X157671823Y-109685963D02*
X158027155Y-109923388D01*
X158421979Y-110086930D01*
X158841123Y-110170303D01*
X159268477Y-110170303D01*
X159687621Y-110086930D01*
X159854672Y-110017735D01*
X159851928Y-110045600D01*
X159851928Y-111645600D01*
X159864188Y-111770082D01*
X159900498Y-111889780D01*
X159959463Y-112000094D01*
X160038815Y-112096785D01*
X160051758Y-112107407D01*
X159932429Y-112359596D01*
X159863700Y-112633784D01*
X159849783Y-112916112D01*
X159891213Y-113195730D01*
X159986397Y-113461892D01*
X160053329Y-113587114D01*
X160297298Y-113658697D01*
X161110395Y-112845600D01*
X161096253Y-112831458D01*
X161275858Y-112651853D01*
X161290000Y-112665995D01*
X161304143Y-112651853D01*
X161483748Y-112831458D01*
X161469605Y-112845600D01*
X161483748Y-112859743D01*
X161304143Y-113039348D01*
X161290000Y-113025205D01*
X160476903Y-113838302D01*
X160548486Y-114082271D01*
X160803996Y-114203171D01*
X161078184Y-114271900D01*
X161360512Y-114285817D01*
X161463901Y-114270498D01*
X161432399Y-114302000D01*
X157708011Y-114302000D01*
X157817525Y-114228825D01*
X158052225Y-113994125D01*
X158236628Y-113718147D01*
X158363646Y-113411496D01*
X158428400Y-113085958D01*
X158428400Y-112754042D01*
X158363646Y-112428504D01*
X158236628Y-112121853D01*
X158052225Y-111845875D01*
X157817525Y-111611175D01*
X157541547Y-111426772D01*
X157503400Y-111410971D01*
X157503400Y-109517540D01*
X157671823Y-109685963D01*
G36*
X139077937Y-106858918D02*
G01*
X139375488Y-106982168D01*
X139691367Y-107045000D01*
X140013433Y-107045000D01*
X140329312Y-106982168D01*
X140343776Y-106976177D01*
X143605598Y-110238000D01*
X143432723Y-110238000D01*
X143395400Y-110234324D01*
X143358077Y-110238000D01*
X143358067Y-110238000D01*
X143246414Y-110248997D01*
X143103153Y-110292454D01*
X142971124Y-110363026D01*
X142855399Y-110457999D01*
X142831600Y-110486998D01*
X142262398Y-111056201D01*
X142233400Y-111079999D01*
X142209602Y-111108997D01*
X142209601Y-111108998D01*
X142138426Y-111195724D01*
X142119074Y-111231928D01*
X141723400Y-111231928D01*
X141598918Y-111244188D01*
X141479220Y-111280498D01*
X141368906Y-111339463D01*
X141272215Y-111418815D01*
X141192863Y-111515506D01*
X141133898Y-111625820D01*
X141097588Y-111745518D01*
X141085328Y-111870000D01*
X141085328Y-113970000D01*
X141097588Y-114094482D01*
X141133898Y-114214180D01*
X141180840Y-114302000D01*
X139906787Y-114302000D01*
X139986461Y-114091066D01*
X138995000Y-113099605D01*
X138980858Y-113113748D01*
X138801253Y-112934143D01*
X138815395Y-112920000D01*
X139174605Y-112920000D01*
X140166066Y-113911461D01*
X140435579Y-113809661D01*
X140581463Y-113511523D01*
X140666380Y-113190654D01*
X140687066Y-112859383D01*
X140642728Y-112530443D01*
X140535069Y-112216473D01*
X140435579Y-112030339D01*
X140166066Y-111928539D01*
X139174605Y-112920000D01*
X138815395Y-112920000D01*
X138801253Y-112905858D01*
X138980858Y-112726253D01*
X138995000Y-112740395D01*
X139986461Y-111748934D01*
X139884661Y-111479421D01*
X139586523Y-111333537D01*
X139265654Y-111248620D01*
X138934383Y-111227934D01*
X138605443Y-111272272D01*
X138291473Y-111379931D01*
X138105339Y-111479421D01*
X138068451Y-111577082D01*
X138035537Y-111515506D01*
X137956185Y-111418815D01*
X137859494Y-111339463D01*
X137749180Y-111280498D01*
X137629482Y-111244188D01*
X137505000Y-111231928D01*
X137109326Y-111231928D01*
X137089974Y-111195724D01*
X136995001Y-111079999D01*
X136966003Y-111056201D01*
X136015000Y-110105199D01*
X136015000Y-106971055D01*
X136068220Y-106999502D01*
X136187918Y-107035812D01*
X136312400Y-107048072D01*
X138312400Y-107048072D01*
X138436882Y-107035812D01*
X138556580Y-106999502D01*
X138666894Y-106940537D01*
X138763585Y-106861185D01*
X138842937Y-106764494D01*
X138867591Y-106718370D01*
X139077937Y-106858918D01*
G37*
X139077937Y-106858918D02*
X139375488Y-106982168D01*
X139691367Y-107045000D01*
X140013433Y-107045000D01*
X140329312Y-106982168D01*
X140343776Y-106976177D01*
X143605598Y-110238000D01*
X143432723Y-110238000D01*
X143395400Y-110234324D01*
X143358077Y-110238000D01*
X143358067Y-110238000D01*
X143246414Y-110248997D01*
X143103153Y-110292454D01*
X142971124Y-110363026D01*
X142855399Y-110457999D01*
X142831600Y-110486998D01*
X142262398Y-111056201D01*
X142233400Y-111079999D01*
X142209602Y-111108997D01*
X142209601Y-111108998D01*
X142138426Y-111195724D01*
X142119074Y-111231928D01*
X141723400Y-111231928D01*
X141598918Y-111244188D01*
X141479220Y-111280498D01*
X141368906Y-111339463D01*
X141272215Y-111418815D01*
X141192863Y-111515506D01*
X141133898Y-111625820D01*
X141097588Y-111745518D01*
X141085328Y-111870000D01*
X141085328Y-113970000D01*
X141097588Y-114094482D01*
X141133898Y-114214180D01*
X141180840Y-114302000D01*
X139906787Y-114302000D01*
X139986461Y-114091066D01*
X138995000Y-113099605D01*
X138980858Y-113113748D01*
X138801253Y-112934143D01*
X138815395Y-112920000D01*
X139174605Y-112920000D01*
X140166066Y-113911461D01*
X140435579Y-113809661D01*
X140581463Y-113511523D01*
X140666380Y-113190654D01*
X140687066Y-112859383D01*
X140642728Y-112530443D01*
X140535069Y-112216473D01*
X140435579Y-112030339D01*
X140166066Y-111928539D01*
X139174605Y-112920000D01*
X138815395Y-112920000D01*
X138801253Y-112905858D01*
X138980858Y-112726253D01*
X138995000Y-112740395D01*
X139986461Y-111748934D01*
X139884661Y-111479421D01*
X139586523Y-111333537D01*
X139265654Y-111248620D01*
X138934383Y-111227934D01*
X138605443Y-111272272D01*
X138291473Y-111379931D01*
X138105339Y-111479421D01*
X138068451Y-111577082D01*
X138035537Y-111515506D01*
X137956185Y-111418815D01*
X137859494Y-111339463D01*
X137749180Y-111280498D01*
X137629482Y-111244188D01*
X137505000Y-111231928D01*
X137109326Y-111231928D01*
X137089974Y-111195724D01*
X136995001Y-111079999D01*
X136966003Y-111056201D01*
X136015000Y-110105199D01*
X136015000Y-106971055D01*
X136068220Y-106999502D01*
X136187918Y-107035812D01*
X136312400Y-107048072D01*
X138312400Y-107048072D01*
X138436882Y-107035812D01*
X138556580Y-106999502D01*
X138666894Y-106940537D01*
X138763585Y-106861185D01*
X138842937Y-106764494D01*
X138867591Y-106718370D01*
X139077937Y-106858918D01*
G36*
X144635235Y-90456437D02*
G01*
X144567063Y-90539506D01*
X144508098Y-90649820D01*
X144471788Y-90769518D01*
X144459528Y-90894000D01*
X144459528Y-92494000D01*
X144471788Y-92618482D01*
X144508098Y-92738180D01*
X144567063Y-92848494D01*
X144646415Y-92945185D01*
X144743106Y-93024537D01*
X144853420Y-93083502D01*
X144973118Y-93119812D01*
X145097600Y-93132072D01*
X145243274Y-93132072D01*
X145262626Y-93168276D01*
X145302471Y-93216826D01*
X145357599Y-93284001D01*
X145386603Y-93307804D01*
X146509458Y-94430660D01*
X146336892Y-94385416D01*
X146015405Y-94366082D01*
X145696325Y-94409839D01*
X145391912Y-94515005D01*
X145217956Y-94607986D01*
X145122192Y-94872387D01*
X146078000Y-95828195D01*
X146092143Y-95814053D01*
X146271748Y-95993658D01*
X146257605Y-96007800D01*
X147213413Y-96963608D01*
X147477814Y-96867844D01*
X147618704Y-96578229D01*
X147700384Y-96266692D01*
X147719718Y-95945205D01*
X147675961Y-95626125D01*
X147570795Y-95321712D01*
X147477814Y-95147756D01*
X147213415Y-95051993D01*
X147278479Y-94986929D01*
X147350267Y-94994000D01*
X147350276Y-94994000D01*
X147387599Y-94997676D01*
X147424922Y-94994000D01*
X151384592Y-94994000D01*
X151442585Y-95051993D01*
X151178186Y-95147756D01*
X151037296Y-95437371D01*
X150955616Y-95748908D01*
X150936282Y-96070395D01*
X150980039Y-96389475D01*
X151085205Y-96693888D01*
X151178186Y-96867844D01*
X151442587Y-96963608D01*
X152398395Y-96007800D01*
X152384253Y-95993658D01*
X152563858Y-95814053D01*
X152578000Y-95828195D01*
X152592143Y-95814053D01*
X152771748Y-95993658D01*
X152757605Y-96007800D01*
X153713413Y-96963608D01*
X153977814Y-96867844D01*
X154118704Y-96578229D01*
X154200384Y-96266692D01*
X154219718Y-95945205D01*
X154175961Y-95626125D01*
X154070795Y-95321712D01*
X153977814Y-95147756D01*
X153713415Y-95051993D01*
X153771408Y-94994000D01*
X156608496Y-94994000D01*
X156550939Y-95080141D01*
X156450304Y-95323095D01*
X156399000Y-95581014D01*
X156399000Y-95843986D01*
X156420355Y-95951343D01*
X153324429Y-99047270D01*
X153054912Y-98935632D01*
X152739033Y-98872800D01*
X152416967Y-98872800D01*
X152101088Y-98935632D01*
X151803537Y-99058882D01*
X151535748Y-99237813D01*
X151308013Y-99465548D01*
X151129082Y-99733337D01*
X151123091Y-99747800D01*
X147532909Y-99747800D01*
X147526918Y-99733337D01*
X147347987Y-99465548D01*
X147120252Y-99237813D01*
X146852463Y-99058882D01*
X146554912Y-98935632D01*
X146239033Y-98872800D01*
X145916967Y-98872800D01*
X145601088Y-98935632D01*
X145586625Y-98941623D01*
X144676400Y-98031399D01*
X144676400Y-97143213D01*
X145122192Y-97143213D01*
X145217956Y-97407614D01*
X145507571Y-97548504D01*
X145819108Y-97630184D01*
X146140595Y-97649518D01*
X146459675Y-97605761D01*
X146764088Y-97500595D01*
X146938044Y-97407614D01*
X147033808Y-97143213D01*
X151622192Y-97143213D01*
X151717956Y-97407614D01*
X152007571Y-97548504D01*
X152319108Y-97630184D01*
X152640595Y-97649518D01*
X152959675Y-97605761D01*
X153264088Y-97500595D01*
X153438044Y-97407614D01*
X153533808Y-97143213D01*
X152578000Y-96187405D01*
X151622192Y-97143213D01*
X147033808Y-97143213D01*
X146078000Y-96187405D01*
X145122192Y-97143213D01*
X144676400Y-97143213D01*
X144676400Y-96864503D01*
X144678186Y-96867844D01*
X144942587Y-96963608D01*
X145898395Y-96007800D01*
X144942587Y-95051992D01*
X144678186Y-95147756D01*
X144676400Y-95151427D01*
X144676400Y-95147433D01*
X144680077Y-95110100D01*
X144665403Y-94961114D01*
X144621946Y-94817853D01*
X144551374Y-94685824D01*
X144456401Y-94570099D01*
X144427403Y-94546301D01*
X142673488Y-92792386D01*
X142709800Y-92609835D01*
X142709800Y-92327165D01*
X142654653Y-92049926D01*
X142546480Y-91788773D01*
X142389437Y-91553741D01*
X142189559Y-91353863D01*
X141954527Y-91196820D01*
X141693374Y-91088647D01*
X141416135Y-91033500D01*
X141133465Y-91033500D01*
X140856226Y-91088647D01*
X140595073Y-91196820D01*
X140360041Y-91353863D01*
X140160163Y-91553741D01*
X140003120Y-91788773D01*
X139894947Y-92049926D01*
X139839800Y-92327165D01*
X139839800Y-92609835D01*
X139894947Y-92887074D01*
X140003120Y-93148227D01*
X140160163Y-93383259D01*
X140360041Y-93583137D01*
X140595073Y-93740180D01*
X140856226Y-93848353D01*
X141133465Y-93903500D01*
X141416135Y-93903500D01*
X141598686Y-93867188D01*
X143156401Y-95424903D01*
X143156400Y-98308877D01*
X143152724Y-98346200D01*
X143156400Y-98383522D01*
X143156400Y-98383532D01*
X143167397Y-98495185D01*
X143210193Y-98636267D01*
X143210854Y-98638446D01*
X143281426Y-98770476D01*
X143304932Y-98799118D01*
X143376399Y-98886201D01*
X143405403Y-98910004D01*
X144511823Y-100016425D01*
X144505832Y-100030888D01*
X144443000Y-100346767D01*
X144443000Y-100668833D01*
X144505832Y-100984712D01*
X144629082Y-101282263D01*
X144808013Y-101550052D01*
X145035748Y-101777787D01*
X145303537Y-101956718D01*
X145601088Y-102079968D01*
X145916967Y-102142800D01*
X146239033Y-102142800D01*
X146554912Y-102079968D01*
X146852463Y-101956718D01*
X147120252Y-101777787D01*
X147347987Y-101550052D01*
X147526918Y-101282263D01*
X147532909Y-101267800D01*
X151123091Y-101267800D01*
X151129082Y-101282263D01*
X151308013Y-101550052D01*
X151535748Y-101777787D01*
X151803537Y-101956718D01*
X152101088Y-102079968D01*
X152416967Y-102142800D01*
X152739033Y-102142800D01*
X152959940Y-102098859D01*
X152389999Y-102668800D01*
X148901323Y-102668800D01*
X148864000Y-102665124D01*
X148826677Y-102668800D01*
X148826667Y-102668800D01*
X148715014Y-102679797D01*
X148571753Y-102723254D01*
X148439723Y-102793826D01*
X148356083Y-102862468D01*
X148323999Y-102888799D01*
X148300201Y-102917798D01*
X147621802Y-103596197D01*
X147592799Y-103619999D01*
X147537671Y-103687174D01*
X147497826Y-103735724D01*
X147478474Y-103771928D01*
X147132800Y-103771928D01*
X147008318Y-103784188D01*
X146888620Y-103820498D01*
X146778306Y-103879463D01*
X146681615Y-103958815D01*
X146602263Y-104055506D01*
X146543298Y-104165820D01*
X146506988Y-104285518D01*
X146494728Y-104410000D01*
X146494728Y-106410000D01*
X146506988Y-106534482D01*
X146543298Y-106654180D01*
X146602263Y-106764494D01*
X146681615Y-106861185D01*
X146778306Y-106940537D01*
X146888620Y-106999502D01*
X147008318Y-107035812D01*
X147132800Y-107048072D01*
X149132800Y-107048072D01*
X149257282Y-107035812D01*
X149376980Y-106999502D01*
X149487294Y-106940537D01*
X149583985Y-106861185D01*
X149663337Y-106764494D01*
X149687991Y-106718370D01*
X149898337Y-106858918D01*
X150195888Y-106982168D01*
X150511767Y-107045000D01*
X150833833Y-107045000D01*
X151149712Y-106982168D01*
X151164175Y-106976177D01*
X153443401Y-109255404D01*
X153443400Y-111410971D01*
X153405253Y-111426772D01*
X153129275Y-111611175D01*
X152933400Y-111807050D01*
X152737525Y-111611175D01*
X152461547Y-111426772D01*
X152424758Y-111411534D01*
X152412403Y-111286090D01*
X152368946Y-111142829D01*
X152298374Y-111010800D01*
X152256358Y-110959603D01*
X152203401Y-110895075D01*
X152174404Y-110871278D01*
X151002728Y-109699603D01*
X150978925Y-109670599D01*
X150863200Y-109575626D01*
X150731171Y-109505054D01*
X150587910Y-109461597D01*
X150476257Y-109450600D01*
X150476246Y-109450600D01*
X150438924Y-109446924D01*
X150401602Y-109450600D01*
X144967802Y-109450600D01*
X142555181Y-107037979D01*
X142774075Y-107007961D01*
X143078488Y-106902795D01*
X143252444Y-106809814D01*
X143348208Y-106545413D01*
X142392400Y-105589605D01*
X142378258Y-105603748D01*
X142198653Y-105424143D01*
X142212795Y-105410000D01*
X142572005Y-105410000D01*
X143527813Y-106365808D01*
X143792214Y-106270044D01*
X143933104Y-105980429D01*
X144014784Y-105668892D01*
X144034118Y-105347405D01*
X143990361Y-105028325D01*
X143885195Y-104723912D01*
X143792214Y-104549956D01*
X143527813Y-104454192D01*
X142572005Y-105410000D01*
X142212795Y-105410000D01*
X141256987Y-104454192D01*
X141195120Y-104476600D01*
X141122387Y-104367748D01*
X141029226Y-104274587D01*
X141436592Y-104274587D01*
X142392400Y-105230395D01*
X143348208Y-104274587D01*
X143252444Y-104010186D01*
X142962829Y-103869296D01*
X142651292Y-103787616D01*
X142329805Y-103768282D01*
X142010725Y-103812039D01*
X141706312Y-103917205D01*
X141532356Y-104010186D01*
X141436592Y-104274587D01*
X141029226Y-104274587D01*
X140894652Y-104140013D01*
X140626863Y-103961082D01*
X140329312Y-103837832D01*
X140013433Y-103775000D01*
X139691367Y-103775000D01*
X139375488Y-103837832D01*
X139077937Y-103961082D01*
X138867591Y-104101630D01*
X138842937Y-104055506D01*
X138763585Y-103958815D01*
X138666894Y-103879463D01*
X138556580Y-103820498D01*
X138436882Y-103784188D01*
X138312400Y-103771928D01*
X136312400Y-103771928D01*
X136187918Y-103784188D01*
X136068220Y-103820498D01*
X136015000Y-103848945D01*
X136015000Y-101535140D01*
X138119282Y-101535140D01*
X138119282Y-101766460D01*
X138164410Y-101993336D01*
X138252933Y-102207048D01*
X138381448Y-102399384D01*
X138545016Y-102562952D01*
X138737352Y-102691467D01*
X138951064Y-102779990D01*
X139177940Y-102825118D01*
X139409260Y-102825118D01*
X139636136Y-102779990D01*
X139849848Y-102691467D01*
X140042184Y-102562952D01*
X140205752Y-102399384D01*
X140334267Y-102207048D01*
X140422790Y-101993336D01*
X140467918Y-101766460D01*
X140467918Y-101535140D01*
X140422790Y-101308264D01*
X140334267Y-101094552D01*
X140205752Y-100902216D01*
X140042184Y-100738648D01*
X139849848Y-100610133D01*
X139636136Y-100521610D01*
X139409260Y-100476482D01*
X139177940Y-100476482D01*
X138951064Y-100521610D01*
X138737352Y-100610133D01*
X138545016Y-100738648D01*
X138381448Y-100902216D01*
X138252933Y-101094552D01*
X138164410Y-101308264D01*
X138119282Y-101535140D01*
X136015000Y-101535140D01*
X136015000Y-98461202D01*
X136589903Y-98461202D01*
X136661486Y-98705171D01*
X136916996Y-98826071D01*
X137191184Y-98894800D01*
X137473512Y-98908717D01*
X137753130Y-98867287D01*
X138019292Y-98772103D01*
X138144514Y-98705171D01*
X138216097Y-98461202D01*
X140461703Y-98461202D01*
X140533286Y-98705171D01*
X140788796Y-98826071D01*
X141062984Y-98894800D01*
X141345312Y-98908717D01*
X141624930Y-98867287D01*
X141891092Y-98772103D01*
X142016314Y-98705171D01*
X142087897Y-98461202D01*
X141274800Y-97648105D01*
X140461703Y-98461202D01*
X138216097Y-98461202D01*
X137403000Y-97648105D01*
X136589903Y-98461202D01*
X136015000Y-98461202D01*
X136015000Y-97848794D01*
X136099397Y-98084792D01*
X136166329Y-98210014D01*
X136410298Y-98281597D01*
X137223395Y-97468500D01*
X137582605Y-97468500D01*
X138395702Y-98281597D01*
X138639671Y-98210014D01*
X138760571Y-97954504D01*
X138829300Y-97680316D01*
X138836265Y-97539012D01*
X139834583Y-97539012D01*
X139876013Y-97818630D01*
X139971197Y-98084792D01*
X140038129Y-98210014D01*
X140282098Y-98281597D01*
X141095195Y-97468500D01*
X141454405Y-97468500D01*
X142267502Y-98281597D01*
X142511471Y-98210014D01*
X142632371Y-97954504D01*
X142701100Y-97680316D01*
X142715017Y-97397988D01*
X142673587Y-97118370D01*
X142578403Y-96852208D01*
X142511471Y-96726986D01*
X142267502Y-96655403D01*
X141454405Y-97468500D01*
X141095195Y-97468500D01*
X140282098Y-96655403D01*
X140038129Y-96726986D01*
X139917229Y-96982496D01*
X139848500Y-97256684D01*
X139834583Y-97539012D01*
X138836265Y-97539012D01*
X138843217Y-97397988D01*
X138801787Y-97118370D01*
X138706603Y-96852208D01*
X138639671Y-96726986D01*
X138395702Y-96655403D01*
X137582605Y-97468500D01*
X137223395Y-97468500D01*
X136410298Y-96655403D01*
X136166329Y-96726986D01*
X136045429Y-96982496D01*
X136015000Y-97103890D01*
X136015000Y-96475798D01*
X136589903Y-96475798D01*
X137403000Y-97288895D01*
X138216097Y-96475798D01*
X140461703Y-96475798D01*
X141274800Y-97288895D01*
X142087897Y-96475798D01*
X142016314Y-96231829D01*
X141760804Y-96110929D01*
X141486616Y-96042200D01*
X141204288Y-96028283D01*
X140924670Y-96069713D01*
X140658508Y-96164897D01*
X140533286Y-96231829D01*
X140461703Y-96475798D01*
X138216097Y-96475798D01*
X138144514Y-96231829D01*
X137889004Y-96110929D01*
X137614816Y-96042200D01*
X137332488Y-96028283D01*
X137052870Y-96069713D01*
X136786708Y-96164897D01*
X136661486Y-96231829D01*
X136589903Y-96475798D01*
X136015000Y-96475798D01*
X136015000Y-94931301D01*
X137079114Y-93867188D01*
X137261665Y-93903500D01*
X137544335Y-93903500D01*
X137821574Y-93848353D01*
X138082727Y-93740180D01*
X138317759Y-93583137D01*
X138517637Y-93383259D01*
X138674680Y-93148227D01*
X138782853Y-92887074D01*
X138838000Y-92609835D01*
X138838000Y-92327165D01*
X138782853Y-92049926D01*
X138674680Y-91788773D01*
X138517637Y-91553741D01*
X138317759Y-91353863D01*
X138082727Y-91196820D01*
X137821574Y-91088647D01*
X137544335Y-91033500D01*
X137261665Y-91033500D01*
X136984426Y-91088647D01*
X136723273Y-91196820D01*
X136488241Y-91353863D01*
X136288363Y-91553741D01*
X136131320Y-91788773D01*
X136023147Y-92049926D01*
X135968000Y-92327165D01*
X135968000Y-92609835D01*
X136004312Y-92792386D01*
X134988000Y-93808699D01*
X134988000Y-88094807D01*
X135181368Y-88288175D01*
X135424589Y-88450690D01*
X135694842Y-88562632D01*
X135981740Y-88619700D01*
X136274260Y-88619700D01*
X136561158Y-88562632D01*
X136831411Y-88450690D01*
X137074632Y-88288175D01*
X137281475Y-88081332D01*
X137399100Y-87905294D01*
X137570412Y-88134969D01*
X137786645Y-88329878D01*
X138036748Y-88478857D01*
X138311109Y-88576181D01*
X138541000Y-88455514D01*
X138541000Y-87261700D01*
X138795000Y-87261700D01*
X138795000Y-88455514D01*
X139024891Y-88576181D01*
X139299252Y-88478857D01*
X139549355Y-88329878D01*
X139765588Y-88134969D01*
X139939641Y-87901620D01*
X140064825Y-87638799D01*
X140109476Y-87491590D01*
X139988155Y-87261700D01*
X138795000Y-87261700D01*
X138541000Y-87261700D01*
X138521000Y-87261700D01*
X138521000Y-87007700D01*
X138541000Y-87007700D01*
X138541000Y-86987700D01*
X138795000Y-86987700D01*
X138795000Y-87007700D01*
X139988155Y-87007700D01*
X140109476Y-86777810D01*
X140091850Y-86719699D01*
X140898498Y-86719699D01*
X144635235Y-90456437D01*
G37*
X144635235Y-90456437D02*
X144567063Y-90539506D01*
X144508098Y-90649820D01*
X144471788Y-90769518D01*
X144459528Y-90894000D01*
X144459528Y-92494000D01*
X144471788Y-92618482D01*
X144508098Y-92738180D01*
X144567063Y-92848494D01*
X144646415Y-92945185D01*
X144743106Y-93024537D01*
X144853420Y-93083502D01*
X144973118Y-93119812D01*
X145097600Y-93132072D01*
X145243274Y-93132072D01*
X145262626Y-93168276D01*
X145302471Y-93216826D01*
X145357599Y-93284001D01*
X145386603Y-93307804D01*
X146509458Y-94430660D01*
X146336892Y-94385416D01*
X146015405Y-94366082D01*
X145696325Y-94409839D01*
X145391912Y-94515005D01*
X145217956Y-94607986D01*
X145122192Y-94872387D01*
X146078000Y-95828195D01*
X146092143Y-95814053D01*
X146271748Y-95993658D01*
X146257605Y-96007800D01*
X147213413Y-96963608D01*
X147477814Y-96867844D01*
X147618704Y-96578229D01*
X147700384Y-96266692D01*
X147719718Y-95945205D01*
X147675961Y-95626125D01*
X147570795Y-95321712D01*
X147477814Y-95147756D01*
X147213415Y-95051993D01*
X147278479Y-94986929D01*
X147350267Y-94994000D01*
X147350276Y-94994000D01*
X147387599Y-94997676D01*
X147424922Y-94994000D01*
X151384592Y-94994000D01*
X151442585Y-95051993D01*
X151178186Y-95147756D01*
X151037296Y-95437371D01*
X150955616Y-95748908D01*
X150936282Y-96070395D01*
X150980039Y-96389475D01*
X151085205Y-96693888D01*
X151178186Y-96867844D01*
X151442587Y-96963608D01*
X152398395Y-96007800D01*
X152384253Y-95993658D01*
X152563858Y-95814053D01*
X152578000Y-95828195D01*
X152592143Y-95814053D01*
X152771748Y-95993658D01*
X152757605Y-96007800D01*
X153713413Y-96963608D01*
X153977814Y-96867844D01*
X154118704Y-96578229D01*
X154200384Y-96266692D01*
X154219718Y-95945205D01*
X154175961Y-95626125D01*
X154070795Y-95321712D01*
X153977814Y-95147756D01*
X153713415Y-95051993D01*
X153771408Y-94994000D01*
X156608496Y-94994000D01*
X156550939Y-95080141D01*
X156450304Y-95323095D01*
X156399000Y-95581014D01*
X156399000Y-95843986D01*
X156420355Y-95951343D01*
X153324429Y-99047270D01*
X153054912Y-98935632D01*
X152739033Y-98872800D01*
X152416967Y-98872800D01*
X152101088Y-98935632D01*
X151803537Y-99058882D01*
X151535748Y-99237813D01*
X151308013Y-99465548D01*
X151129082Y-99733337D01*
X151123091Y-99747800D01*
X147532909Y-99747800D01*
X147526918Y-99733337D01*
X147347987Y-99465548D01*
X147120252Y-99237813D01*
X146852463Y-99058882D01*
X146554912Y-98935632D01*
X146239033Y-98872800D01*
X145916967Y-98872800D01*
X145601088Y-98935632D01*
X145586625Y-98941623D01*
X144676400Y-98031399D01*
X144676400Y-97143213D01*
X145122192Y-97143213D01*
X145217956Y-97407614D01*
X145507571Y-97548504D01*
X145819108Y-97630184D01*
X146140595Y-97649518D01*
X146459675Y-97605761D01*
X146764088Y-97500595D01*
X146938044Y-97407614D01*
X147033808Y-97143213D01*
X151622192Y-97143213D01*
X151717956Y-97407614D01*
X152007571Y-97548504D01*
X152319108Y-97630184D01*
X152640595Y-97649518D01*
X152959675Y-97605761D01*
X153264088Y-97500595D01*
X153438044Y-97407614D01*
X153533808Y-97143213D01*
X152578000Y-96187405D01*
X151622192Y-97143213D01*
X147033808Y-97143213D01*
X146078000Y-96187405D01*
X145122192Y-97143213D01*
X144676400Y-97143213D01*
X144676400Y-96864503D01*
X144678186Y-96867844D01*
X144942587Y-96963608D01*
X145898395Y-96007800D01*
X144942587Y-95051992D01*
X144678186Y-95147756D01*
X144676400Y-95151427D01*
X144676400Y-95147433D01*
X144680077Y-95110100D01*
X144665403Y-94961114D01*
X144621946Y-94817853D01*
X144551374Y-94685824D01*
X144456401Y-94570099D01*
X144427403Y-94546301D01*
X142673488Y-92792386D01*
X142709800Y-92609835D01*
X142709800Y-92327165D01*
X142654653Y-92049926D01*
X142546480Y-91788773D01*
X142389437Y-91553741D01*
X142189559Y-91353863D01*
X141954527Y-91196820D01*
X141693374Y-91088647D01*
X141416135Y-91033500D01*
X141133465Y-91033500D01*
X140856226Y-91088647D01*
X140595073Y-91196820D01*
X140360041Y-91353863D01*
X140160163Y-91553741D01*
X140003120Y-91788773D01*
X139894947Y-92049926D01*
X139839800Y-92327165D01*
X139839800Y-92609835D01*
X139894947Y-92887074D01*
X140003120Y-93148227D01*
X140160163Y-93383259D01*
X140360041Y-93583137D01*
X140595073Y-93740180D01*
X140856226Y-93848353D01*
X141133465Y-93903500D01*
X141416135Y-93903500D01*
X141598686Y-93867188D01*
X143156401Y-95424903D01*
X143156400Y-98308877D01*
X143152724Y-98346200D01*
X143156400Y-98383522D01*
X143156400Y-98383532D01*
X143167397Y-98495185D01*
X143210193Y-98636267D01*
X143210854Y-98638446D01*
X143281426Y-98770476D01*
X143304932Y-98799118D01*
X143376399Y-98886201D01*
X143405403Y-98910004D01*
X144511823Y-100016425D01*
X144505832Y-100030888D01*
X144443000Y-100346767D01*
X144443000Y-100668833D01*
X144505832Y-100984712D01*
X144629082Y-101282263D01*
X144808013Y-101550052D01*
X145035748Y-101777787D01*
X145303537Y-101956718D01*
X145601088Y-102079968D01*
X145916967Y-102142800D01*
X146239033Y-102142800D01*
X146554912Y-102079968D01*
X146852463Y-101956718D01*
X147120252Y-101777787D01*
X147347987Y-101550052D01*
X147526918Y-101282263D01*
X147532909Y-101267800D01*
X151123091Y-101267800D01*
X151129082Y-101282263D01*
X151308013Y-101550052D01*
X151535748Y-101777787D01*
X151803537Y-101956718D01*
X152101088Y-102079968D01*
X152416967Y-102142800D01*
X152739033Y-102142800D01*
X152959940Y-102098859D01*
X152389999Y-102668800D01*
X148901323Y-102668800D01*
X148864000Y-102665124D01*
X148826677Y-102668800D01*
X148826667Y-102668800D01*
X148715014Y-102679797D01*
X148571753Y-102723254D01*
X148439723Y-102793826D01*
X148356083Y-102862468D01*
X148323999Y-102888799D01*
X148300201Y-102917798D01*
X147621802Y-103596197D01*
X147592799Y-103619999D01*
X147537671Y-103687174D01*
X147497826Y-103735724D01*
X147478474Y-103771928D01*
X147132800Y-103771928D01*
X147008318Y-103784188D01*
X146888620Y-103820498D01*
X146778306Y-103879463D01*
X146681615Y-103958815D01*
X146602263Y-104055506D01*
X146543298Y-104165820D01*
X146506988Y-104285518D01*
X146494728Y-104410000D01*
X146494728Y-106410000D01*
X146506988Y-106534482D01*
X146543298Y-106654180D01*
X146602263Y-106764494D01*
X146681615Y-106861185D01*
X146778306Y-106940537D01*
X146888620Y-106999502D01*
X147008318Y-107035812D01*
X147132800Y-107048072D01*
X149132800Y-107048072D01*
X149257282Y-107035812D01*
X149376980Y-106999502D01*
X149487294Y-106940537D01*
X149583985Y-106861185D01*
X149663337Y-106764494D01*
X149687991Y-106718370D01*
X149898337Y-106858918D01*
X150195888Y-106982168D01*
X150511767Y-107045000D01*
X150833833Y-107045000D01*
X151149712Y-106982168D01*
X151164175Y-106976177D01*
X153443401Y-109255404D01*
X153443400Y-111410971D01*
X153405253Y-111426772D01*
X153129275Y-111611175D01*
X152933400Y-111807050D01*
X152737525Y-111611175D01*
X152461547Y-111426772D01*
X152424758Y-111411534D01*
X152412403Y-111286090D01*
X152368946Y-111142829D01*
X152298374Y-111010800D01*
X152256358Y-110959603D01*
X152203401Y-110895075D01*
X152174404Y-110871278D01*
X151002728Y-109699603D01*
X150978925Y-109670599D01*
X150863200Y-109575626D01*
X150731171Y-109505054D01*
X150587910Y-109461597D01*
X150476257Y-109450600D01*
X150476246Y-109450600D01*
X150438924Y-109446924D01*
X150401602Y-109450600D01*
X144967802Y-109450600D01*
X142555181Y-107037979D01*
X142774075Y-107007961D01*
X143078488Y-106902795D01*
X143252444Y-106809814D01*
X143348208Y-106545413D01*
X142392400Y-105589605D01*
X142378258Y-105603748D01*
X142198653Y-105424143D01*
X142212795Y-105410000D01*
X142572005Y-105410000D01*
X143527813Y-106365808D01*
X143792214Y-106270044D01*
X143933104Y-105980429D01*
X144014784Y-105668892D01*
X144034118Y-105347405D01*
X143990361Y-105028325D01*
X143885195Y-104723912D01*
X143792214Y-104549956D01*
X143527813Y-104454192D01*
X142572005Y-105410000D01*
X142212795Y-105410000D01*
X141256987Y-104454192D01*
X141195120Y-104476600D01*
X141122387Y-104367748D01*
X141029226Y-104274587D01*
X141436592Y-104274587D01*
X142392400Y-105230395D01*
X143348208Y-104274587D01*
X143252444Y-104010186D01*
X142962829Y-103869296D01*
X142651292Y-103787616D01*
X142329805Y-103768282D01*
X142010725Y-103812039D01*
X141706312Y-103917205D01*
X141532356Y-104010186D01*
X141436592Y-104274587D01*
X141029226Y-104274587D01*
X140894652Y-104140013D01*
X140626863Y-103961082D01*
X140329312Y-103837832D01*
X140013433Y-103775000D01*
X139691367Y-103775000D01*
X139375488Y-103837832D01*
X139077937Y-103961082D01*
X138867591Y-104101630D01*
X138842937Y-104055506D01*
X138763585Y-103958815D01*
X138666894Y-103879463D01*
X138556580Y-103820498D01*
X138436882Y-103784188D01*
X138312400Y-103771928D01*
X136312400Y-103771928D01*
X136187918Y-103784188D01*
X136068220Y-103820498D01*
X136015000Y-103848945D01*
X136015000Y-101535140D01*
X138119282Y-101535140D01*
X138119282Y-101766460D01*
X138164410Y-101993336D01*
X138252933Y-102207048D01*
X138381448Y-102399384D01*
X138545016Y-102562952D01*
X138737352Y-102691467D01*
X138951064Y-102779990D01*
X139177940Y-102825118D01*
X139409260Y-102825118D01*
X139636136Y-102779990D01*
X139849848Y-102691467D01*
X140042184Y-102562952D01*
X140205752Y-102399384D01*
X140334267Y-102207048D01*
X140422790Y-101993336D01*
X140467918Y-101766460D01*
X140467918Y-101535140D01*
X140422790Y-101308264D01*
X140334267Y-101094552D01*
X140205752Y-100902216D01*
X140042184Y-100738648D01*
X139849848Y-100610133D01*
X139636136Y-100521610D01*
X139409260Y-100476482D01*
X139177940Y-100476482D01*
X138951064Y-100521610D01*
X138737352Y-100610133D01*
X138545016Y-100738648D01*
X138381448Y-100902216D01*
X138252933Y-101094552D01*
X138164410Y-101308264D01*
X138119282Y-101535140D01*
X136015000Y-101535140D01*
X136015000Y-98461202D01*
X136589903Y-98461202D01*
X136661486Y-98705171D01*
X136916996Y-98826071D01*
X137191184Y-98894800D01*
X137473512Y-98908717D01*
X137753130Y-98867287D01*
X138019292Y-98772103D01*
X138144514Y-98705171D01*
X138216097Y-98461202D01*
X140461703Y-98461202D01*
X140533286Y-98705171D01*
X140788796Y-98826071D01*
X141062984Y-98894800D01*
X141345312Y-98908717D01*
X141624930Y-98867287D01*
X141891092Y-98772103D01*
X142016314Y-98705171D01*
X142087897Y-98461202D01*
X141274800Y-97648105D01*
X140461703Y-98461202D01*
X138216097Y-98461202D01*
X137403000Y-97648105D01*
X136589903Y-98461202D01*
X136015000Y-98461202D01*
X136015000Y-97848794D01*
X136099397Y-98084792D01*
X136166329Y-98210014D01*
X136410298Y-98281597D01*
X137223395Y-97468500D01*
X137582605Y-97468500D01*
X138395702Y-98281597D01*
X138639671Y-98210014D01*
X138760571Y-97954504D01*
X138829300Y-97680316D01*
X138836265Y-97539012D01*
X139834583Y-97539012D01*
X139876013Y-97818630D01*
X139971197Y-98084792D01*
X140038129Y-98210014D01*
X140282098Y-98281597D01*
X141095195Y-97468500D01*
X141454405Y-97468500D01*
X142267502Y-98281597D01*
X142511471Y-98210014D01*
X142632371Y-97954504D01*
X142701100Y-97680316D01*
X142715017Y-97397988D01*
X142673587Y-97118370D01*
X142578403Y-96852208D01*
X142511471Y-96726986D01*
X142267502Y-96655403D01*
X141454405Y-97468500D01*
X141095195Y-97468500D01*
X140282098Y-96655403D01*
X140038129Y-96726986D01*
X139917229Y-96982496D01*
X139848500Y-97256684D01*
X139834583Y-97539012D01*
X138836265Y-97539012D01*
X138843217Y-97397988D01*
X138801787Y-97118370D01*
X138706603Y-96852208D01*
X138639671Y-96726986D01*
X138395702Y-96655403D01*
X137582605Y-97468500D01*
X137223395Y-97468500D01*
X136410298Y-96655403D01*
X136166329Y-96726986D01*
X136045429Y-96982496D01*
X136015000Y-97103890D01*
X136015000Y-96475798D01*
X136589903Y-96475798D01*
X137403000Y-97288895D01*
X138216097Y-96475798D01*
X140461703Y-96475798D01*
X141274800Y-97288895D01*
X142087897Y-96475798D01*
X142016314Y-96231829D01*
X141760804Y-96110929D01*
X141486616Y-96042200D01*
X141204288Y-96028283D01*
X140924670Y-96069713D01*
X140658508Y-96164897D01*
X140533286Y-96231829D01*
X140461703Y-96475798D01*
X138216097Y-96475798D01*
X138144514Y-96231829D01*
X137889004Y-96110929D01*
X137614816Y-96042200D01*
X137332488Y-96028283D01*
X137052870Y-96069713D01*
X136786708Y-96164897D01*
X136661486Y-96231829D01*
X136589903Y-96475798D01*
X136015000Y-96475798D01*
X136015000Y-94931301D01*
X137079114Y-93867188D01*
X137261665Y-93903500D01*
X137544335Y-93903500D01*
X137821574Y-93848353D01*
X138082727Y-93740180D01*
X138317759Y-93583137D01*
X138517637Y-93383259D01*
X138674680Y-93148227D01*
X138782853Y-92887074D01*
X138838000Y-92609835D01*
X138838000Y-92327165D01*
X138782853Y-92049926D01*
X138674680Y-91788773D01*
X138517637Y-91553741D01*
X138317759Y-91353863D01*
X138082727Y-91196820D01*
X137821574Y-91088647D01*
X137544335Y-91033500D01*
X137261665Y-91033500D01*
X136984426Y-91088647D01*
X136723273Y-91196820D01*
X136488241Y-91353863D01*
X136288363Y-91553741D01*
X136131320Y-91788773D01*
X136023147Y-92049926D01*
X135968000Y-92327165D01*
X135968000Y-92609835D01*
X136004312Y-92792386D01*
X134988000Y-93808699D01*
X134988000Y-88094807D01*
X135181368Y-88288175D01*
X135424589Y-88450690D01*
X135694842Y-88562632D01*
X135981740Y-88619700D01*
X136274260Y-88619700D01*
X136561158Y-88562632D01*
X136831411Y-88450690D01*
X137074632Y-88288175D01*
X137281475Y-88081332D01*
X137399100Y-87905294D01*
X137570412Y-88134969D01*
X137786645Y-88329878D01*
X138036748Y-88478857D01*
X138311109Y-88576181D01*
X138541000Y-88455514D01*
X138541000Y-87261700D01*
X138795000Y-87261700D01*
X138795000Y-88455514D01*
X139024891Y-88576181D01*
X139299252Y-88478857D01*
X139549355Y-88329878D01*
X139765588Y-88134969D01*
X139939641Y-87901620D01*
X140064825Y-87638799D01*
X140109476Y-87491590D01*
X139988155Y-87261700D01*
X138795000Y-87261700D01*
X138541000Y-87261700D01*
X138521000Y-87261700D01*
X138521000Y-87007700D01*
X138541000Y-87007700D01*
X138541000Y-86987700D01*
X138795000Y-86987700D01*
X138795000Y-87007700D01*
X139988155Y-87007700D01*
X140109476Y-86777810D01*
X140091850Y-86719699D01*
X140898498Y-86719699D01*
X144635235Y-90456437D01*
G36*
X158641863Y-98569106D02*
G01*
X158582898Y-98679420D01*
X158546588Y-98799118D01*
X158534328Y-98923600D01*
X158534328Y-100923600D01*
X158546588Y-101048082D01*
X158582898Y-101167780D01*
X158641863Y-101278094D01*
X158721215Y-101374785D01*
X158817906Y-101454137D01*
X158864030Y-101478791D01*
X158723482Y-101689137D01*
X158600232Y-101986688D01*
X158537400Y-102302567D01*
X158537400Y-102624633D01*
X158600232Y-102940512D01*
X158606223Y-102954975D01*
X156232398Y-105328801D01*
X156203400Y-105352599D01*
X156179602Y-105381597D01*
X156179601Y-105381598D01*
X156108426Y-105468324D01*
X156037854Y-105600354D01*
X156017064Y-105668892D01*
X155994398Y-105743614D01*
X155983401Y-105855267D01*
X155979724Y-105892600D01*
X155983401Y-105929932D01*
X155983400Y-111410971D01*
X155945253Y-111426772D01*
X155669275Y-111611175D01*
X155473400Y-111807050D01*
X155277525Y-111611175D01*
X155001547Y-111426772D01*
X154963400Y-111410971D01*
X154963400Y-108977922D01*
X154967076Y-108940599D01*
X154963400Y-108903276D01*
X154963400Y-108903267D01*
X154952403Y-108791614D01*
X154908946Y-108648353D01*
X154838374Y-108516324D01*
X154825211Y-108500285D01*
X154767199Y-108429596D01*
X154767195Y-108429592D01*
X154743401Y-108400599D01*
X154714408Y-108376805D01*
X153375581Y-107037979D01*
X153594475Y-107007961D01*
X153898888Y-106902795D01*
X154072844Y-106809814D01*
X154168608Y-106545413D01*
X153212800Y-105589605D01*
X153198658Y-105603748D01*
X153019053Y-105424143D01*
X153033195Y-105410000D01*
X153392405Y-105410000D01*
X154348213Y-106365808D01*
X154612614Y-106270044D01*
X154753504Y-105980429D01*
X154835184Y-105668892D01*
X154854518Y-105347405D01*
X154810761Y-105028325D01*
X154705595Y-104723912D01*
X154612614Y-104549956D01*
X154348213Y-104454192D01*
X153392405Y-105410000D01*
X153033195Y-105410000D01*
X152077387Y-104454192D01*
X152015520Y-104476600D01*
X151942787Y-104367748D01*
X151763839Y-104188800D01*
X152288063Y-104188800D01*
X152256992Y-104274587D01*
X153212800Y-105230395D01*
X154168608Y-104274587D01*
X154072844Y-104010186D01*
X153783229Y-103869296D01*
X153471692Y-103787616D01*
X153423673Y-103784728D01*
X158653611Y-98554790D01*
X158641863Y-98569106D01*
G37*
X158641863Y-98569106D02*
X158582898Y-98679420D01*
X158546588Y-98799118D01*
X158534328Y-98923600D01*
X158534328Y-100923600D01*
X158546588Y-101048082D01*
X158582898Y-101167780D01*
X158641863Y-101278094D01*
X158721215Y-101374785D01*
X158817906Y-101454137D01*
X158864030Y-101478791D01*
X158723482Y-101689137D01*
X158600232Y-101986688D01*
X158537400Y-102302567D01*
X158537400Y-102624633D01*
X158600232Y-102940512D01*
X158606223Y-102954975D01*
X156232398Y-105328801D01*
X156203400Y-105352599D01*
X156179602Y-105381597D01*
X156179601Y-105381598D01*
X156108426Y-105468324D01*
X156037854Y-105600354D01*
X156017064Y-105668892D01*
X155994398Y-105743614D01*
X155983401Y-105855267D01*
X155979724Y-105892600D01*
X155983401Y-105929932D01*
X155983400Y-111410971D01*
X155945253Y-111426772D01*
X155669275Y-111611175D01*
X155473400Y-111807050D01*
X155277525Y-111611175D01*
X155001547Y-111426772D01*
X154963400Y-111410971D01*
X154963400Y-108977922D01*
X154967076Y-108940599D01*
X154963400Y-108903276D01*
X154963400Y-108903267D01*
X154952403Y-108791614D01*
X154908946Y-108648353D01*
X154838374Y-108516324D01*
X154825211Y-108500285D01*
X154767199Y-108429596D01*
X154767195Y-108429592D01*
X154743401Y-108400599D01*
X154714408Y-108376805D01*
X153375581Y-107037979D01*
X153594475Y-107007961D01*
X153898888Y-106902795D01*
X154072844Y-106809814D01*
X154168608Y-106545413D01*
X153212800Y-105589605D01*
X153198658Y-105603748D01*
X153019053Y-105424143D01*
X153033195Y-105410000D01*
X153392405Y-105410000D01*
X154348213Y-106365808D01*
X154612614Y-106270044D01*
X154753504Y-105980429D01*
X154835184Y-105668892D01*
X154854518Y-105347405D01*
X154810761Y-105028325D01*
X154705595Y-104723912D01*
X154612614Y-104549956D01*
X154348213Y-104454192D01*
X153392405Y-105410000D01*
X153033195Y-105410000D01*
X152077387Y-104454192D01*
X152015520Y-104476600D01*
X151942787Y-104367748D01*
X151763839Y-104188800D01*
X152288063Y-104188800D01*
X152256992Y-104274587D01*
X153212800Y-105230395D01*
X154168608Y-104274587D01*
X154072844Y-104010186D01*
X153783229Y-103869296D01*
X153471692Y-103787616D01*
X153423673Y-103784728D01*
X158653611Y-98554790D01*
X158641863Y-98569106D01*
G36*
X160392595Y-96996196D02*
G01*
X160650514Y-97047500D01*
X160913486Y-97047500D01*
X161020844Y-97026145D01*
X162308000Y-98313302D01*
X162308001Y-109448157D01*
X162214482Y-109419788D01*
X162090000Y-109407528D01*
X160716212Y-109407528D01*
X160739963Y-109383777D01*
X160977388Y-109028445D01*
X161140930Y-108633621D01*
X161224303Y-108214477D01*
X161224303Y-107787123D01*
X161140930Y-107367979D01*
X160977388Y-106973155D01*
X160739963Y-106617823D01*
X160680147Y-106558007D01*
X160858488Y-106496395D01*
X161032444Y-106403414D01*
X161128208Y-106139013D01*
X160172400Y-105183205D01*
X160158258Y-105197348D01*
X159978653Y-105017743D01*
X159992795Y-105003600D01*
X160352005Y-105003600D01*
X161307813Y-105959408D01*
X161572214Y-105863644D01*
X161713104Y-105574029D01*
X161794784Y-105262492D01*
X161814118Y-104941005D01*
X161770361Y-104621925D01*
X161665195Y-104317512D01*
X161572214Y-104143556D01*
X161307813Y-104047792D01*
X160352005Y-105003600D01*
X159992795Y-105003600D01*
X159978653Y-104989458D01*
X160158258Y-104809853D01*
X160172400Y-104823995D01*
X161128208Y-103868187D01*
X161105800Y-103806320D01*
X161214652Y-103733587D01*
X161442387Y-103505852D01*
X161621318Y-103238063D01*
X161744568Y-102940512D01*
X161807400Y-102624633D01*
X161807400Y-102302567D01*
X161744568Y-101986688D01*
X161621318Y-101689137D01*
X161480770Y-101478791D01*
X161526894Y-101454137D01*
X161623585Y-101374785D01*
X161702937Y-101278094D01*
X161761902Y-101167780D01*
X161798212Y-101048082D01*
X161810472Y-100923600D01*
X161810472Y-98923600D01*
X161798212Y-98799118D01*
X161761902Y-98679420D01*
X161702937Y-98569106D01*
X161623585Y-98472415D01*
X161526894Y-98393063D01*
X161416580Y-98334098D01*
X161296882Y-98297788D01*
X161172400Y-98285528D01*
X160826726Y-98285528D01*
X160807374Y-98249324D01*
X160736199Y-98162597D01*
X160712401Y-98133599D01*
X160683403Y-98109802D01*
X160373600Y-97799999D01*
X160373600Y-96988328D01*
X160392595Y-96996196D01*
G37*
X160392595Y-96996196D02*
X160650514Y-97047500D01*
X160913486Y-97047500D01*
X161020844Y-97026145D01*
X162308000Y-98313302D01*
X162308001Y-109448157D01*
X162214482Y-109419788D01*
X162090000Y-109407528D01*
X160716212Y-109407528D01*
X160739963Y-109383777D01*
X160977388Y-109028445D01*
X161140930Y-108633621D01*
X161224303Y-108214477D01*
X161224303Y-107787123D01*
X161140930Y-107367979D01*
X160977388Y-106973155D01*
X160739963Y-106617823D01*
X160680147Y-106558007D01*
X160858488Y-106496395D01*
X161032444Y-106403414D01*
X161128208Y-106139013D01*
X160172400Y-105183205D01*
X160158258Y-105197348D01*
X159978653Y-105017743D01*
X159992795Y-105003600D01*
X160352005Y-105003600D01*
X161307813Y-105959408D01*
X161572214Y-105863644D01*
X161713104Y-105574029D01*
X161794784Y-105262492D01*
X161814118Y-104941005D01*
X161770361Y-104621925D01*
X161665195Y-104317512D01*
X161572214Y-104143556D01*
X161307813Y-104047792D01*
X160352005Y-105003600D01*
X159992795Y-105003600D01*
X159978653Y-104989458D01*
X160158258Y-104809853D01*
X160172400Y-104823995D01*
X161128208Y-103868187D01*
X161105800Y-103806320D01*
X161214652Y-103733587D01*
X161442387Y-103505852D01*
X161621318Y-103238063D01*
X161744568Y-102940512D01*
X161807400Y-102624633D01*
X161807400Y-102302567D01*
X161744568Y-101986688D01*
X161621318Y-101689137D01*
X161480770Y-101478791D01*
X161526894Y-101454137D01*
X161623585Y-101374785D01*
X161702937Y-101278094D01*
X161761902Y-101167780D01*
X161798212Y-101048082D01*
X161810472Y-100923600D01*
X161810472Y-98923600D01*
X161798212Y-98799118D01*
X161761902Y-98679420D01*
X161702937Y-98569106D01*
X161623585Y-98472415D01*
X161526894Y-98393063D01*
X161416580Y-98334098D01*
X161296882Y-98297788D01*
X161172400Y-98285528D01*
X160826726Y-98285528D01*
X160807374Y-98249324D01*
X160736199Y-98162597D01*
X160712401Y-98133599D01*
X160683403Y-98109802D01*
X160373600Y-97799999D01*
X160373600Y-96988328D01*
X160392595Y-96996196D01*
G36*
X156697038Y-87693387D02*
G01*
X156550939Y-87912041D01*
X156450304Y-88154995D01*
X156399000Y-88412914D01*
X156399000Y-88675886D01*
X156450304Y-88933805D01*
X156550939Y-89176759D01*
X156697038Y-89395413D01*
X156882987Y-89581362D01*
X156893595Y-89588450D01*
X156882987Y-89595538D01*
X156697038Y-89781487D01*
X156550939Y-90000141D01*
X156450304Y-90243095D01*
X156399000Y-90501014D01*
X156399000Y-90763986D01*
X156420355Y-90871343D01*
X154625199Y-92666500D01*
X154583447Y-92666500D01*
X154626577Y-92623370D01*
X154510304Y-92507097D01*
X154754271Y-92435514D01*
X154875171Y-92180004D01*
X154943900Y-91905816D01*
X154957817Y-91623488D01*
X154916387Y-91343870D01*
X154821203Y-91077708D01*
X154754271Y-90952486D01*
X154510302Y-90880903D01*
X153697205Y-91694000D01*
X153711348Y-91708143D01*
X153531743Y-91887748D01*
X153517600Y-91873605D01*
X153503458Y-91887748D01*
X153323853Y-91708143D01*
X153337995Y-91694000D01*
X153323853Y-91679858D01*
X153503458Y-91500253D01*
X153517600Y-91514395D01*
X154330697Y-90701298D01*
X154259114Y-90457329D01*
X154003604Y-90336429D01*
X153729416Y-90267700D01*
X153490479Y-90255922D01*
X156118402Y-87628000D01*
X156762425Y-87628000D01*
X156697038Y-87693387D01*
G37*
X156697038Y-87693387D02*
X156550939Y-87912041D01*
X156450304Y-88154995D01*
X156399000Y-88412914D01*
X156399000Y-88675886D01*
X156450304Y-88933805D01*
X156550939Y-89176759D01*
X156697038Y-89395413D01*
X156882987Y-89581362D01*
X156893595Y-89588450D01*
X156882987Y-89595538D01*
X156697038Y-89781487D01*
X156550939Y-90000141D01*
X156450304Y-90243095D01*
X156399000Y-90501014D01*
X156399000Y-90763986D01*
X156420355Y-90871343D01*
X154625199Y-92666500D01*
X154583447Y-92666500D01*
X154626577Y-92623370D01*
X154510304Y-92507097D01*
X154754271Y-92435514D01*
X154875171Y-92180004D01*
X154943900Y-91905816D01*
X154957817Y-91623488D01*
X154916387Y-91343870D01*
X154821203Y-91077708D01*
X154754271Y-90952486D01*
X154510302Y-90880903D01*
X153697205Y-91694000D01*
X153711348Y-91708143D01*
X153531743Y-91887748D01*
X153517600Y-91873605D01*
X153503458Y-91887748D01*
X153323853Y-91708143D01*
X153337995Y-91694000D01*
X153323853Y-91679858D01*
X153503458Y-91500253D01*
X153517600Y-91514395D01*
X154330697Y-90701298D01*
X154259114Y-90457329D01*
X154003604Y-90336429D01*
X153729416Y-90267700D01*
X153490479Y-90255922D01*
X156118402Y-87628000D01*
X156762425Y-87628000D01*
X156697038Y-87693387D01*
G36*
X163668000Y-79382799D02*
G01*
X162361804Y-78076603D01*
X162338001Y-78047599D01*
X162222276Y-77952626D01*
X162090247Y-77882054D01*
X161946986Y-77838597D01*
X161835333Y-77827600D01*
X161835322Y-77827600D01*
X161798000Y-77823924D01*
X161760678Y-77827600D01*
X155517223Y-77827600D01*
X155479900Y-77823924D01*
X155442577Y-77827600D01*
X155442567Y-77827600D01*
X155330914Y-77838597D01*
X155187653Y-77882054D01*
X155055623Y-77952626D01*
X154971983Y-78021268D01*
X154939899Y-78047599D01*
X154916101Y-78076597D01*
X153213081Y-79779618D01*
X153179185Y-79738315D01*
X153082494Y-79658963D01*
X152972180Y-79599998D01*
X152852482Y-79563688D01*
X152728000Y-79551428D01*
X150928000Y-79551428D01*
X150803518Y-79563688D01*
X150683820Y-79599998D01*
X150573506Y-79658963D01*
X150476815Y-79738315D01*
X150397463Y-79835006D01*
X150344120Y-79934803D01*
X150306505Y-79897188D01*
X150055095Y-79729201D01*
X149775743Y-79613489D01*
X149479184Y-79554500D01*
X149176816Y-79554500D01*
X148880257Y-79613489D01*
X148600905Y-79729201D01*
X148349495Y-79897188D01*
X148135688Y-80110995D01*
X148040262Y-80253810D01*
X147892080Y-80205025D01*
X147007605Y-81089500D01*
X147021748Y-81103643D01*
X146842143Y-81283248D01*
X146828000Y-81269105D01*
X146813858Y-81283248D01*
X146634253Y-81103643D01*
X146648395Y-81089500D01*
X145763920Y-80205025D01*
X145509739Y-80288708D01*
X145378842Y-80561275D01*
X145303635Y-80854142D01*
X145287009Y-81156053D01*
X145329603Y-81455407D01*
X145429778Y-81740699D01*
X145509739Y-81890292D01*
X145629438Y-81929700D01*
X140610323Y-81929700D01*
X140573000Y-81926024D01*
X140535677Y-81929700D01*
X140535667Y-81929700D01*
X140424014Y-81940697D01*
X140280753Y-81984154D01*
X140153000Y-82052440D01*
X140153000Y-81908440D01*
X140095932Y-81621542D01*
X139983990Y-81351289D01*
X139821475Y-81108068D01*
X139614632Y-80901225D01*
X139371411Y-80738710D01*
X139101158Y-80626768D01*
X138814260Y-80569700D01*
X138521740Y-80569700D01*
X138234842Y-80626768D01*
X137964589Y-80738710D01*
X137721368Y-80901225D01*
X137589513Y-81033080D01*
X137567502Y-80960520D01*
X137508537Y-80850206D01*
X137429185Y-80753515D01*
X137332494Y-80674163D01*
X137222180Y-80615198D01*
X137102482Y-80578888D01*
X136978000Y-80566628D01*
X135278000Y-80566628D01*
X135153518Y-80578888D01*
X135033820Y-80615198D01*
X134988000Y-80639690D01*
X134988000Y-80025420D01*
X145943525Y-80025420D01*
X146828000Y-80909895D01*
X147712475Y-80025420D01*
X147628792Y-79771239D01*
X147356225Y-79640342D01*
X147063358Y-79565135D01*
X146761447Y-79548509D01*
X146462093Y-79591103D01*
X146176801Y-79691278D01*
X146027208Y-79771239D01*
X145943525Y-80025420D01*
X134988000Y-80025420D01*
X134988000Y-72608123D01*
X136489097Y-72608123D01*
X136489097Y-73035477D01*
X136572470Y-73454621D01*
X136736012Y-73849445D01*
X136973437Y-74204777D01*
X137275623Y-74506963D01*
X137630955Y-74744388D01*
X138025779Y-74907930D01*
X138444923Y-74991303D01*
X138872277Y-74991303D01*
X139291421Y-74907930D01*
X139686245Y-74744388D01*
X140041577Y-74506963D01*
X140343763Y-74204777D01*
X140581188Y-73849445D01*
X140636255Y-73716500D01*
X142533000Y-73716500D01*
X142533000Y-73976500D01*
X142596110Y-74363265D01*
X142733461Y-74730286D01*
X142939775Y-75063459D01*
X143207124Y-75349980D01*
X143525233Y-75578839D01*
X143881878Y-75741240D01*
X144091110Y-75796075D01*
X144401000Y-75681353D01*
X144401000Y-73716500D01*
X144655000Y-73716500D01*
X144655000Y-75681353D01*
X144964890Y-75796075D01*
X145174122Y-75741240D01*
X145530767Y-75578839D01*
X145848876Y-75349980D01*
X146116225Y-75063459D01*
X146322539Y-74730286D01*
X146459890Y-74363265D01*
X146523000Y-73976500D01*
X146523000Y-73716500D01*
X152133000Y-73716500D01*
X152133000Y-73976500D01*
X152196110Y-74363265D01*
X152333461Y-74730286D01*
X152539775Y-75063459D01*
X152807124Y-75349980D01*
X153125233Y-75578839D01*
X153481878Y-75741240D01*
X153691110Y-75796075D01*
X154001000Y-75681353D01*
X154001000Y-73716500D01*
X154255000Y-73716500D01*
X154255000Y-75681353D01*
X154564890Y-75796075D01*
X154774122Y-75741240D01*
X155130767Y-75578839D01*
X155448876Y-75349980D01*
X155716225Y-75063459D01*
X155922539Y-74730286D01*
X156059890Y-74363265D01*
X156123000Y-73976500D01*
X156123000Y-73716500D01*
X154255000Y-73716500D01*
X154001000Y-73716500D01*
X152133000Y-73716500D01*
X146523000Y-73716500D01*
X144655000Y-73716500D01*
X144401000Y-73716500D01*
X142533000Y-73716500D01*
X140636255Y-73716500D01*
X140744730Y-73454621D01*
X140794880Y-73202500D01*
X142533000Y-73202500D01*
X142533000Y-73462500D01*
X144401000Y-73462500D01*
X144401000Y-71497647D01*
X144655000Y-71497647D01*
X144655000Y-73462500D01*
X146523000Y-73462500D01*
X146523000Y-73202500D01*
X152133000Y-73202500D01*
X152133000Y-73462500D01*
X154001000Y-73462500D01*
X154001000Y-71497647D01*
X154255000Y-71497647D01*
X154255000Y-73462500D01*
X156123000Y-73462500D01*
X156123000Y-73202500D01*
X156059890Y-72815735D01*
X155991701Y-72633523D01*
X157825097Y-72633523D01*
X157825097Y-73060877D01*
X157908470Y-73480021D01*
X158072012Y-73874845D01*
X158309437Y-74230177D01*
X158611623Y-74532363D01*
X158966955Y-74769788D01*
X159361779Y-74933330D01*
X159780923Y-75016703D01*
X160208277Y-75016703D01*
X160627421Y-74933330D01*
X161022245Y-74769788D01*
X161377577Y-74532363D01*
X161679763Y-74230177D01*
X161917188Y-73874845D01*
X162080730Y-73480021D01*
X162164103Y-73060877D01*
X162164103Y-72633523D01*
X162080730Y-72214379D01*
X161917188Y-71819555D01*
X161679763Y-71464223D01*
X161377577Y-71162037D01*
X161022245Y-70924612D01*
X160627421Y-70761070D01*
X160208277Y-70677697D01*
X159780923Y-70677697D01*
X159361779Y-70761070D01*
X158966955Y-70924612D01*
X158611623Y-71162037D01*
X158309437Y-71464223D01*
X158072012Y-71819555D01*
X157908470Y-72214379D01*
X157825097Y-72633523D01*
X155991701Y-72633523D01*
X155922539Y-72448714D01*
X155716225Y-72115541D01*
X155448876Y-71829020D01*
X155130767Y-71600161D01*
X154774122Y-71437760D01*
X154564890Y-71382925D01*
X154255000Y-71497647D01*
X154001000Y-71497647D01*
X153691110Y-71382925D01*
X153481878Y-71437760D01*
X153125233Y-71600161D01*
X152807124Y-71829020D01*
X152539775Y-72115541D01*
X152333461Y-72448714D01*
X152196110Y-72815735D01*
X152133000Y-73202500D01*
X146523000Y-73202500D01*
X146459890Y-72815735D01*
X146322539Y-72448714D01*
X146116225Y-72115541D01*
X145848876Y-71829020D01*
X145530767Y-71600161D01*
X145174122Y-71437760D01*
X144964890Y-71382925D01*
X144655000Y-71497647D01*
X144401000Y-71497647D01*
X144091110Y-71382925D01*
X143881878Y-71437760D01*
X143525233Y-71600161D01*
X143207124Y-71829020D01*
X142939775Y-72115541D01*
X142733461Y-72448714D01*
X142596110Y-72815735D01*
X142533000Y-73202500D01*
X140794880Y-73202500D01*
X140828103Y-73035477D01*
X140828103Y-72608123D01*
X140744730Y-72188979D01*
X140581188Y-71794155D01*
X140343763Y-71438823D01*
X140041577Y-71136637D01*
X139686245Y-70899212D01*
X139291421Y-70735670D01*
X138872277Y-70652297D01*
X138444923Y-70652297D01*
X138025779Y-70735670D01*
X137630955Y-70899212D01*
X137275623Y-71136637D01*
X136973437Y-71438823D01*
X136736012Y-71794155D01*
X136572470Y-72188979D01*
X136489097Y-72608123D01*
X134988000Y-72608123D01*
X134988000Y-68643100D01*
X163668000Y-68643100D01*
X163668000Y-79382799D01*
G37*
X163668000Y-79382799D02*
X162361804Y-78076603D01*
X162338001Y-78047599D01*
X162222276Y-77952626D01*
X162090247Y-77882054D01*
X161946986Y-77838597D01*
X161835333Y-77827600D01*
X161835322Y-77827600D01*
X161798000Y-77823924D01*
X161760678Y-77827600D01*
X155517223Y-77827600D01*
X155479900Y-77823924D01*
X155442577Y-77827600D01*
X155442567Y-77827600D01*
X155330914Y-77838597D01*
X155187653Y-77882054D01*
X155055623Y-77952626D01*
X154971983Y-78021268D01*
X154939899Y-78047599D01*
X154916101Y-78076597D01*
X153213081Y-79779618D01*
X153179185Y-79738315D01*
X153082494Y-79658963D01*
X152972180Y-79599998D01*
X152852482Y-79563688D01*
X152728000Y-79551428D01*
X150928000Y-79551428D01*
X150803518Y-79563688D01*
X150683820Y-79599998D01*
X150573506Y-79658963D01*
X150476815Y-79738315D01*
X150397463Y-79835006D01*
X150344120Y-79934803D01*
X150306505Y-79897188D01*
X150055095Y-79729201D01*
X149775743Y-79613489D01*
X149479184Y-79554500D01*
X149176816Y-79554500D01*
X148880257Y-79613489D01*
X148600905Y-79729201D01*
X148349495Y-79897188D01*
X148135688Y-80110995D01*
X148040262Y-80253810D01*
X147892080Y-80205025D01*
X147007605Y-81089500D01*
X147021748Y-81103643D01*
X146842143Y-81283248D01*
X146828000Y-81269105D01*
X146813858Y-81283248D01*
X146634253Y-81103643D01*
X146648395Y-81089500D01*
X145763920Y-80205025D01*
X145509739Y-80288708D01*
X145378842Y-80561275D01*
X145303635Y-80854142D01*
X145287009Y-81156053D01*
X145329603Y-81455407D01*
X145429778Y-81740699D01*
X145509739Y-81890292D01*
X145629438Y-81929700D01*
X140610323Y-81929700D01*
X140573000Y-81926024D01*
X140535677Y-81929700D01*
X140535667Y-81929700D01*
X140424014Y-81940697D01*
X140280753Y-81984154D01*
X140153000Y-82052440D01*
X140153000Y-81908440D01*
X140095932Y-81621542D01*
X139983990Y-81351289D01*
X139821475Y-81108068D01*
X139614632Y-80901225D01*
X139371411Y-80738710D01*
X139101158Y-80626768D01*
X138814260Y-80569700D01*
X138521740Y-80569700D01*
X138234842Y-80626768D01*
X137964589Y-80738710D01*
X137721368Y-80901225D01*
X137589513Y-81033080D01*
X137567502Y-80960520D01*
X137508537Y-80850206D01*
X137429185Y-80753515D01*
X137332494Y-80674163D01*
X137222180Y-80615198D01*
X137102482Y-80578888D01*
X136978000Y-80566628D01*
X135278000Y-80566628D01*
X135153518Y-80578888D01*
X135033820Y-80615198D01*
X134988000Y-80639690D01*
X134988000Y-80025420D01*
X145943525Y-80025420D01*
X146828000Y-80909895D01*
X147712475Y-80025420D01*
X147628792Y-79771239D01*
X147356225Y-79640342D01*
X147063358Y-79565135D01*
X146761447Y-79548509D01*
X146462093Y-79591103D01*
X146176801Y-79691278D01*
X146027208Y-79771239D01*
X145943525Y-80025420D01*
X134988000Y-80025420D01*
X134988000Y-72608123D01*
X136489097Y-72608123D01*
X136489097Y-73035477D01*
X136572470Y-73454621D01*
X136736012Y-73849445D01*
X136973437Y-74204777D01*
X137275623Y-74506963D01*
X137630955Y-74744388D01*
X138025779Y-74907930D01*
X138444923Y-74991303D01*
X138872277Y-74991303D01*
X139291421Y-74907930D01*
X139686245Y-74744388D01*
X140041577Y-74506963D01*
X140343763Y-74204777D01*
X140581188Y-73849445D01*
X140636255Y-73716500D01*
X142533000Y-73716500D01*
X142533000Y-73976500D01*
X142596110Y-74363265D01*
X142733461Y-74730286D01*
X142939775Y-75063459D01*
X143207124Y-75349980D01*
X143525233Y-75578839D01*
X143881878Y-75741240D01*
X144091110Y-75796075D01*
X144401000Y-75681353D01*
X144401000Y-73716500D01*
X144655000Y-73716500D01*
X144655000Y-75681353D01*
X144964890Y-75796075D01*
X145174122Y-75741240D01*
X145530767Y-75578839D01*
X145848876Y-75349980D01*
X146116225Y-75063459D01*
X146322539Y-74730286D01*
X146459890Y-74363265D01*
X146523000Y-73976500D01*
X146523000Y-73716500D01*
X152133000Y-73716500D01*
X152133000Y-73976500D01*
X152196110Y-74363265D01*
X152333461Y-74730286D01*
X152539775Y-75063459D01*
X152807124Y-75349980D01*
X153125233Y-75578839D01*
X153481878Y-75741240D01*
X153691110Y-75796075D01*
X154001000Y-75681353D01*
X154001000Y-73716500D01*
X154255000Y-73716500D01*
X154255000Y-75681353D01*
X154564890Y-75796075D01*
X154774122Y-75741240D01*
X155130767Y-75578839D01*
X155448876Y-75349980D01*
X155716225Y-75063459D01*
X155922539Y-74730286D01*
X156059890Y-74363265D01*
X156123000Y-73976500D01*
X156123000Y-73716500D01*
X154255000Y-73716500D01*
X154001000Y-73716500D01*
X152133000Y-73716500D01*
X146523000Y-73716500D01*
X144655000Y-73716500D01*
X144401000Y-73716500D01*
X142533000Y-73716500D01*
X140636255Y-73716500D01*
X140744730Y-73454621D01*
X140794880Y-73202500D01*
X142533000Y-73202500D01*
X142533000Y-73462500D01*
X144401000Y-73462500D01*
X144401000Y-71497647D01*
X144655000Y-71497647D01*
X144655000Y-73462500D01*
X146523000Y-73462500D01*
X146523000Y-73202500D01*
X152133000Y-73202500D01*
X152133000Y-73462500D01*
X154001000Y-73462500D01*
X154001000Y-71497647D01*
X154255000Y-71497647D01*
X154255000Y-73462500D01*
X156123000Y-73462500D01*
X156123000Y-73202500D01*
X156059890Y-72815735D01*
X155991701Y-72633523D01*
X157825097Y-72633523D01*
X157825097Y-73060877D01*
X157908470Y-73480021D01*
X158072012Y-73874845D01*
X158309437Y-74230177D01*
X158611623Y-74532363D01*
X158966955Y-74769788D01*
X159361779Y-74933330D01*
X159780923Y-75016703D01*
X160208277Y-75016703D01*
X160627421Y-74933330D01*
X161022245Y-74769788D01*
X161377577Y-74532363D01*
X161679763Y-74230177D01*
X161917188Y-73874845D01*
X162080730Y-73480021D01*
X162164103Y-73060877D01*
X162164103Y-72633523D01*
X162080730Y-72214379D01*
X161917188Y-71819555D01*
X161679763Y-71464223D01*
X161377577Y-71162037D01*
X161022245Y-70924612D01*
X160627421Y-70761070D01*
X160208277Y-70677697D01*
X159780923Y-70677697D01*
X159361779Y-70761070D01*
X158966955Y-70924612D01*
X158611623Y-71162037D01*
X158309437Y-71464223D01*
X158072012Y-71819555D01*
X157908470Y-72214379D01*
X157825097Y-72633523D01*
X155991701Y-72633523D01*
X155922539Y-72448714D01*
X155716225Y-72115541D01*
X155448876Y-71829020D01*
X155130767Y-71600161D01*
X154774122Y-71437760D01*
X154564890Y-71382925D01*
X154255000Y-71497647D01*
X154001000Y-71497647D01*
X153691110Y-71382925D01*
X153481878Y-71437760D01*
X153125233Y-71600161D01*
X152807124Y-71829020D01*
X152539775Y-72115541D01*
X152333461Y-72448714D01*
X152196110Y-72815735D01*
X152133000Y-73202500D01*
X146523000Y-73202500D01*
X146459890Y-72815735D01*
X146322539Y-72448714D01*
X146116225Y-72115541D01*
X145848876Y-71829020D01*
X145530767Y-71600161D01*
X145174122Y-71437760D01*
X144964890Y-71382925D01*
X144655000Y-71497647D01*
X144401000Y-71497647D01*
X144091110Y-71382925D01*
X143881878Y-71437760D01*
X143525233Y-71600161D01*
X143207124Y-71829020D01*
X142939775Y-72115541D01*
X142733461Y-72448714D01*
X142596110Y-72815735D01*
X142533000Y-73202500D01*
X140794880Y-73202500D01*
X140828103Y-73035477D01*
X140828103Y-72608123D01*
X140744730Y-72188979D01*
X140581188Y-71794155D01*
X140343763Y-71438823D01*
X140041577Y-71136637D01*
X139686245Y-70899212D01*
X139291421Y-70735670D01*
X138872277Y-70652297D01*
X138444923Y-70652297D01*
X138025779Y-70735670D01*
X137630955Y-70899212D01*
X137275623Y-71136637D01*
X136973437Y-71438823D01*
X136736012Y-71794155D01*
X136572470Y-72188979D01*
X136489097Y-72608123D01*
X134988000Y-72608123D01*
X134988000Y-68643100D01*
X163668000Y-68643100D01*
X163668000Y-79382799D01*
M02*
