G04 #@! TF.GenerationSoftware,KiCad,Pcbnew,5.1.5-52549c5~86~ubuntu19.04.1*
G04 #@! TF.CreationDate,2020-05-05T22:35:55+02:00*
G04 #@! TF.ProjectId,NotSoTinyDimmer,4e6f7453-6f54-4696-9e79-44696d6d6572,1.3.3*
G04 #@! TF.SameCoordinates,Original*
G04 #@! TF.FileFunction,Legend,Top*
G04 #@! TF.FilePolarity,Positive*
%FSLAX46Y46*%
G04 Gerber Fmt 4.6, Leading zero omitted, Abs format (unit mm)*
G04 Created by KiCad (PCBNEW 5.1.5-52549c5~86~ubuntu19.04.1) date 2020-05-05 22:35:55*
%MOMM*%
%LPD*%
G04 APERTURE LIST*
%ADD10C,0.100000*%
%ADD11C,0.150000*%
%ADD12C,0.120000*%
%ADD13C,0.010000*%
G04 APERTURE END LIST*
D10*
X144754666Y-108285800D02*
X144688000Y-108252466D01*
X144588000Y-108252466D01*
X144488000Y-108285800D01*
X144421333Y-108352466D01*
X144388000Y-108419133D01*
X144354666Y-108552466D01*
X144354666Y-108652466D01*
X144388000Y-108785800D01*
X144421333Y-108852466D01*
X144488000Y-108919133D01*
X144588000Y-108952466D01*
X144654666Y-108952466D01*
X144754666Y-108919133D01*
X144788000Y-108885800D01*
X144788000Y-108652466D01*
X144654666Y-108652466D01*
X145088000Y-108952466D02*
X145088000Y-108252466D01*
X145488000Y-108952466D01*
X145488000Y-108252466D01*
X145821333Y-108952466D02*
X145821333Y-108252466D01*
X145988000Y-108252466D01*
X146088000Y-108285800D01*
X146154666Y-108352466D01*
X146188000Y-108419133D01*
X146221333Y-108552466D01*
X146221333Y-108652466D01*
X146188000Y-108785800D01*
X146154666Y-108852466D01*
X146088000Y-108919133D01*
X145988000Y-108952466D01*
X145821333Y-108952466D01*
X156768000Y-108585800D02*
X156868000Y-108619133D01*
X156901333Y-108652466D01*
X156934666Y-108719133D01*
X156934666Y-108819133D01*
X156901333Y-108885800D01*
X156868000Y-108919133D01*
X156801333Y-108952466D01*
X156534666Y-108952466D01*
X156534666Y-108252466D01*
X156768000Y-108252466D01*
X156834666Y-108285800D01*
X156868000Y-108319133D01*
X156901333Y-108385800D01*
X156901333Y-108452466D01*
X156868000Y-108519133D01*
X156834666Y-108552466D01*
X156768000Y-108585800D01*
X156534666Y-108585800D01*
X154361333Y-108285800D02*
X154294666Y-108252466D01*
X154194666Y-108252466D01*
X154094666Y-108285800D01*
X154028000Y-108352466D01*
X153994666Y-108419133D01*
X153961333Y-108552466D01*
X153961333Y-108652466D01*
X153994666Y-108785800D01*
X154028000Y-108852466D01*
X154094666Y-108919133D01*
X154194666Y-108952466D01*
X154261333Y-108952466D01*
X154361333Y-108919133D01*
X154394666Y-108885800D01*
X154394666Y-108652466D01*
X154261333Y-108652466D01*
X151854666Y-108952466D02*
X151621333Y-108619133D01*
X151454666Y-108952466D02*
X151454666Y-108252466D01*
X151721333Y-108252466D01*
X151788000Y-108285800D01*
X151821333Y-108319133D01*
X151854666Y-108385800D01*
X151854666Y-108485800D01*
X151821333Y-108552466D01*
X151788000Y-108585800D01*
X151721333Y-108619133D01*
X151454666Y-108619133D01*
X148664666Y-108952466D02*
X148264666Y-108952466D01*
X148464666Y-108952466D02*
X148464666Y-108252466D01*
X148398000Y-108352466D01*
X148331333Y-108419133D01*
X148264666Y-108452466D01*
X148931333Y-108319133D02*
X148964666Y-108285800D01*
X149031333Y-108252466D01*
X149198000Y-108252466D01*
X149264666Y-108285800D01*
X149298000Y-108319133D01*
X149331333Y-108385800D01*
X149331333Y-108452466D01*
X149298000Y-108552466D01*
X148898000Y-108952466D01*
X149331333Y-108952466D01*
X149531333Y-108252466D02*
X149764666Y-108952466D01*
X149998000Y-108252466D01*
X142213066Y-108952466D02*
X141813066Y-108952466D01*
X142013066Y-108952466D02*
X142013066Y-108252466D01*
X141946400Y-108352466D01*
X141879733Y-108419133D01*
X141813066Y-108452466D01*
X142479733Y-108319133D02*
X142513066Y-108285800D01*
X142579733Y-108252466D01*
X142746400Y-108252466D01*
X142813066Y-108285800D01*
X142846400Y-108319133D01*
X142879733Y-108385800D01*
X142879733Y-108452466D01*
X142846400Y-108552466D01*
X142446400Y-108952466D01*
X142879733Y-108952466D01*
X143079733Y-108252466D02*
X143313066Y-108952466D01*
X143546400Y-108252466D01*
X138436266Y-108285800D02*
X138369600Y-108252466D01*
X138269600Y-108252466D01*
X138169600Y-108285800D01*
X138102933Y-108352466D01*
X138069600Y-108419133D01*
X138036266Y-108552466D01*
X138036266Y-108652466D01*
X138069600Y-108785800D01*
X138102933Y-108852466D01*
X138169600Y-108919133D01*
X138269600Y-108952466D01*
X138336266Y-108952466D01*
X138436266Y-108919133D01*
X138469600Y-108885800D01*
X138469600Y-108652466D01*
X138336266Y-108652466D01*
X138769600Y-108952466D02*
X138769600Y-108252466D01*
X139169600Y-108952466D01*
X139169600Y-108252466D01*
X139502933Y-108952466D02*
X139502933Y-108252466D01*
X139669600Y-108252466D01*
X139769600Y-108285800D01*
X139836266Y-108352466D01*
X139869600Y-108419133D01*
X139902933Y-108552466D01*
X139902933Y-108652466D01*
X139869600Y-108785800D01*
X139836266Y-108852466D01*
X139769600Y-108919133D01*
X139669600Y-108952466D01*
X139502933Y-108952466D01*
X136296266Y-108252466D02*
X135962933Y-108252466D01*
X135929600Y-108585800D01*
X135962933Y-108552466D01*
X136029600Y-108519133D01*
X136196266Y-108519133D01*
X136262933Y-108552466D01*
X136296266Y-108585800D01*
X136329600Y-108652466D01*
X136329600Y-108819133D01*
X136296266Y-108885800D01*
X136262933Y-108919133D01*
X136196266Y-108952466D01*
X136029600Y-108952466D01*
X135962933Y-108919133D01*
X135929600Y-108885800D01*
X136529600Y-108252466D02*
X136762933Y-108952466D01*
X136996266Y-108252466D01*
D11*
X134807966Y-76008666D02*
X134807966Y-75308666D01*
X135207966Y-76008666D01*
X135207966Y-75308666D01*
X135641300Y-76008666D02*
X135574633Y-75975333D01*
X135541300Y-75942000D01*
X135507966Y-75875333D01*
X135507966Y-75675333D01*
X135541300Y-75608666D01*
X135574633Y-75575333D01*
X135641300Y-75542000D01*
X135741300Y-75542000D01*
X135807966Y-75575333D01*
X135841300Y-75608666D01*
X135874633Y-75675333D01*
X135874633Y-75875333D01*
X135841300Y-75942000D01*
X135807966Y-75975333D01*
X135741300Y-76008666D01*
X135641300Y-76008666D01*
X136174633Y-75542000D02*
X136174633Y-76008666D01*
X136174633Y-75608666D02*
X136207966Y-75575333D01*
X136274633Y-75542000D01*
X136374633Y-75542000D01*
X136441300Y-75575333D01*
X136474633Y-75642000D01*
X136474633Y-76008666D01*
X136807966Y-75742000D02*
X137341300Y-75742000D01*
X137974633Y-76008666D02*
X137974633Y-75642000D01*
X137941300Y-75575333D01*
X137874633Y-75542000D01*
X137741300Y-75542000D01*
X137674633Y-75575333D01*
X137974633Y-75975333D02*
X137907966Y-76008666D01*
X137741300Y-76008666D01*
X137674633Y-75975333D01*
X137641300Y-75908666D01*
X137641300Y-75842000D01*
X137674633Y-75775333D01*
X137741300Y-75742000D01*
X137907966Y-75742000D01*
X137974633Y-75708666D01*
X138607966Y-76008666D02*
X138607966Y-75308666D01*
X138607966Y-75975333D02*
X138541300Y-76008666D01*
X138407966Y-76008666D01*
X138341300Y-75975333D01*
X138307966Y-75942000D01*
X138274633Y-75875333D01*
X138274633Y-75675333D01*
X138307966Y-75608666D01*
X138341300Y-75575333D01*
X138407966Y-75542000D01*
X138541300Y-75542000D01*
X138607966Y-75575333D01*
X139241300Y-76008666D02*
X139241300Y-75308666D01*
X139241300Y-75975333D02*
X139174633Y-76008666D01*
X139041300Y-76008666D01*
X138974633Y-75975333D01*
X138941300Y-75942000D01*
X138907966Y-75875333D01*
X138907966Y-75675333D01*
X138941300Y-75608666D01*
X138974633Y-75575333D01*
X139041300Y-75542000D01*
X139174633Y-75542000D01*
X139241300Y-75575333D01*
X139574633Y-76008666D02*
X139574633Y-75542000D01*
X139574633Y-75675333D02*
X139607966Y-75608666D01*
X139641300Y-75575333D01*
X139707966Y-75542000D01*
X139774633Y-75542000D01*
X140474633Y-75542000D02*
X140641300Y-76008666D01*
X140807966Y-75542000D01*
X141341300Y-75975333D02*
X141274633Y-76008666D01*
X141141300Y-76008666D01*
X141074633Y-75975333D01*
X141041300Y-75908666D01*
X141041300Y-75642000D01*
X141074633Y-75575333D01*
X141141300Y-75542000D01*
X141274633Y-75542000D01*
X141341300Y-75575333D01*
X141374633Y-75642000D01*
X141374633Y-75708666D01*
X141041300Y-75775333D01*
X141674633Y-76008666D02*
X141674633Y-75542000D01*
X141674633Y-75675333D02*
X141707966Y-75608666D01*
X141741300Y-75575333D01*
X141807966Y-75542000D01*
X141874633Y-75542000D01*
X145170857Y-76950508D02*
X144885142Y-76950508D01*
X144885142Y-76350508D01*
X145370857Y-76950508D02*
X145370857Y-76550508D01*
X145370857Y-76350508D02*
X145342285Y-76379080D01*
X145370857Y-76407651D01*
X145399428Y-76379080D01*
X145370857Y-76350508D01*
X145370857Y-76407651D01*
X145913714Y-76921937D02*
X145856571Y-76950508D01*
X145742285Y-76950508D01*
X145685142Y-76921937D01*
X145656571Y-76893365D01*
X145628000Y-76836222D01*
X145628000Y-76664794D01*
X145656571Y-76607651D01*
X145685142Y-76579080D01*
X145742285Y-76550508D01*
X145856571Y-76550508D01*
X145913714Y-76579080D01*
X146399428Y-76921937D02*
X146342285Y-76950508D01*
X146228000Y-76950508D01*
X146170857Y-76921937D01*
X146142285Y-76864794D01*
X146142285Y-76636222D01*
X146170857Y-76579080D01*
X146228000Y-76550508D01*
X146342285Y-76550508D01*
X146399428Y-76579080D01*
X146428000Y-76636222D01*
X146428000Y-76693365D01*
X146142285Y-76750508D01*
X146685142Y-76550508D02*
X146685142Y-76950508D01*
X146685142Y-76607651D02*
X146713714Y-76579080D01*
X146770857Y-76550508D01*
X146856571Y-76550508D01*
X146913714Y-76579080D01*
X146942285Y-76636222D01*
X146942285Y-76950508D01*
X147199428Y-76921937D02*
X147256571Y-76950508D01*
X147370857Y-76950508D01*
X147428000Y-76921937D01*
X147456571Y-76864794D01*
X147456571Y-76836222D01*
X147428000Y-76779080D01*
X147370857Y-76750508D01*
X147285142Y-76750508D01*
X147228000Y-76721937D01*
X147199428Y-76664794D01*
X147199428Y-76636222D01*
X147228000Y-76579080D01*
X147285142Y-76550508D01*
X147370857Y-76550508D01*
X147428000Y-76579080D01*
X147942285Y-76921937D02*
X147885142Y-76950508D01*
X147770857Y-76950508D01*
X147713714Y-76921937D01*
X147685142Y-76864794D01*
X147685142Y-76636222D01*
X147713714Y-76579080D01*
X147770857Y-76550508D01*
X147885142Y-76550508D01*
X147942285Y-76579080D01*
X147970857Y-76636222D01*
X147970857Y-76693365D01*
X147685142Y-76750508D01*
X148485142Y-76950508D02*
X148485142Y-76350508D01*
X148485142Y-76921937D02*
X148428000Y-76950508D01*
X148313714Y-76950508D01*
X148256571Y-76921937D01*
X148228000Y-76893365D01*
X148199428Y-76836222D01*
X148199428Y-76664794D01*
X148228000Y-76607651D01*
X148256571Y-76579080D01*
X148313714Y-76550508D01*
X148428000Y-76550508D01*
X148485142Y-76579080D01*
X149485142Y-76550508D02*
X149485142Y-76950508D01*
X149228000Y-76550508D02*
X149228000Y-76864794D01*
X149256571Y-76921937D01*
X149313714Y-76950508D01*
X149399428Y-76950508D01*
X149456571Y-76921937D01*
X149485142Y-76893365D01*
X149770857Y-76550508D02*
X149770857Y-76950508D01*
X149770857Y-76607651D02*
X149799428Y-76579080D01*
X149856571Y-76550508D01*
X149942285Y-76550508D01*
X149999428Y-76579080D01*
X150028000Y-76636222D01*
X150028000Y-76950508D01*
X150570857Y-76950508D02*
X150570857Y-76350508D01*
X150570857Y-76921937D02*
X150513714Y-76950508D01*
X150399428Y-76950508D01*
X150342285Y-76921937D01*
X150313714Y-76893365D01*
X150285142Y-76836222D01*
X150285142Y-76664794D01*
X150313714Y-76607651D01*
X150342285Y-76579080D01*
X150399428Y-76550508D01*
X150513714Y-76550508D01*
X150570857Y-76579080D01*
X151085142Y-76921937D02*
X151028000Y-76950508D01*
X150913714Y-76950508D01*
X150856571Y-76921937D01*
X150828000Y-76864794D01*
X150828000Y-76636222D01*
X150856571Y-76579080D01*
X150913714Y-76550508D01*
X151028000Y-76550508D01*
X151085142Y-76579080D01*
X151113714Y-76636222D01*
X151113714Y-76693365D01*
X150828000Y-76750508D01*
X151370857Y-76950508D02*
X151370857Y-76550508D01*
X151370857Y-76664794D02*
X151399428Y-76607651D01*
X151428000Y-76579080D01*
X151485142Y-76550508D01*
X151542285Y-76550508D01*
X152113714Y-76550508D02*
X152342285Y-76550508D01*
X152199428Y-76350508D02*
X152199428Y-76864794D01*
X152228000Y-76921937D01*
X152285142Y-76950508D01*
X152342285Y-76950508D01*
X152542285Y-76950508D02*
X152542285Y-76350508D01*
X152799428Y-76950508D02*
X152799428Y-76636222D01*
X152770857Y-76579080D01*
X152713714Y-76550508D01*
X152628000Y-76550508D01*
X152570857Y-76579080D01*
X152542285Y-76607651D01*
X153313714Y-76921937D02*
X153256571Y-76950508D01*
X153142285Y-76950508D01*
X153085142Y-76921937D01*
X153056571Y-76864794D01*
X153056571Y-76636222D01*
X153085142Y-76579080D01*
X153142285Y-76550508D01*
X153256571Y-76550508D01*
X153313714Y-76579080D01*
X153342285Y-76636222D01*
X153342285Y-76693365D01*
X153056571Y-76750508D01*
X142528000Y-77400508D02*
X142870857Y-77400508D01*
X142699428Y-78000508D02*
X142699428Y-77400508D01*
X143042285Y-77829080D02*
X143328000Y-77829080D01*
X142985142Y-78000508D02*
X143185142Y-77400508D01*
X143385142Y-78000508D01*
X143585142Y-78000508D02*
X143585142Y-77400508D01*
X143813714Y-77400508D01*
X143870857Y-77429080D01*
X143899428Y-77457651D01*
X143928000Y-77514794D01*
X143928000Y-77600508D01*
X143899428Y-77657651D01*
X143870857Y-77686222D01*
X143813714Y-77714794D01*
X143585142Y-77714794D01*
X144528000Y-78000508D02*
X144328000Y-77714794D01*
X144185142Y-78000508D02*
X144185142Y-77400508D01*
X144413714Y-77400508D01*
X144470857Y-77429080D01*
X144499428Y-77457651D01*
X144528000Y-77514794D01*
X144528000Y-77600508D01*
X144499428Y-77657651D01*
X144470857Y-77686222D01*
X144413714Y-77714794D01*
X144185142Y-77714794D01*
X145356571Y-77400508D02*
X145470857Y-77400508D01*
X145528000Y-77429080D01*
X145585142Y-77486222D01*
X145613714Y-77600508D01*
X145613714Y-77800508D01*
X145585142Y-77914794D01*
X145528000Y-77971937D01*
X145470857Y-78000508D01*
X145356571Y-78000508D01*
X145299428Y-77971937D01*
X145242285Y-77914794D01*
X145213714Y-77800508D01*
X145213714Y-77600508D01*
X145242285Y-77486222D01*
X145299428Y-77429080D01*
X145356571Y-77400508D01*
X145870857Y-77600508D02*
X145870857Y-78200508D01*
X145870857Y-77629080D02*
X145928000Y-77600508D01*
X146042285Y-77600508D01*
X146099428Y-77629080D01*
X146128000Y-77657651D01*
X146156571Y-77714794D01*
X146156571Y-77886222D01*
X146128000Y-77943365D01*
X146099428Y-77971937D01*
X146042285Y-78000508D01*
X145928000Y-78000508D01*
X145870857Y-77971937D01*
X146642285Y-77971937D02*
X146585142Y-78000508D01*
X146470857Y-78000508D01*
X146413714Y-77971937D01*
X146385142Y-77914794D01*
X146385142Y-77686222D01*
X146413714Y-77629080D01*
X146470857Y-77600508D01*
X146585142Y-77600508D01*
X146642285Y-77629080D01*
X146670857Y-77686222D01*
X146670857Y-77743365D01*
X146385142Y-77800508D01*
X146928000Y-77600508D02*
X146928000Y-78000508D01*
X146928000Y-77657651D02*
X146956571Y-77629080D01*
X147013714Y-77600508D01*
X147099428Y-77600508D01*
X147156571Y-77629080D01*
X147185142Y-77686222D01*
X147185142Y-78000508D01*
X147928000Y-78000508D02*
X147928000Y-77400508D01*
X147928000Y-77686222D02*
X148270857Y-77686222D01*
X148270857Y-78000508D02*
X148270857Y-77400508D01*
X148813714Y-78000508D02*
X148813714Y-77686222D01*
X148785142Y-77629080D01*
X148728000Y-77600508D01*
X148613714Y-77600508D01*
X148556571Y-77629080D01*
X148813714Y-77971937D02*
X148756571Y-78000508D01*
X148613714Y-78000508D01*
X148556571Y-77971937D01*
X148528000Y-77914794D01*
X148528000Y-77857651D01*
X148556571Y-77800508D01*
X148613714Y-77771937D01*
X148756571Y-77771937D01*
X148813714Y-77743365D01*
X149099428Y-78000508D02*
X149099428Y-77600508D01*
X149099428Y-77714794D02*
X149128000Y-77657651D01*
X149156571Y-77629080D01*
X149213714Y-77600508D01*
X149270857Y-77600508D01*
X149728000Y-78000508D02*
X149728000Y-77400508D01*
X149728000Y-77971937D02*
X149670857Y-78000508D01*
X149556571Y-78000508D01*
X149499428Y-77971937D01*
X149470857Y-77943365D01*
X149442285Y-77886222D01*
X149442285Y-77714794D01*
X149470857Y-77657651D01*
X149499428Y-77629080D01*
X149556571Y-77600508D01*
X149670857Y-77600508D01*
X149728000Y-77629080D01*
X149956571Y-77600508D02*
X150070857Y-78000508D01*
X150185142Y-77714794D01*
X150299428Y-78000508D01*
X150413714Y-77600508D01*
X150899428Y-78000508D02*
X150899428Y-77686222D01*
X150870857Y-77629080D01*
X150813714Y-77600508D01*
X150699428Y-77600508D01*
X150642285Y-77629080D01*
X150899428Y-77971937D02*
X150842285Y-78000508D01*
X150699428Y-78000508D01*
X150642285Y-77971937D01*
X150613714Y-77914794D01*
X150613714Y-77857651D01*
X150642285Y-77800508D01*
X150699428Y-77771937D01*
X150842285Y-77771937D01*
X150899428Y-77743365D01*
X151185142Y-78000508D02*
X151185142Y-77600508D01*
X151185142Y-77714794D02*
X151213714Y-77657651D01*
X151242285Y-77629080D01*
X151299428Y-77600508D01*
X151356571Y-77600508D01*
X151785142Y-77971937D02*
X151728000Y-78000508D01*
X151613714Y-78000508D01*
X151556571Y-77971937D01*
X151528000Y-77914794D01*
X151528000Y-77686222D01*
X151556571Y-77629080D01*
X151613714Y-77600508D01*
X151728000Y-77600508D01*
X151785142Y-77629080D01*
X151813714Y-77686222D01*
X151813714Y-77743365D01*
X151528000Y-77800508D01*
X152813714Y-78000508D02*
X152528000Y-78000508D01*
X152528000Y-77400508D01*
X153013714Y-78000508D02*
X153013714Y-77600508D01*
X153013714Y-77400508D02*
X152985142Y-77429080D01*
X153013714Y-77457651D01*
X153042285Y-77429080D01*
X153013714Y-77400508D01*
X153013714Y-77457651D01*
X153556571Y-77971937D02*
X153499428Y-78000508D01*
X153385142Y-78000508D01*
X153328000Y-77971937D01*
X153299428Y-77943365D01*
X153270857Y-77886222D01*
X153270857Y-77714794D01*
X153299428Y-77657651D01*
X153328000Y-77629080D01*
X153385142Y-77600508D01*
X153499428Y-77600508D01*
X153556571Y-77629080D01*
X154042285Y-77971937D02*
X153985142Y-78000508D01*
X153870857Y-78000508D01*
X153813714Y-77971937D01*
X153785142Y-77914794D01*
X153785142Y-77686222D01*
X153813714Y-77629080D01*
X153870857Y-77600508D01*
X153985142Y-77600508D01*
X154042285Y-77629080D01*
X154070857Y-77686222D01*
X154070857Y-77743365D01*
X153785142Y-77800508D01*
X154328000Y-77600508D02*
X154328000Y-78000508D01*
X154328000Y-77657651D02*
X154356571Y-77629080D01*
X154413714Y-77600508D01*
X154499428Y-77600508D01*
X154556571Y-77629080D01*
X154585142Y-77686222D01*
X154585142Y-78000508D01*
X154842285Y-77971937D02*
X154899428Y-78000508D01*
X155013714Y-78000508D01*
X155070857Y-77971937D01*
X155099428Y-77914794D01*
X155099428Y-77886222D01*
X155070857Y-77829080D01*
X155013714Y-77800508D01*
X154928000Y-77800508D01*
X154870857Y-77771937D01*
X154842285Y-77714794D01*
X154842285Y-77686222D01*
X154870857Y-77629080D01*
X154928000Y-77600508D01*
X155013714Y-77600508D01*
X155070857Y-77629080D01*
X155585142Y-77971937D02*
X155528000Y-78000508D01*
X155413714Y-78000508D01*
X155356571Y-77971937D01*
X155328000Y-77914794D01*
X155328000Y-77686222D01*
X155356571Y-77629080D01*
X155413714Y-77600508D01*
X155528000Y-77600508D01*
X155585142Y-77629080D01*
X155613714Y-77686222D01*
X155613714Y-77743365D01*
X155328000Y-77800508D01*
X148470857Y-78650508D02*
X148613714Y-79050508D01*
X148756571Y-78650508D01*
X149299428Y-79050508D02*
X148956571Y-79050508D01*
X149128000Y-79050508D02*
X149128000Y-78450508D01*
X149070857Y-78536222D01*
X149013714Y-78593365D01*
X148956571Y-78621937D01*
X149556571Y-78993365D02*
X149585142Y-79021937D01*
X149556571Y-79050508D01*
X149528000Y-79021937D01*
X149556571Y-78993365D01*
X149556571Y-79050508D01*
X149956571Y-78450508D02*
X150013714Y-78450508D01*
X150070857Y-78479080D01*
X150099428Y-78507651D01*
X150128000Y-78564794D01*
X150156571Y-78679080D01*
X150156571Y-78821937D01*
X150128000Y-78936222D01*
X150099428Y-78993365D01*
X150070857Y-79021937D01*
X150013714Y-79050508D01*
X149956571Y-79050508D01*
X149899428Y-79021937D01*
X149870857Y-78993365D01*
X149842285Y-78936222D01*
X149813714Y-78821937D01*
X149813714Y-78679080D01*
X149842285Y-78564794D01*
X149870857Y-78507651D01*
X149899428Y-78479080D01*
X149956571Y-78450508D01*
X147378000Y-69877106D02*
X147144666Y-69543773D01*
X146978000Y-69877106D02*
X146978000Y-69177106D01*
X147244666Y-69177106D01*
X147311333Y-69210440D01*
X147344666Y-69243773D01*
X147378000Y-69310440D01*
X147378000Y-69410440D01*
X147344666Y-69477106D01*
X147311333Y-69510440D01*
X147244666Y-69543773D01*
X146978000Y-69543773D01*
X147944666Y-69843773D02*
X147878000Y-69877106D01*
X147744666Y-69877106D01*
X147678000Y-69843773D01*
X147644666Y-69777106D01*
X147644666Y-69510440D01*
X147678000Y-69443773D01*
X147744666Y-69410440D01*
X147878000Y-69410440D01*
X147944666Y-69443773D01*
X147978000Y-69510440D01*
X147978000Y-69577106D01*
X147644666Y-69643773D01*
X148211333Y-69410440D02*
X148378000Y-69877106D01*
X148544666Y-69410440D01*
X149711333Y-69877106D02*
X149311333Y-69877106D01*
X149511333Y-69877106D02*
X149511333Y-69177106D01*
X149444666Y-69277106D01*
X149378000Y-69343773D01*
X149311333Y-69377106D01*
X150011333Y-69810440D02*
X150044666Y-69843773D01*
X150011333Y-69877106D01*
X149978000Y-69843773D01*
X150011333Y-69810440D01*
X150011333Y-69877106D01*
X150278000Y-69177106D02*
X150711333Y-69177106D01*
X150478000Y-69443773D01*
X150578000Y-69443773D01*
X150644666Y-69477106D01*
X150678000Y-69510440D01*
X150711333Y-69577106D01*
X150711333Y-69743773D01*
X150678000Y-69810440D01*
X150644666Y-69843773D01*
X150578000Y-69877106D01*
X150378000Y-69877106D01*
X150311333Y-69843773D01*
X150278000Y-69810440D01*
X151011333Y-69810440D02*
X151044666Y-69843773D01*
X151011333Y-69877106D01*
X150978000Y-69843773D01*
X151011333Y-69810440D01*
X151011333Y-69877106D01*
X151278000Y-69177106D02*
X151711333Y-69177106D01*
X151478000Y-69443773D01*
X151578000Y-69443773D01*
X151644666Y-69477106D01*
X151678000Y-69510440D01*
X151711333Y-69577106D01*
X151711333Y-69743773D01*
X151678000Y-69810440D01*
X151644666Y-69843773D01*
X151578000Y-69877106D01*
X151378000Y-69877106D01*
X151311333Y-69843773D01*
X151278000Y-69810440D01*
X162196857Y-78824157D02*
X162228285Y-78729871D01*
X162259714Y-78698442D01*
X162322571Y-78667014D01*
X162416857Y-78667014D01*
X162479714Y-78698442D01*
X162511142Y-78729871D01*
X162542571Y-78792728D01*
X162542571Y-79044157D01*
X161882571Y-79044157D01*
X161882571Y-78824157D01*
X161914000Y-78761300D01*
X161945428Y-78729871D01*
X162008285Y-78698442D01*
X162071142Y-78698442D01*
X162134000Y-78729871D01*
X162165428Y-78761300D01*
X162196857Y-78824157D01*
X162196857Y-79044157D01*
X162102571Y-78447014D02*
X162542571Y-78289871D01*
X162102571Y-78132728D02*
X162542571Y-78289871D01*
X162699714Y-78352728D01*
X162731142Y-78384157D01*
X162762571Y-78447014D01*
X162542571Y-77378442D02*
X161882571Y-77378442D01*
X161882571Y-77127014D01*
X161914000Y-77064157D01*
X161945428Y-77032728D01*
X162008285Y-77001300D01*
X162102571Y-77001300D01*
X162165428Y-77032728D01*
X162196857Y-77064157D01*
X162228285Y-77127014D01*
X162228285Y-77378442D01*
X162542571Y-76435585D02*
X162196857Y-76435585D01*
X162134000Y-76467014D01*
X162102571Y-76529871D01*
X162102571Y-76655585D01*
X162134000Y-76718442D01*
X162511142Y-76435585D02*
X162542571Y-76498442D01*
X162542571Y-76655585D01*
X162511142Y-76718442D01*
X162448285Y-76749871D01*
X162385428Y-76749871D01*
X162322571Y-76718442D01*
X162291142Y-76655585D01*
X162291142Y-76498442D01*
X162259714Y-76435585D01*
X162102571Y-76215585D02*
X162102571Y-75964157D01*
X161882571Y-76121300D02*
X162448285Y-76121300D01*
X162511142Y-76089871D01*
X162542571Y-76027014D01*
X162542571Y-75964157D01*
X162542571Y-75744157D02*
X162102571Y-75744157D01*
X162228285Y-75744157D02*
X162165428Y-75712728D01*
X162134000Y-75681300D01*
X162102571Y-75618442D01*
X162102571Y-75555585D01*
X162542571Y-75335585D02*
X162102571Y-75335585D01*
X161882571Y-75335585D02*
X161914000Y-75367014D01*
X161945428Y-75335585D01*
X161914000Y-75304157D01*
X161882571Y-75335585D01*
X161945428Y-75335585D01*
X162511142Y-74738442D02*
X162542571Y-74801300D01*
X162542571Y-74927014D01*
X162511142Y-74989871D01*
X162479714Y-75021300D01*
X162416857Y-75052728D01*
X162228285Y-75052728D01*
X162165428Y-75021300D01*
X162134000Y-74989871D01*
X162102571Y-74927014D01*
X162102571Y-74801300D01*
X162134000Y-74738442D01*
X162542571Y-74455585D02*
X161882571Y-74455585D01*
X162291142Y-74392728D02*
X162542571Y-74204157D01*
X162102571Y-74204157D02*
X162354000Y-74455585D01*
X162542571Y-73418442D02*
X161882571Y-73418442D01*
X161882571Y-73167014D01*
X161914000Y-73104157D01*
X161945428Y-73072728D01*
X162008285Y-73041300D01*
X162102571Y-73041300D01*
X162165428Y-73072728D01*
X162196857Y-73104157D01*
X162228285Y-73167014D01*
X162228285Y-73418442D01*
X162511142Y-72507014D02*
X162542571Y-72569871D01*
X162542571Y-72695585D01*
X162511142Y-72758442D01*
X162448285Y-72789871D01*
X162196857Y-72789871D01*
X162134000Y-72758442D01*
X162102571Y-72695585D01*
X162102571Y-72569871D01*
X162134000Y-72507014D01*
X162196857Y-72475585D01*
X162259714Y-72475585D01*
X162322571Y-72789871D01*
X162542571Y-71909871D02*
X161882571Y-71909871D01*
X162511142Y-71909871D02*
X162542571Y-71972728D01*
X162542571Y-72098442D01*
X162511142Y-72161300D01*
X162479714Y-72192728D01*
X162416857Y-72224157D01*
X162228285Y-72224157D01*
X162165428Y-72192728D01*
X162134000Y-72161300D01*
X162102571Y-72098442D01*
X162102571Y-71972728D01*
X162134000Y-71909871D01*
X162511142Y-71344157D02*
X162542571Y-71407014D01*
X162542571Y-71532728D01*
X162511142Y-71595585D01*
X162448285Y-71627014D01*
X162196857Y-71627014D01*
X162134000Y-71595585D01*
X162102571Y-71532728D01*
X162102571Y-71407014D01*
X162134000Y-71344157D01*
X162196857Y-71312728D01*
X162259714Y-71312728D01*
X162322571Y-71627014D01*
X162542571Y-71029871D02*
X162102571Y-71029871D01*
X162228285Y-71029871D02*
X162165428Y-70998442D01*
X162134000Y-70967014D01*
X162102571Y-70904157D01*
X162102571Y-70841300D01*
X162511142Y-70652728D02*
X162542571Y-70589871D01*
X162542571Y-70464157D01*
X162511142Y-70401300D01*
X162448285Y-70369871D01*
X162416857Y-70369871D01*
X162354000Y-70401300D01*
X162322571Y-70464157D01*
X162322571Y-70558442D01*
X162291142Y-70621300D01*
X162228285Y-70652728D01*
X162196857Y-70652728D01*
X162134000Y-70621300D01*
X162102571Y-70558442D01*
X162102571Y-70464157D01*
X162134000Y-70401300D01*
X162511142Y-69835585D02*
X162542571Y-69898442D01*
X162542571Y-70024157D01*
X162511142Y-70087014D01*
X162448285Y-70118442D01*
X162196857Y-70118442D01*
X162134000Y-70087014D01*
X162102571Y-70024157D01*
X162102571Y-69898442D01*
X162134000Y-69835585D01*
X162196857Y-69804157D01*
X162259714Y-69804157D01*
X162322571Y-70118442D01*
X162102571Y-69521300D02*
X162542571Y-69521300D01*
X162165428Y-69521300D02*
X162134000Y-69489871D01*
X162102571Y-69427014D01*
X162102571Y-69332728D01*
X162134000Y-69269871D01*
X162196857Y-69238442D01*
X162542571Y-69238442D01*
X163242571Y-78541300D02*
X163431142Y-79044157D01*
X163619714Y-78541300D01*
X163651142Y-77944157D02*
X163682571Y-78007014D01*
X163682571Y-78132728D01*
X163651142Y-78195585D01*
X163619714Y-78227014D01*
X163556857Y-78258442D01*
X163368285Y-78258442D01*
X163305428Y-78227014D01*
X163274000Y-78195585D01*
X163242571Y-78132728D01*
X163242571Y-78007014D01*
X163274000Y-77944157D01*
X163242571Y-77755585D02*
X163242571Y-77504157D01*
X163022571Y-77661300D02*
X163588285Y-77661300D01*
X163651142Y-77629871D01*
X163682571Y-77567014D01*
X163682571Y-77504157D01*
X163682571Y-77347014D02*
X163242571Y-77001300D01*
X163242571Y-77347014D02*
X163682571Y-77001300D01*
X163619714Y-76749871D02*
X163651142Y-76718442D01*
X163682571Y-76749871D01*
X163651142Y-76781300D01*
X163619714Y-76749871D01*
X163682571Y-76749871D01*
X163682571Y-76498442D02*
X163242571Y-76152728D01*
X163242571Y-76498442D02*
X163682571Y-76152728D01*
X163682571Y-75618442D02*
X163022571Y-75618442D01*
X163651142Y-75618442D02*
X163682571Y-75681300D01*
X163682571Y-75807014D01*
X163651142Y-75869871D01*
X163619714Y-75901300D01*
X163556857Y-75932728D01*
X163368285Y-75932728D01*
X163305428Y-75901300D01*
X163274000Y-75869871D01*
X163242571Y-75807014D01*
X163242571Y-75681300D01*
X163274000Y-75618442D01*
X163682571Y-75021300D02*
X163336857Y-75021300D01*
X163274000Y-75052728D01*
X163242571Y-75115585D01*
X163242571Y-75241300D01*
X163274000Y-75304157D01*
X163651142Y-75021300D02*
X163682571Y-75084157D01*
X163682571Y-75241300D01*
X163651142Y-75304157D01*
X163588285Y-75335585D01*
X163525428Y-75335585D01*
X163462571Y-75304157D01*
X163431142Y-75241300D01*
X163431142Y-75084157D01*
X163399714Y-75021300D01*
X163368285Y-74298442D02*
X163336857Y-74329871D01*
X163305428Y-74392728D01*
X163305428Y-74455585D01*
X163336857Y-74518442D01*
X163368285Y-74549871D01*
X163431142Y-74581300D01*
X163494000Y-74581300D01*
X163556857Y-74549871D01*
X163588285Y-74518442D01*
X163619714Y-74455585D01*
X163619714Y-74392728D01*
X163588285Y-74329871D01*
X163556857Y-74298442D01*
X163305428Y-74298442D02*
X163556857Y-74298442D01*
X163588285Y-74267014D01*
X163588285Y-74235585D01*
X163556857Y-74172728D01*
X163494000Y-74141300D01*
X163336857Y-74141300D01*
X163242571Y-74204157D01*
X163179714Y-74298442D01*
X163148285Y-74424157D01*
X163179714Y-74549871D01*
X163242571Y-74644157D01*
X163336857Y-74707014D01*
X163462571Y-74738442D01*
X163588285Y-74707014D01*
X163682571Y-74644157D01*
X163745428Y-74549871D01*
X163776857Y-74424157D01*
X163745428Y-74298442D01*
X163682571Y-74204157D01*
X163242571Y-73575585D02*
X163776857Y-73575585D01*
X163839714Y-73607014D01*
X163871142Y-73638442D01*
X163902571Y-73701300D01*
X163902571Y-73795585D01*
X163871142Y-73858442D01*
X163651142Y-73575585D02*
X163682571Y-73638442D01*
X163682571Y-73764157D01*
X163651142Y-73827014D01*
X163619714Y-73858442D01*
X163556857Y-73889871D01*
X163368285Y-73889871D01*
X163305428Y-73858442D01*
X163274000Y-73827014D01*
X163242571Y-73764157D01*
X163242571Y-73638442D01*
X163274000Y-73575585D01*
X163682571Y-73261300D02*
X163242571Y-73261300D01*
X163305428Y-73261300D02*
X163274000Y-73229871D01*
X163242571Y-73167014D01*
X163242571Y-73072728D01*
X163274000Y-73009871D01*
X163336857Y-72978442D01*
X163682571Y-72978442D01*
X163336857Y-72978442D02*
X163274000Y-72947014D01*
X163242571Y-72884157D01*
X163242571Y-72789871D01*
X163274000Y-72727014D01*
X163336857Y-72695585D01*
X163682571Y-72695585D01*
X163682571Y-72098442D02*
X163336857Y-72098442D01*
X163274000Y-72129871D01*
X163242571Y-72192728D01*
X163242571Y-72318442D01*
X163274000Y-72381300D01*
X163651142Y-72098442D02*
X163682571Y-72161300D01*
X163682571Y-72318442D01*
X163651142Y-72381300D01*
X163588285Y-72412728D01*
X163525428Y-72412728D01*
X163462571Y-72381300D01*
X163431142Y-72318442D01*
X163431142Y-72161300D01*
X163399714Y-72098442D01*
X163682571Y-71784157D02*
X163242571Y-71784157D01*
X163022571Y-71784157D02*
X163054000Y-71815585D01*
X163085428Y-71784157D01*
X163054000Y-71752728D01*
X163022571Y-71784157D01*
X163085428Y-71784157D01*
X163682571Y-71375585D02*
X163651142Y-71438442D01*
X163588285Y-71469871D01*
X163022571Y-71469871D01*
X163619714Y-71124157D02*
X163651142Y-71092728D01*
X163682571Y-71124157D01*
X163651142Y-71155585D01*
X163619714Y-71124157D01*
X163682571Y-71124157D01*
X163651142Y-70527014D02*
X163682571Y-70589871D01*
X163682571Y-70715585D01*
X163651142Y-70778442D01*
X163619714Y-70809871D01*
X163556857Y-70841300D01*
X163368285Y-70841300D01*
X163305428Y-70809871D01*
X163274000Y-70778442D01*
X163242571Y-70715585D01*
X163242571Y-70589871D01*
X163274000Y-70527014D01*
X163682571Y-70149871D02*
X163651142Y-70212728D01*
X163619714Y-70244157D01*
X163556857Y-70275585D01*
X163368285Y-70275585D01*
X163305428Y-70244157D01*
X163274000Y-70212728D01*
X163242571Y-70149871D01*
X163242571Y-70055585D01*
X163274000Y-69992728D01*
X163305428Y-69961300D01*
X163368285Y-69929871D01*
X163556857Y-69929871D01*
X163619714Y-69961300D01*
X163651142Y-69992728D01*
X163682571Y-70055585D01*
X163682571Y-70149871D01*
X163682571Y-69647014D02*
X163242571Y-69647014D01*
X163305428Y-69647014D02*
X163274000Y-69615585D01*
X163242571Y-69552728D01*
X163242571Y-69458442D01*
X163274000Y-69395585D01*
X163336857Y-69364157D01*
X163682571Y-69364157D01*
X163336857Y-69364157D02*
X163274000Y-69332728D01*
X163242571Y-69269871D01*
X163242571Y-69175585D01*
X163274000Y-69112728D01*
X163336857Y-69081300D01*
X163682571Y-69081300D01*
X163242571Y-68767014D02*
X163431142Y-68264157D01*
X163619714Y-68767014D01*
X134838399Y-70516704D02*
X134838399Y-69716704D01*
X135028875Y-69716704D01*
X135143161Y-69754800D01*
X135219351Y-69830990D01*
X135257446Y-69907180D01*
X135295542Y-70059561D01*
X135295542Y-70173847D01*
X135257446Y-70326228D01*
X135219351Y-70402419D01*
X135143161Y-70478609D01*
X135028875Y-70516704D01*
X134838399Y-70516704D01*
X135638399Y-70516704D02*
X135638399Y-69983371D01*
X135638399Y-69716704D02*
X135600303Y-69754800D01*
X135638399Y-69792895D01*
X135676494Y-69754800D01*
X135638399Y-69716704D01*
X135638399Y-69792895D01*
X136019351Y-70516704D02*
X136019351Y-69983371D01*
X136019351Y-70059561D02*
X136057446Y-70021466D01*
X136133637Y-69983371D01*
X136247923Y-69983371D01*
X136324113Y-70021466D01*
X136362208Y-70097657D01*
X136362208Y-70516704D01*
X136362208Y-70097657D02*
X136400303Y-70021466D01*
X136476494Y-69983371D01*
X136590780Y-69983371D01*
X136666970Y-70021466D01*
X136705065Y-70097657D01*
X136705065Y-70516704D01*
X137086018Y-70516704D02*
X137086018Y-69983371D01*
X137086018Y-70059561D02*
X137124113Y-70021466D01*
X137200303Y-69983371D01*
X137314589Y-69983371D01*
X137390780Y-70021466D01*
X137428875Y-70097657D01*
X137428875Y-70516704D01*
X137428875Y-70097657D02*
X137466970Y-70021466D01*
X137543161Y-69983371D01*
X137657446Y-69983371D01*
X137733637Y-70021466D01*
X137771732Y-70097657D01*
X137771732Y-70516704D01*
X138457446Y-70478609D02*
X138381256Y-70516704D01*
X138228875Y-70516704D01*
X138152684Y-70478609D01*
X138114589Y-70402419D01*
X138114589Y-70097657D01*
X138152684Y-70021466D01*
X138228875Y-69983371D01*
X138381256Y-69983371D01*
X138457446Y-70021466D01*
X138495542Y-70097657D01*
X138495542Y-70173847D01*
X138114589Y-70250038D01*
X138838399Y-70516704D02*
X138838399Y-69983371D01*
X138838399Y-70135752D02*
X138876494Y-70059561D01*
X138914589Y-70021466D01*
X138990780Y-69983371D01*
X139066970Y-69983371D01*
X140206514Y-68717308D02*
X140549371Y-68717308D01*
X140377942Y-69317308D02*
X140377942Y-68717308D01*
X140749371Y-69317308D02*
X140749371Y-68917308D01*
X140749371Y-68717308D02*
X140720800Y-68745880D01*
X140749371Y-68774451D01*
X140777942Y-68745880D01*
X140749371Y-68717308D01*
X140749371Y-68774451D01*
X141035085Y-68917308D02*
X141035085Y-69317308D01*
X141035085Y-68974451D02*
X141063657Y-68945880D01*
X141120800Y-68917308D01*
X141206514Y-68917308D01*
X141263657Y-68945880D01*
X141292228Y-69003022D01*
X141292228Y-69317308D01*
X141520800Y-68917308D02*
X141663657Y-69317308D01*
X141806514Y-68917308D02*
X141663657Y-69317308D01*
X141606514Y-69460165D01*
X141577942Y-69488737D01*
X141520800Y-69517308D01*
X134815899Y-69251784D02*
X134815899Y-68451784D01*
X135273041Y-69251784D01*
X135273041Y-68451784D01*
X135768280Y-69251784D02*
X135692089Y-69213689D01*
X135653994Y-69175594D01*
X135615899Y-69099403D01*
X135615899Y-68870832D01*
X135653994Y-68794641D01*
X135692089Y-68756546D01*
X135768280Y-68718451D01*
X135882565Y-68718451D01*
X135958756Y-68756546D01*
X135996851Y-68794641D01*
X136034946Y-68870832D01*
X136034946Y-69099403D01*
X135996851Y-69175594D01*
X135958756Y-69213689D01*
X135882565Y-69251784D01*
X135768280Y-69251784D01*
X136263518Y-68718451D02*
X136568280Y-68718451D01*
X136377803Y-68451784D02*
X136377803Y-69137499D01*
X136415899Y-69213689D01*
X136492089Y-69251784D01*
X136568280Y-69251784D01*
X136834946Y-68947022D02*
X137444470Y-68947022D01*
X137787327Y-69213689D02*
X137901613Y-69251784D01*
X138092089Y-69251784D01*
X138168280Y-69213689D01*
X138206375Y-69175594D01*
X138244470Y-69099403D01*
X138244470Y-69023213D01*
X138206375Y-68947022D01*
X138168280Y-68908927D01*
X138092089Y-68870832D01*
X137939708Y-68832737D01*
X137863518Y-68794641D01*
X137825422Y-68756546D01*
X137787327Y-68680356D01*
X137787327Y-68604165D01*
X137825422Y-68527975D01*
X137863518Y-68489880D01*
X137939708Y-68451784D01*
X138130184Y-68451784D01*
X138244470Y-68489880D01*
X138701613Y-69251784D02*
X138625422Y-69213689D01*
X138587327Y-69175594D01*
X138549232Y-69099403D01*
X138549232Y-68870832D01*
X138587327Y-68794641D01*
X138625422Y-68756546D01*
X138701613Y-68718451D01*
X138815899Y-68718451D01*
X138892089Y-68756546D01*
X138930184Y-68794641D01*
X138968280Y-68870832D01*
X138968280Y-69099403D01*
X138930184Y-69175594D01*
X138892089Y-69213689D01*
X138815899Y-69251784D01*
X138701613Y-69251784D01*
X139311137Y-68947022D02*
X139920660Y-68947022D01*
D12*
X140913400Y-116530000D02*
X141313400Y-116530000D01*
X140913400Y-115890000D02*
X140913400Y-116530000D01*
X146933400Y-109550000D02*
X146933400Y-116290000D01*
X141153400Y-109550000D02*
X141153400Y-116290000D01*
X141153400Y-116290000D02*
X146933400Y-116290000D01*
X141153400Y-109550000D02*
X146933400Y-109550000D01*
X141153400Y-110670000D02*
X146933400Y-110670000D01*
X141153400Y-115770000D02*
X146933400Y-115770000D01*
X134595000Y-116530000D02*
X134995000Y-116530000D01*
X134595000Y-115890000D02*
X134595000Y-116530000D01*
X140615000Y-109550000D02*
X140615000Y-116290000D01*
X134835000Y-109550000D02*
X134835000Y-116290000D01*
X134835000Y-116290000D02*
X140615000Y-116290000D01*
X134835000Y-109550000D02*
X140615000Y-109550000D01*
X134835000Y-110670000D02*
X140615000Y-110670000D01*
X134835000Y-115770000D02*
X140615000Y-115770000D01*
X161228800Y-80004400D02*
X157388800Y-80004400D01*
X161228800Y-81844400D02*
X157388800Y-81844400D01*
X161702000Y-87822800D02*
X161702000Y-83982800D01*
X159862000Y-87822800D02*
X159862000Y-83982800D01*
X158654000Y-87924400D02*
X158654000Y-84084400D01*
X156814000Y-87924400D02*
X156814000Y-84084400D01*
D10*
X162572400Y-107563600D02*
X162172400Y-107563600D01*
X162572400Y-107163600D02*
X162572400Y-107563600D01*
X162572400Y-97363600D02*
X162572400Y-97763600D01*
X162572400Y-97363600D02*
X162172400Y-97363600D01*
X157772400Y-97363600D02*
X157772400Y-97763600D01*
X157772400Y-97363600D02*
X162172400Y-97363600D01*
X157772400Y-107563600D02*
X157772400Y-107163600D01*
X157772400Y-107563600D02*
X158172400Y-107563600D01*
X161462400Y-97363600D02*
X161462400Y-107463600D01*
X145572800Y-104120000D02*
X155672800Y-104120000D01*
X155772800Y-107810000D02*
X155772800Y-107410000D01*
X155772800Y-107810000D02*
X155372800Y-107810000D01*
X145572800Y-107810000D02*
X145572800Y-103410000D01*
X145572800Y-107810000D02*
X145972800Y-107810000D01*
X145572800Y-103010000D02*
X145572800Y-103410000D01*
X145572800Y-103010000D02*
X145972800Y-103010000D01*
X155372800Y-103010000D02*
X155772800Y-103010000D01*
X155772800Y-103010000D02*
X155772800Y-103410000D01*
X134752400Y-104120000D02*
X144852400Y-104120000D01*
X144952400Y-107810000D02*
X144952400Y-107410000D01*
X144952400Y-107810000D02*
X144552400Y-107810000D01*
X134752400Y-107810000D02*
X134752400Y-103410000D01*
X134752400Y-107810000D02*
X135152400Y-107810000D01*
X134752400Y-103010000D02*
X134752400Y-103410000D01*
X134752400Y-103010000D02*
X135152400Y-103010000D01*
X144552400Y-103010000D02*
X144952400Y-103010000D01*
X144952400Y-103010000D02*
X144952400Y-103410000D01*
D12*
X147503400Y-115770000D02*
X158364400Y-115770000D01*
X147503400Y-110670000D02*
X158364400Y-110670000D01*
X147503400Y-109550000D02*
X158364400Y-109550000D01*
X147503400Y-116290000D02*
X158364400Y-116290000D01*
X147503400Y-109550000D02*
X147503400Y-116290000D01*
X158364400Y-109550000D02*
X158364400Y-116290000D01*
X147263400Y-115890000D02*
X147263400Y-116530000D01*
X147263400Y-116530000D02*
X147663400Y-116530000D01*
X142644800Y-100088500D02*
X139904800Y-100088500D01*
X142644800Y-89848500D02*
X139904800Y-89848500D01*
X139904800Y-89848500D02*
X139904800Y-100088500D01*
X142644800Y-89848500D02*
X142644800Y-100088500D01*
X138773000Y-100088500D02*
X136033000Y-100088500D01*
X138773000Y-89848500D02*
X136033000Y-89848500D01*
X136033000Y-89848500D02*
X136033000Y-100088500D01*
X138773000Y-89848500D02*
X138773000Y-100088500D01*
D13*
G36*
X149431910Y-70374028D02*
G01*
X149510454Y-70374458D01*
X149567298Y-70375622D01*
X149606105Y-70377887D01*
X149630538Y-70381620D01*
X149644262Y-70387186D01*
X149650940Y-70394953D01*
X149654236Y-70405285D01*
X149654556Y-70406623D01*
X149659562Y-70430759D01*
X149668829Y-70478381D01*
X149681392Y-70544421D01*
X149696287Y-70623808D01*
X149712551Y-70711476D01*
X149713119Y-70714555D01*
X149729410Y-70800469D01*
X149744652Y-70876376D01*
X149757861Y-70937725D01*
X149768054Y-70979962D01*
X149774248Y-70998535D01*
X149774543Y-70998864D01*
X149792788Y-71007933D01*
X149830405Y-71023047D01*
X149879271Y-71040942D01*
X149879543Y-71041038D01*
X149941093Y-71064173D01*
X150013657Y-71093645D01*
X150082057Y-71123277D01*
X150085294Y-71124742D01*
X150196702Y-71175306D01*
X150443399Y-71006840D01*
X150519077Y-70955483D01*
X150587631Y-70909569D01*
X150645088Y-70871710D01*
X150687476Y-70844517D01*
X150710825Y-70830601D01*
X150713042Y-70829569D01*
X150730010Y-70834164D01*
X150761701Y-70856335D01*
X150809352Y-70897127D01*
X150874198Y-70957585D01*
X150940397Y-71021907D01*
X151004214Y-71085292D01*
X151061329Y-71143131D01*
X151108305Y-71191855D01*
X151141703Y-71227890D01*
X151158085Y-71247664D01*
X151158694Y-71248682D01*
X151160505Y-71262252D01*
X151153683Y-71284413D01*
X151136540Y-71318158D01*
X151107393Y-71366480D01*
X151064555Y-71432372D01*
X151007448Y-71517197D01*
X150956766Y-71591857D01*
X150911461Y-71658820D01*
X150874150Y-71714196D01*
X150847452Y-71754100D01*
X150833985Y-71774642D01*
X150833137Y-71776036D01*
X150834781Y-71795718D01*
X150847245Y-71833973D01*
X150868048Y-71883569D01*
X150875462Y-71899408D01*
X150907814Y-71969970D01*
X150942328Y-72050033D01*
X150970365Y-72119309D01*
X150990568Y-72170725D01*
X151006615Y-72209799D01*
X151015888Y-72230221D01*
X151017041Y-72231794D01*
X151034096Y-72234401D01*
X151074298Y-72241543D01*
X151132302Y-72252203D01*
X151202763Y-72265365D01*
X151280335Y-72280013D01*
X151359672Y-72295129D01*
X151435431Y-72309698D01*
X151502264Y-72322702D01*
X151554828Y-72333125D01*
X151587776Y-72339950D01*
X151595857Y-72341879D01*
X151604205Y-72346642D01*
X151610506Y-72357398D01*
X151615045Y-72377778D01*
X151618104Y-72411414D01*
X151619967Y-72461935D01*
X151620918Y-72532972D01*
X151621240Y-72628156D01*
X151621257Y-72667172D01*
X151621257Y-72984479D01*
X151545057Y-72999519D01*
X151502663Y-73007675D01*
X151439400Y-73019579D01*
X151362962Y-73033796D01*
X151281043Y-73048890D01*
X151258400Y-73053035D01*
X151182806Y-73067733D01*
X151116953Y-73082185D01*
X151066366Y-73095055D01*
X151036574Y-73105002D01*
X151031612Y-73107967D01*
X151019426Y-73128963D01*
X151001953Y-73169647D01*
X150982577Y-73222002D01*
X150978734Y-73233280D01*
X150953339Y-73303203D01*
X150921817Y-73382098D01*
X150890969Y-73452946D01*
X150890817Y-73453275D01*
X150839447Y-73564413D01*
X151008399Y-73812933D01*
X151177352Y-74061452D01*
X150960429Y-74278738D01*
X150894819Y-74343406D01*
X150834979Y-74400413D01*
X150784267Y-74446713D01*
X150746046Y-74479264D01*
X150723675Y-74495023D01*
X150720466Y-74496023D01*
X150701626Y-74488149D01*
X150663180Y-74466258D01*
X150609330Y-74432947D01*
X150544276Y-74390811D01*
X150473940Y-74343623D01*
X150402555Y-74295490D01*
X150338908Y-74253608D01*
X150287041Y-74220551D01*
X150250995Y-74198898D01*
X150234867Y-74191223D01*
X150215189Y-74197717D01*
X150177875Y-74214830D01*
X150130621Y-74239006D01*
X150125612Y-74241693D01*
X150061977Y-74273607D01*
X150018341Y-74289259D01*
X149991202Y-74289425D01*
X149977057Y-74274884D01*
X149976975Y-74274680D01*
X149969905Y-74257459D01*
X149953042Y-74216579D01*
X149927695Y-74155205D01*
X149895171Y-74076499D01*
X149856778Y-73983627D01*
X149813822Y-73879752D01*
X149772222Y-73779182D01*
X149726504Y-73668196D01*
X149684526Y-73565383D01*
X149647548Y-73473895D01*
X149616827Y-73396881D01*
X149593622Y-73337495D01*
X149579190Y-73298889D01*
X149574743Y-73284480D01*
X149585896Y-73267952D01*
X149615069Y-73241610D01*
X149653971Y-73212567D01*
X149764757Y-73120719D01*
X149851351Y-73015439D01*
X149912716Y-72898946D01*
X149947815Y-72773456D01*
X149955608Y-72641187D01*
X149949943Y-72580137D01*
X149919078Y-72453475D01*
X149865920Y-72341621D01*
X149793767Y-72245681D01*
X149705917Y-72166756D01*
X149605665Y-72105950D01*
X149496310Y-72064367D01*
X149381147Y-72043108D01*
X149263475Y-72043279D01*
X149146590Y-72065981D01*
X149033789Y-72112318D01*
X148928369Y-72183393D01*
X148884368Y-72223591D01*
X148799979Y-72326809D01*
X148741222Y-72439605D01*
X148707704Y-72558690D01*
X148699035Y-72680775D01*
X148714823Y-72802573D01*
X148754678Y-72920796D01*
X148818207Y-73032155D01*
X148905021Y-73133364D01*
X149002029Y-73212567D01*
X149042437Y-73242842D01*
X149070982Y-73268899D01*
X149081257Y-73284505D01*
X149075877Y-73301523D01*
X149060575Y-73342180D01*
X149036612Y-73403322D01*
X149005244Y-73481799D01*
X148967732Y-73574460D01*
X148925333Y-73678152D01*
X148883663Y-73779206D01*
X148837690Y-73890287D01*
X148795107Y-73993221D01*
X148757221Y-74084845D01*
X148725340Y-74161996D01*
X148700771Y-74221511D01*
X148684820Y-74260224D01*
X148678910Y-74274680D01*
X148664948Y-74289365D01*
X148637940Y-74289322D01*
X148594413Y-74273779D01*
X148530890Y-74241964D01*
X148530388Y-74241693D01*
X148482560Y-74217003D01*
X148443897Y-74199018D01*
X148422095Y-74191294D01*
X148421133Y-74191223D01*
X148404721Y-74199058D01*
X148368487Y-74220845D01*
X148316474Y-74254008D01*
X148252725Y-74295971D01*
X148182060Y-74343623D01*
X148110116Y-74391871D01*
X148045274Y-74433831D01*
X147991735Y-74466907D01*
X147953697Y-74488501D01*
X147935533Y-74496023D01*
X147918808Y-74486137D01*
X147885180Y-74458506D01*
X147838010Y-74416175D01*
X147780658Y-74362185D01*
X147716484Y-74299579D01*
X147695497Y-74278663D01*
X147478499Y-74061303D01*
X147643668Y-73818900D01*
X147693864Y-73744461D01*
X147737919Y-73677652D01*
X147773362Y-73622345D01*
X147797719Y-73582409D01*
X147808522Y-73561716D01*
X147808838Y-73560243D01*
X147803143Y-73540738D01*
X147787826Y-73501502D01*
X147765537Y-73449110D01*
X147749893Y-73414035D01*
X147720641Y-73346881D01*
X147693094Y-73279038D01*
X147671737Y-73221714D01*
X147665935Y-73204252D01*
X147649452Y-73157618D01*
X147633340Y-73121585D01*
X147624490Y-73107967D01*
X147604960Y-73099632D01*
X147562334Y-73087817D01*
X147502145Y-73073861D01*
X147429922Y-73059102D01*
X147397600Y-73053035D01*
X147315522Y-73037953D01*
X147236795Y-73023349D01*
X147169109Y-73010660D01*
X147120160Y-73001322D01*
X147110943Y-72999519D01*
X147034743Y-72984479D01*
X147034743Y-72667172D01*
X147034914Y-72562834D01*
X147035616Y-72483893D01*
X147037134Y-72426718D01*
X147039749Y-72387679D01*
X147043746Y-72363145D01*
X147049409Y-72349485D01*
X147057020Y-72343069D01*
X147060143Y-72341879D01*
X147078978Y-72337660D01*
X147120588Y-72329242D01*
X147179630Y-72317641D01*
X147250757Y-72303875D01*
X147328625Y-72288960D01*
X147407887Y-72273912D01*
X147483198Y-72259749D01*
X147549213Y-72247486D01*
X147600587Y-72238141D01*
X147631975Y-72232730D01*
X147638959Y-72231794D01*
X147645285Y-72219276D01*
X147659290Y-72185926D01*
X147678355Y-72138057D01*
X147685634Y-72119309D01*
X147714996Y-72046875D01*
X147749571Y-71966850D01*
X147780537Y-71899408D01*
X147803323Y-71847839D01*
X147818482Y-71805465D01*
X147823542Y-71779514D01*
X147822736Y-71776036D01*
X147812041Y-71759616D01*
X147787620Y-71723097D01*
X147752095Y-71670367D01*
X147708087Y-71605315D01*
X147658217Y-71531831D01*
X147648356Y-71517325D01*
X147590492Y-71431384D01*
X147547956Y-71365941D01*
X147519054Y-71317984D01*
X147502090Y-71284500D01*
X147495367Y-71262475D01*
X147497190Y-71248897D01*
X147497236Y-71248811D01*
X147511586Y-71230977D01*
X147543323Y-71196497D01*
X147589010Y-71148948D01*
X147645204Y-71091902D01*
X147708468Y-71028935D01*
X147715602Y-71021907D01*
X147795330Y-70944700D01*
X147856857Y-70888010D01*
X147901421Y-70850790D01*
X147930257Y-70831995D01*
X147942958Y-70829569D01*
X147961494Y-70840151D01*
X147999961Y-70864596D01*
X148054386Y-70900292D01*
X148120798Y-70944627D01*
X148195225Y-70994991D01*
X148212601Y-71006840D01*
X148459297Y-71175306D01*
X148570706Y-71124742D01*
X148638457Y-71095275D01*
X148711183Y-71065639D01*
X148773703Y-71042010D01*
X148776457Y-71041038D01*
X148825360Y-71023137D01*
X148863057Y-71008000D01*
X148881425Y-70998890D01*
X148881456Y-70998864D01*
X148887285Y-70982397D01*
X148897192Y-70941899D01*
X148910195Y-70881922D01*
X148925309Y-70807020D01*
X148941552Y-70721744D01*
X148942881Y-70714555D01*
X148959175Y-70626694D01*
X148974133Y-70546940D01*
X148986791Y-70480361D01*
X148996186Y-70432027D01*
X149001354Y-70407005D01*
X149001444Y-70406623D01*
X149004589Y-70395979D01*
X149010704Y-70387942D01*
X149023453Y-70382147D01*
X149046500Y-70378227D01*
X149083509Y-70375815D01*
X149138144Y-70374545D01*
X149214067Y-70374051D01*
X149314944Y-70373966D01*
X149328000Y-70373966D01*
X149431910Y-70374028D01*
G37*
X149431910Y-70374028D02*
X149510454Y-70374458D01*
X149567298Y-70375622D01*
X149606105Y-70377887D01*
X149630538Y-70381620D01*
X149644262Y-70387186D01*
X149650940Y-70394953D01*
X149654236Y-70405285D01*
X149654556Y-70406623D01*
X149659562Y-70430759D01*
X149668829Y-70478381D01*
X149681392Y-70544421D01*
X149696287Y-70623808D01*
X149712551Y-70711476D01*
X149713119Y-70714555D01*
X149729410Y-70800469D01*
X149744652Y-70876376D01*
X149757861Y-70937725D01*
X149768054Y-70979962D01*
X149774248Y-70998535D01*
X149774543Y-70998864D01*
X149792788Y-71007933D01*
X149830405Y-71023047D01*
X149879271Y-71040942D01*
X149879543Y-71041038D01*
X149941093Y-71064173D01*
X150013657Y-71093645D01*
X150082057Y-71123277D01*
X150085294Y-71124742D01*
X150196702Y-71175306D01*
X150443399Y-71006840D01*
X150519077Y-70955483D01*
X150587631Y-70909569D01*
X150645088Y-70871710D01*
X150687476Y-70844517D01*
X150710825Y-70830601D01*
X150713042Y-70829569D01*
X150730010Y-70834164D01*
X150761701Y-70856335D01*
X150809352Y-70897127D01*
X150874198Y-70957585D01*
X150940397Y-71021907D01*
X151004214Y-71085292D01*
X151061329Y-71143131D01*
X151108305Y-71191855D01*
X151141703Y-71227890D01*
X151158085Y-71247664D01*
X151158694Y-71248682D01*
X151160505Y-71262252D01*
X151153683Y-71284413D01*
X151136540Y-71318158D01*
X151107393Y-71366480D01*
X151064555Y-71432372D01*
X151007448Y-71517197D01*
X150956766Y-71591857D01*
X150911461Y-71658820D01*
X150874150Y-71714196D01*
X150847452Y-71754100D01*
X150833985Y-71774642D01*
X150833137Y-71776036D01*
X150834781Y-71795718D01*
X150847245Y-71833973D01*
X150868048Y-71883569D01*
X150875462Y-71899408D01*
X150907814Y-71969970D01*
X150942328Y-72050033D01*
X150970365Y-72119309D01*
X150990568Y-72170725D01*
X151006615Y-72209799D01*
X151015888Y-72230221D01*
X151017041Y-72231794D01*
X151034096Y-72234401D01*
X151074298Y-72241543D01*
X151132302Y-72252203D01*
X151202763Y-72265365D01*
X151280335Y-72280013D01*
X151359672Y-72295129D01*
X151435431Y-72309698D01*
X151502264Y-72322702D01*
X151554828Y-72333125D01*
X151587776Y-72339950D01*
X151595857Y-72341879D01*
X151604205Y-72346642D01*
X151610506Y-72357398D01*
X151615045Y-72377778D01*
X151618104Y-72411414D01*
X151619967Y-72461935D01*
X151620918Y-72532972D01*
X151621240Y-72628156D01*
X151621257Y-72667172D01*
X151621257Y-72984479D01*
X151545057Y-72999519D01*
X151502663Y-73007675D01*
X151439400Y-73019579D01*
X151362962Y-73033796D01*
X151281043Y-73048890D01*
X151258400Y-73053035D01*
X151182806Y-73067733D01*
X151116953Y-73082185D01*
X151066366Y-73095055D01*
X151036574Y-73105002D01*
X151031612Y-73107967D01*
X151019426Y-73128963D01*
X151001953Y-73169647D01*
X150982577Y-73222002D01*
X150978734Y-73233280D01*
X150953339Y-73303203D01*
X150921817Y-73382098D01*
X150890969Y-73452946D01*
X150890817Y-73453275D01*
X150839447Y-73564413D01*
X151008399Y-73812933D01*
X151177352Y-74061452D01*
X150960429Y-74278738D01*
X150894819Y-74343406D01*
X150834979Y-74400413D01*
X150784267Y-74446713D01*
X150746046Y-74479264D01*
X150723675Y-74495023D01*
X150720466Y-74496023D01*
X150701626Y-74488149D01*
X150663180Y-74466258D01*
X150609330Y-74432947D01*
X150544276Y-74390811D01*
X150473940Y-74343623D01*
X150402555Y-74295490D01*
X150338908Y-74253608D01*
X150287041Y-74220551D01*
X150250995Y-74198898D01*
X150234867Y-74191223D01*
X150215189Y-74197717D01*
X150177875Y-74214830D01*
X150130621Y-74239006D01*
X150125612Y-74241693D01*
X150061977Y-74273607D01*
X150018341Y-74289259D01*
X149991202Y-74289425D01*
X149977057Y-74274884D01*
X149976975Y-74274680D01*
X149969905Y-74257459D01*
X149953042Y-74216579D01*
X149927695Y-74155205D01*
X149895171Y-74076499D01*
X149856778Y-73983627D01*
X149813822Y-73879752D01*
X149772222Y-73779182D01*
X149726504Y-73668196D01*
X149684526Y-73565383D01*
X149647548Y-73473895D01*
X149616827Y-73396881D01*
X149593622Y-73337495D01*
X149579190Y-73298889D01*
X149574743Y-73284480D01*
X149585896Y-73267952D01*
X149615069Y-73241610D01*
X149653971Y-73212567D01*
X149764757Y-73120719D01*
X149851351Y-73015439D01*
X149912716Y-72898946D01*
X149947815Y-72773456D01*
X149955608Y-72641187D01*
X149949943Y-72580137D01*
X149919078Y-72453475D01*
X149865920Y-72341621D01*
X149793767Y-72245681D01*
X149705917Y-72166756D01*
X149605665Y-72105950D01*
X149496310Y-72064367D01*
X149381147Y-72043108D01*
X149263475Y-72043279D01*
X149146590Y-72065981D01*
X149033789Y-72112318D01*
X148928369Y-72183393D01*
X148884368Y-72223591D01*
X148799979Y-72326809D01*
X148741222Y-72439605D01*
X148707704Y-72558690D01*
X148699035Y-72680775D01*
X148714823Y-72802573D01*
X148754678Y-72920796D01*
X148818207Y-73032155D01*
X148905021Y-73133364D01*
X149002029Y-73212567D01*
X149042437Y-73242842D01*
X149070982Y-73268899D01*
X149081257Y-73284505D01*
X149075877Y-73301523D01*
X149060575Y-73342180D01*
X149036612Y-73403322D01*
X149005244Y-73481799D01*
X148967732Y-73574460D01*
X148925333Y-73678152D01*
X148883663Y-73779206D01*
X148837690Y-73890287D01*
X148795107Y-73993221D01*
X148757221Y-74084845D01*
X148725340Y-74161996D01*
X148700771Y-74221511D01*
X148684820Y-74260224D01*
X148678910Y-74274680D01*
X148664948Y-74289365D01*
X148637940Y-74289322D01*
X148594413Y-74273779D01*
X148530890Y-74241964D01*
X148530388Y-74241693D01*
X148482560Y-74217003D01*
X148443897Y-74199018D01*
X148422095Y-74191294D01*
X148421133Y-74191223D01*
X148404721Y-74199058D01*
X148368487Y-74220845D01*
X148316474Y-74254008D01*
X148252725Y-74295971D01*
X148182060Y-74343623D01*
X148110116Y-74391871D01*
X148045274Y-74433831D01*
X147991735Y-74466907D01*
X147953697Y-74488501D01*
X147935533Y-74496023D01*
X147918808Y-74486137D01*
X147885180Y-74458506D01*
X147838010Y-74416175D01*
X147780658Y-74362185D01*
X147716484Y-74299579D01*
X147695497Y-74278663D01*
X147478499Y-74061303D01*
X147643668Y-73818900D01*
X147693864Y-73744461D01*
X147737919Y-73677652D01*
X147773362Y-73622345D01*
X147797719Y-73582409D01*
X147808522Y-73561716D01*
X147808838Y-73560243D01*
X147803143Y-73540738D01*
X147787826Y-73501502D01*
X147765537Y-73449110D01*
X147749893Y-73414035D01*
X147720641Y-73346881D01*
X147693094Y-73279038D01*
X147671737Y-73221714D01*
X147665935Y-73204252D01*
X147649452Y-73157618D01*
X147633340Y-73121585D01*
X147624490Y-73107967D01*
X147604960Y-73099632D01*
X147562334Y-73087817D01*
X147502145Y-73073861D01*
X147429922Y-73059102D01*
X147397600Y-73053035D01*
X147315522Y-73037953D01*
X147236795Y-73023349D01*
X147169109Y-73010660D01*
X147120160Y-73001322D01*
X147110943Y-72999519D01*
X147034743Y-72984479D01*
X147034743Y-72667172D01*
X147034914Y-72562834D01*
X147035616Y-72483893D01*
X147037134Y-72426718D01*
X147039749Y-72387679D01*
X147043746Y-72363145D01*
X147049409Y-72349485D01*
X147057020Y-72343069D01*
X147060143Y-72341879D01*
X147078978Y-72337660D01*
X147120588Y-72329242D01*
X147179630Y-72317641D01*
X147250757Y-72303875D01*
X147328625Y-72288960D01*
X147407887Y-72273912D01*
X147483198Y-72259749D01*
X147549213Y-72247486D01*
X147600587Y-72238141D01*
X147631975Y-72232730D01*
X147638959Y-72231794D01*
X147645285Y-72219276D01*
X147659290Y-72185926D01*
X147678355Y-72138057D01*
X147685634Y-72119309D01*
X147714996Y-72046875D01*
X147749571Y-71966850D01*
X147780537Y-71899408D01*
X147803323Y-71847839D01*
X147818482Y-71805465D01*
X147823542Y-71779514D01*
X147822736Y-71776036D01*
X147812041Y-71759616D01*
X147787620Y-71723097D01*
X147752095Y-71670367D01*
X147708087Y-71605315D01*
X147658217Y-71531831D01*
X147648356Y-71517325D01*
X147590492Y-71431384D01*
X147547956Y-71365941D01*
X147519054Y-71317984D01*
X147502090Y-71284500D01*
X147495367Y-71262475D01*
X147497190Y-71248897D01*
X147497236Y-71248811D01*
X147511586Y-71230977D01*
X147543323Y-71196497D01*
X147589010Y-71148948D01*
X147645204Y-71091902D01*
X147708468Y-71028935D01*
X147715602Y-71021907D01*
X147795330Y-70944700D01*
X147856857Y-70888010D01*
X147901421Y-70850790D01*
X147930257Y-70831995D01*
X147942958Y-70829569D01*
X147961494Y-70840151D01*
X147999961Y-70864596D01*
X148054386Y-70900292D01*
X148120798Y-70944627D01*
X148195225Y-70994991D01*
X148212601Y-71006840D01*
X148459297Y-71175306D01*
X148570706Y-71124742D01*
X148638457Y-71095275D01*
X148711183Y-71065639D01*
X148773703Y-71042010D01*
X148776457Y-71041038D01*
X148825360Y-71023137D01*
X148863057Y-71008000D01*
X148881425Y-70998890D01*
X148881456Y-70998864D01*
X148887285Y-70982397D01*
X148897192Y-70941899D01*
X148910195Y-70881922D01*
X148925309Y-70807020D01*
X148941552Y-70721744D01*
X148942881Y-70714555D01*
X148959175Y-70626694D01*
X148974133Y-70546940D01*
X148986791Y-70480361D01*
X148996186Y-70432027D01*
X149001354Y-70407005D01*
X149001444Y-70406623D01*
X149004589Y-70395979D01*
X149010704Y-70387942D01*
X149023453Y-70382147D01*
X149046500Y-70378227D01*
X149083509Y-70375815D01*
X149138144Y-70374545D01*
X149214067Y-70374051D01*
X149314944Y-70373966D01*
X149328000Y-70373966D01*
X149431910Y-70374028D01*
G36*
X152481595Y-75098646D02*
G01*
X152539021Y-75136177D01*
X152566719Y-75169776D01*
X152588662Y-75230744D01*
X152590405Y-75278988D01*
X152586457Y-75343496D01*
X152437686Y-75408614D01*
X152365349Y-75441882D01*
X152318084Y-75468644D01*
X152293507Y-75491824D01*
X152289237Y-75514347D01*
X152302889Y-75539135D01*
X152317943Y-75555566D01*
X152361746Y-75581915D01*
X152409389Y-75583761D01*
X152453145Y-75563226D01*
X152485289Y-75522432D01*
X152491038Y-75508027D01*
X152518576Y-75463036D01*
X152550258Y-75443862D01*
X152593714Y-75427459D01*
X152593714Y-75489646D01*
X152589872Y-75531963D01*
X152574823Y-75567649D01*
X152543280Y-75608623D01*
X152538592Y-75613947D01*
X152503506Y-75650400D01*
X152473347Y-75669963D01*
X152435615Y-75678963D01*
X152404335Y-75681910D01*
X152348385Y-75682645D01*
X152308555Y-75673340D01*
X152283708Y-75659526D01*
X152244656Y-75629147D01*
X152217625Y-75596293D01*
X152200517Y-75554974D01*
X152191238Y-75499201D01*
X152187693Y-75422985D01*
X152187410Y-75384302D01*
X152188372Y-75337927D01*
X152276007Y-75337927D01*
X152277023Y-75362806D01*
X152279556Y-75366880D01*
X152296274Y-75361345D01*
X152332249Y-75346697D01*
X152380331Y-75325870D01*
X152390386Y-75321394D01*
X152451152Y-75290494D01*
X152484632Y-75263337D01*
X152491990Y-75237900D01*
X152474391Y-75212161D01*
X152459856Y-75200789D01*
X152407410Y-75178044D01*
X152358322Y-75181802D01*
X152317227Y-75209564D01*
X152288758Y-75258832D01*
X152279631Y-75297937D01*
X152276007Y-75337927D01*
X152188372Y-75337927D01*
X152189285Y-75293929D01*
X152196196Y-75227064D01*
X152209884Y-75178375D01*
X152232096Y-75142529D01*
X152264574Y-75114193D01*
X152278733Y-75105035D01*
X152343053Y-75081187D01*
X152413473Y-75079686D01*
X152481595Y-75098646D01*
G37*
X152481595Y-75098646D02*
X152539021Y-75136177D01*
X152566719Y-75169776D01*
X152588662Y-75230744D01*
X152590405Y-75278988D01*
X152586457Y-75343496D01*
X152437686Y-75408614D01*
X152365349Y-75441882D01*
X152318084Y-75468644D01*
X152293507Y-75491824D01*
X152289237Y-75514347D01*
X152302889Y-75539135D01*
X152317943Y-75555566D01*
X152361746Y-75581915D01*
X152409389Y-75583761D01*
X152453145Y-75563226D01*
X152485289Y-75522432D01*
X152491038Y-75508027D01*
X152518576Y-75463036D01*
X152550258Y-75443862D01*
X152593714Y-75427459D01*
X152593714Y-75489646D01*
X152589872Y-75531963D01*
X152574823Y-75567649D01*
X152543280Y-75608623D01*
X152538592Y-75613947D01*
X152503506Y-75650400D01*
X152473347Y-75669963D01*
X152435615Y-75678963D01*
X152404335Y-75681910D01*
X152348385Y-75682645D01*
X152308555Y-75673340D01*
X152283708Y-75659526D01*
X152244656Y-75629147D01*
X152217625Y-75596293D01*
X152200517Y-75554974D01*
X152191238Y-75499201D01*
X152187693Y-75422985D01*
X152187410Y-75384302D01*
X152188372Y-75337927D01*
X152276007Y-75337927D01*
X152277023Y-75362806D01*
X152279556Y-75366880D01*
X152296274Y-75361345D01*
X152332249Y-75346697D01*
X152380331Y-75325870D01*
X152390386Y-75321394D01*
X152451152Y-75290494D01*
X152484632Y-75263337D01*
X152491990Y-75237900D01*
X152474391Y-75212161D01*
X152459856Y-75200789D01*
X152407410Y-75178044D01*
X152358322Y-75181802D01*
X152317227Y-75209564D01*
X152288758Y-75258832D01*
X152279631Y-75297937D01*
X152276007Y-75337927D01*
X152188372Y-75337927D01*
X152189285Y-75293929D01*
X152196196Y-75227064D01*
X152209884Y-75178375D01*
X152232096Y-75142529D01*
X152264574Y-75114193D01*
X152278733Y-75105035D01*
X152343053Y-75081187D01*
X152413473Y-75079686D01*
X152481595Y-75098646D01*
G36*
X151980600Y-75090432D02*
G01*
X151997948Y-75098014D01*
X152039356Y-75130808D01*
X152074765Y-75178227D01*
X152096664Y-75228831D01*
X152100229Y-75253778D01*
X152088279Y-75288607D01*
X152062067Y-75307037D01*
X152033964Y-75318196D01*
X152021095Y-75320252D01*
X152014829Y-75305329D01*
X152002456Y-75272855D01*
X151997028Y-75258182D01*
X151966590Y-75207424D01*
X151922520Y-75182107D01*
X151866010Y-75182886D01*
X151861825Y-75183883D01*
X151831655Y-75198187D01*
X151809476Y-75226073D01*
X151794327Y-75270967D01*
X151785250Y-75336295D01*
X151781286Y-75425484D01*
X151780914Y-75472941D01*
X151780730Y-75547751D01*
X151779522Y-75598749D01*
X151776309Y-75631151D01*
X151770109Y-75650175D01*
X151759940Y-75661036D01*
X151744819Y-75668952D01*
X151743946Y-75669350D01*
X151714828Y-75681661D01*
X151700403Y-75686194D01*
X151698186Y-75672489D01*
X151696289Y-75634605D01*
X151694847Y-75577395D01*
X151693998Y-75505707D01*
X151693829Y-75453245D01*
X151694692Y-75351727D01*
X151698070Y-75274712D01*
X151705142Y-75217703D01*
X151717088Y-75176206D01*
X151735090Y-75145723D01*
X151760327Y-75121760D01*
X151785247Y-75105035D01*
X151845171Y-75082777D01*
X151914911Y-75077756D01*
X151980600Y-75090432D01*
G37*
X151980600Y-75090432D02*
X151997948Y-75098014D01*
X152039356Y-75130808D01*
X152074765Y-75178227D01*
X152096664Y-75228831D01*
X152100229Y-75253778D01*
X152088279Y-75288607D01*
X152062067Y-75307037D01*
X152033964Y-75318196D01*
X152021095Y-75320252D01*
X152014829Y-75305329D01*
X152002456Y-75272855D01*
X151997028Y-75258182D01*
X151966590Y-75207424D01*
X151922520Y-75182107D01*
X151866010Y-75182886D01*
X151861825Y-75183883D01*
X151831655Y-75198187D01*
X151809476Y-75226073D01*
X151794327Y-75270967D01*
X151785250Y-75336295D01*
X151781286Y-75425484D01*
X151780914Y-75472941D01*
X151780730Y-75547751D01*
X151779522Y-75598749D01*
X151776309Y-75631151D01*
X151770109Y-75650175D01*
X151759940Y-75661036D01*
X151744819Y-75668952D01*
X151743946Y-75669350D01*
X151714828Y-75681661D01*
X151700403Y-75686194D01*
X151698186Y-75672489D01*
X151696289Y-75634605D01*
X151694847Y-75577395D01*
X151693998Y-75505707D01*
X151693829Y-75453245D01*
X151694692Y-75351727D01*
X151698070Y-75274712D01*
X151705142Y-75217703D01*
X151717088Y-75176206D01*
X151735090Y-75145723D01*
X151760327Y-75121760D01*
X151785247Y-75105035D01*
X151845171Y-75082777D01*
X151914911Y-75077756D01*
X151980600Y-75090432D01*
G36*
X151472876Y-75088015D02*
G01*
X151514667Y-75107024D01*
X151547469Y-75130058D01*
X151571503Y-75155813D01*
X151588097Y-75189038D01*
X151598577Y-75234480D01*
X151604271Y-75296887D01*
X151606507Y-75381007D01*
X151606743Y-75436401D01*
X151606743Y-75652506D01*
X151569774Y-75669350D01*
X151540656Y-75681661D01*
X151526231Y-75686194D01*
X151523472Y-75672705D01*
X151521282Y-75636333D01*
X151519942Y-75583222D01*
X151519657Y-75541052D01*
X151518434Y-75480127D01*
X151515136Y-75431795D01*
X151510321Y-75402198D01*
X151506496Y-75395909D01*
X151480783Y-75402332D01*
X151440418Y-75418805D01*
X151393679Y-75441138D01*
X151348845Y-75465137D01*
X151314193Y-75486610D01*
X151298002Y-75501365D01*
X151297938Y-75501525D01*
X151299330Y-75528832D01*
X151311818Y-75554899D01*
X151333743Y-75576072D01*
X151365743Y-75583154D01*
X151393092Y-75582329D01*
X151431826Y-75581722D01*
X151452158Y-75590796D01*
X151464369Y-75614772D01*
X151465909Y-75619293D01*
X151471203Y-75653486D01*
X151457047Y-75674248D01*
X151420148Y-75684142D01*
X151380289Y-75685972D01*
X151308562Y-75672407D01*
X151271432Y-75653035D01*
X151225576Y-75607525D01*
X151201256Y-75551663D01*
X151199073Y-75492637D01*
X151219629Y-75437633D01*
X151250549Y-75403166D01*
X151281420Y-75383869D01*
X151329942Y-75359439D01*
X151386485Y-75334665D01*
X151395910Y-75330879D01*
X151458019Y-75303471D01*
X151493822Y-75279314D01*
X151505337Y-75255299D01*
X151494580Y-75228315D01*
X151476114Y-75207223D01*
X151432469Y-75181252D01*
X151384446Y-75179304D01*
X151340406Y-75199317D01*
X151308709Y-75239231D01*
X151304549Y-75249528D01*
X151280327Y-75287404D01*
X151244965Y-75315522D01*
X151200343Y-75338597D01*
X151200343Y-75273165D01*
X151202969Y-75233186D01*
X151214230Y-75201677D01*
X151239199Y-75168058D01*
X151263169Y-75142164D01*
X151300441Y-75105497D01*
X151329401Y-75085801D01*
X151360505Y-75077900D01*
X151395713Y-75076594D01*
X151472876Y-75088015D01*
G37*
X151472876Y-75088015D02*
X151514667Y-75107024D01*
X151547469Y-75130058D01*
X151571503Y-75155813D01*
X151588097Y-75189038D01*
X151598577Y-75234480D01*
X151604271Y-75296887D01*
X151606507Y-75381007D01*
X151606743Y-75436401D01*
X151606743Y-75652506D01*
X151569774Y-75669350D01*
X151540656Y-75681661D01*
X151526231Y-75686194D01*
X151523472Y-75672705D01*
X151521282Y-75636333D01*
X151519942Y-75583222D01*
X151519657Y-75541052D01*
X151518434Y-75480127D01*
X151515136Y-75431795D01*
X151510321Y-75402198D01*
X151506496Y-75395909D01*
X151480783Y-75402332D01*
X151440418Y-75418805D01*
X151393679Y-75441138D01*
X151348845Y-75465137D01*
X151314193Y-75486610D01*
X151298002Y-75501365D01*
X151297938Y-75501525D01*
X151299330Y-75528832D01*
X151311818Y-75554899D01*
X151333743Y-75576072D01*
X151365743Y-75583154D01*
X151393092Y-75582329D01*
X151431826Y-75581722D01*
X151452158Y-75590796D01*
X151464369Y-75614772D01*
X151465909Y-75619293D01*
X151471203Y-75653486D01*
X151457047Y-75674248D01*
X151420148Y-75684142D01*
X151380289Y-75685972D01*
X151308562Y-75672407D01*
X151271432Y-75653035D01*
X151225576Y-75607525D01*
X151201256Y-75551663D01*
X151199073Y-75492637D01*
X151219629Y-75437633D01*
X151250549Y-75403166D01*
X151281420Y-75383869D01*
X151329942Y-75359439D01*
X151386485Y-75334665D01*
X151395910Y-75330879D01*
X151458019Y-75303471D01*
X151493822Y-75279314D01*
X151505337Y-75255299D01*
X151494580Y-75228315D01*
X151476114Y-75207223D01*
X151432469Y-75181252D01*
X151384446Y-75179304D01*
X151340406Y-75199317D01*
X151308709Y-75239231D01*
X151304549Y-75249528D01*
X151280327Y-75287404D01*
X151244965Y-75315522D01*
X151200343Y-75338597D01*
X151200343Y-75273165D01*
X151202969Y-75233186D01*
X151214230Y-75201677D01*
X151239199Y-75168058D01*
X151263169Y-75142164D01*
X151300441Y-75105497D01*
X151329401Y-75085801D01*
X151360505Y-75077900D01*
X151395713Y-75076594D01*
X151472876Y-75088015D01*
G36*
X151107833Y-75090343D02*
G01*
X151110048Y-75128530D01*
X151111784Y-75186566D01*
X151112899Y-75259860D01*
X151113257Y-75336735D01*
X151113257Y-75596876D01*
X151067326Y-75642807D01*
X151035675Y-75671109D01*
X151007890Y-75682573D01*
X150969915Y-75681848D01*
X150954840Y-75680001D01*
X150907726Y-75674628D01*
X150868756Y-75671549D01*
X150859257Y-75671265D01*
X150827233Y-75673125D01*
X150781432Y-75677794D01*
X150763674Y-75680001D01*
X150720057Y-75683415D01*
X150690745Y-75676000D01*
X150661680Y-75653107D01*
X150651188Y-75642807D01*
X150605257Y-75596876D01*
X150605257Y-75110282D01*
X150642226Y-75093438D01*
X150674059Y-75080962D01*
X150692683Y-75076594D01*
X150697458Y-75090398D01*
X150701921Y-75128966D01*
X150705775Y-75188036D01*
X150708722Y-75263343D01*
X150710143Y-75326966D01*
X150714114Y-75577337D01*
X150748759Y-75582236D01*
X150780268Y-75578811D01*
X150795708Y-75567721D01*
X150800023Y-75546988D01*
X150803708Y-75502825D01*
X150806469Y-75440826D01*
X150808012Y-75366589D01*
X150808235Y-75328386D01*
X150808457Y-75108463D01*
X150854166Y-75092529D01*
X150886518Y-75081695D01*
X150904115Y-75076642D01*
X150904623Y-75076594D01*
X150906388Y-75090328D01*
X150908329Y-75128410D01*
X150910282Y-75186162D01*
X150912084Y-75258907D01*
X150913343Y-75326966D01*
X150917314Y-75577337D01*
X151004400Y-75577337D01*
X151008396Y-75348920D01*
X151012392Y-75120502D01*
X151054847Y-75098548D01*
X151086192Y-75083473D01*
X151104744Y-75076631D01*
X151105279Y-75076594D01*
X151107833Y-75090343D01*
G37*
X151107833Y-75090343D02*
X151110048Y-75128530D01*
X151111784Y-75186566D01*
X151112899Y-75259860D01*
X151113257Y-75336735D01*
X151113257Y-75596876D01*
X151067326Y-75642807D01*
X151035675Y-75671109D01*
X151007890Y-75682573D01*
X150969915Y-75681848D01*
X150954840Y-75680001D01*
X150907726Y-75674628D01*
X150868756Y-75671549D01*
X150859257Y-75671265D01*
X150827233Y-75673125D01*
X150781432Y-75677794D01*
X150763674Y-75680001D01*
X150720057Y-75683415D01*
X150690745Y-75676000D01*
X150661680Y-75653107D01*
X150651188Y-75642807D01*
X150605257Y-75596876D01*
X150605257Y-75110282D01*
X150642226Y-75093438D01*
X150674059Y-75080962D01*
X150692683Y-75076594D01*
X150697458Y-75090398D01*
X150701921Y-75128966D01*
X150705775Y-75188036D01*
X150708722Y-75263343D01*
X150710143Y-75326966D01*
X150714114Y-75577337D01*
X150748759Y-75582236D01*
X150780268Y-75578811D01*
X150795708Y-75567721D01*
X150800023Y-75546988D01*
X150803708Y-75502825D01*
X150806469Y-75440826D01*
X150808012Y-75366589D01*
X150808235Y-75328386D01*
X150808457Y-75108463D01*
X150854166Y-75092529D01*
X150886518Y-75081695D01*
X150904115Y-75076642D01*
X150904623Y-75076594D01*
X150906388Y-75090328D01*
X150908329Y-75128410D01*
X150910282Y-75186162D01*
X150912084Y-75258907D01*
X150913343Y-75326966D01*
X150917314Y-75577337D01*
X151004400Y-75577337D01*
X151008396Y-75348920D01*
X151012392Y-75120502D01*
X151054847Y-75098548D01*
X151086192Y-75083473D01*
X151104744Y-75076631D01*
X151105279Y-75076594D01*
X151107833Y-75090343D01*
G36*
X150518117Y-75197038D02*
G01*
X150517933Y-75305517D01*
X150517219Y-75388967D01*
X150515675Y-75451384D01*
X150513001Y-75496765D01*
X150508894Y-75529109D01*
X150503055Y-75552413D01*
X150495182Y-75570675D01*
X150489221Y-75581098D01*
X150439855Y-75637625D01*
X150377264Y-75673057D01*
X150308013Y-75685770D01*
X150238668Y-75674143D01*
X150197375Y-75653248D01*
X150154025Y-75617102D01*
X150124481Y-75572956D01*
X150106655Y-75515142D01*
X150098463Y-75437993D01*
X150097302Y-75381394D01*
X150097458Y-75377327D01*
X150198857Y-75377327D01*
X150199476Y-75442230D01*
X150202314Y-75485194D01*
X150208840Y-75513302D01*
X150220523Y-75533633D01*
X150234483Y-75548968D01*
X150281365Y-75578570D01*
X150331701Y-75581099D01*
X150379276Y-75556385D01*
X150382979Y-75553036D01*
X150398783Y-75535615D01*
X150408693Y-75514889D01*
X150414058Y-75484042D01*
X150416228Y-75436257D01*
X150416571Y-75383428D01*
X150415827Y-75317061D01*
X150412748Y-75272786D01*
X150406061Y-75243689D01*
X150394496Y-75222853D01*
X150385013Y-75211787D01*
X150340960Y-75183878D01*
X150290224Y-75180523D01*
X150241796Y-75201839D01*
X150232450Y-75209753D01*
X150216540Y-75227327D01*
X150206610Y-75248267D01*
X150201278Y-75279462D01*
X150199163Y-75327802D01*
X150198857Y-75377327D01*
X150097458Y-75377327D01*
X150100810Y-75290248D01*
X150112726Y-75221766D01*
X150135135Y-75170280D01*
X150170124Y-75130123D01*
X150197375Y-75109541D01*
X150246907Y-75087305D01*
X150304316Y-75076984D01*
X150357682Y-75079747D01*
X150387543Y-75090892D01*
X150399261Y-75094063D01*
X150407037Y-75082237D01*
X150412465Y-75050546D01*
X150416571Y-75002273D01*
X150421067Y-74948509D01*
X150427313Y-74916162D01*
X150438676Y-74897665D01*
X150458528Y-74885450D01*
X150471000Y-74880042D01*
X150518171Y-74860281D01*
X150518117Y-75197038D01*
G37*
X150518117Y-75197038D02*
X150517933Y-75305517D01*
X150517219Y-75388967D01*
X150515675Y-75451384D01*
X150513001Y-75496765D01*
X150508894Y-75529109D01*
X150503055Y-75552413D01*
X150495182Y-75570675D01*
X150489221Y-75581098D01*
X150439855Y-75637625D01*
X150377264Y-75673057D01*
X150308013Y-75685770D01*
X150238668Y-75674143D01*
X150197375Y-75653248D01*
X150154025Y-75617102D01*
X150124481Y-75572956D01*
X150106655Y-75515142D01*
X150098463Y-75437993D01*
X150097302Y-75381394D01*
X150097458Y-75377327D01*
X150198857Y-75377327D01*
X150199476Y-75442230D01*
X150202314Y-75485194D01*
X150208840Y-75513302D01*
X150220523Y-75533633D01*
X150234483Y-75548968D01*
X150281365Y-75578570D01*
X150331701Y-75581099D01*
X150379276Y-75556385D01*
X150382979Y-75553036D01*
X150398783Y-75535615D01*
X150408693Y-75514889D01*
X150414058Y-75484042D01*
X150416228Y-75436257D01*
X150416571Y-75383428D01*
X150415827Y-75317061D01*
X150412748Y-75272786D01*
X150406061Y-75243689D01*
X150394496Y-75222853D01*
X150385013Y-75211787D01*
X150340960Y-75183878D01*
X150290224Y-75180523D01*
X150241796Y-75201839D01*
X150232450Y-75209753D01*
X150216540Y-75227327D01*
X150206610Y-75248267D01*
X150201278Y-75279462D01*
X150199163Y-75327802D01*
X150198857Y-75377327D01*
X150097458Y-75377327D01*
X150100810Y-75290248D01*
X150112726Y-75221766D01*
X150135135Y-75170280D01*
X150170124Y-75130123D01*
X150197375Y-75109541D01*
X150246907Y-75087305D01*
X150304316Y-75076984D01*
X150357682Y-75079747D01*
X150387543Y-75090892D01*
X150399261Y-75094063D01*
X150407037Y-75082237D01*
X150412465Y-75050546D01*
X150416571Y-75002273D01*
X150421067Y-74948509D01*
X150427313Y-74916162D01*
X150438676Y-74897665D01*
X150458528Y-74885450D01*
X150471000Y-74880042D01*
X150518171Y-74860281D01*
X150518117Y-75197038D01*
G36*
X149857926Y-75081435D02*
G01*
X149923858Y-75105764D01*
X149977273Y-75148797D01*
X149998164Y-75179089D01*
X150020939Y-75234674D01*
X150020466Y-75274866D01*
X149996562Y-75301897D01*
X149987717Y-75306493D01*
X149949530Y-75320824D01*
X149930028Y-75317152D01*
X149923422Y-75293087D01*
X149923086Y-75279794D01*
X149910992Y-75230890D01*
X149879471Y-75196679D01*
X149835659Y-75180156D01*
X149786695Y-75184314D01*
X149746894Y-75205907D01*
X149733450Y-75218224D01*
X149723921Y-75233167D01*
X149717485Y-75255755D01*
X149713317Y-75291008D01*
X149710597Y-75343946D01*
X149708502Y-75419587D01*
X149707960Y-75443537D01*
X149705981Y-75525470D01*
X149703731Y-75583135D01*
X149700357Y-75621288D01*
X149695006Y-75644684D01*
X149686824Y-75658078D01*
X149674959Y-75666225D01*
X149667362Y-75669824D01*
X149635102Y-75682132D01*
X149616111Y-75686194D01*
X149609836Y-75672628D01*
X149606006Y-75631614D01*
X149604600Y-75562679D01*
X149605598Y-75465349D01*
X149605908Y-75450337D01*
X149608101Y-75361539D01*
X149610693Y-75296699D01*
X149614382Y-75250747D01*
X149619864Y-75218615D01*
X149627835Y-75195233D01*
X149638993Y-75175532D01*
X149644830Y-75167090D01*
X149678296Y-75129737D01*
X149715727Y-75100683D01*
X149720309Y-75098147D01*
X149787426Y-75078123D01*
X149857926Y-75081435D01*
G37*
X149857926Y-75081435D02*
X149923858Y-75105764D01*
X149977273Y-75148797D01*
X149998164Y-75179089D01*
X150020939Y-75234674D01*
X150020466Y-75274866D01*
X149996562Y-75301897D01*
X149987717Y-75306493D01*
X149949530Y-75320824D01*
X149930028Y-75317152D01*
X149923422Y-75293087D01*
X149923086Y-75279794D01*
X149910992Y-75230890D01*
X149879471Y-75196679D01*
X149835659Y-75180156D01*
X149786695Y-75184314D01*
X149746894Y-75205907D01*
X149733450Y-75218224D01*
X149723921Y-75233167D01*
X149717485Y-75255755D01*
X149713317Y-75291008D01*
X149710597Y-75343946D01*
X149708502Y-75419587D01*
X149707960Y-75443537D01*
X149705981Y-75525470D01*
X149703731Y-75583135D01*
X149700357Y-75621288D01*
X149695006Y-75644684D01*
X149686824Y-75658078D01*
X149674959Y-75666225D01*
X149667362Y-75669824D01*
X149635102Y-75682132D01*
X149616111Y-75686194D01*
X149609836Y-75672628D01*
X149606006Y-75631614D01*
X149604600Y-75562679D01*
X149605598Y-75465349D01*
X149605908Y-75450337D01*
X149608101Y-75361539D01*
X149610693Y-75296699D01*
X149614382Y-75250747D01*
X149619864Y-75218615D01*
X149627835Y-75195233D01*
X149638993Y-75175532D01*
X149644830Y-75167090D01*
X149678296Y-75129737D01*
X149715727Y-75100683D01*
X149720309Y-75098147D01*
X149787426Y-75078123D01*
X149857926Y-75081435D01*
G36*
X149367744Y-75082648D02*
G01*
X149424616Y-75103767D01*
X149425267Y-75104173D01*
X149460440Y-75130060D01*
X149486407Y-75160313D01*
X149504670Y-75199738D01*
X149516732Y-75253142D01*
X149524096Y-75325331D01*
X149528264Y-75421112D01*
X149528629Y-75434758D01*
X149533876Y-75640522D01*
X149489716Y-75663358D01*
X149457763Y-75678790D01*
X149438470Y-75686103D01*
X149437578Y-75686194D01*
X149434239Y-75672702D01*
X149431587Y-75636306D01*
X149429956Y-75583132D01*
X149429600Y-75540073D01*
X149429592Y-75470321D01*
X149426403Y-75426517D01*
X149415288Y-75405624D01*
X149391501Y-75404605D01*
X149350296Y-75420421D01*
X149288086Y-75449495D01*
X149242341Y-75473643D01*
X149218813Y-75494593D01*
X149211896Y-75517427D01*
X149211886Y-75518557D01*
X149223299Y-75557892D01*
X149257092Y-75579142D01*
X149308809Y-75582219D01*
X149346061Y-75581686D01*
X149365703Y-75592415D01*
X149377952Y-75618185D01*
X149385002Y-75651017D01*
X149374842Y-75669646D01*
X149371017Y-75672312D01*
X149335001Y-75683020D01*
X149284566Y-75684536D01*
X149232626Y-75677439D01*
X149195822Y-75664468D01*
X149144938Y-75621265D01*
X149116014Y-75561126D01*
X149110286Y-75514142D01*
X149114657Y-75471762D01*
X149130475Y-75437168D01*
X149161797Y-75406443D01*
X149212678Y-75375670D01*
X149287176Y-75340932D01*
X149291714Y-75338968D01*
X149358821Y-75307967D01*
X149400232Y-75282542D01*
X149417981Y-75259694D01*
X149414107Y-75236425D01*
X149390643Y-75209736D01*
X149383627Y-75203594D01*
X149336630Y-75179780D01*
X149287933Y-75180783D01*
X149245522Y-75204131D01*
X149217384Y-75247355D01*
X149214769Y-75255840D01*
X149189308Y-75296988D01*
X149157001Y-75316808D01*
X149110286Y-75336450D01*
X149110286Y-75285630D01*
X149124496Y-75211762D01*
X149166675Y-75144007D01*
X149188624Y-75121341D01*
X149238517Y-75092249D01*
X149301967Y-75079080D01*
X149367744Y-75082648D01*
G37*
X149367744Y-75082648D02*
X149424616Y-75103767D01*
X149425267Y-75104173D01*
X149460440Y-75130060D01*
X149486407Y-75160313D01*
X149504670Y-75199738D01*
X149516732Y-75253142D01*
X149524096Y-75325331D01*
X149528264Y-75421112D01*
X149528629Y-75434758D01*
X149533876Y-75640522D01*
X149489716Y-75663358D01*
X149457763Y-75678790D01*
X149438470Y-75686103D01*
X149437578Y-75686194D01*
X149434239Y-75672702D01*
X149431587Y-75636306D01*
X149429956Y-75583132D01*
X149429600Y-75540073D01*
X149429592Y-75470321D01*
X149426403Y-75426517D01*
X149415288Y-75405624D01*
X149391501Y-75404605D01*
X149350296Y-75420421D01*
X149288086Y-75449495D01*
X149242341Y-75473643D01*
X149218813Y-75494593D01*
X149211896Y-75517427D01*
X149211886Y-75518557D01*
X149223299Y-75557892D01*
X149257092Y-75579142D01*
X149308809Y-75582219D01*
X149346061Y-75581686D01*
X149365703Y-75592415D01*
X149377952Y-75618185D01*
X149385002Y-75651017D01*
X149374842Y-75669646D01*
X149371017Y-75672312D01*
X149335001Y-75683020D01*
X149284566Y-75684536D01*
X149232626Y-75677439D01*
X149195822Y-75664468D01*
X149144938Y-75621265D01*
X149116014Y-75561126D01*
X149110286Y-75514142D01*
X149114657Y-75471762D01*
X149130475Y-75437168D01*
X149161797Y-75406443D01*
X149212678Y-75375670D01*
X149287176Y-75340932D01*
X149291714Y-75338968D01*
X149358821Y-75307967D01*
X149400232Y-75282542D01*
X149417981Y-75259694D01*
X149414107Y-75236425D01*
X149390643Y-75209736D01*
X149383627Y-75203594D01*
X149336630Y-75179780D01*
X149287933Y-75180783D01*
X149245522Y-75204131D01*
X149217384Y-75247355D01*
X149214769Y-75255840D01*
X149189308Y-75296988D01*
X149157001Y-75316808D01*
X149110286Y-75336450D01*
X149110286Y-75285630D01*
X149124496Y-75211762D01*
X149166675Y-75144007D01*
X149188624Y-75121341D01*
X149238517Y-75092249D01*
X149301967Y-75079080D01*
X149367744Y-75082648D01*
G36*
X148703886Y-74982969D02*
G01*
X148708139Y-75042293D01*
X148713025Y-75077252D01*
X148719795Y-75092500D01*
X148729702Y-75092695D01*
X148732914Y-75090875D01*
X148775644Y-75077695D01*
X148831227Y-75078465D01*
X148887737Y-75092013D01*
X148923082Y-75109541D01*
X148959321Y-75137541D01*
X148985813Y-75169229D01*
X149003999Y-75209493D01*
X149015322Y-75263223D01*
X149021222Y-75335306D01*
X149023143Y-75430631D01*
X149023177Y-75448917D01*
X149023200Y-75654326D01*
X148977491Y-75670260D01*
X148945027Y-75681100D01*
X148927215Y-75686148D01*
X148926691Y-75686194D01*
X148924937Y-75672508D01*
X148923444Y-75634756D01*
X148922326Y-75577904D01*
X148921697Y-75506914D01*
X148921600Y-75463753D01*
X148921398Y-75378653D01*
X148920358Y-75317661D01*
X148917831Y-75275857D01*
X148913164Y-75248322D01*
X148905707Y-75230136D01*
X148894811Y-75216378D01*
X148888007Y-75209753D01*
X148841272Y-75183055D01*
X148790272Y-75181055D01*
X148744001Y-75203635D01*
X148735444Y-75211787D01*
X148722893Y-75227116D01*
X148714188Y-75245298D01*
X148708631Y-75271589D01*
X148705526Y-75311242D01*
X148704176Y-75369512D01*
X148703886Y-75449853D01*
X148703886Y-75654326D01*
X148658177Y-75670260D01*
X148625713Y-75681100D01*
X148607901Y-75686148D01*
X148607377Y-75686194D01*
X148606037Y-75672303D01*
X148604828Y-75633119D01*
X148603801Y-75572380D01*
X148603002Y-75493821D01*
X148602481Y-75401178D01*
X148602286Y-75298189D01*
X148602286Y-74901022D01*
X148649457Y-74881124D01*
X148696629Y-74861227D01*
X148703886Y-74982969D01*
G37*
X148703886Y-74982969D02*
X148708139Y-75042293D01*
X148713025Y-75077252D01*
X148719795Y-75092500D01*
X148729702Y-75092695D01*
X148732914Y-75090875D01*
X148775644Y-75077695D01*
X148831227Y-75078465D01*
X148887737Y-75092013D01*
X148923082Y-75109541D01*
X148959321Y-75137541D01*
X148985813Y-75169229D01*
X149003999Y-75209493D01*
X149015322Y-75263223D01*
X149021222Y-75335306D01*
X149023143Y-75430631D01*
X149023177Y-75448917D01*
X149023200Y-75654326D01*
X148977491Y-75670260D01*
X148945027Y-75681100D01*
X148927215Y-75686148D01*
X148926691Y-75686194D01*
X148924937Y-75672508D01*
X148923444Y-75634756D01*
X148922326Y-75577904D01*
X148921697Y-75506914D01*
X148921600Y-75463753D01*
X148921398Y-75378653D01*
X148920358Y-75317661D01*
X148917831Y-75275857D01*
X148913164Y-75248322D01*
X148905707Y-75230136D01*
X148894811Y-75216378D01*
X148888007Y-75209753D01*
X148841272Y-75183055D01*
X148790272Y-75181055D01*
X148744001Y-75203635D01*
X148735444Y-75211787D01*
X148722893Y-75227116D01*
X148714188Y-75245298D01*
X148708631Y-75271589D01*
X148705526Y-75311242D01*
X148704176Y-75369512D01*
X148703886Y-75449853D01*
X148703886Y-75654326D01*
X148658177Y-75670260D01*
X148625713Y-75681100D01*
X148607901Y-75686148D01*
X148607377Y-75686194D01*
X148606037Y-75672303D01*
X148604828Y-75633119D01*
X148603801Y-75572380D01*
X148603002Y-75493821D01*
X148602481Y-75401178D01*
X148602286Y-75298189D01*
X148602286Y-74901022D01*
X148649457Y-74881124D01*
X148696629Y-74861227D01*
X148703886Y-74982969D01*
G36*
X147496303Y-75062919D02*
G01*
X147553527Y-75101415D01*
X147597749Y-75157015D01*
X147624167Y-75227766D01*
X147629510Y-75279842D01*
X147628903Y-75301573D01*
X147623822Y-75318211D01*
X147609855Y-75333117D01*
X147582589Y-75349653D01*
X147537612Y-75371178D01*
X147470511Y-75401054D01*
X147470171Y-75401204D01*
X147408407Y-75429493D01*
X147357759Y-75454613D01*
X147323404Y-75473859D01*
X147310518Y-75484528D01*
X147310514Y-75484614D01*
X147321872Y-75507846D01*
X147348431Y-75533454D01*
X147378923Y-75551901D01*
X147394370Y-75555566D01*
X147436515Y-75542892D01*
X147472808Y-75511151D01*
X147490517Y-75476252D01*
X147507552Y-75450525D01*
X147540922Y-75421226D01*
X147580149Y-75395915D01*
X147614756Y-75382151D01*
X147621993Y-75381394D01*
X147630139Y-75393840D01*
X147630630Y-75425652D01*
X147624643Y-75468546D01*
X147613357Y-75514238D01*
X147597950Y-75554441D01*
X147597171Y-75556002D01*
X147550804Y-75620742D01*
X147490711Y-75664777D01*
X147422465Y-75686391D01*
X147351638Y-75683865D01*
X147283804Y-75655484D01*
X147280788Y-75653488D01*
X147227427Y-75605128D01*
X147192340Y-75542032D01*
X147172922Y-75459067D01*
X147170316Y-75435758D01*
X147165701Y-75325735D01*
X147171233Y-75274428D01*
X147310514Y-75274428D01*
X147312324Y-75306433D01*
X147322222Y-75315773D01*
X147346898Y-75308785D01*
X147385795Y-75292267D01*
X147429275Y-75271561D01*
X147430356Y-75271013D01*
X147467209Y-75251629D01*
X147482000Y-75238693D01*
X147478353Y-75225131D01*
X147462995Y-75207312D01*
X147423923Y-75181525D01*
X147381846Y-75179630D01*
X147344103Y-75198397D01*
X147318034Y-75234595D01*
X147310514Y-75274428D01*
X147171233Y-75274428D01*
X147175194Y-75237707D01*
X147199550Y-75167892D01*
X147233456Y-75118982D01*
X147294653Y-75069558D01*
X147362063Y-75045039D01*
X147430880Y-75043477D01*
X147496303Y-75062919D01*
G37*
X147496303Y-75062919D02*
X147553527Y-75101415D01*
X147597749Y-75157015D01*
X147624167Y-75227766D01*
X147629510Y-75279842D01*
X147628903Y-75301573D01*
X147623822Y-75318211D01*
X147609855Y-75333117D01*
X147582589Y-75349653D01*
X147537612Y-75371178D01*
X147470511Y-75401054D01*
X147470171Y-75401204D01*
X147408407Y-75429493D01*
X147357759Y-75454613D01*
X147323404Y-75473859D01*
X147310518Y-75484528D01*
X147310514Y-75484614D01*
X147321872Y-75507846D01*
X147348431Y-75533454D01*
X147378923Y-75551901D01*
X147394370Y-75555566D01*
X147436515Y-75542892D01*
X147472808Y-75511151D01*
X147490517Y-75476252D01*
X147507552Y-75450525D01*
X147540922Y-75421226D01*
X147580149Y-75395915D01*
X147614756Y-75382151D01*
X147621993Y-75381394D01*
X147630139Y-75393840D01*
X147630630Y-75425652D01*
X147624643Y-75468546D01*
X147613357Y-75514238D01*
X147597950Y-75554441D01*
X147597171Y-75556002D01*
X147550804Y-75620742D01*
X147490711Y-75664777D01*
X147422465Y-75686391D01*
X147351638Y-75683865D01*
X147283804Y-75655484D01*
X147280788Y-75653488D01*
X147227427Y-75605128D01*
X147192340Y-75542032D01*
X147172922Y-75459067D01*
X147170316Y-75435758D01*
X147165701Y-75325735D01*
X147171233Y-75274428D01*
X147310514Y-75274428D01*
X147312324Y-75306433D01*
X147322222Y-75315773D01*
X147346898Y-75308785D01*
X147385795Y-75292267D01*
X147429275Y-75271561D01*
X147430356Y-75271013D01*
X147467209Y-75251629D01*
X147482000Y-75238693D01*
X147478353Y-75225131D01*
X147462995Y-75207312D01*
X147423923Y-75181525D01*
X147381846Y-75179630D01*
X147344103Y-75198397D01*
X147318034Y-75234595D01*
X147310514Y-75274428D01*
X147171233Y-75274428D01*
X147175194Y-75237707D01*
X147199550Y-75167892D01*
X147233456Y-75118982D01*
X147294653Y-75069558D01*
X147362063Y-75045039D01*
X147430880Y-75043477D01*
X147496303Y-75062919D01*
G36*
X146369115Y-75053642D02*
G01*
X146437145Y-75089413D01*
X146487351Y-75146981D01*
X146505185Y-75183992D01*
X146519063Y-75239562D01*
X146526167Y-75309776D01*
X146526840Y-75386407D01*
X146521427Y-75461232D01*
X146510270Y-75526022D01*
X146493714Y-75572553D01*
X146488626Y-75580567D01*
X146428355Y-75640387D01*
X146356769Y-75676215D01*
X146279092Y-75686700D01*
X146200548Y-75670490D01*
X146178689Y-75660772D01*
X146136122Y-75630823D01*
X146098763Y-75591113D01*
X146095232Y-75586077D01*
X146080881Y-75561804D01*
X146071394Y-75535858D01*
X146065790Y-75501702D01*
X146063086Y-75452799D01*
X146062299Y-75382615D01*
X146062286Y-75366880D01*
X146062322Y-75361872D01*
X146207429Y-75361872D01*
X146208273Y-75428110D01*
X146211596Y-75472066D01*
X146218583Y-75500459D01*
X146230416Y-75520005D01*
X146236457Y-75526537D01*
X146271186Y-75551360D01*
X146304903Y-75550228D01*
X146338995Y-75528696D01*
X146359329Y-75505709D01*
X146371371Y-75472158D01*
X146378134Y-75419249D01*
X146378598Y-75413079D01*
X146379752Y-75317193D01*
X146367688Y-75245979D01*
X146342570Y-75199874D01*
X146304560Y-75179315D01*
X146290992Y-75178194D01*
X146255364Y-75183832D01*
X146230994Y-75203366D01*
X146216093Y-75240722D01*
X146208875Y-75299830D01*
X146207429Y-75361872D01*
X146062322Y-75361872D01*
X146062826Y-75292093D01*
X146065096Y-75239839D01*
X146070068Y-75203629D01*
X146078713Y-75176979D01*
X146092005Y-75153402D01*
X146094943Y-75149018D01*
X146144313Y-75089929D01*
X146198109Y-75055627D01*
X146263602Y-75042011D01*
X146285842Y-75041345D01*
X146369115Y-75053642D01*
G37*
X146369115Y-75053642D02*
X146437145Y-75089413D01*
X146487351Y-75146981D01*
X146505185Y-75183992D01*
X146519063Y-75239562D01*
X146526167Y-75309776D01*
X146526840Y-75386407D01*
X146521427Y-75461232D01*
X146510270Y-75526022D01*
X146493714Y-75572553D01*
X146488626Y-75580567D01*
X146428355Y-75640387D01*
X146356769Y-75676215D01*
X146279092Y-75686700D01*
X146200548Y-75670490D01*
X146178689Y-75660772D01*
X146136122Y-75630823D01*
X146098763Y-75591113D01*
X146095232Y-75586077D01*
X146080881Y-75561804D01*
X146071394Y-75535858D01*
X146065790Y-75501702D01*
X146063086Y-75452799D01*
X146062299Y-75382615D01*
X146062286Y-75366880D01*
X146062322Y-75361872D01*
X146207429Y-75361872D01*
X146208273Y-75428110D01*
X146211596Y-75472066D01*
X146218583Y-75500459D01*
X146230416Y-75520005D01*
X146236457Y-75526537D01*
X146271186Y-75551360D01*
X146304903Y-75550228D01*
X146338995Y-75528696D01*
X146359329Y-75505709D01*
X146371371Y-75472158D01*
X146378134Y-75419249D01*
X146378598Y-75413079D01*
X146379752Y-75317193D01*
X146367688Y-75245979D01*
X146342570Y-75199874D01*
X146304560Y-75179315D01*
X146290992Y-75178194D01*
X146255364Y-75183832D01*
X146230994Y-75203366D01*
X146216093Y-75240722D01*
X146208875Y-75299830D01*
X146207429Y-75361872D01*
X146062322Y-75361872D01*
X146062826Y-75292093D01*
X146065096Y-75239839D01*
X146070068Y-75203629D01*
X146078713Y-75176979D01*
X146092005Y-75153402D01*
X146094943Y-75149018D01*
X146144313Y-75089929D01*
X146198109Y-75055627D01*
X146263602Y-75042011D01*
X146285842Y-75041345D01*
X146369115Y-75053642D01*
G36*
X148044093Y-75059460D02*
G01*
X148090672Y-75086403D01*
X148123057Y-75113146D01*
X148146742Y-75141164D01*
X148163059Y-75175428D01*
X148173339Y-75220907D01*
X148178914Y-75282572D01*
X148181116Y-75365391D01*
X148181371Y-75424926D01*
X148181371Y-75644071D01*
X148119686Y-75671724D01*
X148058000Y-75699377D01*
X148050743Y-75459350D01*
X148047744Y-75369708D01*
X148044598Y-75304642D01*
X148040701Y-75259706D01*
X148035447Y-75230450D01*
X148028231Y-75212428D01*
X148018450Y-75201191D01*
X148015312Y-75198759D01*
X147967761Y-75179763D01*
X147919697Y-75187280D01*
X147891086Y-75207223D01*
X147879447Y-75221355D01*
X147871391Y-75239900D01*
X147866271Y-75268014D01*
X147863441Y-75310853D01*
X147862256Y-75373575D01*
X147862057Y-75438941D01*
X147862018Y-75520948D01*
X147860614Y-75578996D01*
X147855914Y-75618145D01*
X147845987Y-75643460D01*
X147828903Y-75660003D01*
X147802732Y-75672836D01*
X147767775Y-75686171D01*
X147729596Y-75700687D01*
X147734141Y-75443069D01*
X147735971Y-75350199D01*
X147738112Y-75281569D01*
X147741181Y-75232391D01*
X147745794Y-75197878D01*
X147752568Y-75173242D01*
X147762119Y-75153696D01*
X147773634Y-75136450D01*
X147829190Y-75081360D01*
X147896980Y-75049502D01*
X147970713Y-75041871D01*
X148044093Y-75059460D01*
G37*
X148044093Y-75059460D02*
X148090672Y-75086403D01*
X148123057Y-75113146D01*
X148146742Y-75141164D01*
X148163059Y-75175428D01*
X148173339Y-75220907D01*
X148178914Y-75282572D01*
X148181116Y-75365391D01*
X148181371Y-75424926D01*
X148181371Y-75644071D01*
X148119686Y-75671724D01*
X148058000Y-75699377D01*
X148050743Y-75459350D01*
X148047744Y-75369708D01*
X148044598Y-75304642D01*
X148040701Y-75259706D01*
X148035447Y-75230450D01*
X148028231Y-75212428D01*
X148018450Y-75201191D01*
X148015312Y-75198759D01*
X147967761Y-75179763D01*
X147919697Y-75187280D01*
X147891086Y-75207223D01*
X147879447Y-75221355D01*
X147871391Y-75239900D01*
X147866271Y-75268014D01*
X147863441Y-75310853D01*
X147862256Y-75373575D01*
X147862057Y-75438941D01*
X147862018Y-75520948D01*
X147860614Y-75578996D01*
X147855914Y-75618145D01*
X147845987Y-75643460D01*
X147828903Y-75660003D01*
X147802732Y-75672836D01*
X147767775Y-75686171D01*
X147729596Y-75700687D01*
X147734141Y-75443069D01*
X147735971Y-75350199D01*
X147738112Y-75281569D01*
X147741181Y-75232391D01*
X147745794Y-75197878D01*
X147752568Y-75173242D01*
X147762119Y-75153696D01*
X147773634Y-75136450D01*
X147829190Y-75081360D01*
X147896980Y-75049502D01*
X147970713Y-75041871D01*
X148044093Y-75059460D01*
G36*
X146927744Y-75051598D02*
G01*
X146983201Y-75079248D01*
X147032148Y-75130160D01*
X147045629Y-75149018D01*
X147060314Y-75173695D01*
X147069842Y-75200496D01*
X147075293Y-75236267D01*
X147077747Y-75287849D01*
X147078286Y-75355947D01*
X147075852Y-75449268D01*
X147067394Y-75519337D01*
X147051174Y-75571611D01*
X147025454Y-75611549D01*
X146988497Y-75644609D01*
X146985782Y-75646566D01*
X146949360Y-75666588D01*
X146905502Y-75676495D01*
X146849724Y-75678937D01*
X146759048Y-75678937D01*
X146759010Y-75766963D01*
X146758166Y-75815988D01*
X146753024Y-75844745D01*
X146739587Y-75861991D01*
X146713858Y-75876488D01*
X146707679Y-75879449D01*
X146678764Y-75893328D01*
X146656376Y-75902094D01*
X146639729Y-75902851D01*
X146628036Y-75892703D01*
X146620510Y-75868753D01*
X146616366Y-75828106D01*
X146614815Y-75767866D01*
X146615071Y-75685135D01*
X146616349Y-75577019D01*
X146616748Y-75544680D01*
X146618185Y-75433204D01*
X146619472Y-75360283D01*
X146758971Y-75360283D01*
X146759755Y-75422179D01*
X146763240Y-75462677D01*
X146771124Y-75489388D01*
X146785105Y-75509924D01*
X146794597Y-75519940D01*
X146833404Y-75549247D01*
X146867763Y-75551632D01*
X146903216Y-75527430D01*
X146904114Y-75526537D01*
X146918539Y-75507833D01*
X146927313Y-75482412D01*
X146931739Y-75443264D01*
X146933118Y-75383377D01*
X146933143Y-75370110D01*
X146929812Y-75287581D01*
X146918969Y-75230371D01*
X146899340Y-75195446D01*
X146869650Y-75179774D01*
X146852491Y-75178194D01*
X146811766Y-75185606D01*
X146783832Y-75210010D01*
X146767017Y-75254660D01*
X146759650Y-75322810D01*
X146758971Y-75360283D01*
X146619472Y-75360283D01*
X146619708Y-75346925D01*
X146621677Y-75282013D01*
X146624450Y-75234638D01*
X146628388Y-75200970D01*
X146633849Y-75177178D01*
X146641192Y-75159433D01*
X146650777Y-75143904D01*
X146654887Y-75138061D01*
X146709405Y-75082865D01*
X146778336Y-75051570D01*
X146858072Y-75042845D01*
X146927744Y-75051598D01*
G37*
X146927744Y-75051598D02*
X146983201Y-75079248D01*
X147032148Y-75130160D01*
X147045629Y-75149018D01*
X147060314Y-75173695D01*
X147069842Y-75200496D01*
X147075293Y-75236267D01*
X147077747Y-75287849D01*
X147078286Y-75355947D01*
X147075852Y-75449268D01*
X147067394Y-75519337D01*
X147051174Y-75571611D01*
X147025454Y-75611549D01*
X146988497Y-75644609D01*
X146985782Y-75646566D01*
X146949360Y-75666588D01*
X146905502Y-75676495D01*
X146849724Y-75678937D01*
X146759048Y-75678937D01*
X146759010Y-75766963D01*
X146758166Y-75815988D01*
X146753024Y-75844745D01*
X146739587Y-75861991D01*
X146713858Y-75876488D01*
X146707679Y-75879449D01*
X146678764Y-75893328D01*
X146656376Y-75902094D01*
X146639729Y-75902851D01*
X146628036Y-75892703D01*
X146620510Y-75868753D01*
X146616366Y-75828106D01*
X146614815Y-75767866D01*
X146615071Y-75685135D01*
X146616349Y-75577019D01*
X146616748Y-75544680D01*
X146618185Y-75433204D01*
X146619472Y-75360283D01*
X146758971Y-75360283D01*
X146759755Y-75422179D01*
X146763240Y-75462677D01*
X146771124Y-75489388D01*
X146785105Y-75509924D01*
X146794597Y-75519940D01*
X146833404Y-75549247D01*
X146867763Y-75551632D01*
X146903216Y-75527430D01*
X146904114Y-75526537D01*
X146918539Y-75507833D01*
X146927313Y-75482412D01*
X146931739Y-75443264D01*
X146933118Y-75383377D01*
X146933143Y-75370110D01*
X146929812Y-75287581D01*
X146918969Y-75230371D01*
X146899340Y-75195446D01*
X146869650Y-75179774D01*
X146852491Y-75178194D01*
X146811766Y-75185606D01*
X146783832Y-75210010D01*
X146767017Y-75254660D01*
X146759650Y-75322810D01*
X146758971Y-75360283D01*
X146619472Y-75360283D01*
X146619708Y-75346925D01*
X146621677Y-75282013D01*
X146624450Y-75234638D01*
X146628388Y-75200970D01*
X146633849Y-75177178D01*
X146641192Y-75159433D01*
X146650777Y-75143904D01*
X146654887Y-75138061D01*
X146709405Y-75082865D01*
X146778336Y-75051570D01*
X146858072Y-75042845D01*
X146927744Y-75051598D01*
D12*
X163910000Y-111845600D02*
G75*
G03X163910000Y-111845600I-2620000J0D01*
G01*
X160250000Y-111845600D02*
X158710000Y-111845600D01*
X163870000Y-111845600D02*
X162330000Y-111845600D01*
X160250000Y-111885600D02*
X158710000Y-111885600D01*
X163870000Y-111885600D02*
X162330000Y-111885600D01*
X163869000Y-111925600D02*
X162330000Y-111925600D01*
X160250000Y-111925600D02*
X158711000Y-111925600D01*
X163868000Y-111965600D02*
X162330000Y-111965600D01*
X160250000Y-111965600D02*
X158712000Y-111965600D01*
X163866000Y-112005600D02*
X162330000Y-112005600D01*
X160250000Y-112005600D02*
X158714000Y-112005600D01*
X163863000Y-112045600D02*
X162330000Y-112045600D01*
X160250000Y-112045600D02*
X158717000Y-112045600D01*
X163859000Y-112085600D02*
X162330000Y-112085600D01*
X160250000Y-112085600D02*
X158721000Y-112085600D01*
X163855000Y-112125600D02*
X162330000Y-112125600D01*
X160250000Y-112125600D02*
X158725000Y-112125600D01*
X163851000Y-112165600D02*
X162330000Y-112165600D01*
X160250000Y-112165600D02*
X158729000Y-112165600D01*
X163846000Y-112205600D02*
X162330000Y-112205600D01*
X160250000Y-112205600D02*
X158734000Y-112205600D01*
X163840000Y-112245600D02*
X162330000Y-112245600D01*
X160250000Y-112245600D02*
X158740000Y-112245600D01*
X163833000Y-112285600D02*
X162330000Y-112285600D01*
X160250000Y-112285600D02*
X158747000Y-112285600D01*
X163826000Y-112325600D02*
X162330000Y-112325600D01*
X160250000Y-112325600D02*
X158754000Y-112325600D01*
X163818000Y-112365600D02*
X162330000Y-112365600D01*
X160250000Y-112365600D02*
X158762000Y-112365600D01*
X163810000Y-112405600D02*
X162330000Y-112405600D01*
X160250000Y-112405600D02*
X158770000Y-112405600D01*
X163801000Y-112445600D02*
X162330000Y-112445600D01*
X160250000Y-112445600D02*
X158779000Y-112445600D01*
X163791000Y-112485600D02*
X162330000Y-112485600D01*
X160250000Y-112485600D02*
X158789000Y-112485600D01*
X163781000Y-112525600D02*
X162330000Y-112525600D01*
X160250000Y-112525600D02*
X158799000Y-112525600D01*
X163770000Y-112566600D02*
X162330000Y-112566600D01*
X160250000Y-112566600D02*
X158810000Y-112566600D01*
X163758000Y-112606600D02*
X162330000Y-112606600D01*
X160250000Y-112606600D02*
X158822000Y-112606600D01*
X163745000Y-112646600D02*
X162330000Y-112646600D01*
X160250000Y-112646600D02*
X158835000Y-112646600D01*
X163732000Y-112686600D02*
X162330000Y-112686600D01*
X160250000Y-112686600D02*
X158848000Y-112686600D01*
X163718000Y-112726600D02*
X162330000Y-112726600D01*
X160250000Y-112726600D02*
X158862000Y-112726600D01*
X163704000Y-112766600D02*
X162330000Y-112766600D01*
X160250000Y-112766600D02*
X158876000Y-112766600D01*
X163688000Y-112806600D02*
X162330000Y-112806600D01*
X160250000Y-112806600D02*
X158892000Y-112806600D01*
X163672000Y-112846600D02*
X162330000Y-112846600D01*
X160250000Y-112846600D02*
X158908000Y-112846600D01*
X163655000Y-112886600D02*
X162330000Y-112886600D01*
X160250000Y-112886600D02*
X158925000Y-112886600D01*
X163638000Y-112926600D02*
X162330000Y-112926600D01*
X160250000Y-112926600D02*
X158942000Y-112926600D01*
X163619000Y-112966600D02*
X162330000Y-112966600D01*
X160250000Y-112966600D02*
X158961000Y-112966600D01*
X163600000Y-113006600D02*
X162330000Y-113006600D01*
X160250000Y-113006600D02*
X158980000Y-113006600D01*
X163580000Y-113046600D02*
X162330000Y-113046600D01*
X160250000Y-113046600D02*
X159000000Y-113046600D01*
X163558000Y-113086600D02*
X162330000Y-113086600D01*
X160250000Y-113086600D02*
X159022000Y-113086600D01*
X163537000Y-113126600D02*
X162330000Y-113126600D01*
X160250000Y-113126600D02*
X159043000Y-113126600D01*
X163514000Y-113166600D02*
X162330000Y-113166600D01*
X160250000Y-113166600D02*
X159066000Y-113166600D01*
X163490000Y-113206600D02*
X162330000Y-113206600D01*
X160250000Y-113206600D02*
X159090000Y-113206600D01*
X163465000Y-113246600D02*
X162330000Y-113246600D01*
X160250000Y-113246600D02*
X159115000Y-113246600D01*
X163439000Y-113286600D02*
X162330000Y-113286600D01*
X160250000Y-113286600D02*
X159141000Y-113286600D01*
X163412000Y-113326600D02*
X162330000Y-113326600D01*
X160250000Y-113326600D02*
X159168000Y-113326600D01*
X163385000Y-113366600D02*
X162330000Y-113366600D01*
X160250000Y-113366600D02*
X159195000Y-113366600D01*
X163355000Y-113406600D02*
X162330000Y-113406600D01*
X160250000Y-113406600D02*
X159225000Y-113406600D01*
X163325000Y-113446600D02*
X162330000Y-113446600D01*
X160250000Y-113446600D02*
X159255000Y-113446600D01*
X163294000Y-113486600D02*
X162330000Y-113486600D01*
X160250000Y-113486600D02*
X159286000Y-113486600D01*
X163261000Y-113526600D02*
X162330000Y-113526600D01*
X160250000Y-113526600D02*
X159319000Y-113526600D01*
X163227000Y-113566600D02*
X162330000Y-113566600D01*
X160250000Y-113566600D02*
X159353000Y-113566600D01*
X163191000Y-113606600D02*
X162330000Y-113606600D01*
X160250000Y-113606600D02*
X159389000Y-113606600D01*
X163154000Y-113646600D02*
X162330000Y-113646600D01*
X160250000Y-113646600D02*
X159426000Y-113646600D01*
X163116000Y-113686600D02*
X162330000Y-113686600D01*
X160250000Y-113686600D02*
X159464000Y-113686600D01*
X163075000Y-113726600D02*
X162330000Y-113726600D01*
X160250000Y-113726600D02*
X159505000Y-113726600D01*
X163033000Y-113766600D02*
X162330000Y-113766600D01*
X160250000Y-113766600D02*
X159547000Y-113766600D01*
X162989000Y-113806600D02*
X162330000Y-113806600D01*
X160250000Y-113806600D02*
X159591000Y-113806600D01*
X162943000Y-113846600D02*
X162330000Y-113846600D01*
X160250000Y-113846600D02*
X159637000Y-113846600D01*
X162895000Y-113886600D02*
X159685000Y-113886600D01*
X162844000Y-113926600D02*
X159736000Y-113926600D01*
X162790000Y-113966600D02*
X159790000Y-113966600D01*
X162733000Y-114006600D02*
X159847000Y-114006600D01*
X162673000Y-114046600D02*
X159907000Y-114046600D01*
X162609000Y-114086600D02*
X159971000Y-114086600D01*
X162541000Y-114126600D02*
X160039000Y-114126600D01*
X162468000Y-114166600D02*
X160112000Y-114166600D01*
X162388000Y-114206600D02*
X160192000Y-114206600D01*
X162301000Y-114246600D02*
X160279000Y-114246600D01*
X162205000Y-114286600D02*
X160375000Y-114286600D01*
X162095000Y-114326600D02*
X160485000Y-114326600D01*
X161967000Y-114366600D02*
X160613000Y-114366600D01*
X161808000Y-114406600D02*
X160772000Y-114406600D01*
X161574000Y-114446600D02*
X161006000Y-114446600D01*
X162765000Y-109040825D02*
X162765000Y-109540825D01*
X163015000Y-109290825D02*
X162515000Y-109290825D01*
X161702000Y-95092500D02*
X161702000Y-91252500D01*
X159862000Y-95092500D02*
X159862000Y-91252500D01*
X158654000Y-95092500D02*
X158654000Y-91252500D01*
X156814000Y-95092500D02*
X156814000Y-91252500D01*
D10*
X144997600Y-91294000D02*
X144697600Y-91294000D01*
X144697600Y-91294000D02*
X144697600Y-90994000D01*
X144997600Y-84494000D02*
X144697600Y-84494000D01*
X144697600Y-84494000D02*
X144697600Y-84794000D01*
X154397600Y-84494000D02*
X154697600Y-84494000D01*
X154697600Y-84494000D02*
X154697600Y-84794000D01*
X154397600Y-91294000D02*
X154697600Y-91294000D01*
X154697600Y-91294000D02*
X154697600Y-90994000D01*
D12*
X134798000Y-80724700D02*
X136128000Y-80724700D01*
X134798000Y-82054700D02*
X134798000Y-80724700D01*
X137398000Y-80724700D02*
X139998000Y-80724700D01*
X137398000Y-83324700D02*
X137398000Y-80724700D01*
X134798000Y-83324700D02*
X137398000Y-83324700D01*
X139998000Y-80724700D02*
X139998000Y-88464700D01*
X134798000Y-83324700D02*
X134798000Y-88464700D01*
X134798000Y-88464700D02*
X139998000Y-88464700D01*
D11*
X141625666Y-109776466D02*
X141625666Y-110276466D01*
X141592333Y-110376466D01*
X141525666Y-110443133D01*
X141425666Y-110476466D01*
X141359000Y-110476466D01*
X141925666Y-109843133D02*
X141959000Y-109809800D01*
X142025666Y-109776466D01*
X142192333Y-109776466D01*
X142259000Y-109809800D01*
X142292333Y-109843133D01*
X142325666Y-109909800D01*
X142325666Y-109976466D01*
X142292333Y-110076466D01*
X141892333Y-110476466D01*
X142325666Y-110476466D01*
X135301066Y-109776466D02*
X135301066Y-110276466D01*
X135267733Y-110376466D01*
X135201066Y-110443133D01*
X135101066Y-110476466D01*
X135034400Y-110476466D01*
X136001066Y-110476466D02*
X135601066Y-110476466D01*
X135801066Y-110476466D02*
X135801066Y-109776466D01*
X135734400Y-109876466D01*
X135667733Y-109943133D01*
X135601066Y-109976466D01*
X159142133Y-79700380D02*
X158808800Y-79224190D01*
X158570704Y-79700380D02*
X158570704Y-78700380D01*
X158951657Y-78700380D01*
X159046895Y-78748000D01*
X159094514Y-78795619D01*
X159142133Y-78890857D01*
X159142133Y-79033714D01*
X159094514Y-79128952D01*
X159046895Y-79176571D01*
X158951657Y-79224190D01*
X158570704Y-79224190D01*
X160046895Y-78700380D02*
X159570704Y-78700380D01*
X159523085Y-79176571D01*
X159570704Y-79128952D01*
X159665942Y-79081333D01*
X159904038Y-79081333D01*
X159999276Y-79128952D01*
X160046895Y-79176571D01*
X160094514Y-79271809D01*
X160094514Y-79509904D01*
X160046895Y-79605142D01*
X159999276Y-79652761D01*
X159904038Y-79700380D01*
X159665942Y-79700380D01*
X159570704Y-79652761D01*
X159523085Y-79605142D01*
X162544933Y-86160966D02*
X162311600Y-85827633D01*
X162144933Y-86160966D02*
X162144933Y-85460966D01*
X162411600Y-85460966D01*
X162478266Y-85494300D01*
X162511600Y-85527633D01*
X162544933Y-85594300D01*
X162544933Y-85694300D01*
X162511600Y-85760966D01*
X162478266Y-85794300D01*
X162411600Y-85827633D01*
X162144933Y-85827633D01*
X163144933Y-85694300D02*
X163144933Y-86160966D01*
X162978266Y-85427633D02*
X162811600Y-85927633D01*
X163244933Y-85927633D01*
X155686933Y-86160966D02*
X155453600Y-85827633D01*
X155286933Y-86160966D02*
X155286933Y-85460966D01*
X155553600Y-85460966D01*
X155620266Y-85494300D01*
X155653600Y-85527633D01*
X155686933Y-85594300D01*
X155686933Y-85694300D01*
X155653600Y-85760966D01*
X155620266Y-85794300D01*
X155553600Y-85827633D01*
X155286933Y-85827633D01*
X155920266Y-85460966D02*
X156353600Y-85460966D01*
X156120266Y-85727633D01*
X156220266Y-85727633D01*
X156286933Y-85760966D01*
X156320266Y-85794300D01*
X156353600Y-85860966D01*
X156353600Y-86027633D01*
X156320266Y-86094300D01*
X156286933Y-86127633D01*
X156220266Y-86160966D01*
X156020266Y-86160966D01*
X155953600Y-86127633D01*
X155920266Y-86094300D01*
X156419561Y-98493718D02*
X156324323Y-98446099D01*
X156229085Y-98350860D01*
X156086228Y-98208003D01*
X155990990Y-98160384D01*
X155895752Y-98160384D01*
X155943371Y-98398479D02*
X155848133Y-98350860D01*
X155752895Y-98255622D01*
X155705276Y-98065146D01*
X155705276Y-97731813D01*
X155752895Y-97541337D01*
X155848133Y-97446099D01*
X155943371Y-97398479D01*
X156133847Y-97398479D01*
X156229085Y-97446099D01*
X156324323Y-97541337D01*
X156371942Y-97731813D01*
X156371942Y-98065146D01*
X156324323Y-98255622D01*
X156229085Y-98350860D01*
X156133847Y-98398479D01*
X155943371Y-98398479D01*
X156705276Y-97398479D02*
X157324323Y-97398479D01*
X156990990Y-97779432D01*
X157133847Y-97779432D01*
X157229085Y-97827051D01*
X157276704Y-97874670D01*
X157324323Y-97969908D01*
X157324323Y-98208003D01*
X157276704Y-98303241D01*
X157229085Y-98350860D01*
X157133847Y-98398479D01*
X156848133Y-98398479D01*
X156752895Y-98350860D01*
X156705276Y-98303241D01*
X150657561Y-102737619D02*
X150562323Y-102690000D01*
X150467085Y-102594761D01*
X150324228Y-102451904D01*
X150228990Y-102404285D01*
X150133752Y-102404285D01*
X150181371Y-102642380D02*
X150086133Y-102594761D01*
X149990895Y-102499523D01*
X149943276Y-102309047D01*
X149943276Y-101975714D01*
X149990895Y-101785238D01*
X150086133Y-101690000D01*
X150181371Y-101642380D01*
X150371847Y-101642380D01*
X150467085Y-101690000D01*
X150562323Y-101785238D01*
X150609942Y-101975714D01*
X150609942Y-102309047D01*
X150562323Y-102499523D01*
X150467085Y-102594761D01*
X150371847Y-102642380D01*
X150181371Y-102642380D01*
X150990895Y-101737619D02*
X151038514Y-101690000D01*
X151133752Y-101642380D01*
X151371847Y-101642380D01*
X151467085Y-101690000D01*
X151514704Y-101737619D01*
X151562323Y-101832857D01*
X151562323Y-101928095D01*
X151514704Y-102070952D01*
X150943276Y-102642380D01*
X151562323Y-102642380D01*
X139837161Y-102737619D02*
X139741923Y-102690000D01*
X139646685Y-102594761D01*
X139503828Y-102451904D01*
X139408590Y-102404285D01*
X139313352Y-102404285D01*
X139360971Y-102642380D02*
X139265733Y-102594761D01*
X139170495Y-102499523D01*
X139122876Y-102309047D01*
X139122876Y-101975714D01*
X139170495Y-101785238D01*
X139265733Y-101690000D01*
X139360971Y-101642380D01*
X139551447Y-101642380D01*
X139646685Y-101690000D01*
X139741923Y-101785238D01*
X139789542Y-101975714D01*
X139789542Y-102309047D01*
X139741923Y-102499523D01*
X139646685Y-102594761D01*
X139551447Y-102642380D01*
X139360971Y-102642380D01*
X140741923Y-102642380D02*
X140170495Y-102642380D01*
X140456209Y-102642380D02*
X140456209Y-101642380D01*
X140360971Y-101785238D01*
X140265733Y-101880476D01*
X140170495Y-101928095D01*
X147979266Y-109776466D02*
X147979266Y-110276466D01*
X147945933Y-110376466D01*
X147879266Y-110443133D01*
X147779266Y-110476466D01*
X147712600Y-110476466D01*
X148245933Y-109776466D02*
X148679266Y-109776466D01*
X148445933Y-110043133D01*
X148545933Y-110043133D01*
X148612600Y-110076466D01*
X148645933Y-110109800D01*
X148679266Y-110176466D01*
X148679266Y-110343133D01*
X148645933Y-110409800D01*
X148612600Y-110443133D01*
X148545933Y-110476466D01*
X148345933Y-110476466D01*
X148279266Y-110443133D01*
X148245933Y-110409800D01*
X141108133Y-95568842D02*
X141060514Y-95616461D01*
X140917657Y-95664080D01*
X140822419Y-95664080D01*
X140679561Y-95616461D01*
X140584323Y-95521223D01*
X140536704Y-95425985D01*
X140489085Y-95235509D01*
X140489085Y-95092652D01*
X140536704Y-94902176D01*
X140584323Y-94806938D01*
X140679561Y-94711700D01*
X140822419Y-94664080D01*
X140917657Y-94664080D01*
X141060514Y-94711700D01*
X141108133Y-94759319D01*
X141441466Y-94664080D02*
X142060514Y-94664080D01*
X141727180Y-95045033D01*
X141870038Y-95045033D01*
X141965276Y-95092652D01*
X142012895Y-95140271D01*
X142060514Y-95235509D01*
X142060514Y-95473604D01*
X142012895Y-95568842D01*
X141965276Y-95616461D01*
X141870038Y-95664080D01*
X141584323Y-95664080D01*
X141489085Y-95616461D01*
X141441466Y-95568842D01*
X137236333Y-95099142D02*
X137188714Y-95146761D01*
X137045857Y-95194380D01*
X136950619Y-95194380D01*
X136807761Y-95146761D01*
X136712523Y-95051523D01*
X136664904Y-94956285D01*
X136617285Y-94765809D01*
X136617285Y-94622952D01*
X136664904Y-94432476D01*
X136712523Y-94337238D01*
X136807761Y-94242000D01*
X136950619Y-94194380D01*
X137045857Y-94194380D01*
X137188714Y-94242000D01*
X137236333Y-94289619D01*
X137617285Y-94289619D02*
X137664904Y-94242000D01*
X137760142Y-94194380D01*
X137998238Y-94194380D01*
X138093476Y-94242000D01*
X138141095Y-94289619D01*
X138188714Y-94384857D01*
X138188714Y-94480095D01*
X138141095Y-94622952D01*
X137569666Y-95194380D01*
X138188714Y-95194380D01*
X163002933Y-115774742D02*
X162955314Y-115822361D01*
X162812457Y-115869980D01*
X162717219Y-115869980D01*
X162574361Y-115822361D01*
X162479123Y-115727123D01*
X162431504Y-115631885D01*
X162383885Y-115441409D01*
X162383885Y-115298552D01*
X162431504Y-115108076D01*
X162479123Y-115012838D01*
X162574361Y-114917600D01*
X162717219Y-114869980D01*
X162812457Y-114869980D01*
X162955314Y-114917600D01*
X163002933Y-114965219D01*
X163955314Y-115869980D02*
X163383885Y-115869980D01*
X163669600Y-115869980D02*
X163669600Y-114869980D01*
X163574361Y-115012838D01*
X163479123Y-115108076D01*
X163383885Y-115155695D01*
X162544933Y-93421666D02*
X162311600Y-93088333D01*
X162144933Y-93421666D02*
X162144933Y-92721666D01*
X162411600Y-92721666D01*
X162478266Y-92755000D01*
X162511600Y-92788333D01*
X162544933Y-92855000D01*
X162544933Y-92955000D01*
X162511600Y-93021666D01*
X162478266Y-93055000D01*
X162411600Y-93088333D01*
X162144933Y-93088333D01*
X163211600Y-93421666D02*
X162811600Y-93421666D01*
X163011600Y-93421666D02*
X163011600Y-92721666D01*
X162944933Y-92821666D01*
X162878266Y-92888333D01*
X162811600Y-92921666D01*
X155737733Y-93421666D02*
X155504400Y-93088333D01*
X155337733Y-93421666D02*
X155337733Y-92721666D01*
X155604400Y-92721666D01*
X155671066Y-92755000D01*
X155704400Y-92788333D01*
X155737733Y-92855000D01*
X155737733Y-92955000D01*
X155704400Y-93021666D01*
X155671066Y-93055000D01*
X155604400Y-93088333D01*
X155337733Y-93088333D01*
X156004400Y-92788333D02*
X156037733Y-92755000D01*
X156104400Y-92721666D01*
X156271066Y-92721666D01*
X156337733Y-92755000D01*
X156371066Y-92788333D01*
X156404400Y-92855000D01*
X156404400Y-92921666D01*
X156371066Y-93021666D01*
X155971066Y-93421666D01*
X156404400Y-93421666D01*
X141986095Y-83526380D02*
X141986095Y-84335904D01*
X142033714Y-84431142D01*
X142081333Y-84478761D01*
X142176571Y-84526380D01*
X142367047Y-84526380D01*
X142462285Y-84478761D01*
X142509904Y-84431142D01*
X142557523Y-84335904D01*
X142557523Y-83526380D01*
X143557523Y-84526380D02*
X142986095Y-84526380D01*
X143271809Y-84526380D02*
X143271809Y-83526380D01*
X143176571Y-83669238D01*
X143081333Y-83764476D01*
X142986095Y-83812095D01*
X137069666Y-78827380D02*
X137069666Y-79541666D01*
X137022047Y-79684523D01*
X136926809Y-79779761D01*
X136783952Y-79827380D01*
X136688714Y-79827380D01*
X137974428Y-79160714D02*
X137974428Y-79827380D01*
X137736333Y-78779761D02*
X137498238Y-79494047D01*
X138117285Y-79494047D01*
M02*
