M48
; DRILL file {KiCad 5.1.5-52549c5~86~ubuntu19.04.1} date Út 5. května 2020, 22:35:50 CEST
; FORMAT={-:-/ absolute / inch / decimal}
; #@! TF.CreationDate,2020-05-05T22:35:50+02:00
; #@! TF.GenerationSoftware,Kicad,Pcbnew,5.1.5-52549c5~86~ubuntu19.04.1
; #@! TF.FileFunction,Plated,1,2,PTH
FMAT,2
INCH
T1C0.0276
T2C0.0315
T3C0.0394
T4C0.0433
%
G90
G05
T1
X6.21Y-3.486
X6.33Y-3.282
X6.33Y-3.5682
X6.33Y-3.7682
X6.172Y-3.186
X6.372Y-3.186
X6.21Y-3.286
X6.21Y-3.5682
X6.21Y-3.7682
X6.33Y-3.482
T2
X6.35Y-4.364
X6.35Y-4.4427
X5.562Y-3.6405
X5.562Y-3.8373
X5.4096Y-3.6405
X5.4096Y-3.8373
T3
X5.744Y-3.31
X5.744Y-3.61
X5.844Y-3.31
X5.844Y-3.61
X5.944Y-3.31
X5.944Y-3.61
X6.044Y-3.31
X6.044Y-3.61
X5.406Y-4.15
X5.506Y-4.15
X5.606Y-4.15
X5.832Y-4.15
X5.932Y-4.15
X6.032Y-4.15
X5.3594Y-3.2305
X5.3594Y-3.3305
X5.3594Y-3.4305
X5.4594Y-3.2305
X5.4594Y-3.3305
X5.4594Y-3.4305
X6.306Y-3.934
X6.306Y-4.034
X6.306Y-4.134
X5.7806Y-3.1925
X5.8791Y-3.1925
X5.9775Y-3.1925
T4
X5.3722Y-4.4457
X5.4722Y-4.4457
X5.621Y-4.4457
X5.721Y-4.4457
X5.871Y-4.4457
X5.971Y-4.4457
X6.071Y-4.4457
X6.171Y-4.4457
X5.7511Y-3.7798
X5.7511Y-3.957
X6.007Y-3.7798
X6.007Y-3.957
T4
G00X5.6901Y-2.8834
M15
G01X5.6901Y-2.911
M16
G05
G00X6.068Y-2.8834
M15
G01X6.068Y-2.911
M16
G05
T0
M30
